<svg fill="none" height="16" viewBox="0 0 16 16" width="16" xmlns="http://www.w3.org/2000/svg"><g stroke="#e3336f"><circle cx="8" cy="8" fill="#e3336f" opacity=".2" r="7.5"/><path d="m10.7166 5.06402c-.5469-.50635-1.23566-.86175-1.99996-1-.23251-.04206-.47201-.06402-.71664-.06402s-.48414.02196-.71665.06402c-.76429.13825-1.45303.49365-2 1 0 0-1.28336 2.93598 2.71665 2.93598 4 0 2.7166 2.936 2.7166 2.936-.5469.5063-1.23566.8617-1.99996 1-.23251.042-.47201.064-.71664.064s-.48414-.022-.71665-.064c-.76429-.1383-1.45303-.4937-2-1" stroke-linecap="round" stroke-linejoin="round" stroke-width="2"/></g></svg>