<svg width="862" height="791" viewBox="0 0 862 791" fill="none" xmlns="http://www.w3.org/2000/svg">
<path d="M332.36 179.155L384.956 87.9469L342.946 15.1832" stroke="#EFEFEF" stroke-opacity="0.1" stroke-width="4"/>
<path d="M490.243 88.0013L384.956 87.9469L342.946 15.1832M490.243 88.0013L448.233 15.2377M490.243 88.0013L542.839 -3.20711L500.829 -75.9708M448.233 15.2377L342.946 15.1832M448.233 15.2377L500.829 -75.9708M342.946 15.1832L395.542 -76.0253L500.829 -75.9708" stroke="#EFEFEF" stroke-opacity="0.1" stroke-width="4"/>
<path d="M648.126 -3.15258L542.839 -3.20706L500.829 -75.9708M648.126 -3.15258L606.116 -75.9163M648.126 -3.15258L700.722 -94.361L658.712 -167.125M606.116 -75.9163L500.829 -75.9708M606.116 -75.9163L658.712 -167.125M500.829 -75.9708L553.425 -167.179L658.712 -167.125" stroke="#EFEFEF" stroke-opacity="0.1" stroke-width="4"/>
<path d="M332.458 179.326L374.468 252.09" stroke="#EFEFEF" stroke-opacity="0.1" stroke-width="4"/>
<path d="M479.755 252.144L374.468 252.09L332.458 179.326M479.755 252.144L437.745 179.381M479.755 252.144L532.352 160.936L490.341 88.1723M437.745 179.381L332.458 179.326M437.745 179.381L490.341 88.1723M332.458 179.326L385.054 88.1178L490.341 88.1723" stroke="#EFEFEF" stroke-opacity="0.1" stroke-width="4"/>
<path d="M637.639 160.99L532.352 160.936L490.341 88.1723M637.639 160.99L595.628 88.2268M637.639 160.99L690.235 69.782L648.225 -2.98171M595.628 88.2268L490.341 88.1723M595.628 88.2268L648.225 -2.98171M490.341 88.1723L542.938 -3.03619L648.225 -2.98171" stroke="#EFEFEF" stroke-opacity="0.1" stroke-width="4"/>
<path d="M795.522 69.8365L690.235 69.782L648.225 -2.98168M795.522 69.8365L753.512 -2.9272M795.522 69.8365L848.118 -21.372L806.108 -94.1357M753.512 -2.9272L648.225 -2.98168M753.512 -2.9272L806.108 -94.1357M648.225 -2.98168L700.821 -94.1902L806.108 -94.1357" stroke="#EFEFEF" stroke-opacity="0.1" stroke-width="4"/>
<path d="M953.405 -21.3175L848.118 -21.372L806.108 -94.1357M953.405 -21.3175L911.395 -94.0812M953.405 -21.3175L1006 -112.526L963.991 -185.29M911.395 -94.0812L806.108 -94.1357M911.395 -94.0812L963.991 -185.29M806.108 -94.1357L858.704 -185.344L963.991 -185.29" stroke="#EFEFEF" stroke-opacity="0.1" stroke-width="4"/>
<path d="M311.384 507.441L206.097 507.387L164.087 434.623M311.384 507.441L269.374 434.678M311.384 507.441L363.981 416.233L321.971 343.469M269.374 434.678L164.087 434.623M269.374 434.678L321.971 343.469M164.087 434.623L216.684 343.415L321.971 343.469" stroke="#EFEFEF" stroke-opacity="0.1" stroke-width="4"/>
<path d="M469.268 416.288L363.981 416.233L321.971 343.469M469.268 416.288L427.258 343.524M469.268 416.288L521.864 325.079L479.854 252.315M427.258 343.524L321.971 343.469M427.258 343.524L479.854 252.315M321.971 343.469L374.567 252.261L479.854 252.315" stroke="#EFEFEF" stroke-opacity="0.1" stroke-width="4"/>
<path d="M627.151 325.134L521.864 325.079L479.854 252.315M627.151 325.134L585.141 252.37M627.151 325.134L679.748 233.925L637.737 161.161M585.141 252.37L479.854 252.315M585.141 252.37L637.737 161.161M479.854 252.315L532.45 161.107L637.737 161.161" stroke="#EFEFEF" stroke-opacity="0.1" stroke-width="4"/>
<path d="M785.034 233.98L679.747 233.925L637.737 161.161M785.034 233.98L743.024 161.216M785.034 233.98L837.631 142.771L795.621 70.0073M743.024 161.216L637.737 161.161M743.024 161.216L795.621 70.0073M637.737 161.161L690.334 69.9529L795.621 70.0073" stroke="#EFEFEF" stroke-opacity="0.1" stroke-width="4"/>
<path d="M942.918 142.826L837.631 142.771L795.621 70.0073M942.918 142.826L900.908 70.0618M942.918 142.826L995.514 51.6171L953.504 -21.1466M900.908 70.0618L795.621 70.0073M900.908 70.0618L953.504 -21.1466M795.621 70.0073L848.217 -21.2011L953.504 -21.1466" stroke="#EFEFEF" stroke-opacity="0.1" stroke-width="4"/>
<path d="M458.78 580.431L353.493 580.376L311.483 507.612M458.78 580.431L416.77 507.667M458.78 580.431L511.377 489.222L469.366 416.458M416.77 507.667L311.483 507.612M416.77 507.667L469.366 416.458M311.483 507.612L364.079 416.404L469.366 416.458" stroke="#EFEFEF" stroke-opacity="0.1" stroke-width="4"/>
<path d="M616.664 489.277L511.377 489.222L469.366 416.458M616.664 489.277L574.653 416.513M616.664 489.277L669.26 398.068L627.25 325.304M574.653 416.513L469.366 416.458M574.653 416.513L627.25 325.304M469.366 416.458L521.963 325.25L627.25 325.304" stroke="#EFEFEF" stroke-opacity="0.1" stroke-width="4"/>
<path d="M774.547 398.123L669.26 398.068L627.25 325.304M774.547 398.123L732.537 325.359M774.547 398.123L827.143 306.914L785.133 234.15M732.537 325.359L627.25 325.304M732.537 325.359L785.133 234.15M627.25 325.304L679.846 234.096L785.133 234.15" stroke="#EFEFEF" stroke-opacity="0.1" stroke-width="4"/>
<path d="M932.43 306.969L827.143 306.914L785.133 234.15M932.43 306.969L890.42 234.205M932.43 306.969L985.027 215.76L943.017 142.996M890.42 234.205L785.133 234.15M890.42 234.205L943.017 142.996M785.133 234.15L837.73 142.942L943.017 142.996" stroke="#EFEFEF" stroke-opacity="0.1" stroke-width="4"/>
<path d="M448.293 744.574L343.006 744.519L300.996 671.755M448.293 744.574L406.283 671.81M448.293 744.574L500.889 653.365L458.879 580.602M406.283 671.81L300.996 671.755M406.283 671.81L458.879 580.602M300.996 671.755L353.592 580.547L458.879 580.602" stroke="#EFEFEF" stroke-opacity="0.1" stroke-width="4"/>
<path d="M606.176 653.42L500.889 653.365L458.879 580.602M606.176 653.42L564.166 580.656M606.176 653.42L658.772 562.211L616.762 489.448M564.166 580.656L458.879 580.602M564.166 580.656L616.762 489.448M458.879 580.602L511.475 489.393L616.762 489.448" stroke="#EFEFEF" stroke-opacity="0.1" stroke-width="4"/>
<path d="M764.059 562.266L658.772 562.211L616.762 489.448M764.059 562.266L722.049 489.502M764.059 562.266L816.656 471.057L774.646 398.294M722.049 489.502L616.762 489.448M722.049 489.502L774.646 398.294M616.762 489.448L669.359 398.239L774.646 398.294" stroke="#EFEFEF" stroke-opacity="0.1" stroke-width="4"/>
<path d="M921.943 471.112L816.656 471.057L774.646 398.294M921.943 471.112L879.933 398.348M921.943 471.112L974.539 379.903L932.529 307.14M879.933 398.348L774.646 398.294M879.933 398.348L932.529 307.14M774.646 398.294L827.242 307.085L932.529 307.14" stroke="#EFEFEF" stroke-opacity="0.1" stroke-width="4"/>
</svg>
