<svg width="407" height="547" viewBox="0 0 407 547" fill="none" xmlns="http://www.w3.org/2000/svg">
<g opacity="0.1">
<path d="M68.909 142.025L2 103.349V41.6761M68.909 142.025V80.3523M68.909 142.025L135.818 103.349V41.6761M68.909 80.3523L2 41.6761M68.909 80.3523L135.818 41.6761M2 41.6761L68.909 3L135.818 41.6761" stroke="#999999" stroke-width="4"/>
<path d="M202.727 142.025L135.818 103.349V41.6761M202.727 142.025V80.3523M202.727 142.025L269.636 103.349V41.6761M202.727 80.3523L135.818 41.6761M202.727 80.3523L269.636 41.6761M135.818 41.6761L202.727 3L269.636 41.6761" stroke="#999999" stroke-width="4"/>
<path d="M336.545 142.025L269.636 103.349V41.6761M336.545 142.025V80.3523M336.545 142.025L403.454 103.349V41.6761M336.545 80.3523L269.636 41.6761M336.545 80.3523L403.454 41.6761M269.636 41.6761L336.545 3L403.454 41.6761" stroke="#999999" stroke-width="4"/>
<path d="M470.363 142.025L403.454 103.349V41.6761M470.363 142.025V80.3523M470.363 142.025L537.272 103.349V41.6761M470.363 80.3523L403.454 41.6761M470.363 80.3523L537.272 41.6761M403.454 41.6761L470.363 3L537.272 41.6761" stroke="#999999" stroke-width="4"/>
<path d="M135.818 242.519L68.9091 203.843V142.17M135.818 242.519V180.846M135.818 242.519L202.727 203.843V142.17M135.818 180.846L68.9091 142.17M135.818 180.846L202.727 142.17M68.9091 142.17L135.818 103.494L202.727 142.17" stroke="#999999" stroke-width="4"/>
<path d="M269.636 242.519L202.727 203.843V142.17M269.636 242.519V180.846M269.636 242.519L336.545 203.843V142.17M269.636 180.846L202.727 142.17M269.636 180.846L336.545 142.17M202.727 142.17L269.636 103.494L336.545 142.17" stroke="#999999" stroke-width="4"/>
<path d="M403.454 242.519L336.545 203.843V142.17M403.454 242.519V180.846M403.454 242.519L470.363 203.843V142.17M403.454 180.846L336.545 142.17M403.454 180.846L470.363 142.17M336.545 142.17L403.454 103.494L470.363 142.17" stroke="#999999" stroke-width="4"/>
<path d="M68.909 343.013L2 304.336V242.664M68.909 343.013V281.34M68.909 343.013L135.818 304.336V242.664M68.909 281.34L2 242.664M68.909 281.34L135.818 242.664M2 242.664L68.909 203.987L135.818 242.664" stroke="#999999" stroke-width="4"/>
<path d="M202.727 343.013L135.818 304.336V242.664M202.727 343.013V281.34M202.727 343.013L269.636 304.336V242.664M202.727 281.34L135.818 242.664M202.727 281.34L269.636 242.664M135.818 242.664L202.727 203.987L269.636 242.664" stroke="#999999" stroke-width="4"/>
<path d="M336.545 343.013L269.636 304.336V242.664M336.545 343.013V281.34M336.545 343.013L403.454 304.336V242.664M336.545 281.34L269.636 242.664M336.545 281.34L403.454 242.664M269.636 242.664L336.545 203.987L403.454 242.664" stroke="#999999" stroke-width="4"/>
<path d="M470.363 343.013L403.454 304.336V242.664M470.363 343.013V281.34M470.363 343.013L537.272 304.336V242.664M470.363 281.34L403.454 242.664M470.363 281.34L537.272 242.664M403.454 242.664L470.363 203.987L537.272 242.664" stroke="#999999" stroke-width="4"/>
<path d="M135.818 443.506L68.9091 404.83V343.157M135.818 443.506V381.833M135.818 443.506L202.727 404.83V343.157M135.818 381.833L68.9091 343.157M135.818 381.833L202.727 343.157M68.9091 343.157L135.818 304.481L202.727 343.157" stroke="#999999" stroke-width="4"/>
<path d="M269.636 443.506L202.727 404.83V343.157M269.636 443.506V381.833M269.636 443.506L336.545 404.83V343.157M269.636 381.833L202.727 343.157M269.636 381.833L336.545 343.157M202.727 343.157L269.636 304.481L336.545 343.157" stroke="#999999" stroke-width="4"/>
<path d="M403.454 443.506L336.545 404.83V343.157M403.454 443.506V381.833M403.454 443.506L470.363 404.83V343.157M403.454 381.833L336.545 343.157M403.454 381.833L470.363 343.157M336.545 343.157L403.454 304.481L470.363 343.157" stroke="#999999" stroke-width="4"/>
<path d="M68.909 544L2 505.324V443.651M68.909 544V482.327M68.909 544L135.818 505.324V443.651M68.909 482.327L2 443.651M68.909 482.327L135.818 443.651M2 443.651L68.909 404.975L135.818 443.651" stroke="#999999" stroke-width="4"/>
<path d="M202.727 544L135.818 505.324V443.651M202.727 544V482.327M202.727 544L269.636 505.324V443.651M202.727 482.327L135.818 443.651M202.727 482.327L269.636 443.651M135.818 443.651L202.727 404.975L269.636 443.651" stroke="#999999" stroke-width="4"/>
<path d="M336.545 544L269.636 505.324V443.651M336.545 544V482.327M336.545 544L403.454 505.324V443.651M336.545 482.327L269.636 443.651M336.545 482.327L403.454 443.651M269.636 443.651L336.545 404.975L403.454 443.651" stroke="#999999" stroke-width="4"/>
<path d="M470.363 544L403.454 505.324V443.651M470.363 544V482.327M470.363 544L537.272 505.324V443.651M470.363 482.327L403.454 443.651M470.363 482.327L537.272 443.651M403.454 443.651L470.363 404.975L537.272 443.651" stroke="#999999" stroke-width="4"/>
</g>
</svg>
