<svg width="273" height="268" viewBox="0 0 273 268" fill="none" xmlns="http://www.w3.org/2000/svg">
<g clip-path="url(#clip0)">
<path opacity="0.3" d="M236.098 230.302C230.619 236.069 225.434 239.788 221.338 242.726C173.189 277.263 116.215 267.195 104.107 264.737C86.2261 261.107 51.6634 254.089 26.6756 224.713C-11.1292 180.27 -5.24259 110.25 24.0813 64.0292C29.4456 55.5742 57.7788 8.6492 115.367 1.12466C150.218 -3.43001 190.844 5.75559 220.263 30.3956C282.017 82.1167 277.621 186.603 236.098 230.302Z" fill="url(#paint0_linear)"/>
<path d="M5.16823 4.58283C4.839 3.18332 6.8086 2.25289 8.0145 3.23062C20.2598 13.1565 49.6812 42.8821 42.3483 94.828C33.1491 160.003 48.8769 183.785 68.4532 198.29C68.4532 198.29 41.5672 191.468 24.6518 167.337C-16.8787 108.09 11.0152 29.4661 5.16823 4.58283Z" fill="url(#paint1_linear)"/>
<path d="M14.4861 24.9394C16.0184 32.1946 17.3836 39.473 18.4389 46.7833C19.5386 54.0878 20.3805 61.4173 20.9569 68.7594C21.5004 76.1025 21.8847 83.4533 21.9069 90.808C21.9668 98.1617 21.6617 105.51 21.3247 112.885C21.036 120.259 20.6962 127.686 21.2359 135.165C21.7669 142.628 23.3387 150.158 26.4573 157.216C27.2374 158.976 28.0571 160.728 28.9878 162.423C29.8828 164.134 30.8667 165.81 31.8843 167.47C33.9389 170.783 36.2522 173.984 38.83 177.023C44.0041 183.089 50.245 188.47 57.1193 193.023C57.8425 193.503 58.8794 193.385 59.4346 192.76C59.9801 192.147 59.8584 191.272 59.1681 190.787L59.1633 190.783C57.5277 189.635 55.9086 188.472 54.3561 187.25C53.5683 186.649 52.8132 186.02 52.0438 185.404C51.3032 184.763 50.5328 184.147 49.8164 183.487C46.8977 180.89 44.1924 178.119 41.7391 175.189C36.8035 169.356 32.8527 162.856 29.8597 156.118C28.4066 152.733 27.2451 149.262 26.3974 145.726C25.5526 142.188 25.0206 138.589 24.7271 134.962C24.1382 127.702 24.4046 120.349 24.6315 112.974C24.8478 105.597 25.0071 98.1829 24.8121 90.7752C24.7261 87.0708 24.563 83.3694 24.3235 79.6718C24.2164 77.8225 24.0667 75.9751 23.9219 74.1278C23.7558 72.2814 23.5791 70.4369 23.3841 68.5934C22.5895 61.2214 21.5342 53.8725 20.2115 46.5642C18.8482 39.2607 17.261 31.991 15.3522 24.7869C15.2971 24.5813 15.0596 24.452 14.8212 24.4993C14.5923 24.5437 14.4446 24.7396 14.4861 24.9394Z" fill="white"/>
<path d="M34.2488 160.584C32.7475 162.176 30.1069 161.718 29.2041 159.725C24.2203 148.726 12.9433 116.354 31.5686 79.0609C47.2965 47.5681 52.8316 28.9971 54.7597 20.3935C55.1672 18.5741 57.662 18.3328 58.4151 20.0383C66.7212 38.8602 88.6533 102.881 34.2488 160.584Z" fill="url(#paint2_linear)"/>
<path d="M31.5224 159.424C31.4693 159.433 31.4142 159.438 31.3573 159.437C30.8852 159.43 30.5086 159.041 30.5154 158.569C30.5241 158.035 31.5649 104.573 51.455 59.7978C51.6461 59.3674 52.1511 59.1724 52.5827 59.3635C53.0142 59.5556 53.2083 60.0594 53.0171 60.4908C33.2719 104.941 32.232 158.064 32.2243 158.595C32.2185 159.011 31.9163 159.353 31.5224 159.424Z" fill="white"/>
<path d="M140.991 174.952L136.184 218.043H191.945L184.682 174.952H140.991Z" fill="url(#paint3_linear)"/>
<path d="M43.9617 65.7057V167.257C43.9617 175.611 50.6207 182.442 58.9751 182.658C96.0789 183.615 225.849 185.934 261.169 185.414C267.24 185.324 272.157 180.468 272.333 174.401C273.014 150.809 274.12 94.0791 270.026 67.7413C269.164 62.1944 264.482 58.0471 258.869 57.8675C227.781 56.8734 90.2154 53.7163 54.9123 54.5087C48.8239 54.6458 43.9617 59.6174 43.9617 65.7057Z" fill="url(#paint4_linear)"/>
<path d="M50.3358 65.2116V161.693C50.3358 166.57 54.2528 170.544 59.1305 170.618L256.088 173.05C260.925 173.122 264.889 169.232 264.907 164.396L265.237 68.777C265.249 65.3197 262.494 62.4859 259.036 62.402L57.3888 58.3299C53.522 58.2363 50.3358 61.3441 50.3358 65.2116Z" fill="url(#paint5_linear)"/>
<path opacity="0.65" d="M266.39 177.048C266.388 177.048 266.387 177.048 266.385 177.048L50.331 173.368C50.1562 173.365 50.0172 173.22 50.0201 173.045C50.023 172.87 50.1659 172.732 50.3416 172.734L266.395 176.415C266.57 176.418 266.709 176.562 266.706 176.737C266.704 176.91 266.562 177.048 266.39 177.048Z" fill="white"/>
<path d="M203.956 226.859H122.346C120.129 226.859 118.464 225.281 118.892 223.586L119.94 219.445C120.255 218.2 121.625 217.286 123.253 217.235L201.928 214.78C203.628 214.727 205.133 215.63 205.504 216.924L207.391 223.518C207.882 225.232 206.21 226.859 203.956 226.859Z" fill="url(#paint6_linear)"/>
<path d="M50.3358 65.2116V161.693C50.3358 166.57 54.2528 170.544 59.1305 170.618L256.088 173.05C260.925 173.122 264.889 169.232 264.907 164.396L265.237 68.777C265.249 65.3197 262.494 62.4859 259.036 62.402L57.3888 58.3299C53.522 58.2363 50.3358 61.3441 50.3358 65.2116Z" fill="url(#paint7_linear)"/>
<path d="M265.198 79.9614L265.237 68.7557C265.249 65.2984 262.494 62.4753 259.036 62.3913L57.4409 58.324C53.5731 58.2304 50.4391 61.3431 50.4391 65.2106V79.9605H265.198V79.9614Z" fill="url(#paint8_linear)"/>
<path opacity="0.74" d="M63.3053 73.7582C64.5802 73.7582 65.6138 72.725 65.6138 71.4504C65.6138 70.1759 64.5802 69.1427 63.3053 69.1427C62.0303 69.1427 60.9968 70.1759 60.9968 71.4504C60.9968 72.725 62.0303 73.7582 63.3053 73.7582Z" fill="white"/>
<path opacity="0.74" d="M71.3043 73.7582C72.5793 73.7582 73.6128 72.725 73.6128 71.4504C73.6128 70.1759 72.5793 69.1427 71.3043 69.1427C70.0294 69.1427 68.9958 70.1759 68.9958 71.4504C68.9958 72.725 70.0294 73.7582 71.3043 73.7582Z" fill="white"/>
<path opacity="0.74" d="M79.0574 73.7582C80.3323 73.7582 81.3659 72.725 81.3659 71.4504C81.3659 70.1759 80.3323 69.1427 79.0574 69.1427C77.7825 69.1427 76.7489 70.1759 76.7489 71.4504C76.7489 72.725 77.7825 73.7582 79.0574 73.7582Z" fill="white"/>
<path opacity="0.42" d="M253.234 167.774L63.9115 165.046C61.0344 165.004 58.723 162.661 58.723 159.784V140.841C58.723 138.164 60.9098 136.003 63.5871 136.034L253.354 138.191C255.533 138.216 257.287 139.988 257.287 142.166V163.78C257.286 166.009 255.462 167.806 253.234 167.774Z" fill="white"/>
<path opacity="0.42" d="M185.074 133.666L64.0506 131.926C61.0952 131.883 58.722 129.476 58.722 126.522V89.0679C58.722 86.9532 60.4377 85.238 62.5531 85.238H184.269C186.698 85.238 188.667 87.207 188.667 89.6354V130.126C188.667 132.101 187.05 133.695 185.074 133.666Z" fill="white"/>
<path opacity="0.42" d="M256.079 133.718H193.058C192.443 133.718 191.945 133.22 191.945 132.605V86.625C191.945 85.8596 192.566 85.238 193.332 85.238H256.449C256.911 85.238 257.286 85.6125 257.286 86.0749V132.512C257.286 133.177 256.746 133.718 256.079 133.718Z" fill="white"/>
<path d="M12.2512 238.873C12.2512 240.407 13.5082 241.663 15.0443 241.663H166.067C167.603 241.663 168.861 240.408 168.861 238.873L170.118 152.112C170.118 150.579 168.309 147.584 164.997 147.809L17.4001 143.99C15.473 143.94 13.6096 144.682 12.2444 146.042C10.8792 147.402 10.1329 149.261 10.1783 151.187L12.2512 238.873Z" fill="url(#paint9_linear)"/>
<path d="M15.0086 236.198C15.0086 237.65 16.1971 238.839 17.6511 238.839H162.425C163.879 238.839 165.068 237.65 165.068 236.198L166.254 157.435C166.114 152.695 161.957 150.992 159.437 151.093L17.9794 147.299C16.6258 147.262 15.3165 147.785 14.3568 148.74C13.3981 149.697 12.87 151.005 12.9048 152.359L15.0086 236.198Z" fill="url(#paint10_linear)"/>
<path d="M0.545502 248.865H177.504C177.805 248.865 178.05 248.62 178.05 248.319V241.788C178.05 241.488 177.805 241.243 177.504 241.243H0.545502C0.245234 241.243 0 241.488 0 241.788V248.319C0 248.62 0.245234 248.865 0.545502 248.865Z" fill="url(#paint11_linear)"/>
<path d="M166.135 165.378L166.253 157.487C166.113 152.747 161.956 151.018 159.436 151.118L17.9785 147.312C16.6248 147.275 15.3156 147.79 14.3559 148.747C13.3972 149.703 12.8701 151.059 12.9038 152.413L13.2282 165.378H166.135Z" fill="url(#paint12_linear)"/>
<path d="M163.503 198.78C163.501 198.78 163.499 198.78 163.497 198.78C163.283 198.777 163.112 198.601 163.116 198.387L163.209 191.999C163.212 191.788 163.385 191.618 163.597 191.618C163.598 191.618 163.6 191.618 163.602 191.618C163.817 191.621 163.988 191.797 163.984 192.011L163.89 198.399C163.887 198.611 163.714 198.78 163.503 198.78Z" fill="white"/>
<path d="M163.733 183.127C163.731 183.127 163.729 183.127 163.727 183.127C163.513 183.125 163.342 182.948 163.345 182.735L163.705 158.27C163.698 156.817 163.257 155.656 162.394 154.829C160.781 153.285 158.222 153.364 158.114 153.369L112.902 152.157C112.688 152.151 112.519 151.973 112.525 151.759C112.531 151.546 112.695 151.363 112.923 151.383L158.109 152.595C158.39 152.579 161.115 152.531 162.929 154.27C163.95 155.247 164.472 156.595 164.48 158.273L164.121 182.745C164.117 182.958 163.944 183.127 163.733 183.127Z" fill="white"/>
<path opacity="0.67" d="M104.675 205.503H20.3969C19.8012 205.503 19.3185 205.021 19.3185 204.425V170.303C19.3185 169.708 19.8012 169.225 20.3969 169.225H104.675C105.27 169.225 105.753 169.708 105.753 170.303V204.425C105.752 205.021 105.269 205.503 104.675 205.503Z" fill="white"/>
<path opacity="0.67" d="M161.173 205.503H111.033C110.607 205.503 110.261 205.158 110.261 204.731V169.998C110.261 169.571 110.607 169.226 111.033 169.226H161.173C161.6 169.226 161.946 169.571 161.946 169.998V204.731C161.946 205.158 161.6 205.503 161.173 205.503Z" fill="white"/>
<path opacity="0.67" d="M160.996 235.404H20.2685C19.7442 235.404 19.3194 234.98 19.3194 234.456V211.73C19.3194 211.205 19.7442 210.781 20.2685 210.781H160.997C161.521 210.781 161.946 211.205 161.946 211.73V234.456C161.946 234.979 161.52 235.404 160.996 235.404Z" fill="white"/>
<path opacity="0.74" d="M22.1956 156.518C22.4262 155.542 21.8214 154.563 20.8448 154.333C19.8682 154.102 18.8895 154.707 18.6589 155.683C18.4283 156.66 19.0331 157.638 20.0097 157.868C20.9863 158.099 21.965 157.494 22.1956 156.518Z" fill="white"/>
<path opacity="0.74" d="M26.4902 158.08C27.4937 158.08 28.3072 157.267 28.3072 156.264C28.3072 155.26 27.4937 154.447 26.4902 154.447C25.4866 154.447 24.6731 155.26 24.6731 156.264C24.6731 157.267 25.4866 158.08 26.4902 158.08Z" fill="white"/>
<path opacity="0.74" d="M32.8422 158.28C33.7694 157.896 34.2097 156.834 33.8256 155.907C33.4416 154.98 32.3786 154.54 31.4515 154.924C30.5243 155.308 30.084 156.37 30.4681 157.297C30.8521 158.224 31.9151 158.664 32.8422 158.28Z" fill="white"/>
<path d="M186.674 160.371C186.351 175.57 185.307 227.998 185.806 246.576C185.859 248.544 187.208 250.124 188.89 250.189C197.214 250.507 227.728 251.315 241.344 250.646C244.179 250.507 246.435 247.821 246.494 244.502C246.777 228.549 247.401 183.678 245.917 163.123C245.74 160.66 244.087 158.699 241.984 158.453C232.919 157.392 202.273 154.799 190.511 155.692C188.388 155.854 186.727 157.886 186.674 160.371Z" fill="url(#paint13_linear)"/>
<path d="M190.388 165.035C189.94 177.302 188.527 218.115 188.975 233.206C189.041 235.412 190.528 237.196 192.412 237.325C200.169 237.856 226.635 239.027 238.013 237.961C240.061 237.769 241.669 235.832 241.78 233.431C242.356 220.916 244.012 182.914 243.583 167.991C243.514 165.611 241.937 163.666 239.909 163.454C231.517 162.573 203.393 160.476 193.725 161.093C191.909 161.208 190.465 162.911 190.388 165.035Z" fill="url(#paint14_linear)"/>
<path opacity="0.5" d="M207.245 158.349C207.245 158.815 207.556 159.201 207.954 159.225C209.92 159.345 215.459 159.686 217.933 159.854C218.421 159.887 218.804 159.374 218.712 158.813L218.696 158.717C218.633 158.334 218.361 158.045 218.029 158.01C216.356 157.831 211.307 157.334 207.963 157.474C207.561 157.489 207.245 157.878 207.245 158.349Z" fill="white"/>
<path d="M243.65 172.634C243.643 170.985 243.621 169.364 243.583 168.007C243.514 165.627 241.937 163.674 239.909 163.462C231.517 162.581 203.393 160.48 193.725 161.097C191.91 161.213 190.466 162.929 190.389 165.053C190.319 166.957 190.269 168.456 190.164 171.425L243.65 172.634Z" fill="url(#paint15_linear)"/>
<path opacity="0.67" d="M216.527 198.78H194.654C193.361 198.78 192.312 197.7 192.312 196.37V177.169C192.312 175.953 193.285 174.975 194.466 175.004L216.542 175.548C217.757 175.578 218.726 176.6 218.726 177.85V196.515C218.726 197.766 217.741 198.78 216.527 198.78Z" fill="white"/>
<path opacity="0.67" d="M240.213 198.78H221.526C221.047 198.78 220.658 198.392 220.658 197.912V176.278C220.658 175.905 220.961 175.602 221.335 175.602H240.258C240.635 175.602 240.94 175.907 240.94 176.283V198.054C240.94 198.454 240.615 198.78 240.213 198.78Z" fill="white"/>
<path opacity="0.67" d="M240.241 217.595H192.3C191.873 217.595 191.526 217.248 191.526 216.822V202.447C191.526 202.101 191.807 201.82 192.154 201.82H240.21C240.613 201.82 240.94 202.146 240.94 202.55V216.897C240.94 217.282 240.627 217.595 240.241 217.595Z" fill="white"/>
<path opacity="0.67" d="M235.819 235.403L193.758 234.817C192.511 234.8 191.51 233.891 191.51 232.776V222.597C191.51 221.616 192.4 220.819 193.497 220.819H237.745C238.795 220.819 239.646 221.579 239.649 222.518L239.677 231.996C239.684 233.898 237.944 235.433 235.819 235.403Z" fill="white"/>
<path opacity="0.74" d="M194.77 169.116C195.59 169.116 196.255 168.451 196.255 167.631C196.255 166.812 195.59 166.147 194.77 166.147C193.95 166.147 193.285 166.812 193.285 167.631C193.285 168.451 193.95 169.116 194.77 169.116Z" fill="white"/>
<path opacity="0.74" d="M199.718 169.259C200.539 169.259 201.203 168.594 201.203 167.774C201.203 166.954 200.539 166.29 199.718 166.29C198.898 166.29 198.234 166.954 198.234 167.774C198.234 168.594 198.898 169.259 199.718 169.259Z" fill="white"/>
<path opacity="0.74" d="M204.337 169.534C205.158 169.534 205.822 168.869 205.822 168.049C205.822 167.229 205.158 166.565 204.337 166.565C203.517 166.565 202.852 167.229 202.852 168.049C202.852 168.869 203.517 169.534 204.337 169.534Z" fill="white"/>
<path d="M252.689 40.5821C252.437 36.6886 250.085 33.239 246.559 31.5644L200.878 9.8759C197.953 8.48701 194.557 8.48701 191.632 9.8759L145.95 31.5644C142.424 33.238 140.072 36.6876 139.82 40.5821C135.536 106.794 178.004 130.92 191.926 137.014C194.687 138.222 197.824 138.222 200.585 137.014C214.506 130.92 256.974 106.794 252.689 40.5821Z" fill="url(#paint16_linear)"/>
<path d="M182.437 19.1898C182.128 19.1898 181.833 19.0161 181.692 18.7188C181.497 18.3076 181.672 17.8154 182.083 17.6204L192.877 12.4953C193.289 12.2994 193.781 12.4751 193.976 12.8862C194.171 13.2974 193.996 13.7896 193.585 13.9846L182.791 19.1097C182.676 19.1637 182.556 19.1898 182.437 19.1898Z" fill="white"/>
<path d="M143.314 54.9275C142.871 54.9275 142.505 54.5761 142.49 54.1302C142.345 49.8188 142.421 45.323 142.716 40.7683C142.899 37.9316 144.616 35.4087 147.196 34.1838L177.927 19.5942C178.339 19.3983 178.83 19.5739 179.025 19.9851C179.22 20.3963 179.046 20.8885 178.634 21.0835L147.903 35.6731C145.863 36.6412 144.506 38.6353 144.361 40.8754C144.07 45.377 143.994 49.8178 144.138 54.0752C144.154 54.5308 143.796 54.912 143.342 54.9275C143.332 54.9275 143.323 54.9275 143.314 54.9275Z" fill="white"/>
<path d="M241.643 43.1658C241.593 42.1784 241.005 41.2972 240.112 40.8735L197.407 20.598C196.678 20.2515 195.831 20.2515 195.102 20.598L152.398 40.8735C151.505 41.2972 150.917 42.1784 150.867 43.1658C149.604 67.8647 155.311 88.4732 167.841 104.446C177.394 116.624 188.569 123.15 195.118 126.194C195.839 126.53 196.669 126.53 197.391 126.194C203.94 123.15 215.114 116.624 224.668 104.446C237.199 88.4732 242.906 67.8647 241.643 43.1658Z" fill="url(#paint17_linear)"/>
<path d="M111.52 261.002C108.775 261.239 104.01 261.624 100.255 261.79C97.9964 261.889 96.6968 261.668 95.9486 261.369C95.9495 261.453 95.9524 261.533 95.9553 261.607C95.9727 262.002 96.2942 262.318 96.693 262.341C103.79 262.736 109.434 262.478 111.444 262.355C111.859 262.33 112.107 261.878 111.895 261.524C111.788 261.346 111.66 261.173 111.52 261.002Z" fill="url(#paint18_linear)"/>
<path d="M100.255 261.789C104.01 261.624 108.775 261.239 111.52 261.002C108.821 257.691 100.255 255.461 100.255 255.461H97.8351C96.1706 257.858 95.9302 260.142 95.9486 261.369C96.6968 261.668 97.9964 261.889 100.255 261.789Z" fill="url(#paint19_linear)"/>
<path d="M97.4277 251.512L97.6546 255.992C97.6787 256.477 98.0427 256.884 98.5284 256.954C99.0121 257.023 99.6589 257.032 100.345 256.803C100.767 256.662 101.081 256.307 101.159 255.873L101.941 251.513H97.4277V251.512Z" fill="url(#paint20_linear)"/>
<path d="M69.3464 266.168C68.156 265.954 67.6172 265.155 67.3913 264.301C67.3894 264.309 67.3884 264.316 67.3865 264.324C67.2117 265.226 67.6172 266.159 68.4292 266.603C69.4102 267.139 70.4828 267.231 71.316 267.187C72.2091 267.139 73.0298 266.662 73.4807 265.897L73.4874 265.886C72.5915 266.459 71.3325 266.527 69.3464 266.168Z" fill="url(#paint21_linear)"/>
<path d="M74.96 252.892H72.9644C69.925 252.811 68.0162 261.094 67.3915 264.301C67.6174 265.155 68.1562 265.954 69.3466 266.169C71.3317 266.527 72.5907 266.459 73.4876 265.886C75.13 263.094 75.9439 259.006 76.3349 256.62C76.7809 253.906 74.96 252.892 74.96 252.892Z" fill="url(#paint22_linear)"/>
<path d="M73.2209 248.734L72.1125 253.139C71.9764 253.68 72.2352 254.238 72.7353 254.495C73.3551 254.812 74.2279 255.147 75.0293 255.05C75.4068 255.004 75.7196 254.739 75.8441 254.384L77.471 249.749L73.2209 248.734Z" fill="url(#paint23_linear)"/>
<path d="M112.196 190.716C112.196 190.716 102.295 252.585 102.458 252.926C102.458 252.926 99.7237 254.168 96.7423 253.084C96.7423 253.084 97.6373 220.011 99.7353 207.329C99.7353 207.329 82.8373 236.891 77.4711 251.621C77.4711 251.621 74.6721 251.287 72.3559 249.763C72.3559 249.763 90.5506 196.553 95.4041 189.467L112.196 190.716Z" fill="url(#paint24_linear)"/>
<path d="M100.13 207.006C100.077 207.006 100.023 206.991 99.9757 206.962C99.8386 206.876 99.797 206.695 99.883 206.559L103.583 200.651C103.625 200.583 103.694 200.535 103.773 200.52L106.496 199.972C106.655 199.94 106.808 200.043 106.84 200.2C106.872 200.359 106.77 200.513 106.611 200.545L104.012 201.068L100.379 206.87C100.323 206.958 100.228 207.006 100.13 207.006Z" fill="url(#paint25_linear)"/>
<path d="M157.631 130.13C157.631 130.13 150.95 131.603 146.886 133.479C146.079 133.851 145.435 134.503 145.069 135.306C143.853 137.967 140.217 144.641 133.165 147.826C134.181 149.173 135.816 151.976 136.528 156.687C140.764 153.536 144.42 148.273 146.175 139.642C146.175 139.642 147.512 140.369 149.18 139.559C150.061 139.132 151.078 138.525 151.842 138.048C152.603 137.572 153.169 136.834 153.389 135.97C153.68 134.83 153.509 133.828 153.509 132.753L156.943 131.689C156.943 131.689 157.976 131.299 157.631 130.13Z" fill="url(#paint26_linear)"/>
<path d="M136.529 156.687C135.817 151.976 134.182 149.173 133.166 147.826C128.786 149.805 123.088 150.437 115.831 147.924C115.162 147.692 114.465 147.556 113.757 147.514C109.894 147.287 97.1651 146.874 86.6316 150.354C84.4148 151.086 82.619 152.724 81.6941 154.847C78.8449 161.384 74.2318 176.27 87.0381 183.786C88.0219 181.344 89.1573 179.381 90.1286 177.939C88.0663 174.461 87.4552 169.711 91.1154 163.527C93.784 170.73 95.0362 181.24 95.2979 185.893C95.3838 187.424 95.1154 188.952 94.5139 190.366L94.4482 190.521C94.3198 190.823 94.4965 191.171 94.8199 191.244C102.029 192.862 109.528 192.423 111.768 192.238C112.168 192.205 112.5 191.918 112.592 191.532C116.097 176.765 116.105 166.691 115.247 160.324C118.527 161.057 128.555 162.62 136.529 156.687Z" fill="url(#paint27_linear)"/>
<path d="M115.261 160.721C115.116 160.721 114.991 160.614 114.972 160.467C114.148 154.249 112.472 151.536 112.455 151.509C112.369 151.373 112.409 151.192 112.545 151.106C112.681 151.02 112.862 151.06 112.948 151.196C113.019 151.309 114.708 154.026 115.551 160.391C115.572 160.551 115.459 160.698 115.3 160.719C115.287 160.72 115.274 160.721 115.261 160.721Z" fill="#EEAA4E"/>
<path d="M97.4692 138.913C97.4692 138.913 96.7403 146.621 96.0973 148.902C95.9997 149.248 96.1504 149.613 96.4641 149.792C97.5542 150.415 100.168 151.43 103.744 149.678C104.323 149.394 104.672 148.791 104.645 148.152L104.33 140.703L97.4692 138.913Z" fill="url(#paint28_linear)"/>
<path d="M104.487 129.049C104.487 129.049 106.82 134.406 106.976 137.218C107.133 140.029 107.739 141.853 104.487 142.42C101.236 142.987 98.4956 141.367 97.0116 138.566C97.0116 138.566 94.6858 134.251 95.2081 132.483C95.7295 130.716 104.487 129.049 104.487 129.049Z" fill="url(#paint29_linear)"/>
<path d="M98.1229 136.553L98.3082 136.471C98.5438 136.366 98.6452 136.086 98.5264 135.858C98.0678 134.972 97.1738 132.942 98.3285 132.469C99.8173 131.859 105.713 130.656 106.985 128.566C108.207 126.555 107.124 123.961 105.496 123.224C105.387 123.174 105.259 123.213 105.203 123.319L105.067 123.576C104.974 123.752 104.714 123.725 104.659 123.534C104.606 123.351 104.363 123.315 104.261 123.477C103.87 124.103 102.815 125.117 99.992 125.638C95.9804 126.379 93.3273 128.002 93.2616 130.773C93.2578 130.949 93.0704 131.047 92.9198 130.956C92.6234 130.775 92.1494 130.69 91.516 131.223C90.4144 132.15 90.8653 134.552 93.2809 136.528C93.3958 136.621 93.3949 136.801 93.2703 136.882C92.832 137.166 92.1793 137.845 93.8708 138.748C95.6203 139.684 96.9266 139.606 97.4296 139.523C97.5551 139.503 97.6353 139.382 97.6083 139.258L97.0714 136.822C97.0415 136.684 97.1458 136.554 97.2877 136.554H98.1229V136.553Z" fill="url(#paint30_linear)"/>
<path d="M98.2243 137.067C98.2243 137.067 97.3341 133.646 95.7999 134.605C94.2648 135.564 96.5965 138.44 97.8304 138.567L98.2243 137.067Z" fill="url(#paint31_linear)"/>
<path d="M147.958 138.846C147.893 138.846 147.827 138.825 147.773 138.78C147.648 138.679 147.629 138.495 147.731 138.369C147.984 138.058 150.226 135.318 151.09 134.831C151.404 134.653 151.592 134.47 151.631 134.301C151.651 134.22 151.638 134.129 151.592 134.026L148.958 134.554L147.465 135.834C147.344 135.939 147.158 135.925 147.053 135.802C146.948 135.679 146.962 135.495 147.085 135.39L148.635 134.06C148.673 134.027 148.719 134.005 148.769 133.995L151.685 133.411C151.802 133.388 151.92 133.436 151.986 133.535C152.199 133.851 152.27 134.147 152.202 134.435C152.122 134.777 151.852 135.073 151.379 135.34C150.73 135.706 148.855 137.918 148.186 138.738C148.128 138.809 148.043 138.846 147.958 138.846Z" fill="#F8A570"/>
<path d="M98.1103 187.491L108.422 187.618L104.813 184.223C103.916 183.378 102.547 183.242 101.511 183.913C100.904 184.306 100.247 184.84 99.6773 185.546C99.6773 185.546 93.2452 183.196 90.1267 177.939C89.1554 179.381 88.02 181.344 87.0361 183.786C89.8322 185.426 93.4557 186.717 98.1103 187.491Z" fill="url(#paint32_linear)"/>
<path d="M99.2216 188.821C99.2419 188.822 99.2612 188.823 99.2815 188.822L125.456 188.794C126.103 188.793 126.627 188.274 126.626 187.634C126.625 186.994 126.099 186.465 125.453 186.477L99.2786 186.505C98.6317 186.506 98.1074 187.025 98.1084 187.665C98.1094 188.284 98.6027 188.79 99.2216 188.821Z" fill="url(#paint33_linear)"/>
<path d="M148.985 165.315H127.187C125.579 165.315 124.116 166.233 123.429 167.671L113.353 188.806H140.441C141.477 188.806 142.409 188.18 142.789 187.227L150.604 167.67C151.056 166.54 150.214 165.315 148.985 165.315Z" fill="url(#paint34_linear)"/>
<path d="M133.628 176.152C133.156 177.604 133.504 179.014 134.407 179.3C135.31 179.588 136.425 178.644 136.897 177.192C137.369 175.741 137.021 174.331 136.118 174.044C135.215 173.756 134.101 174.7 133.628 176.152Z" fill="url(#paint35_linear)"/>
</g>
<defs>
<linearGradient id="paint0_linear" x1="301.725" y1="347.1" x2="63.2707" y2="50.859" gradientUnits="userSpaceOnUse">
<stop stop-color="#B37CFF"/>
<stop offset="1" stop-color="#F895E7"/>
</linearGradient>
<linearGradient id="paint1_linear" x1="-24.2823" y1="75.1058" x2="98.4183" y2="125.883" gradientUnits="userSpaceOnUse">
<stop stop-color="#CB236D"/>
<stop offset="1" stop-color="#4C246D"/>
</linearGradient>
<linearGradient id="paint2_linear" x1="4.373" y1="139.952" x2="84.7276" y2="41.157" gradientUnits="userSpaceOnUse">
<stop stop-color="#A737D5"/>
<stop offset="1" stop-color="#EF497A"/>
</linearGradient>
<linearGradient id="paint3_linear" x1="165.173" y1="239.977" x2="162.281" y2="182.699" gradientUnits="userSpaceOnUse">
<stop stop-color="#2B3582"/>
<stop offset="1" stop-color="#150E42"/>
</linearGradient>
<linearGradient id="paint4_linear" x1="157.964" y1="179.417" x2="158.954" y2="27.5554" gradientUnits="userSpaceOnUse">
<stop stop-color="#2B3582"/>
<stop offset="1" stop-color="#150E42"/>
</linearGradient>
<linearGradient id="paint5_linear" x1="167.535" y1="-13.0666" x2="150.061" y2="212.512" gradientUnits="userSpaceOnUse">
<stop stop-color="#53D8FF"/>
<stop offset="1" stop-color="#3840F7"/>
</linearGradient>
<linearGradient id="paint6_linear" x1="165.353" y1="218.364" x2="138.745" y2="276.805" gradientUnits="userSpaceOnUse">
<stop stop-color="#2B3582"/>
<stop offset="1" stop-color="#150E42"/>
</linearGradient>
<linearGradient id="paint7_linear" x1="161.677" y1="64.0857" x2="139.918" y2="336.495" gradientUnits="userSpaceOnUse">
<stop stop-color="#53D8FF"/>
<stop offset="1" stop-color="#3840F7"/>
</linearGradient>
<linearGradient id="paint8_linear" x1="152.176" y1="207.574" x2="160.582" y2="6.24487" gradientUnits="userSpaceOnUse">
<stop stop-color="#53D8FF"/>
<stop offset="1" stop-color="#3840F7"/>
</linearGradient>
<linearGradient id="paint9_linear" x1="90.6148" y1="144.394" x2="87.9773" y2="265.978" gradientUnits="userSpaceOnUse">
<stop stop-color="#2B3582"/>
<stop offset="1" stop-color="#150E42"/>
</linearGradient>
<linearGradient id="paint10_linear" x1="92.2302" y1="174.244" x2="53.107" y2="414.117" gradientUnits="userSpaceOnUse">
<stop stop-color="#53D8FF"/>
<stop offset="1" stop-color="#3840F7"/>
</linearGradient>
<linearGradient id="paint11_linear" x1="89.1718" y1="239.916" x2="91.6038" y2="154.77" gradientUnits="userSpaceOnUse">
<stop stop-color="#2B3582"/>
<stop offset="1" stop-color="#150E42"/>
</linearGradient>
<linearGradient id="paint12_linear" x1="73.9811" y1="350.04" x2="92.7722" y2="118.537" gradientUnits="userSpaceOnUse">
<stop stop-color="#53D8FF"/>
<stop offset="1" stop-color="#3840F7"/>
</linearGradient>
<linearGradient id="paint13_linear" x1="185.673" y1="203.206" x2="246.868" y2="203.206" gradientUnits="userSpaceOnUse">
<stop stop-color="#2B3582"/>
<stop offset="1" stop-color="#150E42"/>
</linearGradient>
<linearGradient id="paint14_linear" x1="221.33" y1="148.502" x2="199.241" y2="362.21" gradientUnits="userSpaceOnUse">
<stop stop-color="#53D8FF"/>
<stop offset="1" stop-color="#3840F7"/>
</linearGradient>
<linearGradient id="paint15_linear" x1="211.711" y1="247.357" x2="218.305" y2="149.738" gradientUnits="userSpaceOnUse">
<stop stop-color="#53D8FF"/>
<stop offset="1" stop-color="#3840F7"/>
</linearGradient>
<linearGradient id="paint16_linear" x1="237.512" y1="-43.539" x2="162.835" y2="137.031" gradientUnits="userSpaceOnUse">
<stop stop-color="#FDF53F"/>
<stop offset="0.9528" stop-color="#DB4563"/>
<stop offset="1" stop-color="#D93C65"/>
</linearGradient>
<linearGradient id="paint17_linear" x1="248.136" y1="-16.8573" x2="96.7871" y2="210.239" gradientUnits="userSpaceOnUse">
<stop stop-color="#FDF53F"/>
<stop offset="1" stop-color="#D93C65"/>
</linearGradient>
<linearGradient id="paint18_linear" x1="95.9482" y1="261.776" x2="111.972" y2="261.776" gradientUnits="userSpaceOnUse">
<stop stop-color="#53D8FF"/>
<stop offset="1" stop-color="#3840F7"/>
</linearGradient>
<linearGradient id="paint19_linear" x1="95.9472" y1="258.637" x2="111.52" y2="258.637" gradientUnits="userSpaceOnUse">
<stop stop-color="#2B3582"/>
<stop offset="1" stop-color="#150E42"/>
</linearGradient>
<linearGradient id="paint20_linear" x1="97.4275" y1="254.254" x2="101.941" y2="254.254" gradientUnits="userSpaceOnUse">
<stop stop-color="#F9B776"/>
<stop offset="1" stop-color="#F47960"/>
</linearGradient>
<linearGradient id="paint21_linear" x1="67.3473" y1="265.749" x2="73.488" y2="265.749" gradientUnits="userSpaceOnUse">
<stop stop-color="#53D8FF"/>
<stop offset="1" stop-color="#3840F7"/>
</linearGradient>
<linearGradient id="paint22_linear" x1="67.3922" y1="259.64" x2="76.4055" y2="259.64" gradientUnits="userSpaceOnUse">
<stop stop-color="#2B3582"/>
<stop offset="1" stop-color="#150E42"/>
</linearGradient>
<linearGradient id="paint23_linear" x1="72.0769" y1="251.901" x2="77.4712" y2="251.901" gradientUnits="userSpaceOnUse">
<stop stop-color="#F9B776"/>
<stop offset="1" stop-color="#F47960"/>
</linearGradient>
<linearGradient id="paint24_linear" x1="115.709" y1="193.709" x2="69.6759" y2="269.14" gradientUnits="userSpaceOnUse">
<stop stop-color="#CB236D"/>
<stop offset="1" stop-color="#4C246D"/>
</linearGradient>
<linearGradient id="paint25_linear" x1="92.4449" y1="132.458" x2="100.687" y2="186.214" gradientUnits="userSpaceOnUse">
<stop stop-color="#CB236D"/>
<stop offset="1" stop-color="#4C246D"/>
</linearGradient>
<linearGradient id="paint26_linear" x1="146.273" y1="138.313" x2="124.917" y2="166.105" gradientUnits="userSpaceOnUse">
<stop stop-color="#F9B776"/>
<stop offset="1" stop-color="#F47960"/>
</linearGradient>
<linearGradient id="paint27_linear" x1="120.929" y1="144.822" x2="49.628" y2="229.353" gradientUnits="userSpaceOnUse">
<stop stop-color="#FDF53F"/>
<stop offset="1" stop-color="#D93C65"/>
</linearGradient>
<linearGradient id="paint28_linear" x1="98.6521" y1="156.271" x2="100.988" y2="144.004" gradientUnits="userSpaceOnUse">
<stop stop-color="#F9B776"/>
<stop offset="1" stop-color="#F47960"/>
</linearGradient>
<linearGradient id="paint29_linear" x1="104.977" y1="133.765" x2="91.644" y2="143.97" gradientUnits="userSpaceOnUse">
<stop stop-color="#F9B776"/>
<stop offset="1" stop-color="#F47960"/>
</linearGradient>
<linearGradient id="paint30_linear" x1="95.5888" y1="125.689" x2="108.004" y2="141.678" gradientUnits="userSpaceOnUse">
<stop stop-color="#2B3582"/>
<stop offset="1" stop-color="#150E42"/>
</linearGradient>
<linearGradient id="paint31_linear" x1="103.322" y1="131.604" x2="89.9901" y2="141.809" gradientUnits="userSpaceOnUse">
<stop stop-color="#F9B776"/>
<stop offset="1" stop-color="#F47960"/>
</linearGradient>
<linearGradient id="paint32_linear" x1="111.141" y1="164.985" x2="101.811" y2="178.984" gradientUnits="userSpaceOnUse">
<stop stop-color="#F9B776"/>
<stop offset="1" stop-color="#F47960"/>
</linearGradient>
<linearGradient id="paint33_linear" x1="94.7823" y1="181.881" x2="115.557" y2="188.697" gradientUnits="userSpaceOnUse">
<stop stop-color="#2B3582"/>
<stop offset="1" stop-color="#150E42"/>
</linearGradient>
<linearGradient id="paint34_linear" x1="123.378" y1="168.43" x2="138.247" y2="184.151" gradientUnits="userSpaceOnUse">
<stop stop-color="#2B3582"/>
<stop offset="1" stop-color="#150E42"/>
</linearGradient>
<linearGradient id="paint35_linear" x1="132.397" y1="172.358" x2="139.118" y2="182.482" gradientUnits="userSpaceOnUse">
<stop stop-color="#53D8FF"/>
<stop offset="1" stop-color="#3840F7"/>
</linearGradient>
<clipPath id="clip0">
<rect width="273" height="268" fill="white"/>
</clipPath>
</defs>
</svg>
