<svg width="343" height="190" viewBox="0 0 343 190" fill="none" xmlns="http://www.w3.org/2000/svg">
<g clip-path="url(#clip0)">
<path d="M66.5241 135.984C20.439 142.857 1.36457 150.34 1.72068 153.327C1.97319 155.446 12.0785 155.833 12.3699 159.107C12.6694 162.497 2.04441 164.332 2.02499 166.713C1.9829 172.293 60.1595 189.504 130.112 180.404C186.317 173.092 214.466 153.432 245.725 171.276C255.996 177.139 261.792 184.305 277.063 188.01C304.522 194.672 334.098 183.225 334.564 174.015C334.888 167.623 321.074 164.701 321.482 157.281C321.976 148.324 342.462 146.197 342.475 142.069C342.509 130.996 195.208 116.793 66.5241 135.984Z" fill="#EBEFF2"/>
<path d="M36.8603 158.194C34.6994 158.447 10.7237 161.294 10.8467 163.214C10.9341 164.586 23.3202 165.308 34.578 164.583C52.5129 163.426 69.3665 158.476 69.1091 156.825C68.8226 154.96 46.6727 157.045 36.8603 158.194Z" fill="#D8DEE8"/>
<path d="M83.2579 163.062C69.6708 164.86 62.8756 165.758 62.7218 166.864C62.4224 169.008 74.1998 173.28 86.4531 174.622C93.6546 175.41 108.527 176.011 109.272 172.644C109.989 169.399 97.7272 161.773 85.6924 162.756C85.346 162.785 84.6451 162.879 83.2579 163.062Z" fill="#D8DEE8"/>
<path d="M298.664 177.209C295.619 177.38 276.435 178.458 276.302 181.315C276.205 183.419 286.43 186.477 296.382 186.335C309.001 186.155 320.951 180.834 320.569 178.576C320.132 176.003 303.581 176.932 298.664 177.209Z" fill="#D8DEE8"/>
<g opacity="0.5">
<path opacity="0.5" d="M62.7299 1.93755L21.7031 0L0 33.6764L21.7031 68.0877L62.7299 67.539L82.141 35.0669L62.7299 1.93755Z" fill="url(#paint0_linear)"/>
<path opacity="0.5" d="M100.618 3.9544L85.4252 3.24057L77.6637 16.0345L85.4252 29.3675L100.618 29.7058L108.053 17.0883L100.618 3.9544Z" fill="url(#paint1_linear)"/>
<path opacity="0.5" d="M56.9788 70.8572L33.0047 71.249L20.6186 91.4597L33.0047 110.824L56.9788 109.579L68.5814 89.8216L56.9788 70.8572Z" fill="url(#paint2_linear)"/>
</g>
<path opacity="0.5" d="M257.503 40.5412L206.532 41.4638C202.387 41.5383 198.981 45.3001 198.981 49.8647C198.981 54.4294 202.387 57.971 206.532 57.7784L257.503 55.4152C260.902 55.2581 263.626 51.8395 263.626 47.7799C263.626 43.7219 260.902 40.4797 257.503 40.5412Z" fill="url(#paint3_linear)"/>
<path d="M250.886 22.54L225.131 22.1304C223.135 22.0981 221.508 23.9077 221.508 26.1706C221.508 28.4335 223.137 30.2707 225.131 30.2723L250.886 30.3063C252.689 30.308 254.141 28.5824 254.141 26.4507C254.141 24.3189 252.687 22.5675 250.886 22.54Z" fill="url(#paint4_linear)"/>
<path d="M261.982 26.4992C261.982 28.5889 260.578 30.2804 258.838 30.2788C257.085 30.2756 255.656 28.5598 255.656 26.4458C255.656 24.3318 257.085 22.6387 258.838 22.6678C260.578 22.6937 261.982 24.4095 261.982 26.4992Z" fill="url(#paint5_linear)"/>
<g opacity="0.5">
<path opacity="0.5" d="M261.036 32.1584L241.654 32.2005C240.17 32.2037 238.961 33.612 238.961 35.3456C238.961 37.0792 240.17 38.468 241.654 38.4469L261.036 38.1815C262.409 38.1621 263.516 36.8056 263.516 35.1497C263.516 33.4938 262.409 32.1552 261.036 32.1584Z" fill="url(#paint6_linear)"/>
<path opacity="0.5" d="M269.518 35.0846C269.518 36.713 268.442 38.0468 267.108 38.0646C265.766 38.0824 264.675 36.7665 264.675 35.1219C264.675 33.4789 265.768 32.1435 267.108 32.1419C268.44 32.1403 269.518 33.4579 269.518 35.0846Z" fill="url(#paint7_linear)"/>
</g>
<path d="M320.861 142.495L39.146 140.45L39.1476 146.653C39.1476 148.336 40.3778 149.767 42.0417 150.023L121.705 162.223C122.65 162.367 123.608 162.406 124.563 162.336L317.801 148.375C319.527 148.251 320.862 146.815 320.862 145.085L320.861 142.495Z" fill="#BFC8D6"/>
<path d="M218.627 132.262L42.0612 143.641C38.9015 143.845 36.3327 141.687 36.3327 138.822L36.3117 24.0376C36.3117 21.1726 38.8805 18.8498 42.0385 18.8498L218.606 18.8174C221.209 18.8174 223.315 20.9152 223.315 23.5051L223.334 127.268C223.334 129.858 221.23 132.093 218.627 132.262Z" fill="#BFC8D6"/>
<path d="M221.442 132.26L44.8761 143.639C41.7164 143.843 39.1476 141.685 39.146 138.82L39.1249 24.0356C39.1249 21.1706 41.6921 18.8478 44.8534 18.8478L221.421 18.8154C224.024 18.8154 226.128 20.9148 226.13 23.5047L226.149 127.268C226.149 129.858 224.045 132.093 221.442 132.26Z" fill="#D8DEE8"/>
<path d="M215.94 124.947L51.4867 134.834C48.9163 134.987 46.825 133.218 46.825 130.879L46.8072 30.3841C46.8072 28.0451 48.8952 26.1415 51.4673 26.1302L215.922 25.4811C218.069 25.473 219.807 27.192 219.807 29.3238L219.823 120.856C219.823 122.985 218.087 124.817 215.94 124.947Z" fill="#EFF2F6"/>
<path d="M139.374 21.9702C139.374 23.0369 138.466 23.9045 137.343 23.9078C136.219 23.911 135.306 23.0466 135.306 21.9783C135.306 20.91 136.218 20.0424 137.341 20.0408C138.464 20.0392 139.374 20.9035 139.374 21.9702Z" fill="white"/>
<path opacity="0.48" d="M179.611 100.843C165.928 94.1806 155.172 102.628 144.788 94.2972C138.493 89.2469 141.583 85.4803 133.837 77.9324C125.258 69.5736 119.673 72.3836 111.05 64.8617C100.149 55.3488 105.599 47.945 96.2073 41.1158C84.8151 32.8298 72.5326 40.504 61.6876 32.5579C57.0112 29.1312 54.444 24.1473 53.1021 18.8478L42.4934 18.8494C40.6335 18.8494 39.1249 20.2139 39.1249 21.8974L39.1476 140.963C39.1476 142.647 40.6578 143.913 42.5177 143.793L223.389 132.135C224.278 132.079 225.065 131.609 225.57 130.929C212.329 130.495 204.194 126.478 198.993 122.324C188.818 114.199 190.581 106.185 179.611 100.843Z" fill="white"/>
<path d="M228.48 131.943L39.1475 143.921L121.703 156.564C122.648 156.708 123.606 156.747 124.561 156.677L320.862 142.495L231.492 132.023C230.492 131.905 229.484 131.879 228.48 131.943Z" fill="white"/>
<path opacity="0.47" d="M66.7734 144.018L224.399 133.898L273.183 139.568L116.917 150.384L66.7734 144.018Z" fill="#D8DEE8"/>
<path d="M101.295 79.781L88.1188 34.0616C68.2286 40.4926 53.8273 59.13 53.748 81.1439L101.295 79.781Z" fill="#D8DEE8"/>
<path d="M66.0434 84.0041C66.7831 94.4688 71.8188 103.745 79.399 110.081L99.9998 83.0297L66.0434 84.0041Z" fill="white"/>
<path d="M104.194 78.2481C112.119 70.6598 121.664 61.4998 129.241 54.1947C122.52 47.7929 113.423 43.8643 103.409 43.8643C100.369 43.8643 97.4148 44.2269 94.5853 44.91L104.194 78.2481Z" fill="white"/>
<path d="M105.848 81.1099L134.534 102.18C138.537 96.2186 140.871 89.0447 140.871 81.3252C140.871 71.8058 137.32 63.1152 131.47 56.5062C129.372 58.5279 127.041 60.773 124.484 63.2301C116.734 70.6825 108.935 78.1526 105.848 81.1099Z" fill="white"/>
<path d="M105.014 84.4816L105.57 118.725C116.505 118.103 126.187 112.79 132.632 104.767L105.014 84.4816Z" fill="white"/>
<path d="M101.827 85.9319L81.9484 112.035C87.7594 116.104 94.778 118.566 102.36 118.775L101.827 85.9319Z" fill="white"/>
<path d="M151.737 52.3818V81.2912C151.737 82.251 152.514 83.007 153.473 82.9811L210.089 81.4142C210.96 81.3899 211.665 80.6308 211.665 79.7162V52.2053L151.737 52.3818Z" fill="#F4F7FA"/>
<path d="M210.089 48.7122H153.473C152.514 48.7122 151.737 49.4908 151.737 50.4507V53.4128L211.664 53.1862V50.3665C211.664 49.452 210.96 48.7122 210.089 48.7122Z" fill="#D8DEE8"/>
<path d="M155.769 50.9589C155.769 51.3846 155.426 51.7294 155.001 51.731C154.576 51.7327 154.232 51.3879 154.232 50.9622C154.232 50.5365 154.576 50.1901 155.001 50.1901C155.426 50.1885 155.769 50.5332 155.769 50.9589Z" fill="white"/>
<path d="M160.872 66.3978C161.398 65.3926 162.385 64.669 163.546 64.5185L163.627 59.58C160.329 59.737 157.505 61.8202 156.245 64.7403L160.872 66.3978Z" fill="#D8DEE8"/>
<path d="M164.473 64.5218C166.04 64.7387 167.26 66.0174 167.406 67.6232L172.244 67.7494C172.183 63.3839 168.826 59.8568 164.554 59.5865L164.473 64.5218Z" fill="white"/>
<path d="M167.369 68.5571C167.084 70.2066 165.664 71.4837 163.952 71.5144C163.447 71.5242 162.966 71.4238 162.532 71.236L159.952 75.498C161.143 76.1244 162.506 76.466 163.952 76.4336C168.275 76.3365 171.807 72.934 172.205 68.6785L167.369 68.5571Z" fill="white"/>
<path d="M159.157 75.0221L161.741 70.7585C160.961 70.1272 160.462 69.1544 160.462 68.0569C160.462 67.7915 160.491 67.5325 160.546 67.2832L155.918 65.6273C155.676 66.4205 155.544 67.2622 155.544 68.133C155.546 71.0175 156.977 73.5345 159.157 75.0221Z" fill="white"/>
<path d="M178.876 66.1404C179.387 65.1514 180.346 64.4375 181.472 64.2886L181.552 59.4229C178.35 59.5767 175.608 61.6292 174.386 64.5055L178.876 66.1404Z" fill="white"/>
<path d="M182.372 64.2919C183.894 64.5072 185.079 65.7665 185.221 67.3496L189.918 67.4742C189.859 63.1718 186.599 59.6949 182.45 59.4294L182.372 64.2919Z" fill="#D8DEE8"/>
<path d="M185.184 68.269C184.907 69.8941 183.53 71.1518 181.866 71.1826C181.375 71.1923 180.909 71.0936 180.488 70.9074L177.982 75.1062C179.14 75.7246 180.462 76.0613 181.867 76.0289C186.066 75.9334 189.496 72.5827 189.883 68.3904L185.184 68.269Z" fill="white"/>
<path d="M177.21 74.6368L179.719 70.4364C178.962 69.8132 178.478 68.8565 178.478 67.7753C178.478 67.5147 178.507 67.2589 178.56 67.0129L174.067 65.3796C173.832 66.1615 173.704 66.9918 173.704 67.8481C173.704 70.6889 175.095 73.1703 177.21 74.6368Z" fill="white"/>
<path d="M196.361 65.8895C196.858 64.9135 197.788 64.211 198.883 64.0653L198.959 59.2692C195.848 59.4213 193.185 61.443 191.999 64.2773L196.361 65.8895Z" fill="white"/>
<path d="M199.757 64.0669C201.235 64.279 202.385 65.5205 202.525 67.0809L207.089 67.2055C207.031 62.9646 203.863 59.5379 199.834 59.274L199.757 64.0669Z" fill="white"/>
<path d="M202.489 67.989C202.22 69.5915 200.882 70.8297 199.266 70.8605C198.79 70.8686 198.337 70.7715 197.928 70.5902L195.493 74.7275C196.617 75.3377 197.902 75.6696 199.266 75.6388C203.345 75.5466 206.677 72.2445 207.054 68.112L202.489 67.989Z" fill="white"/>
<path d="M194.744 74.2613L197.181 70.1224C196.447 69.5089 195.976 68.5652 195.976 67.4985C195.976 67.2411 196.003 66.9902 196.055 66.7474L191.689 65.1369C191.461 65.9074 191.338 66.7248 191.338 67.5697C191.338 70.3717 192.686 72.8175 194.744 74.2613Z" fill="#D8DEE8"/>
<path opacity="0.3" d="M270.426 118.807L271.707 115.986C272.187 114.929 271.902 113.658 271.069 113.147L267.752 111.109C268.651 108.563 269.279 105.871 269.596 103.087L273.298 102.828C274.253 102.761 275.023 101.762 275.023 100.599V97.5038C275.023 96.3399 274.253 95.44 273.298 95.495L269.693 95.7006C269.445 92.8938 268.872 90.2165 268.019 87.7189L271.067 85.4576C271.164 85.3848 271.253 85.3022 271.336 85.2132L271.726 86.2265L276.734 80.0691L270.196 79.5106C269.91 79.14 269.523 78.9166 269.115 78.868C268.751 78.8243 268.369 78.9198 268.026 79.1691L265.015 81.3575C263.613 79.1076 261.94 77.1021 260.044 75.4008L260.271 74.9266L264.874 75.867L265.459 68.2463L258.469 67.0922C257.665 66.783 256.757 67.1748 256.315 68.0861L254.578 71.6698C252.346 70.5594 254.196 69.3907 251.658 69.0524L254.312 65.1449C254.312 63.9277 246.54 63.1151 245.489 63.1151H242.677C241.614 63.1151 240.748 64.1155 240.748 65.3505V69.5348C238.122 69.9362 235.591 70.7715 233.211 71.9806L238.012 68.4535C238.012 68.4535 229.556 66.851 228.593 67.4872L226.02 69.1868C225.047 69.8294 224.712 71.2376 225.275 72.327L227.222 76.0936C225.092 77.9907 224.186 79.0849 222.573 81.5906L218.053 80.5692C217.054 79.9558 215.772 80.3718 215.191 81.5032L213.642 84.5204C213.057 85.6583 213.404 87.0763 214.415 87.6817L218.061 89.8669C217.051 92.6753 216.368 95.6617 216.07 98.7631L211.696 99.0124C210.519 99.0804 209.561 100.188 209.561 101.486V104.94C209.561 106.118 210.349 107.034 211.374 107.135V107.136L216.345 107.931C216.756 110.515 217.446 112.967 218.378 115.248L214.415 118.127C213.405 118.862 213.057 120.322 213.642 121.387L215.191 124.207C215.772 125.264 224.984 125.907 224.984 125.907L222.059 121.805C223.66 123.954 225.521 125.816 227.587 127.337L225.278 132.1C224.715 133.26 225.05 134.625 226.023 135.144L228.597 136.517C228.758 136.604 228.93 136.658 229.103 136.689L229.094 136.737L237.122 137.726L237.907 131.667C238.841 131.811 239.79 131.897 240.753 131.923V137.106C240.753 138.027 241.235 138.757 241.923 139.011L241.887 139.163L249.842 140.156L250 130.327C251.455 129.774 252.859 129.089 254.199 128.284L256.32 132.388C256.583 132.898 257.012 133.2 257.487 133.275V133.276L265.174 134.317L262.542 127.072L261.48 127.399L259.728 123.964C261.57 122.135 263.21 120.047 264.604 117.761L268.034 119.817C268.869 120.327 269.942 119.872 270.426 118.807ZM244.086 116.152C236.56 116.823 230.317 110.22 230.317 101.389C230.317 92.5571 236.559 85.1695 244.086 84.8943C251.426 84.6256 257.245 91.2557 257.245 99.6971C257.245 108.137 251.426 115.499 244.086 116.152ZM276.228 99.1953L281.435 96.73L276.228 96.0988V99.1953ZM269.835 120.233L275.792 121.036L276.661 119.005L271.726 116.005L269.835 120.233Z" fill="url(#paint8_linear)"/>
<path d="M280.975 96.6394L277.39 96.8465C277.142 94.0479 276.574 91.3787 275.726 88.8892L278.758 86.6327C279.586 86.016 279.87 84.713 279.392 83.7207L278.118 81.071C277.637 80.0706 276.571 79.7534 275.734 80.3636L272.739 82.5472C271.346 80.3054 269.682 78.3047 267.797 76.6099L269.52 73.0019C270.013 71.966 269.72 70.6565 268.863 70.0705L266.569 68.5069C265.701 67.9161 264.589 68.2786 264.086 69.3211L262.359 72.8951C260.14 71.7895 257.741 71.0352 255.209 70.6986V66.5726C255.209 65.3553 254.366 64.3696 253.322 64.3696L250.526 64.3712C249.469 64.3712 248.608 65.3699 248.608 66.6017V70.7746C245.997 71.1761 243.48 72.0097 241.114 73.2172L239.247 69.5461C238.699 68.4664 237.48 68.1038 236.523 68.7384L233.964 70.4347C232.996 71.0757 232.664 72.4791 233.224 73.5652L235.16 77.3205C233.041 79.2128 231.148 81.4433 229.543 83.9441L226.042 81.7881C225.05 81.1762 223.775 81.5922 223.198 82.7204L221.659 85.7295C221.078 86.8658 221.423 88.2773 222.428 88.8811L226.052 91.0533C225.047 93.8536 224.369 96.832 224.072 99.9253L219.725 100.176C218.554 100.244 217.603 101.348 217.603 102.643V106.088C217.603 107.382 218.554 108.365 219.725 108.282L224.189 107.967C224.566 110.95 225.311 113.768 226.368 116.363L222.428 119.236C221.423 119.969 221.078 121.426 221.659 122.486L223.198 125.298C223.776 126.352 225.05 126.603 226.042 125.864L230.026 122.899C231.617 125.041 233.467 126.897 235.521 128.414L233.226 133.163C232.666 134.32 232.999 135.682 233.966 136.2L236.525 137.567C237.481 138.079 238.7 137.559 239.249 136.41L241.525 131.643C243.772 132.456 246.149 132.917 248.61 132.983V138.152C248.61 139.382 249.469 140.271 250.528 140.135L253.323 139.777C254.367 139.643 255.211 138.548 255.211 137.331V132.219C257.598 131.599 259.868 130.623 261.98 129.351L264.088 133.441C264.591 134.419 265.703 134.639 266.571 133.935L268.864 132.077C269.722 131.382 270.015 130.034 269.521 129.061L267.475 125.039C269.306 123.215 270.938 121.131 272.323 118.851L275.734 120.9C276.571 121.403 277.637 120.949 278.118 119.887L279.392 117.072C279.87 116.016 279.586 114.751 278.758 114.241L275.46 112.211C276.354 109.671 276.979 106.988 277.294 104.21L280.975 103.949C281.924 103.883 282.691 102.887 282.691 101.727V98.64C282.691 97.4811 281.924 96.5843 280.975 96.6394ZM251.928 117.25C244.445 117.922 238.239 111.34 238.239 102.533C238.239 93.7258 244.445 86.3576 251.928 86.0808C259.227 85.8105 265.012 92.4179 265.012 100.835C265.012 109.252 259.227 116.594 251.928 117.25Z" fill="url(#paint9_linear)"/>
<g opacity="0.3">
<path opacity="0.3" d="M137.754 128.872C137.754 126.041 136.735 123.95 134.691 122.591C132.634 121.227 128.903 119.893 123.44 118.58C117.891 117.248 113.436 115.842 110.12 114.367C100.919 110.26 96.2299 104.16 96.2299 96.144C96.2299 91.9776 97.4925 88.2255 100.006 84.9056C102.502 81.61 106.058 79.025 110.641 77.1538C115.167 75.3069 120.178 74.3665 125.656 74.3147C131.085 74.2645 135.85 75.1645 139.981 76.9968C144.062 78.8081 147.199 81.3786 149.416 84.7082C151.619 88.0167 146.205 93.6141 146.205 97.8938L137.804 96.6879C137.804 93.3567 136.735 90.8024 134.589 89.0154C132.428 87.2187 129.372 86.3673 125.393 86.4725C121.512 86.5745 118.466 87.4518 116.275 89.1093C114.072 90.7765 112.965 92.9261 112.965 95.5484C112.965 97.999 114.262 99.9932 116.842 101.524C119.403 103.044 123.14 104.391 128.016 105.557C136.82 107.653 143.098 110.448 146.978 113.956C150.815 117.423 152.718 121.913 152.718 127.454C152.718 133.615 150.392 138.689 145.692 142.72C140.925 146.807 134.403 149.353 126.026 150.334C120.092 151.03 114.599 150.614 109.573 149.063C104.474 147.49 100.537 144.966 97.8 141.485C95.0418 137.979 93.6562 133.715 93.6562 128.72L110.563 127.323L119.111 128.54C119.111 128.54 117.269 139.168 126.028 138.293C129.756 137.92 132.639 136.901 134.694 135.241C136.737 133.59 137.754 131.47 137.754 128.872Z" fill="url(#paint10_linear)"/>
<path opacity="0.3" d="M209.402 102.527L176.33 113.723V132.125L205.587 129.249L213.593 130.403L170.63 146.13L162.45 143.589V74.9395L205.505 74.4814L213.444 75.6339L176.33 86.2573V102.632L201.426 101.296L209.402 102.527Z" fill="url(#paint11_linear)"/>
</g>
<path d="M146.098 129.969C146.098 127.146 145.086 125.062 143.055 123.708C141.01 122.349 137.3 121.02 131.871 119.714C126.357 118.388 121.928 116.988 118.631 115.518C109.485 111.428 104.825 105.348 104.825 97.3548C104.825 93.2013 106.079 89.4606 108.579 86.1488C111.06 82.8613 114.594 80.2827 119.149 78.4148C123.647 76.5711 128.629 75.6307 134.074 75.5773C139.469 75.5255 144.207 76.4206 148.314 78.2448C152.37 80.048 155.489 82.6104 157.694 85.9286C159.884 89.2259 160.973 92.9958 160.973 97.2529L146.15 97.8793C146.15 94.5594 145.088 92.0116 142.953 90.2311C140.805 88.4392 137.767 87.5926 133.812 87.6995C129.953 87.8031 126.925 88.6788 124.749 90.3331C122.559 91.997 121.46 94.1402 121.46 96.7543C121.46 99.1969 122.748 101.185 125.312 102.711C127.859 104.226 131.572 105.566 136.42 106.727C145.172 108.813 151.412 111.598 155.269 115.092C159.083 118.548 160.973 123.024 160.973 128.548C160.973 134.689 158.66 139.751 153.987 143.77C149.249 147.846 142.765 150.387 134.44 151.368C128.54 152.064 123.082 151.651 118.084 150.107C113.015 148.54 109.102 146.025 106.381 142.556C103.638 139.061 102.261 134.812 102.261 129.832L119.066 128.432C119.066 136.75 124.265 140.386 134.439 139.361C138.144 138.987 141.009 137.97 143.053 136.316C145.086 134.675 146.098 132.559 146.098 129.969Z" fill="url(#paint12_linear)"/>
<path d="M209.394 113.082L184.446 114.848V133.197L213.532 130.317V141.15L170.647 146.143V76.1875L213.449 75.7116V86.6344L184.446 87.4664V103.792L209.394 102.45V113.082Z" fill="url(#paint13_linear)"/>
<path opacity="0.3" d="M234.346 114.678C231.423 114.602 228.71 114.984 226.146 115.618C226.235 115.851 226.322 116.084 226.416 116.314L222.536 119.144C221.547 119.866 221.207 121.3 221.779 122.345L223.295 125.115C223.864 126.153 225.118 126.4 226.097 125.673L230.021 122.753C231.588 124.863 233.41 126.692 235.432 128.184L233.171 132.86C232.619 134 232.947 135.34 233.899 135.85L236.42 137.197C237.362 137.7 238.561 137.189 239.102 136.057L241.344 131.363C243.556 132.163 245.897 132.618 248.322 132.682V137.773C248.322 138.985 249.168 139.859 250.211 139.727L252.962 139.374C253.99 139.243 254.822 138.165 254.822 136.965V131.931C257.172 131.321 259.408 130.36 261.488 129.107L263.565 133.136C264.06 134.097 265.153 134.314 266.006 133.626C253.278 118.653 242.454 114.89 234.346 114.678Z" fill="url(#paint14_linear)"/>
<path opacity="0.3" d="M119.147 78.4164C114.592 80.2844 111.058 82.8629 108.577 86.1504C106.078 89.4606 104.823 93.2029 104.823 97.3564C104.823 105.348 109.484 111.429 118.629 115.52C121.926 116.989 126.355 118.389 131.87 119.715C137.299 121.021 141.009 122.349 143.053 123.71C145.085 125.063 146.096 127.148 146.096 129.971C146.096 132.563 145.085 134.676 143.053 136.321C141.009 137.975 138.144 138.992 134.439 139.366C124.265 140.39 119.066 136.755 119.066 128.437L102.261 129.837C102.261 134.817 103.638 139.066 106.381 142.561C109.102 146.031 113.015 148.547 118.084 150.112C123.08 151.656 128.54 152.067 134.44 151.373C142.767 150.392 149.249 147.851 153.987 143.775C158.66 139.756 160.973 134.694 160.973 128.553C160.973 123.029 159.083 118.553 155.269 115.097C151.412 111.602 145.172 108.818 136.42 106.732C131.573 105.571 127.859 104.231 125.312 102.716C122.748 101.189 121.46 99.2017 121.46 96.7592C121.46 94.145 122.559 92.0019 124.749 90.3379C125.325 89.8992 125.965 89.5172 126.661 89.1886C124.379 86.7299 122.274 83.1332 121.017 77.7171C120.384 77.9324 119.76 78.1655 119.147 78.4164Z" fill="url(#paint15_linear)"/>
<path d="M145.879 95.2036C146.056 96.0324 146.148 96.9243 146.148 97.8825L160.972 97.2561C160.972 96.4953 160.936 95.7507 160.867 95.0207C155.727 94.5384 150.674 95.0385 145.879 95.2036Z" fill="url(#paint16_linear)"/>
<path opacity="0.3" d="M175.799 100.336C174.089 99.137 172.369 98.1868 170.647 97.4374V146.142L213.532 141.148V130.316L184.446 133.195V114.846L186.955 114.668C184.153 110.519 182.804 105.256 175.799 100.336Z" fill="url(#paint17_linear)"/>
<path opacity="0.3" d="M294.243 63.7221L294.834 62.4191C295.056 61.9303 294.925 61.3443 294.539 61.108L293.008 60.1675C293.423 58.9924 293.712 57.7492 293.86 56.464L295.569 56.3442C296.009 56.3135 296.365 55.8522 296.365 55.3164V53.8871C296.365 53.3497 296.009 52.9353 295.569 52.9596L293.905 53.0551C293.79 51.7585 293.526 50.5235 293.133 49.371L294.539 48.327C294.585 48.293 294.625 48.2558 294.663 48.2137L294.842 48.6815L297.154 45.8391L294.136 45.5817C294.004 45.4101 293.826 45.3065 293.638 45.2855C293.47 45.2661 293.293 45.3098 293.134 45.4247L291.744 46.4347C291.097 45.3972 290.324 44.4697 289.45 43.6846L289.556 43.4661L291.681 43.8999L291.951 40.3825L288.725 39.85C288.355 39.7076 287.935 39.8888 287.73 40.3097L286.929 41.964C285.897 41.4525 286.752 40.9118 285.58 40.7565L286.805 38.9533C286.805 38.3916 283.217 38.0161 282.733 38.0161H281.435C280.944 38.0161 280.544 38.4774 280.544 39.0471V40.9782C279.332 41.1627 278.163 41.5496 277.066 42.108L279.282 40.4797C279.282 40.4797 275.379 39.7399 274.934 40.0329L273.746 40.818C273.296 41.1142 273.142 41.7649 273.403 42.2667L274.301 44.0051C273.319 44.8808 272.899 45.3858 272.155 46.5416L270.068 46.0705C269.607 45.7873 269.016 45.9799 268.748 46.5011L268.032 47.8932C267.762 48.4192 267.922 49.0732 268.388 49.3516L270.072 50.36C269.605 51.6566 269.29 53.0357 269.152 54.4666L267.134 54.5815C266.59 54.6123 266.148 55.1238 266.148 55.7227V57.3171C266.148 57.8609 266.512 58.2834 266.985 58.3303L269.279 58.6978C269.468 59.8907 269.787 61.0222 270.217 62.0743L268.388 63.4033C267.922 63.7416 267.762 64.4165 268.032 64.9086L268.748 66.21C269.016 66.6972 273.267 66.9951 273.267 66.9951L271.917 65.1012C272.655 66.0935 273.515 66.953 274.468 67.6555L273.403 69.8537C273.144 70.3894 273.298 71.0191 273.746 71.2586L274.934 71.8916C275.009 71.932 275.088 71.9563 275.167 71.9709L275.162 71.9935L278.868 72.45L279.23 69.6529C279.661 69.7193 280.099 69.7598 280.543 69.7711V72.1635C280.543 72.5892 280.766 72.9259 281.082 73.0424L281.066 73.112L284.737 73.5701L284.81 69.033C285.481 68.7772 286.129 68.4616 286.747 68.0893L287.726 69.9831C287.848 70.2178 288.047 70.3587 288.266 70.3927L291.814 70.8734L290.598 67.5292L290.108 67.6798L289.298 66.0935C290.148 65.2485 290.906 64.2854 291.548 63.2301L293.131 64.1786C293.525 64.423 294.02 64.2126 294.243 63.7221ZM282.085 62.4968C278.612 62.806 275.731 59.758 275.731 55.6822C275.731 51.6064 278.612 48.1959 282.085 48.0696C285.473 47.945 288.159 51.0059 288.159 54.902C288.16 58.7965 285.473 62.1941 282.085 62.4968ZM296.922 54.6689L299.326 53.531L296.922 53.2396V54.6689ZM293.971 64.3793L296.721 64.75L297.123 63.8128L294.845 62.4288L293.971 64.3793Z" fill="url(#paint18_linear)"/>
<path d="M299.112 53.489L297.458 53.5845C297.345 52.2928 297.081 51.061 296.691 49.9117L298.089 48.8709C298.471 48.586 298.602 47.9855 298.382 47.5258L297.795 46.3021C297.573 45.8407 297.081 45.6934 296.694 45.9751L295.312 46.9835C294.669 45.9492 293.9 45.0249 293.031 44.2431L293.826 42.5775C294.054 42.1 293.918 41.4946 293.523 41.2243L292.464 40.5024C292.065 40.2288 291.551 40.3972 291.318 40.8779L290.52 42.5273C289.496 42.0174 288.389 41.6694 287.22 41.514V39.6089C287.22 39.0472 286.83 38.5923 286.349 38.5923H285.059C284.57 38.5923 284.174 39.0537 284.174 39.6218V41.548C282.969 41.7326 281.807 42.1178 280.714 42.6762L279.853 40.9815C279.601 40.4829 279.038 40.3162 278.596 40.6092L277.414 41.3926C276.967 41.6889 276.813 42.3363 277.072 42.8381L277.966 44.5717C276.988 45.4458 276.114 46.4753 275.374 47.6294L273.757 46.6339C273.299 46.3522 272.71 46.5432 272.445 47.0645L271.734 48.4533C271.465 48.9777 271.626 49.63 272.089 49.9085L273.762 50.9137C273.298 52.2054 272.985 53.5812 272.849 55.0089L270.842 55.1254C270.302 55.1562 269.863 55.6661 269.863 56.265V57.8545C269.863 58.4518 270.302 58.905 270.842 58.8678L272.903 58.7221C273.076 60.0996 273.421 61.3994 273.908 62.5972L272.09 63.9229C271.627 64.2612 271.467 64.933 271.736 65.4234L272.446 66.7216C272.713 67.2072 273.301 67.3237 273.759 66.9838L275.598 65.616C276.333 66.605 277.186 67.4613 278.134 68.1606L277.074 70.3522C276.815 70.8864 276.969 71.5145 277.416 71.754L278.597 72.3853C279.039 72.6216 279.601 72.3821 279.855 71.8511L280.905 69.6514C281.943 70.0269 283.041 70.2389 284.175 70.2697V72.6556C284.175 73.2238 284.572 73.6333 285.061 73.5718L286.351 73.4067C286.833 73.3452 287.222 72.8401 287.222 72.2785V69.9185C288.324 69.632 289.371 69.182 290.346 68.5944L291.318 70.4817C291.551 70.9334 292.065 71.0337 292.464 70.71L293.523 69.8521C293.92 69.5316 294.054 68.9084 293.826 68.46L292.882 66.6034C293.727 65.7617 294.48 64.8002 295.119 63.7481L296.694 64.6934C297.081 64.9249 297.573 64.716 297.795 64.2256L298.382 62.9274C298.602 62.4402 298.471 61.8559 298.089 61.6211L296.568 60.6839C296.98 59.512 297.269 58.2737 297.414 56.9918L299.114 56.872C299.553 56.8412 299.905 56.3815 299.905 55.8457V54.4213C299.905 53.8774 299.551 53.4647 299.112 53.489ZM285.706 63.0035C282.252 63.3127 279.389 60.276 279.389 56.2116C279.389 52.1471 282.254 48.7463 285.706 48.6168C289.075 48.4921 291.746 51.5417 291.746 55.4265C291.746 59.3113 289.075 62.7008 285.706 63.0035Z" fill="url(#paint19_linear)"/>
<path d="M99.7926 108.257L85.189 102.612L82.7755 87.1426L100.144 74.6789C101.206 73.8226 99.7424 71.3833 98.3941 71.1793C91.8207 70.1838 84.8571 71.9126 79.3456 76.5646C69.4215 84.9412 68.0117 99.812 76.1714 109.914C84.4768 120.196 99.5433 121.808 109.836 113.512C115.277 109.127 119.048 103.658 119.463 97.1946C119.55 95.8316 117.226 94.2065 116.162 95.0644L99.7926 108.257Z" fill="url(#paint20_linear)"/>
<path d="M77.1183 101.387L16.6561 146.643C12.7681 149.628 12.0979 155.227 15.175 159.044C18.2505 162.859 23.8624 163.395 27.6048 160.232L84.7017 110.795L77.1183 101.387Z" fill="url(#paint21_linear)"/>
<path d="M100.553 109.322L85.9497 103.677L83.5363 88.2077L99.9059 75.0139C100.968 74.1576 100.503 72.4499 99.1548 72.246C92.5814 71.2505 85.6179 72.9792 80.1064 77.6313C70.1823 86.0079 68.7724 100.879 76.9321 110.981C85.2375 121.263 100.304 122.875 110.597 114.579C116.038 110.194 119.055 103.918 119.469 97.4551C119.557 96.0922 117.988 95.2732 116.925 96.1294L100.553 109.322Z" fill="url(#paint22_linear)"/>
<path d="M77.8791 102.452L17.4169 147.707C13.5289 150.692 12.8588 156.291 15.9358 160.107C19.0113 163.923 24.6232 164.458 28.3656 161.295L85.4625 111.858L77.8791 102.452Z" fill="url(#paint23_linear)"/>
<path opacity="0.3" d="M77.1879 114.281C79.1448 114.281 80.7311 112.695 80.7311 110.738C80.7311 108.781 79.1448 107.195 77.1879 107.195C75.231 107.195 73.6446 108.781 73.6446 110.738C73.6446 112.695 75.231 114.281 77.1879 114.281Z" fill="url(#paint24_linear)"/>
<path opacity="0.3" d="M74.6175 115.502L25.3516 155.211C24.45 155.938 23.1308 155.795 22.4041 154.894C21.6773 153.992 21.8197 152.673 22.7213 151.946L71.9871 112.237L74.6175 115.502Z" fill="url(#paint25_linear)"/>
<path d="M95.6941 171.2L97.0651 170.907C97.0651 170.907 98.734 170.501 98.8182 170.509C98.9007 170.516 99.2503 171.213 98.3714 171.595C97.4925 171.977 96.0923 172.409 95.6957 172.307C95.2975 172.204 95.6941 171.2 95.6941 171.2Z" fill="url(#paint26_linear)"/>
<path d="M97.2788 169.112L96.756 171.268C96.756 171.268 96.2931 171.598 95.7266 171.268L96.039 169.12L97.2788 169.112Z" fill="url(#paint27_linear)"/>
<path d="M74.9606 164.471L73.923 166.249L74.0768 166.328C74.496 166.543 75.0091 166.43 75.2973 166.056L76.3041 164.75L74.9606 164.471Z" fill="url(#paint28_linear)"/>
<path d="M85.0984 140.873C85.0984 140.873 84.1255 142.553 84.0802 144.625C84.0349 146.697 78.7111 157.649 76.835 160.282C74.959 162.916 74.373 164.471 74.373 164.471C74.373 164.471 75.3783 165.504 76.3041 165.454C76.3041 165.454 85.7199 157.333 90.215 148.526L93.7242 140.873H85.0984Z" fill="url(#paint29_linear)"/>
<g opacity="0.3">
<path opacity="0.3" d="M80.872 158.248C82.0698 156.529 81.2135 156.103 82.3612 153.51C83.8681 150.106 85.7814 149.855 86.513 147.373C86.8513 146.224 86.6296 143.521 85.4641 140.873H93.7242L90.2149 148.526C85.7215 157.333 76.3041 165.454 76.3041 165.454C76.0063 165.47 75.7003 165.373 75.4219 165.235C75.7343 164.649 75.8007 163.613 76.3591 162.488C77.5213 160.148 79.2841 160.525 80.872 158.248Z" fill="url(#paint30_linear)"/>
</g>
<path d="M95.8819 140.722C97.3339 144.393 99.1015 150.224 99.1144 157.518C99.1241 162.513 98.3083 166.72 97.4423 169.836C97.015 170.198 95.8139 170.14 95.487 169.972C94.5773 165.493 94.2875 161.966 94.1985 159.507C94.1419 157.93 94.1532 156.399 93.4944 154.369C93.0606 153.032 92.2513 151.682 90.652 149.036C88.4765 145.437 87.9278 145.023 87.4584 143.278C87.2123 142.368 86.7041 140.041 86.7041 140.041L95.8819 140.722Z" fill="url(#paint31_linear)"/>
<path d="M94.9706 124.26C94.7262 123.479 93.2079 123.313 91.7009 123.165C86.2557 122.629 82.2301 124.547 81.8643 123.773C81.7315 123.493 82.2009 123.124 82.9471 122.148C84.111 120.626 84.7665 119.171 85.1453 118.153C84.7131 118.061 84.2809 117.967 83.8488 117.875C78.5492 120.11 75.6567 123.763 76.2685 126.481C76.623 128.053 78.075 128.984 78.7629 129.424C83.0184 132.151 88.5397 129.464 89.9932 128.757C92.2416 127.664 95.364 125.518 94.9706 124.26Z" fill="url(#paint32_linear)"/>
<path d="M115.924 112.018C115.354 111.962 114.785 111.903 114.215 111.847C112.028 115.196 109.605 117.373 107.931 118.663C106.394 119.848 103.556 121.965 99.4899 122.991C94.3506 124.288 92.3936 122.53 89.8637 123.532C86.9646 124.683 84.1676 129.121 84.255 143.179C85.3411 143.691 87.7578 144.649 90.9029 144.385C93.5818 144.16 95.5501 143.155 96.5569 142.546C96.5828 141.422 96.7366 139.701 97.4164 137.757C97.7757 136.729 99.0253 133.519 103.961 129.296C108.396 125.502 109.66 126.149 111.944 123.715C113.755 121.784 115.774 118.383 115.924 112.018Z" fill="url(#paint33_linear)"/>
<path d="M114.246 111.827C114.246 111.827 113.611 110.51 113.585 110.231C113.532 109.665 113.747 109.767 113.836 109.513C113.925 109.26 113.864 110.311 114.445 110.426C115.026 110.541 115.147 108.721 115.296 107.692C115.445 106.662 116.271 107.782 116.271 108.93C116.271 110.078 115.719 111.975 115.719 111.975C115.719 111.975 114.636 112.572 114.246 111.827Z" fill="url(#paint34_linear)"/>
<path d="M94.9091 122.904L94.4526 122.142L93.5138 122.027L93.3891 122.881C93.3454 123.178 93.0767 123.388 92.7789 123.357L92.3224 123.31C92.3224 123.31 92.6429 124.519 94.3102 124.71C95.9774 124.901 96.4695 123.331 96.4695 123.331L95.8754 123.39C95.4853 123.428 95.1098 123.239 94.9091 122.904Z" fill="url(#paint35_linear)"/>
<path d="M93.4896 122.603C93.4038 122.556 92.7013 122.47 92.6042 122.093C92.4731 121.58 92.9328 120.957 92.991 120.856C93.2306 120.435 93.2921 120.379 93.4038 120.308L93.5592 120.217C93.5592 120.217 93.5673 120.214 93.577 120.21C93.6758 120.178 94.0108 120.175 94.0788 120.191C94.2941 120.243 94.5045 121.13 94.4106 122.375C94.4187 122.422 94.4268 122.47 94.4333 122.519C94.4527 122.645 93.4831 122.648 93.4896 122.603Z" fill="url(#paint36_linear)"/>
<path d="M93.1189 119.853C93.1108 120.24 93.284 120.656 93.3747 120.724C93.386 120.732 93.4523 120.787 93.5106 120.879C93.5187 120.892 93.5252 120.906 93.5317 120.924C93.611 121.17 93.2176 121.447 93.2889 121.557C93.3407 121.638 93.6061 121.538 93.6369 121.607C93.6644 121.672 93.4426 121.8 93.475 121.878C93.4993 121.936 93.6352 121.886 93.7178 121.976C93.7599 122.022 93.7453 122.057 93.7874 122.193C93.8117 122.271 93.844 122.355 93.8716 122.402C93.9994 122.632 94.3766 122.723 94.4511 122.634C94.4721 122.609 94.4543 122.587 94.4769 122.502C94.4769 122.502 94.498 122.425 94.5547 122.334C94.6356 122.206 94.8266 122.117 95.0208 121.984C95.3786 121.738 95.4805 121.525 95.5113 121.452C95.5226 121.426 95.5291 121.407 95.5339 121.392C95.6327 121.109 95.6424 120.691 95.5194 120.431C95.3154 119.995 94.8266 120.188 94.4397 119.752C93.9946 119.249 94.2811 118.582 94.035 118.503C93.7631 118.42 93.1318 119.139 93.1189 119.853Z" fill="#26264F"/>
<path d="M93.4313 121.473C93.5284 121.345 93.6919 121.471 93.6903 121.64C93.687 121.808 93.5203 121.98 93.3633 121.942C93.2047 121.905 93.3002 121.645 93.4313 121.473Z" fill="url(#paint37_linear)"/>
<path opacity="0.3" d="M90.843 142.726C92.8453 141.038 90.7103 136.52 93.6401 133.882C94.8864 132.76 95.6812 133.207 97.2044 131.716C99.1112 129.848 98.543 128.482 100.047 127.114C101.835 125.487 103.318 126.805 106.635 125.58C109.56 124.498 111.322 122.397 113.041 120.345C113.71 119.547 114.519 118.472 115.309 117.106C114.545 120.34 113.195 122.378 111.944 123.712C109.658 126.146 108.394 125.499 103.961 129.293C99.0254 133.516 97.7758 136.727 97.4164 137.754C96.7366 139.698 96.5828 141.417 96.5569 142.543C95.5501 143.152 93.5818 144.159 90.9029 144.382C87.7562 144.646 85.3411 143.688 84.255 143.176C84.2518 142.762 84.2534 142.359 84.255 141.961C88.19 143.752 89.9673 143.464 90.843 142.726Z" fill="url(#paint38_linear)"/>
<path d="M74.3941 165.737C74.3941 165.737 73.9247 165.413 73.5637 166.189C73.2027 166.964 73.622 167.994 73.6527 168.175C73.6835 168.356 75.1144 168.355 75.1144 168.355C75.1144 168.355 75.4932 167.934 75.1144 167.812C74.7356 167.692 74.8845 166.818 74.9736 166.639C75.0642 166.459 75.0853 165.944 74.3941 165.737Z" fill="url(#paint39_linear)"/>
<path d="M85.0028 118.186C85.0028 118.186 86.2508 117.116 85.0028 116.938C83.7549 116.759 82.8646 115.333 82.5068 115.155C82.1507 114.977 82.1507 116.759 82.8629 116.938C83.5751 117.116 84.1708 118.033 84.1708 118.033L85.0028 118.186Z" fill="url(#paint40_linear)"/>
<path d="M157.008 6.41644V37.9271C157.008 38.9727 157.854 39.8031 158.895 39.7821L215.487 38.6085C216.288 38.5923 216.936 37.838 216.936 36.9251V9.4126L157.008 6.41644Z" fill="white"/>
<path d="M215.485 5.8337L158.893 2.52676C157.853 2.46525 157.006 3.26487 157.006 4.31053V7.53977L216.932 10.3919V7.57215C216.934 6.65922 216.287 5.88064 215.485 5.8337Z" fill="url(#paint41_linear)"/>
<path d="M161.32 5.17172C161.32 5.63304 160.949 5.98753 160.491 5.96325C160.033 5.93897 159.659 5.54563 159.659 5.08269C159.659 4.61975 160.031 4.26526 160.491 4.29116C160.949 4.31706 161.32 4.71201 161.32 5.17172Z" fill="white"/>
<path d="M169.808 35.5266L165.179 35.5832V12.3424L169.808 12.5188V35.5266Z" fill="#D8DEE8"/>
<path d="M169.808 35.5266L165.179 35.5833V24.5488L169.808 24.6038V35.5266Z" fill="url(#paint42_linear)"/>
<path d="M176.098 35.4521L171.595 35.5056V12.5868L176.098 12.7584V35.4521Z" fill="#D8DEE8"/>
<path d="M176.098 35.4522L171.595 35.5056V30.0652H176.098V35.4522Z" fill="url(#paint43_linear)"/>
<path d="M182.218 35.3793L177.837 35.4311V12.8248L182.218 12.9915V35.3793Z" fill="#D8DEE8"/>
<path d="M182.218 35.3793L177.837 35.4311V32.6146L182.218 32.5887V35.3793Z" fill="url(#paint44_linear)"/>
<path d="M188.175 35.3081L183.91 35.3583V13.0562L188.175 13.2181V35.3081Z" fill="#D8DEE8"/>
<path d="M188.175 35.3081L183.91 35.3583V17.8864L188.175 18.0029V35.3081Z" fill="url(#paint45_linear)"/>
<path d="M193.975 35.2385L189.821 35.2887V13.2812L193.975 13.4399V35.2385Z" fill="#D8DEE8"/>
<path d="M193.975 35.2385L189.821 35.2887V20.0068L193.975 20.1023V35.2385Z" fill="url(#paint46_linear)"/>
<path d="M199.624 35.1705L195.579 35.219V13.4997L199.624 13.6551V35.1705Z" fill="#D8DEE8"/>
<path d="M199.624 35.1705L195.579 35.2191V16.6578L199.624 16.7824V35.1705Z" fill="url(#paint47_linear)"/>
<path d="M205.129 35.1041L201.188 35.1527V13.7134L205.129 13.864V35.1041Z" fill="#D8DEE8"/>
<path d="M205.129 35.1041L201.188 35.1527V21.9832L205.129 22.0577V35.1041Z" fill="url(#paint48_linear)"/>
<path d="M210.495 35.041L206.652 35.0863V13.9222L210.495 14.0679V35.041Z" fill="#D8DEE8"/>
<path d="M210.495 35.041L206.652 35.0863V27.7392L210.495 27.7602V35.041Z" fill="url(#paint49_linear)"/>
<path d="M208.159 73.6672C208.646 74.1593 208.844 74.687 208.667 74.9961C208.544 75.2098 208.274 75.2664 207.978 75.3231C207.51 75.4121 207.021 75.3895 206.019 75.1062C205.082 74.8424 204.532 74.687 204.532 74.462C204.532 74.2516 205.012 74.0881 205.435 73.944C206.032 73.7417 206.557 73.6834 206.916 73.6688C207.33 73.6672 207.745 73.6672 208.159 73.6672Z" fill="url(#paint50_linear)"/>
<path d="M193.596 65.692C193.816 65.7875 194.096 65.9543 194.172 66.231C194.29 66.6665 193.824 67.1181 193.08 67.819C192.52 68.3466 191.765 69.0572 191.501 68.8776C191.34 68.7675 191.435 68.3725 191.524 68.0035C191.631 67.56 191.867 66.8753 192.45 66.1242C192.45 66.1242 192.45 66.1242 193.596 65.692Z" fill="url(#paint51_linear)"/>
<path d="M207.089 72.5844L208.138 73.7482C208.247 73.8679 208.192 74.059 208.036 74.1027C207.806 74.1674 207.486 74.2192 207.193 74.135C207.128 74.1172 207.071 74.0784 207.023 74.0314L205.976 73.0084L207.089 72.5844Z" fill="url(#paint52_linear)"/>
<path d="M193.015 64.9895L193.58 65.8037C193.661 65.9187 193.622 66.0773 193.499 66.1453C193.418 66.1906 193.321 66.2375 193.219 66.2748C193.054 66.3347 192.871 66.2893 192.754 66.1598L192.141 65.4687L193.015 64.9895Z" fill="url(#paint53_linear)"/>
<path d="M203.172 47.9191C202.635 49.0424 201.987 50.6627 201.594 52.6909C201.429 53.5439 200.655 57.8383 202.317 63.0132C203.865 67.8303 206.715 70.8961 208.232 72.3173C208.017 72.4986 207.721 72.7122 207.335 72.8919C206.719 73.1784 206.155 73.248 205.796 73.2626C201.165 69.9556 198.918 66.21 197.899 64.1721C194.459 57.2944 195.322 50.5429 196.825 47.6876C197.319 46.7504 197.877 46.2421 198.509 46.0155C200.535 45.292 202.886 47.6277 203.172 47.9191Z" fill="url(#paint54_linear)"/>
<path opacity="0.3" d="M196.824 47.6892C197.317 46.752 197.876 46.2437 198.507 46.0171C200.535 45.292 202.886 47.6277 203.172 47.9191C202.643 49.0262 202.005 50.619 201.612 52.6083C200.195 52.9418 198.216 53.7317 197.253 55.598C195.692 58.6185 197.936 62.2378 198.4 62.9889C199.425 64.6415 200.045 64.4878 201.558 66.864C202.701 68.6591 202.788 69.4409 203.782 70.3085C204.951 71.3282 206.413 71.6277 207.591 71.6925C207.823 71.9272 208.038 72.136 208.232 72.3173C208.017 72.4985 207.721 72.7122 207.335 72.8919C206.719 73.1784 206.155 73.248 205.796 73.2626C201.165 69.9556 198.918 66.21 197.899 64.1721C194.457 57.296 195.32 50.5445 196.824 47.6892Z" fill="url(#paint55_linear)"/>
<path d="M200.553 47.6681C200.304 48.1748 199.872 48.9291 199.153 49.6769C197.335 51.5724 195.636 51.3927 193.709 52.9547C193.471 53.1474 191.767 54.5621 191.136 56.6259C189.923 60.5981 193.447 64.5153 193.837 64.9377C193.611 65.1482 193.267 65.4185 192.801 65.6451C192.372 65.8523 191.979 65.9526 191.689 66.0044C186.637 61.388 184.167 55.7939 185.849 52.1583C186.767 50.1755 188.938 48.7332 190.542 47.6681C193.164 45.9265 195.666 45.1366 197.295 44.7497C198.381 45.7225 199.467 46.6953 200.553 47.6681Z" fill="url(#paint56_linear)"/>
<path d="M197.539 37.1306C197.463 39.3644 197.981 40.5234 197.256 42.346C196.735 43.6555 195.87 44.5571 195.216 45.1155C195.589 45.831 196.458 47.2603 198.154 48.3755C200.203 49.7239 202.241 49.8145 203.041 49.808C204.736 48.9356 207.308 47.2926 209.372 44.3645C210.77 42.38 212.306 40.2012 211.9 37.4236C211.384 33.8949 208.114 32.0108 207.186 31.475C206.576 31.1237 202.363 28.6941 199.787 30.4795C197.716 31.9169 197.596 35.4602 197.539 37.1306Z" fill="url(#paint57_linear)"/>
<path d="M183.455 39.6671C183.387 39.3061 183.13 39.0439 182.982 38.895C182.811 38.7218 182.777 38.7493 182.665 38.6085C182.384 38.2524 182.452 37.8849 182.343 37.8736C182.249 37.8623 182.084 38.1277 182.095 38.4013C182.108 38.7072 182.332 38.7979 182.29 38.9678C182.23 39.2058 181.7 39.379 181.231 39.2916C180.687 39.188 180.422 38.7493 180.208 38.861C180.053 38.9419 180.064 39.2301 180.064 39.256C180.088 39.7982 180.812 40.3664 181.518 40.4408C181.924 40.4829 182.076 40.3356 182.558 40.4586C182.879 40.5396 182.991 40.6496 183.151 40.5849C183.413 40.4732 183.52 40.0119 183.455 39.6671Z" fill="url(#paint58_linear)"/>
<path d="M183.377 39.4745C187.728 39.7755 190.326 38.6441 191.893 37.5612C195.446 35.1041 196.144 31.1966 200.265 30.1461C201.016 29.9551 202.326 29.62 203.039 30.2901C204.524 31.6806 202.774 36.7745 199.69 39.9067C199.009 40.5978 196.557 43.0177 192.508 43.5632C187.319 44.2625 183.598 41.3343 182.955 40.8131C182.751 40.5833 182.689 40.2628 182.795 39.9811C182.945 39.5845 183.345 39.4826 183.377 39.4745Z" fill="url(#paint59_linear)"/>
<path opacity="0.3" d="M204.906 46.3166C206.131 45.156 205.552 44.4373 207.059 42.1064C208.595 39.7319 209.7 39.6882 210.408 38.0873C210.773 37.2585 211 36.0704 210.595 34.3611C211.215 35.198 211.722 36.2113 211.898 37.4236C212.305 40.2013 210.769 42.38 209.37 44.3645C207.306 47.2927 204.734 48.9356 203.039 49.8081C202.24 49.8145 200.202 49.7255 198.153 48.3756C197.392 47.8754 196.799 47.3121 196.341 46.7795C196.968 47.1243 197.699 47.4254 198.543 47.6067C198.952 47.6973 202.661 48.4435 204.906 46.3166Z" fill="url(#paint60_linear)"/>
<path d="M206.031 29.0599L206.385 30.2577C206.498 30.6414 206.728 30.9797 207.042 31.2257L207.983 31.9622C207.983 31.9622 205.115 31.4798 203.742 30.1444L204.58 29.8806C204.668 29.8531 204.728 29.7705 204.728 29.6783V28.7977L206.031 29.0599Z" fill="url(#paint61_linear)"/>
<path d="M204.998 29.6653C204.862 29.6346 203.871 29.7964 203.59 29.3205C203.208 28.6747 203.588 27.642 203.627 27.4817C203.787 26.8132 203.847 26.7129 203.972 26.572L204.147 26.3875C204.147 26.3875 204.158 26.3794 204.169 26.3713C204.291 26.2871 204.745 26.1512 204.844 26.1463C205.158 26.1301 205.796 27.2551 206.162 28.9903C206.191 29.0518 206.22 29.115 206.249 29.1781C206.327 29.3416 205.008 29.7284 204.998 29.6653Z" fill="url(#paint62_linear)"/>
<path d="M203.402 26.0654C203.544 26.5947 203.946 27.0933 204.096 27.1515C204.116 27.1596 204.227 27.2066 204.344 27.3102C204.36 27.3247 204.375 27.3409 204.391 27.3652C204.597 27.6679 204.169 28.202 204.312 28.3251C204.415 28.4141 204.737 28.1729 204.805 28.2555C204.868 28.3332 204.618 28.5954 204.692 28.6893C204.749 28.7605 204.914 28.6375 205.063 28.7281C205.137 28.7734 205.132 28.8268 205.244 28.9952C205.307 29.0907 205.386 29.1927 205.441 29.2477C205.707 29.5099 206.256 29.4856 206.324 29.3335C206.342 29.2914 206.311 29.2688 206.307 29.1441C206.307 29.1441 206.304 29.0292 206.346 28.8851C206.406 28.6779 206.631 28.4821 206.842 28.2247C207.233 27.7472 207.285 27.4154 207.298 27.3037C207.303 27.2648 207.305 27.2357 207.305 27.213C207.326 26.7889 207.173 26.2159 206.905 25.91C206.453 25.3969 205.864 25.855 205.166 25.4147C204.36 24.9064 204.486 23.8834 204.119 23.8721C203.713 23.8575 203.138 25.0861 203.402 26.0654Z" fill="#26264F"/>
<path d="M204.47 28.1486C204.553 27.935 204.825 28.0418 204.888 28.2733C204.951 28.5031 204.791 28.8026 204.563 28.8155C204.333 28.8269 204.359 28.4351 204.47 28.1486Z" fill="url(#paint63_linear)"/>
<path d="M293.47 98.0573L293.955 97.4908L293.53 96.6086C293.434 96.4111 293.224 96.2995 293.007 96.3302C291.862 96.4953 288.313 97.2674 286.139 100.631C286.025 100.807 286.033 101.037 286.16 101.204C286.39 101.508 286.684 101.803 286.684 101.803L293.47 98.0573Z" fill="url(#paint64_linear)"/>
<path d="M293.903 107.167L292.749 109.178C292.749 109.178 292.508 109.791 292.322 109.997C292.451 110.406 293.01 110.778 293.01 110.778L295.095 108.786L293.978 107.185L293.903 107.167Z" fill="url(#paint65_linear)"/>
<path d="M290.614 110.568L290.949 109.087C290.949 109.087 291.399 107.85 292.934 107.517C294.468 107.183 294.522 108.022 294.522 108.022L293.534 108.407C293.534 108.407 292.895 108.652 292.526 109.639C291.979 110.659 291.38 111.156 291.38 111.156L290.614 110.568Z" fill="url(#paint66_linear)"/>
<path d="M304.677 173.827C304.677 173.827 305.739 176.5 305.461 177.685C306.602 177.662 307.34 177.516 307.34 177.516C307.34 177.516 306.882 176.297 306.791 175.694C306.67 174.878 306.68 173.557 306.68 173.557L304.677 173.827Z" fill="url(#paint67_linear)"/>
<path d="M292.966 180.079C293.034 180.161 293.157 180.334 293.167 180.569C293.172 180.697 293.143 180.802 293.107 180.898C292.926 181.373 292.641 181.437 292.335 181.943C292.147 182.252 292.183 182.346 292.011 182.486C291.785 182.67 291.511 182.68 291.273 182.683C290.872 182.688 290.294 182.673 289.567 182.586C289.949 182.094 290.354 181.595 290.784 181.092C290.974 180.87 291.161 180.655 291.351 180.444L292.472 180.066C292.636 180.07 292.801 180.074 292.966 180.079Z" fill="#26264F"/>
<path d="M292.034 174.637C292.034 174.637 291.393 177.981 292.209 178.916C292.903 179.852 291.874 179.185 291.874 179.185L290.643 180.258L289.905 181.534C289.905 181.534 290.585 178.261 290.404 176.963C290.223 175.664 290.132 174.789 290.132 174.789L292.034 174.637Z" fill="url(#paint68_linear)"/>
<path d="M289.619 138.063C289.619 138.063 287.898 139.604 287.898 145.946C287.898 152.288 288.714 166.059 288.714 166.059L290.019 175.919C290.019 175.919 291.372 175.967 292.278 175.695C293.094 171.98 294.423 165.697 293.788 160.442C293.517 154.735 296.053 147.577 296.053 147.577C296.053 147.577 298.227 154.826 299.768 158.45C301.309 162.074 304.24 173.427 304.512 174.243C306.314 174.407 307.084 173.931 307.084 173.931C307.084 173.931 305.928 161.713 304.841 157.092C303.753 152.471 303.844 141.328 302.032 138.157C297.953 136.523 289.619 138.063 289.619 138.063Z" fill="url(#paint69_linear)"/>
<path d="M289.619 138.063C289.619 138.063 287.897 139.604 287.897 145.946C287.897 152.288 288.712 166.059 288.712 166.059L290.017 175.919C290.017 175.919 291.37 175.967 292.277 175.695C293.092 171.98 294.421 165.697 293.787 160.442C293.515 154.735 296.051 147.577 296.051 147.577C296.051 147.577 298.225 154.826 299.766 158.45C301.307 162.074 304.239 173.427 304.511 174.243C306.312 174.407 307.083 173.931 307.083 173.931C307.083 173.931 305.927 161.713 304.839 157.092C303.751 152.471 303.842 141.328 302.031 138.157C297.953 136.523 289.619 138.063 289.619 138.063Z" fill="url(#paint70_linear)"/>
<path opacity="0.25" d="M298.56 149.683C299.098 153.171 300.171 155.051 302.855 157.466C305.001 159.076 303.392 162.565 304.197 165.248C304.465 166.053 305.27 166.859 305.538 167.663C306.537 169.661 305.605 172.103 306.056 174.219C306.76 174.122 307.081 173.926 307.081 173.926C307.081 173.926 305.925 161.708 304.837 157.087C303.75 152.466 303.84 141.323 302.029 138.152C297.952 136.522 289.617 138.061 289.617 138.061C289.617 138.061 287.895 139.602 287.895 145.944C287.895 146.459 287.9 147.022 287.909 147.624C289.696 149.206 293.351 149.557 295.606 147.804C295.742 147.702 295.888 147.639 296.037 147.608C296.043 147.589 296.048 147.574 296.048 147.574C296.048 147.574 296.051 147.587 296.058 147.605C297.086 147.42 298.329 148.752 298.56 149.683Z" fill="url(#paint71_linear)"/>
<path d="M305.181 178.699C305.181 178.699 304.915 178.699 304.938 179.041C304.96 179.383 304.818 180.559 306.165 180.614C307.511 180.669 307.719 180.519 307.762 180.519C307.806 180.519 307.41 179.394 307.41 179.394L306.979 178.842L305.82 178.721L305.181 178.699Z" fill="#26264F"/>
<path d="M308.167 179.881C308.137 179.596 307.979 179.149 307.818 178.79C307.581 178.256 307.776 178.055 307.548 177.568C307.47 177.4 307.393 177.239 307.228 177.082C307.189 177.045 306.818 176.702 306.278 176.72C306.171 176.723 306.007 176.731 305.831 176.825C305.622 176.937 305.517 177.103 305.428 177.251C305.287 177.481 305.319 177.552 305.104 178.212C305.086 178.266 305.049 178.381 305.02 178.539C304.997 178.661 304.989 178.763 304.984 178.832C305.337 178.832 306.694 178.887 306.982 179.098C307.268 179.308 307.412 179.661 307.412 180.014C307.412 180.367 307.589 180.532 307.765 180.522C307.922 180.511 308.235 180.218 308.167 179.881Z" fill="#444B8C"/>
<path d="M291.862 178.445C292.165 178.45 292.388 178.691 292.555 179.272C292.723 179.854 293.528 180.368 292.589 180.245C291.65 180.122 290.967 181.453 290.632 181.945C290.297 182.437 289.395 182.874 289.418 182.393C289.441 181.913 289.837 181.688 289.949 181.195C290.062 180.705 291.171 178.436 291.862 178.445Z" fill="#444B8C"/>
<path d="M298.248 116.403C296.726 116.358 292.856 115.936 291.046 117.745C289.195 119.595 291.071 121.816 290.736 124.866C290.569 126.392 290.569 127.456 290.423 129.27C290.409 129.455 290.273 130.944 290.198 131.53C289.682 135.591 286.823 137.181 286.037 140.547C285.732 141.85 285.625 143.903 286.95 146.784C287.778 146.834 288.981 146.998 290.297 147.545C294.263 149.191 294.561 152.365 297.294 153.173C299.949 153.958 300.925 151.336 305.053 150.586C311.484 149.419 315.791 154.57 317.374 153.021C318.721 151.703 317.201 146.412 313.572 143.589C309.235 140.216 304.794 142.626 302.77 139.482C301.511 137.524 302.023 134.702 302.756 130.664C303.139 128.545 303.494 127.551 303.954 126.146C304.436 124.672 305.126 122.999 306.411 120.363C307.113 118.92 305.444 119.728 304.376 118.462C302.736 116.52 299.782 116.449 298.248 116.403Z" fill="url(#paint72_linear)"/>
<path d="M293.442 116.646C292.233 116.959 288.644 115.911 288.398 115.256C287.835 113.763 289.198 113.054 291.943 111.285C291.22 110.843 291.184 110.011 290.46 109.569C288.186 110.715 283.041 112.468 284.002 117.001C284.784 120.685 289.149 124.103 292.885 126.347C293.63 124.718 294.936 116.259 293.442 116.646Z" fill="url(#paint73_linear)"/>
<path d="M293.965 116.471L295.056 116.136C295.056 116.136 295.341 117.612 298.847 117.797C300.792 117.797 302.05 116.706 302.05 116.706L302.795 117.25C302.795 117.25 301.16 119.291 298.56 119.239C295.206 119.171 293.965 116.471 293.965 116.471Z" fill="url(#paint74_linear)"/>
<path d="M302.596 136.193C302.596 136.193 302.293 136.396 301.828 136.294C301.364 136.192 300.797 135.808 300.292 135.646C299.787 135.484 299.747 136.232 300.495 136.616C301.242 136.999 301.888 137.768 302.172 138.354C302.455 138.94 303.162 137.647 303.162 137.647L302.596 136.193Z" fill="url(#paint75_linear)"/>
<path d="M303.086 117.535C304.086 117.792 306.196 118.483 307.992 120.392C311.053 123.644 310.733 127.804 310.66 128.556C310.168 133.615 306.042 136.964 303.013 138.176L302.343 136.026C303.127 135.547 306.139 133.584 306.618 130.254C306.725 129.513 306.877 128.453 306.294 127.506C305.252 125.811 303.028 126.382 301.929 125.162C301.136 124.277 300.809 122.32 303.086 117.535Z" fill="url(#paint76_linear)"/>
<path d="M297.311 108.865C297.311 108.865 293.709 101.693 293.957 97.4909C289.693 97.1817 286.689 101.806 286.689 101.806C286.689 101.806 293.604 107.137 295.457 110.04C296.445 110.163 297.311 108.865 297.311 108.865Z" fill="url(#paint77_linear)"/>
<path d="M295.621 112.489C295.807 111.049 296.947 110.126 297.194 109.929C298.235 109.101 298.445 109.019 298.803 108.951L299.29 108.876C299.29 108.876 299.316 108.876 299.344 108.878C299.629 108.896 300.485 109.229 300.64 109.339C301.137 109.689 300.772 112.166 299.265 115.244C299.205 115.505 299.146 115.766 299.086 116.026C300.401 116.258 300.726 116.494 300.736 116.683C300.759 117.093 299.32 117.616 297.987 117.65C296.315 117.692 294.541 116.973 294.575 116.436C294.59 116.219 294.904 115.95 296.118 115.688C296.307 115.421 296.497 115.154 296.686 114.888C296.514 114.681 295.483 113.55 295.621 112.489Z" fill="url(#paint78_linear)"/>
<path d="M298.67 107.912C298.089 108.48 297.947 109.466 298.118 110.176C298.22 110.602 298.355 110.646 298.335 110.924C298.282 111.706 296.858 112.048 296.937 112.441C296.993 112.723 297.735 112.619 297.863 112.973C298.002 113.36 297.188 113.694 296.838 114.667C296.832 114.684 296.822 114.714 296.809 114.749C296.809 114.749 296.59 115.426 296.877 116.28C299.242 123.333 305.467 127.422 305.467 127.422C307.125 128.511 311.324 131.193 317.322 131.421C320.573 131.544 326.764 131.779 328.606 127.993C330.147 124.827 328.112 119.945 325.035 118.279C322.415 116.861 320.688 118.67 318.179 117.137C314.949 115.163 316.128 111.139 313.465 109.995C310.435 108.692 307.162 113.151 304.439 111.593C302.631 110.557 302.885 107.766 300.796 107.438C300.506 107.392 299.383 107.216 298.67 107.912Z" fill="url(#paint79_linear)"/>
<path d="M297.434 110.924C297.853 110.673 298.173 111.214 297.976 111.685C297.779 112.156 297.113 112.452 296.71 112.171C296.307 111.891 296.869 111.262 297.434 110.924Z" fill="url(#paint80_linear)"/>
<path d="M296.268 109.252C296.268 109.252 296.728 108.851 297.311 108.867C297.571 108.862 296.841 110.27 295.457 110.04C295.726 109.777 295.996 109.514 296.268 109.252Z" fill="url(#paint81_linear)"/>
<path d="M283.704 100.464C283.95 100.464 284.19 100.335 284.318 100.103C287.843 93.7436 292.945 94.3457 292.995 94.3522C293.379 94.404 293.73 94.1337 293.782 93.7517C293.834 93.3681 293.563 93.0168 293.181 92.965C292.934 92.931 287.077 92.2398 283.095 99.4251C282.908 99.7634 283.031 100.189 283.369 100.377C283.473 100.437 283.589 100.464 283.704 100.464Z" fill="#EBEFF2"/>
<path d="M117.449 74.3034C117.153 74.776 117.2 74.9962 117.25 75.0965C117.399 75.3911 117.855 75.1758 118.961 75.4251C119.09 75.4542 119.338 75.5141 119.658 75.4737C119.934 75.4381 120.264 75.3296 120.257 75.2552C120.256 75.2293 120.209 75.2131 120.191 75.2066C119.887 75.1078 118.004 74.3082 118.004 74.3082L117.449 74.3034Z" fill="url(#paint82_linear)"/>
<path d="M117.413 73.193L117.47 74.3244C117.47 74.3244 117.914 74.7129 118.082 74.3147C118.203 74.0298 118.284 73.2335 118.284 73.2335L117.413 73.193Z" fill="url(#paint83_linear)"/>
<path d="M123.001 74.3342L122.397 75.5676L121.727 75.3863L122.009 74.2176L123.001 74.3342Z" fill="url(#paint84_linear)"/>
<path d="M122.111 76.2507C121.821 75.825 121.523 75.8298 121.492 75.553C121.468 75.3361 121.625 75.0901 121.831 75.0124C122.12 74.9023 122.43 75.1532 122.499 75.2099C122.975 75.5951 122.783 76.1001 123.239 76.3753C123.331 76.4303 123.48 76.4951 123.626 76.6634C123.687 76.7347 123.841 76.9127 123.789 77.0179C123.729 77.141 123.427 77.1037 123.139 77.0697C122.792 77.0293 122.621 77.0082 122.464 76.8868C122.25 76.7201 122.334 76.5793 122.111 76.2507Z" fill="url(#paint85_linear)"/>
<path d="M116.547 46.1919C116.403 48.7931 116.543 51.0431 116.776 52.8884C117.027 54.8728 117.239 55.2306 117.256 56.5903C117.294 59.5492 116.313 59.8907 115.863 63.1944C115.367 66.8429 116.101 69.8358 116.39 70.9786C116.645 71.9773 116.931 72.7915 117.15 73.3581C117.462 73.6786 117.985 73.6089 118.535 73.5442C119.009 70.2372 119.518 67.1294 119.994 63.8225C121.052 58.8758 122.109 53.9292 123.168 48.9841C120.96 48.0518 118.754 47.1227 116.547 46.1919Z" fill="url(#paint86_linear)"/>
<path opacity="0.3" d="M118.535 73.5426C119.009 70.2356 119.518 67.1278 119.994 63.8209C121.052 58.8742 122.109 53.9276 123.168 48.9825C120.962 48.0518 118.755 47.121 116.549 46.1919C116.539 46.3635 116.534 46.5302 116.526 46.7002C119.479 49.7271 119.921 51.9673 119.765 53.4581C119.578 55.2662 118.512 56.082 118.488 58.7237C118.47 60.6127 119.008 60.9898 118.867 62.6845C118.686 64.8665 117.648 66.0141 117.088 67.2379C116.546 68.4195 116.246 70.132 116.894 72.6572C116.984 72.9194 117.072 73.1557 117.15 73.3581C117.462 73.6786 117.985 73.6089 118.535 73.5426Z" fill="url(#paint87_linear)"/>
<path d="M120.356 49.0246C121.79 51.9787 122.533 54.2707 122.922 55.6806C123.16 56.5401 123.365 57.4336 123.336 58.5796C123.299 59.983 122.927 61.108 122.626 61.8234C122.197 62.7363 121.789 63.8079 121.488 65.0316C120.51 69.0022 121.174 72.4467 121.75 74.4442C122.14 74.6271 122.532 74.81 122.922 74.9929C124.047 72.5147 125.465 68.9844 126.638 64.5832C127.279 62.1795 127.773 60.2938 127.977 57.8625C128.192 55.2986 128.165 51.213 126.468 46.1919C124.43 47.1372 122.392 48.0809 120.356 49.0246Z" fill="url(#paint88_linear)"/>
<path d="M123.127 26.9072C125.654 27.5595 127.567 28.1794 128.328 29.5941C129.131 31.0882 127.579 32.0351 126.923 35.1122C125.92 39.8241 128.511 41.8313 127.325 46.5627C126.925 48.157 126.272 49.3613 125.832 50.0719C124.948 50.6789 123.555 51.4915 121.717 51.969C119.043 52.6634 117.805 52.0273 114.291 51.9382C108.543 51.7909 107.549 53.3789 105.05 52.1438C102.523 50.8958 100.864 47.9531 101.516 46.8087C101.907 46.124 102.917 46.6549 104.49 45.9039C106.518 44.9359 106.321 43.369 107.999 42.1793C110.411 40.4684 112.42 42.5645 114.485 41.0754C116.573 39.5684 117.143 35.5298 116.515 33.0451C116.104 31.4216 116.237 29.7058 115.97 28.0532C115.947 27.9156 115.939 27.6987 116.042 27.4624C116.439 26.5575 118.156 26.5203 119.455 26.5041C121.433 26.4798 122.918 26.8521 123.127 26.9072Z" fill="url(#paint89_linear)"/>
<path opacity="0.3" d="M105.5 50.3616C106.335 49.9003 106.031 48.3674 107.269 47.6714C108.418 47.0239 109.187 48.0583 110.833 47.7005C112.944 47.2408 113.001 45.2499 115.024 44.7805C116.479 44.4438 116.832 45.3842 118.875 45.593C120.913 45.8018 123.66 45.1803 125.534 43.1569C126.331 42.2974 126.815 41.3489 127.109 40.4602C127.509 42.2699 127.961 44.0245 127.325 46.5626C126.925 48.157 126.272 49.3613 125.832 50.0719C124.948 50.6789 123.555 51.4915 121.717 51.969C119.043 52.6634 117.805 52.0272 114.291 51.9382C108.543 51.7909 107.549 53.3788 105.05 52.1438C103.436 51.3458 102.178 49.8582 101.649 48.5876C103.773 50.4199 104.893 50.6983 105.5 50.3616Z" fill="url(#paint90_linear)"/>
<path d="M124.976 22.5934C124.976 22.5934 125.571 23.9773 125.539 24.9129C125.507 25.8469 124.463 25.6931 124.463 25.6931L124.453 26.2839C124.445 26.7874 124.735 27.2487 125.191 27.4607L125.593 27.6469C125.593 27.6469 122.841 28.0014 121.45 26.8359L121.879 26.8294C122.486 26.8197 123.004 26.3843 123.116 25.787L123.163 25.5377C123.161 25.5377 122.933 22.5982 124.976 22.5934Z" fill="url(#paint91_linear)"/>
<path d="M127.732 37.7069L131.847 30.6074C131.897 30.52 131.999 30.4763 132.098 30.499L137.856 31.8441C138.009 31.8797 138.082 32.0561 137.998 32.1905L133.223 39.8258C133.165 39.918 133.051 39.9569 132.949 39.9196L127.889 38.0922L127.732 37.7069Z" fill="url(#paint92_linear)"/>
<path d="M128.746 36.9008L132.079 31.1529C132.119 31.0817 132.202 31.0461 132.283 31.0655L136.944 32.1549C137.069 32.184 137.127 32.3264 137.059 32.4349L133.192 38.6182C133.145 38.6927 133.053 38.725 132.97 38.6943L128.874 37.2148L128.746 36.9008Z" fill="url(#paint93_linear)"/>
<path d="M133.061 31.2193L133.325 30.758C133.362 30.6932 133.437 30.6609 133.508 30.677L135.907 31.2161C136.018 31.2403 136.073 31.3666 136.015 31.4653L135.721 31.9671C135.683 32.0319 135.607 32.0626 135.534 32.0448L133.166 31.4653C133.058 31.441 133.006 31.3164 133.061 31.2193Z" fill="url(#paint94_linear)"/>
<path d="M136.203 33.1957C136.2 33.1957 136.197 33.1941 136.192 33.1941L131.97 32.197C131.918 32.184 131.886 32.1322 131.897 32.0804C131.91 32.0286 131.964 31.9962 132.014 32.0076L136.235 33.0047C136.287 33.0176 136.32 33.0694 136.308 33.1212C136.297 33.1714 136.25 33.2022 136.203 33.1957Z" fill="white"/>
<path d="M135.938 33.6052C135.934 33.6052 135.929 33.6036 135.926 33.6036L131.731 32.5676C131.679 32.5547 131.646 32.5029 131.659 32.4495C131.672 32.3977 131.724 32.3653 131.778 32.3783L135.973 33.4142C136.025 33.4271 136.057 33.4789 136.044 33.5324C136.031 33.5793 135.986 33.6117 135.938 33.6052Z" fill="white"/>
<path d="M133.725 34.0601C133.72 34.0601 133.715 34.0584 133.71 34.0568L131.429 33.4272C131.378 33.4126 131.347 33.3592 131.362 33.3074C131.376 33.2556 131.429 33.2248 131.481 33.2394L133.762 33.8691C133.814 33.8836 133.845 33.937 133.83 33.9888C133.817 34.0374 133.77 34.0665 133.725 34.0601Z" fill="white"/>
<path d="M134.393 37.9578C134.393 37.9578 135.411 37.4107 135.57 36.9656C135.729 36.5221 135.79 35.6609 135.79 35.6609L135.11 36.8118C135.11 36.8118 134.851 36.7066 134.777 36.2971C134.702 35.8875 134.469 36.2307 134.518 36.5399C134.565 36.849 134.393 37.9578 134.393 37.9578Z" fill="url(#paint95_linear)"/>
<path d="M127.92 29.0972C128.391 29.455 129.092 30.0717 129.67 31.0089C131.316 33.6732 130.3 36.221 131.777 37.3152C132.2 37.6276 132.969 37.9271 134.448 37.571L134.965 37.919C134.965 37.919 135.277 41.3878 131.136 41.0835C126.996 40.7792 125.476 35.4327 125.476 35.4327L127.92 29.0972Z" fill="url(#paint96_linear)"/>
<path d="M124.443 23.877C124.304 23.8543 124.204 23.6666 124.103 23.7119C123.998 23.7588 123.988 24.0178 124.06 24.2072C124.12 24.3626 124.228 24.4549 124.291 24.5002C124.171 24.641 124.014 24.8611 123.932 25.1606C123.749 25.8226 124.061 26.3924 124.184 26.721C124.736 28.2021 123.508 30.3711 122.269 31.4151C121.263 32.2633 120.861 31.8554 120.243 32.566C119.04 33.9483 120.398 35.6884 119.675 37.6227C118.576 40.5638 113.747 41.0656 113.546 41.0834C113.467 41.0915 113.415 41.0948 113.333 41.1013C111.172 41.2631 107.897 41.5092 105.765 39.57C104.171 38.1197 103.579 35.7742 103.873 33.7768C103.951 33.2507 104.278 31.2597 106.047 29.7592C106.327 29.5213 107.991 28.1147 110.066 28.2668C111.165 28.3478 111.355 28.754 112.216 28.5841C113.394 28.351 114.189 27.3636 114.683 26.7517C115.591 25.6252 115.283 25.3435 115.913 24.8045C117.148 23.7491 118.411 24.7624 119.714 23.8495C120.997 22.9479 120.385 21.5315 121.615 20.7611C122.885 19.9663 125.146 20.4681 125.544 21.572C125.887 22.5189 124.869 23.9482 124.443 23.877Z" fill="url(#paint97_linear)"/>
</g>
<defs>
<linearGradient id="paint0_linear" x1="16.9714" y1="5.14347" x2="138.633" y2="149.089" gradientUnits="userSpaceOnUse">
<stop offset="0.00359712" stop-color="#E38DDD"/>
<stop offset="1" stop-color="#9571F6"/>
</linearGradient>
<linearGradient id="paint1_linear" x1="58.874" y1="-23.7421" x2="173.885" y2="112.335" gradientUnits="userSpaceOnUse">
<stop offset="0.00359712" stop-color="#E38DDD"/>
<stop offset="1" stop-color="#9571F6"/>
</linearGradient>
<linearGradient id="paint2_linear" x1="-8.12642" y1="27.9928" x2="110.652" y2="168.527" gradientUnits="userSpaceOnUse">
<stop offset="0.00359712" stop-color="#E38DDD"/>
<stop offset="1" stop-color="#9571F6"/>
</linearGradient>
<linearGradient id="paint3_linear" x1="211.821" y1="31.6788" x2="280.621" y2="92.4591" gradientUnits="userSpaceOnUse">
<stop stop-color="#FF9085"/>
<stop offset="1" stop-color="#FB6FBB"/>
</linearGradient>
<linearGradient id="paint4_linear" x1="232.657" y1="24.2104" x2="264.795" y2="37.5489" gradientUnits="userSpaceOnUse">
<stop stop-color="#FF9085"/>
<stop offset="1" stop-color="#FB6FBB"/>
</linearGradient>
<linearGradient id="paint5_linear" x1="236.486" y1="17.2028" x2="267.004" y2="29.8688" gradientUnits="userSpaceOnUse">
<stop stop-color="#FF9085"/>
<stop offset="1" stop-color="#FB6FBB"/>
</linearGradient>
<linearGradient id="paint6_linear" x1="247.374" y1="33.6699" x2="271.425" y2="43.6517" gradientUnits="userSpaceOnUse">
<stop offset="0.00359712" stop-color="#E38DDD"/>
<stop offset="1" stop-color="#9571F6"/>
</linearGradient>
<linearGradient id="paint7_linear" x1="250.031" y1="28.0221" x2="273.349" y2="37.7" gradientUnits="userSpaceOnUse">
<stop offset="0.00359712" stop-color="#E38DDD"/>
<stop offset="1" stop-color="#9571F6"/>
</linearGradient>
<linearGradient id="paint8_linear" x1="128.736" y1="-6.35857" x2="369.218" y2="215.813" gradientUnits="userSpaceOnUse">
<stop stop-color="#FFC444"/>
<stop offset="0.9964" stop-color="#F36F56"/>
</linearGradient>
<linearGradient id="paint9_linear" x1="253.657" y1="157.372" x2="246.123" y2="39.3378" gradientUnits="userSpaceOnUse">
<stop stop-color="#FFC444"/>
<stop offset="0.9964" stop-color="#F36F56"/>
</linearGradient>
<linearGradient id="paint10_linear" x1="76.9798" y1="69.8019" x2="321.529" y2="295.73" gradientUnits="userSpaceOnUse">
<stop stop-color="#AA80F9"/>
<stop offset="0.9964" stop-color="#6165D7"/>
</linearGradient>
<linearGradient id="paint11_linear" x1="114.512" y1="41.7697" x2="328.885" y2="239.819" gradientUnits="userSpaceOnUse">
<stop stop-color="#AA80F9"/>
<stop offset="0.9964" stop-color="#6165D7"/>
</linearGradient>
<linearGradient id="paint12_linear" x1="85.6208" y1="71.1472" x2="329.055" y2="296.045" gradientUnits="userSpaceOnUse">
<stop stop-color="#AA80F9"/>
<stop offset="0.9964" stop-color="#6165D7"/>
</linearGradient>
<linearGradient id="paint13_linear" x1="120.575" y1="44.8966" x2="336.031" y2="243.947" gradientUnits="userSpaceOnUse">
<stop stop-color="#AA80F9"/>
<stop offset="0.9964" stop-color="#6165D7"/>
</linearGradient>
<linearGradient id="paint14_linear" x1="172.216" y1="62.5233" x2="361.84" y2="237.709" gradientUnits="userSpaceOnUse">
<stop stop-color="#FFC444"/>
<stop offset="0.9964" stop-color="#F36F56"/>
</linearGradient>
<linearGradient id="paint15_linear" x1="57.8327" y1="58.6925" x2="265.095" y2="250.173" gradientUnits="userSpaceOnUse">
<stop stop-color="#AA80F9"/>
<stop offset="0.9964" stop-color="#6165D7"/>
</linearGradient>
<linearGradient id="paint16_linear" x1="83.0688" y1="31.3766" x2="290.331" y2="222.858" gradientUnits="userSpaceOnUse">
<stop stop-color="#AA80F9"/>
<stop offset="0.9964" stop-color="#6165D7"/>
</linearGradient>
<linearGradient id="paint17_linear" x1="106.985" y1="59.6069" x2="322.442" y2="258.658" gradientUnits="userSpaceOnUse">
<stop stop-color="#AA80F9"/>
<stop offset="0.9964" stop-color="#6165D7"/>
</linearGradient>
<linearGradient id="paint18_linear" x1="228.843" y1="5.94875" x2="339.844" y2="108.497" gradientUnits="userSpaceOnUse">
<stop stop-color="#FF9085"/>
<stop offset="1" stop-color="#FB6FBB"/>
</linearGradient>
<linearGradient id="paint19_linear" x1="283.079" y1="42.0636" x2="290.567" y2="100.463" gradientUnits="userSpaceOnUse">
<stop stop-color="#FF9085"/>
<stop offset="1" stop-color="#FB6FBB"/>
</linearGradient>
<linearGradient id="paint20_linear" x1="87.7399" y1="82.1245" x2="129.6" y2="174.149" gradientUnits="userSpaceOnUse">
<stop stop-color="#40447E"/>
<stop offset="0.9964" stop-color="#3C3B6B"/>
</linearGradient>
<linearGradient id="paint21_linear" x1="36.3952" y1="105.48" x2="78.2594" y2="197.513" gradientUnits="userSpaceOnUse">
<stop stop-color="#40447E"/>
<stop offset="0.9964" stop-color="#3C3B6B"/>
</linearGradient>
<linearGradient id="paint22_linear" x1="88.3542" y1="83.2559" x2="130.214" y2="175.281" gradientUnits="userSpaceOnUse">
<stop stop-color="#FF9085"/>
<stop offset="1" stop-color="#FB6FBB"/>
</linearGradient>
<linearGradient id="paint23_linear" x1="37.1558" y1="106.545" x2="79.02" y2="198.578" gradientUnits="userSpaceOnUse">
<stop stop-color="#FF9085"/>
<stop offset="1" stop-color="#FB6FBB"/>
</linearGradient>
<linearGradient id="paint24_linear" x1="88.3385" y1="126.007" x2="77.1999" y2="110.754" gradientUnits="userSpaceOnUse">
<stop stop-color="#FF9085"/>
<stop offset="0.033" stop-color="#FF8F87"/>
<stop offset="1" stop-color="#FB6FBB"/>
</linearGradient>
<linearGradient id="paint25_linear" x1="59.1969" y1="149.832" x2="47.8764" y2="134.33" gradientUnits="userSpaceOnUse">
<stop stop-color="#FF9085"/>
<stop offset="0.033" stop-color="#FF8F87"/>
<stop offset="1" stop-color="#FB6FBB"/>
</linearGradient>
<linearGradient id="paint26_linear" x1="98.9556" y1="171.415" x2="95.518" y2="171.415" gradientUnits="userSpaceOnUse">
<stop stop-color="#40447E"/>
<stop offset="0.9964" stop-color="#3C3B6B"/>
</linearGradient>
<linearGradient id="paint27_linear" x1="96.9438" y1="162.896" x2="96.4625" y2="170.837" gradientUnits="userSpaceOnUse">
<stop stop-color="#311944"/>
<stop offset="1" stop-color="#A03976"/>
</linearGradient>
<linearGradient id="paint28_linear" x1="75.351" y1="161.587" x2="74.8698" y2="169.529" gradientUnits="userSpaceOnUse">
<stop stop-color="#311944"/>
<stop offset="1" stop-color="#A03976"/>
</linearGradient>
<linearGradient id="paint29_linear" x1="77.7631" y1="161.907" x2="85.7044" y2="148.13" gradientUnits="userSpaceOnUse">
<stop stop-color="#40447E"/>
<stop offset="0.9964" stop-color="#3C3B6B"/>
</linearGradient>
<linearGradient id="paint30_linear" x1="77.8997" y1="161.986" x2="85.841" y2="148.209" gradientUnits="userSpaceOnUse">
<stop stop-color="#40447E"/>
<stop offset="0.9964" stop-color="#3C3B6B"/>
</linearGradient>
<linearGradient id="paint31_linear" x1="89.1398" y1="154.462" x2="102.556" y2="156.327" gradientUnits="userSpaceOnUse">
<stop stop-color="#40447E"/>
<stop offset="0.9964" stop-color="#3C3B6B"/>
</linearGradient>
<linearGradient id="paint32_linear" x1="84.4467" y1="122.977" x2="112.943" y2="183.165" gradientUnits="userSpaceOnUse">
<stop stop-color="#FFC444"/>
<stop offset="0.9964" stop-color="#F36F56"/>
</linearGradient>
<linearGradient id="paint33_linear" x1="95.4386" y1="117.773" x2="123.935" y2="177.961" gradientUnits="userSpaceOnUse">
<stop stop-color="#FFC444"/>
<stop offset="0.9964" stop-color="#F36F56"/>
</linearGradient>
<linearGradient id="paint34_linear" x1="106.225" y1="75.112" x2="120.664" y2="132.055" gradientUnits="userSpaceOnUse">
<stop stop-color="#311944"/>
<stop offset="1" stop-color="#A03976"/>
</linearGradient>
<linearGradient id="paint35_linear" x1="95.5852" y1="127.157" x2="93.3708" y2="120.021" gradientUnits="userSpaceOnUse">
<stop stop-color="#311944"/>
<stop offset="1" stop-color="#A03976"/>
</linearGradient>
<linearGradient id="paint36_linear" x1="94.6093" y1="125.648" x2="92.9264" y2="119.365" gradientUnits="userSpaceOnUse">
<stop stop-color="#311944"/>
<stop offset="1" stop-color="#A03976"/>
</linearGradient>
<linearGradient id="paint37_linear" x1="94.5404" y1="125.667" x2="92.8576" y2="119.384" gradientUnits="userSpaceOnUse">
<stop stop-color="#311944"/>
<stop offset="1" stop-color="#A03976"/>
</linearGradient>
<linearGradient id="paint38_linear" x1="94.204" y1="118.357" x2="122.7" y2="178.546" gradientUnits="userSpaceOnUse">
<stop stop-color="#FFC444"/>
<stop offset="0.9964" stop-color="#F36F56"/>
</linearGradient>
<linearGradient id="paint39_linear" x1="75.2824" y1="167.013" x2="73.4182" y2="167.013" gradientUnits="userSpaceOnUse">
<stop stop-color="#40447E"/>
<stop offset="0.9964" stop-color="#3C3B6B"/>
</linearGradient>
<linearGradient id="paint40_linear" x1="90.8711" y1="89.0082" x2="79.1059" y2="135.407" gradientUnits="userSpaceOnUse">
<stop stop-color="#311944"/>
<stop offset="1" stop-color="#A03976"/>
</linearGradient>
<linearGradient id="paint41_linear" x1="191.421" y1="-0.18378" x2="167.153" y2="39.4898" gradientUnits="userSpaceOnUse">
<stop stop-color="#FF9085"/>
<stop offset="1" stop-color="#FB6FBB"/>
</linearGradient>
<linearGradient id="paint42_linear" x1="169.991" y1="22.2456" x2="164.038" y2="40.825" gradientUnits="userSpaceOnUse">
<stop stop-color="#FF9085"/>
<stop offset="1" stop-color="#FB6FBB"/>
</linearGradient>
<linearGradient id="paint43_linear" x1="175.227" y1="28.4511" x2="171.939" y2="38.7137" gradientUnits="userSpaceOnUse">
<stop stop-color="#FF9085"/>
<stop offset="1" stop-color="#FB6FBB"/>
</linearGradient>
<linearGradient id="paint44_linear" x1="180.88" y1="31.3366" x2="178.851" y2="37.6674" gradientUnits="userSpaceOnUse">
<stop stop-color="#FF9085"/>
<stop offset="1" stop-color="#FB6FBB"/>
</linearGradient>
<linearGradient id="paint45_linear" x1="189.793" y1="14.8922" x2="180.849" y2="42.8029" gradientUnits="userSpaceOnUse">
<stop stop-color="#FF9085"/>
<stop offset="1" stop-color="#FB6FBB"/>
</linearGradient>
<linearGradient id="paint46_linear" x1="195.208" y1="17.2948" x2="187.318" y2="41.918" gradientUnits="userSpaceOnUse">
<stop stop-color="#FF9085"/>
<stop offset="1" stop-color="#FB6FBB"/>
</linearGradient>
<linearGradient id="paint47_linear" x1="201.556" y1="13.5762" x2="192.129" y2="42.9931" gradientUnits="userSpaceOnUse">
<stop stop-color="#FF9085"/>
<stop offset="1" stop-color="#FB6FBB"/>
</linearGradient>
<linearGradient id="paint48_linear" x1="206.036" y1="19.5649" x2="199.177" y2="40.9686" gradientUnits="userSpaceOnUse">
<stop stop-color="#FF9085"/>
<stop offset="1" stop-color="#FB6FBB"/>
</linearGradient>
<linearGradient id="paint49_linear" x1="210.29" y1="26.0345" x2="206.202" y2="38.7933" gradientUnits="userSpaceOnUse">
<stop stop-color="#FF9085"/>
<stop offset="1" stop-color="#FB6FBB"/>
</linearGradient>
<linearGradient id="paint50_linear" x1="208.731" y1="74.5186" x2="204.531" y2="74.5186" gradientUnits="userSpaceOnUse">
<stop stop-color="#40447E"/>
<stop offset="0.9964" stop-color="#3C3B6B"/>
</linearGradient>
<linearGradient id="paint51_linear" x1="194.191" y1="67.2985" x2="191.414" y2="67.2985" gradientUnits="userSpaceOnUse">
<stop stop-color="#40447E"/>
<stop offset="0.9964" stop-color="#3C3B6B"/>
</linearGradient>
<linearGradient id="paint52_linear" x1="206.681" y1="74.315" x2="205.157" y2="77.4712" gradientUnits="userSpaceOnUse">
<stop stop-color="#311944"/>
<stop offset="1" stop-color="#A03976"/>
</linearGradient>
<linearGradient id="paint53_linear" x1="192.014" y1="61.8213" x2="194.344" y2="72.2008" gradientUnits="userSpaceOnUse">
<stop stop-color="#311944"/>
<stop offset="1" stop-color="#A03976"/>
</linearGradient>
<linearGradient id="paint54_linear" x1="192.613" y1="69.7619" x2="203.378" y2="58.9974" gradientUnits="userSpaceOnUse">
<stop stop-color="#AB316D"/>
<stop offset="1" stop-color="#792D3D"/>
</linearGradient>
<linearGradient id="paint55_linear" x1="192.613" y1="69.7619" x2="203.378" y2="58.9974" gradientUnits="userSpaceOnUse">
<stop stop-color="#AB316D"/>
<stop offset="1" stop-color="#792D3D"/>
</linearGradient>
<linearGradient id="paint56_linear" x1="185.485" y1="62.6335" x2="196.249" y2="51.869" gradientUnits="userSpaceOnUse">
<stop stop-color="#AB316D"/>
<stop offset="1" stop-color="#792D3D"/>
</linearGradient>
<linearGradient id="paint57_linear" x1="199.608" y1="28.9428" x2="205.564" y2="47.3143" gradientUnits="userSpaceOnUse">
<stop stop-color="#FFC444"/>
<stop offset="0.9964" stop-color="#F36F56"/>
</linearGradient>
<linearGradient id="paint58_linear" x1="180.171" y1="41.2413" x2="182.016" y2="39.3959" gradientUnits="userSpaceOnUse">
<stop stop-color="#311944"/>
<stop offset="1" stop-color="#A03976"/>
</linearGradient>
<linearGradient id="paint59_linear" x1="191.74" y1="31.4938" x2="197.696" y2="49.8653" gradientUnits="userSpaceOnUse">
<stop stop-color="#FFC444"/>
<stop offset="0.9964" stop-color="#F36F56"/>
</linearGradient>
<linearGradient id="paint60_linear" x1="199.873" y1="28.8568" x2="205.83" y2="47.2283" gradientUnits="userSpaceOnUse">
<stop stop-color="#FFC444"/>
<stop offset="0.9964" stop-color="#F36F56"/>
</linearGradient>
<linearGradient id="paint61_linear" x1="207.392" y1="33.5758" x2="202.608" y2="25.6817" gradientUnits="userSpaceOnUse">
<stop stop-color="#311944"/>
<stop offset="1" stop-color="#A03976"/>
</linearGradient>
<linearGradient id="paint62_linear" x1="207.731" y1="33.3704" x2="202.947" y2="25.4764" gradientUnits="userSpaceOnUse">
<stop stop-color="#311944"/>
<stop offset="1" stop-color="#A03976"/>
</linearGradient>
<linearGradient id="paint63_linear" x1="207.644" y1="33.4229" x2="202.86" y2="25.5289" gradientUnits="userSpaceOnUse">
<stop stop-color="#311944"/>
<stop offset="1" stop-color="#A03976"/>
</linearGradient>
<linearGradient id="paint64_linear" x1="288.641" y1="96.2509" x2="291.722" y2="103.013" gradientUnits="userSpaceOnUse">
<stop stop-color="#AB316D"/>
<stop offset="1" stop-color="#792D3D"/>
</linearGradient>
<linearGradient id="paint65_linear" x1="292.251" y1="106.2" x2="295.503" y2="113.338" gradientUnits="userSpaceOnUse">
<stop stop-color="#AB316D"/>
<stop offset="1" stop-color="#792D3D"/>
</linearGradient>
<linearGradient id="paint66_linear" x1="293.355" y1="107.42" x2="291.456" y2="110.858" gradientUnits="userSpaceOnUse">
<stop stop-color="#FFC444"/>
<stop offset="0.9964" stop-color="#F36F56"/>
</linearGradient>
<linearGradient id="paint67_linear" x1="306.009" y1="178.312" x2="306.009" y2="173.446" gradientUnits="userSpaceOnUse">
<stop stop-color="#FFC444"/>
<stop offset="0.9964" stop-color="#F36F56"/>
</linearGradient>
<linearGradient id="paint68_linear" x1="291.178" y1="179.698" x2="291.178" y2="173.834" gradientUnits="userSpaceOnUse">
<stop stop-color="#FFC444"/>
<stop offset="0.9964" stop-color="#F36F56"/>
</linearGradient>
<linearGradient id="paint69_linear" x1="287.897" y1="156.663" x2="307.082" y2="156.663" gradientUnits="userSpaceOnUse">
<stop stop-color="#311944"/>
<stop offset="1" stop-color="#893976"/>
</linearGradient>
<linearGradient id="paint70_linear" x1="292.186" y1="179.809" x2="305.119" y2="127.59" gradientUnits="userSpaceOnUse">
<stop stop-color="#444B8C"/>
<stop offset="0.9964" stop-color="#26264F"/>
</linearGradient>
<linearGradient id="paint71_linear" x1="292.729" y1="139.122" x2="306.55" y2="162.338" gradientUnits="userSpaceOnUse">
<stop stop-color="#311944"/>
<stop offset="1" stop-color="#893976"/>
</linearGradient>
<linearGradient id="paint72_linear" x1="278.148" y1="92.3908" x2="308.94" y2="159.976" gradientUnits="userSpaceOnUse">
<stop offset="0.00359712" stop-color="#E38DDD"/>
<stop offset="1" stop-color="#9571F6"/>
</linearGradient>
<linearGradient id="paint73_linear" x1="282.983" y1="103.378" x2="301.133" y2="143.216" gradientUnits="userSpaceOnUse">
<stop offset="0.00359712" stop-color="#E38DDD"/>
<stop offset="1" stop-color="#9571F6"/>
</linearGradient>
<linearGradient id="paint74_linear" x1="295.291" y1="111.968" x2="300.091" y2="119.596" gradientUnits="userSpaceOnUse">
<stop offset="0.00359712" stop-color="#E38DDD"/>
<stop offset="1" stop-color="#9571F6"/>
</linearGradient>
<linearGradient id="paint75_linear" x1="302.642" y1="132.37" x2="299.288" y2="145.708" gradientUnits="userSpaceOnUse">
<stop stop-color="#FFC444"/>
<stop offset="0.9964" stop-color="#F36F56"/>
</linearGradient>
<linearGradient id="paint76_linear" x1="291.561" y1="98.0669" x2="310.637" y2="139.939" gradientUnits="userSpaceOnUse">
<stop offset="0.00359712" stop-color="#E38DDD"/>
<stop offset="1" stop-color="#9571F6"/>
</linearGradient>
<linearGradient id="paint77_linear" x1="286.955" y1="92.2573" x2="301.385" y2="123.93" gradientUnits="userSpaceOnUse">
<stop stop-color="#FF9085"/>
<stop offset="1" stop-color="#FB6FBB"/>
</linearGradient>
<linearGradient id="paint78_linear" x1="299.973" y1="111.438" x2="295.288" y2="119.017" gradientUnits="userSpaceOnUse">
<stop stop-color="#FFC444"/>
<stop offset="0.9964" stop-color="#F36F56"/>
</linearGradient>
<linearGradient id="paint79_linear" x1="296.73" y1="119.431" x2="329.134" y2="119.431" gradientUnits="userSpaceOnUse">
<stop stop-color="#311944"/>
<stop offset="1" stop-color="#6B3976"/>
</linearGradient>
<linearGradient id="paint80_linear" x1="298.107" y1="109.224" x2="295.145" y2="118.305" gradientUnits="userSpaceOnUse">
<stop stop-color="#FFC444"/>
<stop offset="0.9964" stop-color="#F36F56"/>
</linearGradient>
<linearGradient id="paint81_linear" x1="296.112" y1="108.821" x2="296.938" y2="110.634" gradientUnits="userSpaceOnUse">
<stop stop-color="#AB316D"/>
<stop offset="1" stop-color="#792D3D"/>
</linearGradient>
<linearGradient id="paint82_linear" x1="119.318" y1="78.3838" x2="117.868" y2="70.2503" gradientUnits="userSpaceOnUse">
<stop stop-color="#444B8C"/>
<stop offset="0.9964" stop-color="#26264F"/>
</linearGradient>
<linearGradient id="paint83_linear" x1="117.447" y1="76.6117" x2="118.942" y2="63.998" gradientUnits="userSpaceOnUse">
<stop stop-color="#FFC444"/>
<stop offset="0.9964" stop-color="#F36F56"/>
</linearGradient>
<linearGradient id="paint84_linear" x1="122.091" y1="77.1622" x2="123.586" y2="64.5484" gradientUnits="userSpaceOnUse">
<stop stop-color="#FFC444"/>
<stop offset="0.9964" stop-color="#F36F56"/>
</linearGradient>
<linearGradient id="paint85_linear" x1="122.912" y1="77.743" x2="121.461" y2="69.6094" gradientUnits="userSpaceOnUse">
<stop stop-color="#444B8C"/>
<stop offset="0.9964" stop-color="#26264F"/>
</linearGradient>
<linearGradient id="paint86_linear" x1="119.582" y1="49.2644" x2="115.334" y2="75.1912" gradientUnits="userSpaceOnUse">
<stop stop-color="#311944"/>
<stop offset="1" stop-color="#893976"/>
</linearGradient>
<linearGradient id="paint87_linear" x1="119.582" y1="49.2644" x2="115.334" y2="75.1912" gradientUnits="userSpaceOnUse">
<stop stop-color="#311944"/>
<stop offset="1" stop-color="#893976"/>
</linearGradient>
<linearGradient id="paint88_linear" x1="135.927" y1="62.4455" x2="114.804" y2="58.9629" gradientUnits="userSpaceOnUse">
<stop stop-color="#311944"/>
<stop offset="1" stop-color="#893976"/>
</linearGradient>
<linearGradient id="paint89_linear" x1="103.835" y1="64.2845" x2="122.709" y2="33.8913" gradientUnits="userSpaceOnUse">
<stop stop-color="#FF9085"/>
<stop offset="1" stop-color="#FB6FBB"/>
</linearGradient>
<linearGradient id="paint90_linear" x1="130.733" y1="30.9202" x2="112.361" y2="50.8248" gradientUnits="userSpaceOnUse">
<stop stop-color="#FF9085"/>
<stop offset="1" stop-color="#FB6FBB"/>
</linearGradient>
<linearGradient id="paint91_linear" x1="125.378" y1="24.5067" x2="122.14" y2="28.5792" gradientUnits="userSpaceOnUse">
<stop stop-color="#FFC444"/>
<stop offset="0.9964" stop-color="#F36F56"/>
</linearGradient>
<linearGradient id="paint92_linear" x1="134.689" y1="32.5097" x2="128.163" y2="40.7186" gradientUnits="userSpaceOnUse">
<stop stop-color="#444B8C"/>
<stop offset="0.9964" stop-color="#26264F"/>
</linearGradient>
<linearGradient id="paint93_linear" x1="134.124" y1="32.6785" x2="128.457" y2="41.078" gradientUnits="userSpaceOnUse">
<stop stop-color="#FFC444"/>
<stop offset="0.9964" stop-color="#F36F56"/>
</linearGradient>
<linearGradient id="paint94_linear" x1="134.197" y1="31.8752" x2="135.821" y2="29.3267" gradientUnits="userSpaceOnUse">
<stop stop-color="#AA80F9"/>
<stop offset="0.9964" stop-color="#6165D7"/>
</linearGradient>
<linearGradient id="paint95_linear" x1="135.433" y1="36.1476" x2="133.867" y2="38.1174" gradientUnits="userSpaceOnUse">
<stop stop-color="#FFC444"/>
<stop offset="0.9964" stop-color="#F36F56"/>
</linearGradient>
<linearGradient id="paint96_linear" x1="110.219" y1="68.2482" x2="129.092" y2="37.8554" gradientUnits="userSpaceOnUse">
<stop stop-color="#FF9085"/>
<stop offset="1" stop-color="#FB6FBB"/>
</linearGradient>
<linearGradient id="paint97_linear" x1="108.109" y1="41.1258" x2="121.873" y2="18.96" gradientUnits="userSpaceOnUse">
<stop stop-color="#444B8C"/>
<stop offset="0.9964" stop-color="#26264F"/>
</linearGradient>
<clipPath id="clip0">
<rect width="342.475" height="190" fill="white"/>
</clipPath>
</defs>
</svg>
