<svg fill="none" height="422" viewBox="0 0 750 422" width="750" xmlns="http://www.w3.org/2000/svg" xmlns:xlink="http://www.w3.org/1999/xlink"><radialGradient id="a" cx="0" cy="0" gradientTransform="matrix(1214.24441116 3.68408405 -3.70128707 1219.91438506 1787.96 -354.756)" gradientUnits="userSpaceOnUse" r="1"><stop offset="0" stop-color="#5c55af"/><stop offset="1" stop-color="#2b2670"/></radialGradient><radialGradient id="b" cx="0" cy="0" gradientTransform="matrix(1214.24441116 3.68408405 -3.70128707 1219.91438506 1787.96 -354.756)" gradientUnits="userSpaceOnUse" r="1"><stop offset="0" stop-color="#4c4784"/><stop offset="1" stop-color="#282459"/></radialGradient><linearGradient id="c"><stop offset="0" stop-color="#dad3ed"/><stop offset="1" stop-color="#c5bbdc"/></linearGradient><radialGradient id="d" cx="0" cy="0" gradientTransform="matrix(465.60185696 1.41266154 -1.41926058 467.77684695 685.593 124.153)" gradientUnits="userSpaceOnUse" r="1" xlink:href="#c"/><radialGradient id="e" cx="0" cy="0" gradientTransform="matrix(509.62365428 1.54624387 -1.55348621 512.0106433 750.419 95.9886)" gradientUnits="userSpaceOnUse" r="1" xlink:href="#c"/><radialGradient id="f" cx="0" cy="0" gradientTransform="matrix(488.62675093 1.48253738 -1.48948542 490.91674039 719.502 109.42)" gradientUnits="userSpaceOnUse" r="1" xlink:href="#c"/><linearGradient id="g"><stop offset="0" stop-color="#d2cce0"/><stop offset="1" stop-color="#c2b9d3"/></linearGradient><radialGradient id="h" cx="0" cy="0" gradientTransform="matrix(1079.48503165 3.27514135 -3.29040223 1084.5150085 1589.52 -268.538)" gradientUnits="userSpaceOnUse" r="1" xlink:href="#g"/><radialGradient id="i" cx="0" cy="0" gradientTransform="matrix(1058.43512802 3.21144252 -3.22655248 1063.4151051 1558.56 -255.106)" gradientUnits="userSpaceOnUse" r="1" xlink:href="#g"/><radialGradient id="j" cx="0" cy="0" gradientTransform="matrix(1121.96483572 3.40416151 -3.42015118 1127.23481146 1652.1 -295.74)" gradientUnits="userSpaceOnUse" r="1" xlink:href="#g"/><radialGradient id="k" cx="0" cy="0" gradientTransform="matrix(1100.95493231 3.34045365 -3.35617043 1106.13490846 1621.17 -282.308)" gradientUnits="userSpaceOnUse" r="1" xlink:href="#g"/><radialGradient id="l" cx="0" cy="0" gradientTransform="matrix(1164.5046401 3.53317086 -3.54967605 1169.94461506 1714.72 -322.939)" gradientUnits="userSpaceOnUse" r="1" xlink:href="#g"/><radialGradient id="m" cx="0" cy="0" gradientTransform="matrix(1143.49473668 3.46946558 -3.48572823 1148.85471201 1683.8 -309.508)" gradientUnits="userSpaceOnUse" r="1" xlink:href="#g"/><radialGradient id="n" cx="0" cy="0" gradientTransform="matrix(1207.04444455 3.66215469 -3.67920561 1212.66441869 1777.35 -350.136)" gradientUnits="userSpaceOnUse" r="1" xlink:href="#c"/><radialGradient id="o" cx="0" cy="0" gradientTransform="matrix(1207.04444449 3.66217576 -3.67922677 1212.66441862 1777.35 -350.139)" gradientUnits="userSpaceOnUse" r="1" xlink:href="#g"/><radialGradient id="p" cx="0" cy="0" gradientTransform="matrix(1186.04454102 3.5985034 -3.61528155 1191.57451556 1746.43 -336.71)" gradientUnits="userSpaceOnUse" r="1" xlink:href="#c"/><radialGradient id="q" cx="0" cy="0" gradientTransform="matrix(1186.03454106 3.59847306 -3.61528155 1191.57451556 1746.42 -336.708)" gradientUnits="userSpaceOnUse" r="1" xlink:href="#g"/><linearGradient id="r"><stop offset="0" stop-color="#b6abdc"/><stop offset="1" stop-color="#9484bc"/></linearGradient><radialGradient id="s" cx="0" cy="0" gradientTransform="matrix(601.80323006 1.82590396 -1.83443872 604.61621711 886.15 37.0235)" gradientUnits="userSpaceOnUse" r="1" xlink:href="#r"/><radialGradient id="t" cx="0" cy="0" gradientTransform="matrix(601.80423006 1.825907 -1.83444175 604.61721711 886.151 37.0235)" gradientUnits="userSpaceOnUse" r="1" xlink:href="#r"/><radialGradient id="u" cx="0" cy="0" gradientTransform="matrix(601.80523005 1.82591003 -1.83443872 604.61621711 886.151 37.0235)" gradientUnits="userSpaceOnUse" r="1" xlink:href="#r"/><radialGradient id="v" cx="0" cy="0" gradientTransform="matrix(601.8152301 1.82590886 -1.83440706 604.61621721 886.162 37.0235)" gradientUnits="userSpaceOnUse" r="1" xlink:href="#r"/><radialGradient id="w" cx="0" cy="0" gradientTransform="matrix(329.8694817 1.00084208 -1.00552057 331.4114746 485.73 210.981)" gradientUnits="userSpaceOnUse" r="1" xlink:href="#r"/><radialGradient id="x" cx="0" cy="0" gradientTransform="matrix(329.86848167 1.00085056 -1.00554124 331.41447455 485.729 210.98)" gradientUnits="userSpaceOnUse" r="1" xlink:href="#r"/><radialGradient id="y" cx="0" cy="0" gradientTransform="matrix(329.87048169 1.00084511 -1.00552057 331.4114746 485.731 210.981)" gradientUnits="userSpaceOnUse" r="1" xlink:href="#r"/><radialGradient id="z" cx="0" cy="0" gradientTransform="matrix(329.87048171 1.00083935 -1.00551478 331.41147462 485.73 210.981)" gradientUnits="userSpaceOnUse" r="1" xlink:href="#r"/><radialGradient id="A" cx="0" cy="0" gradientTransform="matrix(351.45338232 1.06634108 -1.07133517 353.09937474 517.513 197.172)" gradientUnits="userSpaceOnUse" r="1" xlink:href="#r"/><radialGradient id="B" cx="0" cy="0" gradientTransform="matrix(382.24724062 1.15975907 -1.16517786 384.0332324 562.855 177.475)" gradientUnits="userSpaceOnUse" r="1" xlink:href="#r"/><radialGradient id="C" cx="0" cy="0" gradientTransform="matrix(418.19807517 1.26882857 -1.27475098 420.15006618 615.791 154.478)" gradientUnits="userSpaceOnUse" r="1" xlink:href="#r"/><radialGradient id="D" cx="0" cy="0" gradientTransform="matrix(455.54990325 1.38215541 -1.38860574 457.67589346 670.791 130.585)" gradientUnits="userSpaceOnUse" r="1" xlink:href="#r"/><radialGradient id="E" cx="0" cy="0" gradientTransform="matrix(467.8738465 1.41955488 -1.42619336 470.06183643 688.942 122.698)" gradientUnits="userSpaceOnUse" r="1" xlink:href="#r"/><radialGradient id="F" cx="0" cy="0" gradientTransform="matrix(493.98772633 1.4987772 -1.50577366 496.29371572 727.391 105.996)" gradientUnits="userSpaceOnUse" r="1" xlink:href="#r"/><radialGradient id="G" cx="0" cy="0" gradientTransform="matrix(348.44939618 1.05721455 -1.06215701 350.07838868 513.087 199.096)" gradientUnits="userSpaceOnUse" r="1" xlink:href="#r"/><radialGradient id="H" cx="0" cy="0" gradientTransform="matrix(370.54229449 1.12424562 -1.12950361 372.27528652 545.62 184.962)" gradientUnits="userSpaceOnUse" r="1" xlink:href="#r"/><radialGradient id="I" cx="0" cy="0" gradientTransform="matrix(401.17515346 1.21720139 -1.22290242 403.05414481 590.726 165.366)" gradientUnits="userSpaceOnUse" r="1" xlink:href="#r"/><radialGradient id="J" cx="0" cy="0" gradientTransform="matrix(431.44801414 1.30904444 -1.3151702 433.46700484 635.304 146)" gradientUnits="userSpaceOnUse" r="1" xlink:href="#r"/><radialGradient id="K" cx="0" cy="0" gradientTransform="matrix(455.42190377 1.3817909 -1.38826258 457.55489395 670.605 130.663)" gradientUnits="userSpaceOnUse" r="1" xlink:href="#r"/><radialGradient id="L" cx="0" cy="0" gradientTransform="matrix(329.86948172 1.00083632 -1.00550871 331.40947463 485.73 210.982)" gradientUnits="userSpaceOnUse" r="1" xlink:href="#r"/><radialGradient id="M" cx="0" cy="0" gradientTransform="matrix(329.87048171 1.00083935 -1.00550871 331.40947463 485.731 210.982)" gradientUnits="userSpaceOnUse" r="1" xlink:href="#r"/><radialGradient id="N" cx="0" cy="0" gradientTransform="matrix(329.87048168 1.00085087 -1.00553242 331.41347457 485.73 210.98)" gradientUnits="userSpaceOnUse" r="1" xlink:href="#r"/><radialGradient id="O" cx="0" cy="0" gradientTransform="matrix(329.87048169 1.00084511 -1.0055236 331.4124746 485.731 210.981)" gradientUnits="userSpaceOnUse" r="1" xlink:href="#r"/><radialGradient id="P" cx="0" cy="0" gradientTransform="matrix(537.73852496 1.63151875 -1.63913719 540.2495134 791.813 78.0077)" gradientUnits="userSpaceOnUse" r="1" xlink:href="#r"/><radialGradient id="Q" cx="0" cy="0" gradientTransform="matrix(537.73852496 1.63151875 -1.63913719 540.2495134 791.815 78.0077)" gradientUnits="userSpaceOnUse" r="1" xlink:href="#r"/><radialGradient id="R" cx="0" cy="0" gradientTransform="matrix(537.73752497 1.63151572 -1.63913719 540.2495134 791.813 78.0077)" gradientUnits="userSpaceOnUse" r="1" xlink:href="#r"/><radialGradient id="S" cx="0" cy="0" gradientTransform="matrix(538.19152285 1.63290256 -1.64053317 540.70651127 792.482 77.7164)" gradientUnits="userSpaceOnUse" r="1" xlink:href="#r"/><radialGradient id="T" cx="0" cy="0" gradientTransform="matrix(537.73652494 1.63152207 -1.63914662 540.24951338 791.811 78.0077)" gradientUnits="userSpaceOnUse" r="1" xlink:href="#r"/><radialGradient id="U" cx="0" cy="0" gradientTransform="matrix(537.73852496 1.63151875 -1.63913719 540.2495134 791.814 78.0077)" gradientUnits="userSpaceOnUse" r="1" xlink:href="#r"/><radialGradient id="V" cx="0" cy="0" gradientTransform="matrix(475.26681247 1.44198554 -1.44872415 477.48780225 699.825 117.97)" gradientUnits="userSpaceOnUse" r="1" xlink:href="#r"/><radialGradient id="W" cx="0" cy="0" gradientTransform="matrix(475.26481248 1.44197947 -1.44872415 477.48780225 699.824 117.97)" gradientUnits="userSpaceOnUse" r="1" xlink:href="#r"/><radialGradient id="X" cx="0" cy="0" gradientTransform="matrix(475.26381246 1.44198473 -1.44873248 477.48780223 699.822 117.97)" gradientUnits="userSpaceOnUse" r="1" xlink:href="#r"/><radialGradient id="Y" cx="0" cy="0" gradientTransform="matrix(475.68681057 1.44325154 -1.44998707 477.90680035 700.443 117.702)" gradientUnits="userSpaceOnUse" r="1" xlink:href="#r"/><path d="m440.993 421.962h-440.993v-421.96160248h750v187.19560248l-4.459-3.44v-13.805h-8.181v7.493l-4.79-3.696v-3.797h-4.919l-87.621-67.61-296.859 213.802-55.585 3.757zm-333.19-36.295c-1.734 0-3.243.372-4.529 1.117-1.286.743-2.268 1.814-2.948 3.212-.6796 1.399-1.0191 3.029-1.0191 4.894 0 2.96.7001 5.234 2.0991 6.824 1.4 1.591 3.406 2.386 6.018 2.386 1.775 0 3.362-.266 4.761-.797v-2.514c-.765.237-1.501.432-2.209.582-.708.152-1.44.228-2.197.228-1.75 0-3.087-.565-4.01-1.693-.924-1.128-1.386-2.792-1.386-4.992 0-2.101.48-3.749 1.44-4.942.961-1.194 2.279-1.791 3.956-1.791.74 0 1.446.108 2.118.326.671.216 1.308.468 1.91.753l1.05-2.44c-1.546-.769-3.231-1.153-5.054-1.153zm11.145 10.106h8.227v8.083h2.93v-17.931h-2.93v7.334h-8.227v-7.334h-2.918v17.931h2.918zm-35.9253-6.206h.0975l8.7768 14.289h3.5766v-17.931h-2.6733v9.395c0 .661.0248 1.583.0736 2.765s.081 1.866.0975 2.055h-.0731l-8.7525-14.215h-3.5402v17.931h2.649v-9.321c0-1.26-.0571-2.65-.1707-4.171zm-4.7729 14.289-6.6773-18.004h-3.1739l-6.6773 18.004h3.0764l1.7457-4.98h6.8236l1.782 4.98zm-16.7604 0-5.0411-7.936c2.3107-.948 3.4665-2.538 3.4665-4.771 0-1.749-.5535-3.058-1.6601-3.925-1.107-.866-2.8118-1.299-5.1147-1.299h-5.0416v17.931h2.9177v-7.164h2.8803l4.2727 7.164zm-29.895-17.931v17.931h6.4455c1.9937 0 3.55-.456 4.6689-1.368 1.1192-.912 1.6787-2.173 1.6787-3.784 0-1.194-.295-2.14-.8851-2.839-.5902-.699-1.5117-1.167-2.7649-1.404v-.123c1.009-.18 1.7824-.617 2.3194-1.313.5371-.694.8056-1.565.8056-2.612 0-1.552-.5473-2.689-1.6418-3.408-1.0946-.72-2.8707-1.08-5.3285-1.08zm196.1816-32.94c-2.694 0-4.768.793-6.22 2.379s-2.179 3.859-2.179 6.819.723 5.243 2.166 6.849c1.446 1.607 3.514 2.41 6.208 2.41 2.661 0 4.719-.808 6.172-2.429 1.452-1.618 2.178-3.886 2.178-6.805 0-2.927-.725-5.197-2.172-6.807-1.449-1.611-3.501-2.416-6.153-2.416zm-15.747.024c-1.734 0-3.243.372-4.529 1.116s-2.269 1.815-2.947 3.213c-.681 1.399-1.021 3.03-1.021 4.894 0 2.96.7 5.235 2.1 6.826 1.401 1.589 3.407 2.384 6.018 2.384 1.775 0 3.361-.266 4.761-.797v-2.514c-.765.237-1.501.432-2.21.582-.707.152-1.44.228-2.197.228-1.749 0-3.087-.564-4.009-1.693-.924-1.128-1.386-2.792-1.386-4.991 0-2.102.48-3.748 1.44-4.943.961-1.194 2.278-1.791 3.955-1.791.741 0 1.447.109 2.119.326.67.217 1.307.468 1.91.753l1.05-2.44c-1.547-.768-3.232-1.153-5.054-1.153zm79.674.257v2.515h5.25v15.417h2.918v-15.417h5.249v-2.515zm-5.627 0v17.932h2.918v-17.932zm-7.421 2.981h.097c-.032.302-.071 1.169-.116 2.6s-.067 2.592-.067 3.483v8.868h2.808v-17.932h-4.126l-5.102 14.264h-.074l-4.956-14.264h-4.114v17.932h2.649v-8.721c0-1.945-.069-4.03-.208-6.254h.099l5.175 14.975h2.576zm-23.071 0h.097c-.032.302-.071 1.169-.116 2.6s-.068 2.592-.068 3.483v8.868h2.809v-17.932h-4.126l-5.103 14.264h-.073l-4.956-14.264h-4.114v17.932h2.649v-8.721c0-1.945-.069-4.03-.208-6.254h.098l5.176 14.975h2.576zm-155.359-43.992v2.771c1.286.63 2.937.944 4.956.944 2.018 0 3.601-.453 4.748-1.361 1.148-.908 1.722-2.158 1.722-3.752 0-.81-.143-1.513-.428-2.11-.285-.596-.732-1.133-1.343-1.606-.61-.475-1.57-.986-2.88-1.533-1.164-.483-1.97-.871-2.417-1.166-.448-.294-.769-.607-.965-.938-.195-.33-.292-.73-.292-1.196 0-.678.243-1.224.732-1.637.488-.412 1.204-.619 2.148-.619 1.245 0 2.661.335 4.248 1.005l.928-2.39c-1.693-.753-3.394-1.13-5.102-1.13-1.783 0-3.203.43-4.261 1.289-1.058.858-1.587 2.035-1.587 3.531 0 1.194.334 2.216 1.002 3.067.667.85 1.814 1.606 3.442 2.268 1.578.638 2.62 1.191 3.125 1.657.504.465.757 1.033.757 1.704 0 .743-.275 1.336-.824 1.778-.55.441-1.402.662-2.558.662-.789 0-1.641-.11-2.557-.33-.916-.221-1.781-.524-2.594-.908zm-17.5783-14.46v11.554c0 2.059.6143 3.678 1.8433 4.856 1.229 1.176 2.9498 1.765 5.1635 1.765 1.4894 0 2.769-.267 3.8392-.803 1.0703-.535 1.8879-1.3 2.4534-2.293.5655-.994.8485-2.153.8485-3.477v-11.602h-2.9177v11.32c0 2.902-1.3753 4.354-4.1259 4.354-1.4158 0-2.4658-.352-3.149-1.055-.6838-.703-1.0257-1.794-1.0257-3.274v-11.345zm35.3763 9.848h8.227v8.083h2.93v-17.931h-2.93v7.334h-8.227v-7.334h-2.918v17.931h2.918zm-50.5985-9.848v17.931h2.9176v-6.709h1.8553c2.2541 0 3.9915-.498 5.2122-1.497 1.2207-.997 1.8313-2.431 1.8313-4.304 0-1.783-.5554-3.132-1.6661-4.047-1.1112-.916-2.7814-1.374-5.0112-1.374zm172.0435-22.635c-2.694 0-4.767.793-6.219 2.379-1.453 1.586-2.181 3.859-2.181 6.818 0 2.96.723 5.243 2.168 6.85 1.444 1.607 3.514 2.41 6.208 2.41 2.661 0 4.717-.809 6.17-2.428 1.452-1.619 2.179-3.888 2.179-6.807 0-2.927-.724-5.195-2.173-6.806-1.449-1.612-3.499-2.416-6.152-2.416zm-29.297.025c-1.734 0-3.243.372-4.528 1.115-1.287.745-2.269 1.816-2.949 3.214-.679 1.397-1.019 3.029-1.019 4.892 0 2.96.7 5.236 2.1 6.826 1.399 1.59 3.405 2.385 6.017 2.385 1.774 0 3.362-.265 4.762-.797v-2.514c-.765.238-1.503.431-2.21.583-.708.151-1.44.226-2.198.226-1.75 0-3.086-.564-4.01-1.693-.924-1.127-1.385-2.792-1.385-4.991 0-2.101.48-3.748 1.44-4.943.96-1.193 2.279-1.789 3.955-1.789.741 0 1.446.108 2.118.324.672.217 1.308.468 1.911.755l1.05-2.441c-1.546-.768-3.231-1.152-5.054-1.152zm61.035.257v17.93h10.095v-2.489h-7.178v-5.63h6.727v-2.453h-6.727v-4.882h7.178v-2.476zm-17.164 3.642h.098l8.777 14.288h3.577v-17.93h-2.673v9.394c0 .662.024 1.585.073 2.765.048 1.182.081 1.866.097 2.055h-.073l-8.752-14.214h-3.54v17.93h2.649v-9.321c0-1.258-.058-2.648-.171-4.169zm-35.643-3.642v17.93h10.473v-2.515h-7.556v-15.415zm88.205-105.491v82.061h8.178v-82.061zm-12.969 0v82.061h8.179v-82.061zm-293.635 0v82.061h287.586v-82.061zm272.478-43.139c-2.897 0-5.172.817-6.824 2.448-1.652 1.63-2.478 3.889-2.478 6.775 0 2.928.733 5.194 2.198 6.801s3.547 2.409 6.25 2.409c1.147 0 2.215-.072 3.203-.221.989-.147 2.022-.395 3.095-.747v-9.001h-6.567v2.513h3.698v4.624c-1.073.237-2.083.355-3.027.355-1.871 0-3.306-.57-4.302-1.711-.998-1.14-1.497-2.805-1.497-4.997 0-2.084.554-3.728 1.662-4.93 1.106-1.202 2.611-1.803 4.516-1.803 1.448 0 2.896.335 4.345 1.005l1.026-2.44c-1.668-.719-3.435-1.08-5.298-1.08zm9.729.259v17.929h10.095v-2.49h-7.177v-5.629h6.725v-2.452h-6.725v-4.881h7.177v-2.477zm-20.74 17.929-5.041-7.934c2.311-.949 3.466-2.539 3.466-4.771 0-1.75-.553-3.058-1.66-3.924-1.107-.867-2.811-1.3-5.114-1.3h-5.042v17.929h2.918v-7.162h2.881l4.273 7.162zm-27.343-17.929v17.929h10.095v-2.49h-7.178v-5.629h6.726v-2.452h-6.726v-4.881h7.178v-2.477zm-7.423 2.98h.099c-.034.301-.073 1.169-.117 2.6-.044 1.43-.067 2.592-.067 3.482v8.867h2.808v-17.929h-4.126l-5.103 14.263h-.072l-4.957-14.263h-4.113v17.929h2.648v-8.719c0-1.946-.068-4.031-.207-6.255h.097l5.177 14.974h2.574zm-137.4529-42.0285c-2.6935 0-4.7669.7933-6.2195 2.3793-1.4526 1.5866-2.1791 3.8596-2.1791 6.819 0 2.9602.7224 5.2432 2.1672 6.8492 1.4443 1.607 3.5135 2.41 6.207 2.41 2.6614 0 4.7181-.809 6.1707-2.428s2.1792-3.888 2.1792-6.8067c0-2.9271-.7247-5.1954-2.1732-6.8065-1.4484-1.6105-3.4992-2.4163-6.1523-2.4163zm26.3059.2825v17.93h10.096v-2.49h-7.178v-5.6292h6.725v-2.4524h-6.725v-4.8811h7.178v-2.4773zm-16.1496 0v2.5138h5.2486v15.4162h2.918v-15.4162h5.249v-2.5138zm-25.0974 2.9803h.0976c-.0327.3023-.0714 1.169-.116 2.5998-.0446 1.4307-.0672 2.5915-.0672 3.4827v8.8672h2.8077v-17.93h-4.1259l-5.1028 14.263h-.0731l-4.956-14.263h-4.114v17.93h2.649v-8.7197c0-1.9462-.0691-4.0306-.2071-6.2546h.0976l5.1754 14.9743h2.5758zm-29.6023-2.9803v17.93h10.0954v-2.49h-7.1779v-5.6292h6.7261v-2.4524h-6.7261v-4.8811h7.1779v-2.4773zm-2.5877 17.93-5.0416-7.9348c2.3112-.9485 3.4668-2.5388 3.4668-4.7711 0-1.7497-.5535-3.0574-1.6601-3.9242-1.1069-.8668-2.8119-1.2999-5.1149-1.2999h-5.0413v17.93h2.9174v-7.1623h2.8808l4.2725 7.1623zm181.772-57.6873v11.5531c0 2.0604.614 3.6793 1.843 4.8562 1.229 1.1779 2.95 1.7663 5.164 1.7663 1.489 0 2.769-.2676 3.839-.8034 1.07-.5353 1.889-1.2999 2.454-2.2933.566-.9935.848-2.1524.848-3.4768v-11.6021h-2.917v11.3201c0 2.9022-1.375 4.3537-4.127 4.3537-1.416 0-2.466-.3518-3.148-1.0549-.684-.7031-1.026-1.7945-1.026-3.2743v-11.3446zm32.263 0v17.9302h10.474v-2.5139h-7.556v-15.4163zm-13.55 0v17.9302h10.474v-2.5139h-7.556v-15.4163zm-33.935 0v17.9302h2.918v-6.7081h1.855c2.253 0 3.992-.4987 5.212-1.4963 1.222-.9976 1.832-2.4325 1.832-4.3052 0-1.782-.556-3.1309-1.667-4.0467s-2.781-1.3739-5.011-1.3739zm-171.0545 352.8423h-3.1006v-5.679h2.9542c1.294 0 2.2583.225 2.893.675.6349.449.9521 1.141.9521 2.073 0 1.014-.3112 1.756-.9338 2.226-.6227.47-1.5442.705-2.7649.705zm34.9856-5.041h-5.2003l1.6114-4.673c.4228-1.193.7444-2.293.9639-3.299.0815.328.2301.843.4459 1.546.2153.704.3842 1.218.5066 1.545zm-19.5561-2.084h-2.0259v-5.863h1.9284c1.3265 0 2.3194.221 2.9788.662.6589.442.9883 1.169.9883 2.184 0 .997-.305 1.75-.9152 2.256-.6105.507-1.5952.761-2.9544.761zm-15.7224-.932h-2.8077v-4.956h2.5269c1.3183 0 2.2806.189 2.887.565.6061.376.9093.985.9093 1.828 0 .932-.2806 1.592-.8423 1.98-.5613.388-1.4526.583-2.6732.583zm190.4314-24.392c-1.741 0-3.056-.571-3.942-1.711-.888-1.141-1.331-2.815-1.331-5.022 0-2.2.446-3.868 1.337-5.004.891-1.137 2.211-1.705 3.961-1.705 1.733 0 3.038.568 3.913 1.705.873 1.136 1.311 2.804 1.311 5.004 0 2.232-.441 3.912-1.324 5.04-.884 1.129-2.191 1.693-3.925 1.693zm-155.8587-62.389h-1.5502v-6.304h2.0264c1.3266 0 2.3029.253 2.9296.76.6262.508.9401 1.276.9401 2.306 0 1.112-.3502 1.929-1.05 2.453-.6999.523-1.7987.785-3.2959.785zm167.5517-15.437c-1.743 0-3.057-.57-3.944-1.711-.886-1.14-1.33-2.814-1.33-5.022 0-2.199.445-3.867 1.336-5.004.892-1.136 2.211-1.704 3.962-1.704 1.733 0 3.037.568 3.912 1.704.875 1.137 1.312 2.805 1.312 5.004 0 2.232-.441 3.913-1.324 5.04-.883 1.129-2.192 1.693-3.924 1.693zm13.576-155.705h-2.026v-5.862h1.928c1.327 0 2.319.22 2.979.662.659.441.989 1.169.989 2.183 0 .997-.305 1.75-.916 2.257-.61.506-1.595.76-2.954.76zm-163.7963-31.432c-1.7415 0-3.0556-.57-3.9428-1.711-.8871-1.14-1.3306-2.8143-1.3306-5.0217 0-2.199.4454-3.8673 1.3366-5.0036.8913-1.1367 2.2114-1.7049 3.9612-1.7049 1.7333 0 3.0377.5682 3.9124 1.7049.8747 1.1363 1.3123 2.8046 1.3123 5.0036 0 2.2319-.4417 3.9127-1.3242 5.0407-.883 1.128-2.1916 1.692-3.9249 1.692zm-55.5541-7.3336h-2.0263v-5.8621h1.9287c1.3265 0 2.3193.2205 2.9786.662.6591.4414.9886 1.1695.9886 2.1833 0 .9976-.305 1.7497-.9155 2.2563-.6103.5072-1.5951.7605-2.9541.7605zm179.4654-39.3399h-1.55v-6.304h2.026c1.326 0 2.303.2538 2.93.7605.626.5071.94 1.2754.94 2.3058 0 1.1118-.35 1.9295-1.05 2.4528s-1.799.7849-3.296.7849z" fill="url(#a)"/><path d="m750 421.962h-309.007l-153.407-102.062 55.585-3.757 296.86-213.802 87.621 67.61h-3.258v82.061h8.176v-78.264l4.79 3.696v74.568h8.181v-68.256l4.459 3.44zm-38.899-252.011v82.061h8.176v-82.061zm-12.971 0v82.061h8.177v-82.061zm-13.293 0v82.061h8.181v-82.061zm-12.971 0v82.061h8.181v-82.061zm-13.293 0v82.061h8.181v-82.061zm-12.97 0v82.061h8.181v-82.061z" fill="url(#b)"/><path d="m641.242 304.177c0 6.036-4.871 10.929-10.878 10.929h-298.606c-6.007 0-10.877-4.893-10.877-10.929v-195.997c0-6.035 4.87-10.9286 10.877-10.9286h298.606c6.007 0 10.878 4.8936 10.878 10.9286z" fill="#100f0d"/><path d="m287.586 320.728s-.855 3.983 25.372 3.983h348.679s13.546.105 15.84-3.903v-5.082h-389.914z" fill="#bebdbc"/><path d="m677.554 320.808h-389.908v-7.676h389.908z" fill="#eaebea"/><path d="m330.253 305.171h301.617v-197.858h-301.617z" fill="#252d33"/><path d="m517.411 315.052c0 1.059-.854 1.918-1.911 1.918h-65.8c-1.057 0-1.911-.859-1.911-1.918 0-1.061.854-1.919 1.911-1.919h65.8c1.057 0 1.911.858 1.911 1.919z" fill="#bebdbc"/><path d="m338.795 309.91h-8.617v-197.859h8.617z" fill="#384a55"/><path d="m631.792 120.708h-292.997v-8.655h292.997z" fill="#18191a"/><path d="m404.334 120.707h-65.539v-8.655h65.539z" fill="#3a4c58"/><path d="m341.463 120.707h-2.667v-8.655h2.667z" fill="#50c063"/><path d="m450.379 120.707h-46.27v-8.655h46.27z" fill="#252d33"/><path d="m406.775 120.709h-2.668v-8.658h2.668z" fill="#f68712"/><path d="m630.492 120.708h-10.014v-7.612h10.014z" fill="#818283"/><path d="m619.184 120.708h-10.013v-7.612h10.013z" fill="#818283"/><path d="m607.593 120.707h-10.013v-7.611h10.013z" fill="#818283"/><path d="m626.195 119.038-.35-.643c-.139-.249-.231-.422-.319-.609h-.016c-.077.187-.161.36-.292.609l-.319.643h-.673l.957-1.636-.919-1.597h.673l.35.666c.104.202.181.36.266.543h.011c.085-.202.154-.346.254-.543l.342-.666h.673l-.942 1.578.981 1.655z" fill="#fff"/><path d="m615.93 117.92h-3.79v-2.688h3.79z" fill="#d5d4d3"/><path d="m614.828 118.853h-3.791v-2.687h3.791z" fill="#fff"/><path d="m604.63 117.509h-4.088v-.933h4.088z" fill="#fff"/><path d="m429.854 133.956h-72.532v-2.127h72.532z" fill="#d3289d"/><path d="m412.18 140.212h-49.656v-2.129h49.656z" fill="#636567"/><path d="m464.265 140.212h-49.659v-2.128h49.659z" fill="#fff"/><path d="m451.634 146.88h-38.289v-1.642h38.289z" fill="#fbd234"/><path d="m409.35 147.123h-41.628v-2.13h41.628z" fill="#fff"/><path d="m505.056 147.316h-49.657v-2.129h49.657z" fill="#fff"/><path d="m430.32 154.44h-62.597v-2.129h62.597z" fill="#636567"/><path d="m487.678 154.439h-50.51v-2.128h50.51z" fill="#5c81ca"/><path d="m412.18 160.694h-49.656v-2.129h49.656z" fill="#fff"/><path d="m464.265 160.694h-49.659v-2.128h49.659z" fill="#fff"/><path d="m388.62 167.606h-31.299v-2.13h31.299z" fill="#fff"/><path d="m419.918 189.324h-62.596v-2.128h62.596z" fill="#d3289d"/><path d="m412.18 195.579h-49.656v-2.128h49.656z" fill="#5c81ca"/><path d="m464.265 195.58h-49.659v-2.129h49.659z" fill="#fff"/><path d="m488.542 195.579h-21.85v-2.128h21.85z" fill="#fff"/><path d="m383.335 202.49h-20.813v-2.127h20.813z" fill="#fff"/><path d="m407.643 202.49h-20.815v-2.127h20.815z" fill="#fbd234"/><path d="m431.948 202.491h-20.813v-2.128h20.813z" fill="#fff"/><path d="m435.053 208.961h-72.531v-2.129h72.531z" fill="#fff"/><path d="m412.18 215.216h-49.656v-2.129h49.656z" fill="#5c81ca"/><path d="m464.265 215.216h-49.659v-2.129h49.659z" fill="#d3289d"/><path d="m451.634 221.884h-38.289v-1.641h38.289z" fill="#636567"/><path d="m409.35 222.128h-41.628v-2.13h41.628z" fill="#fff"/><path d="m505.056 222.319h-49.657v-2.127h49.657z" fill="#fff"/><path d="m430.32 229.443h-62.597v-2.128h62.597z" fill="#fff"/><path d="m487.678 229.443h-50.51v-2.128h50.51z" fill="#5c81ca"/><path d="m417.38 235.699h-49.658v-2.129h49.658z" fill="#fbd234"/><path d="m469.465 235.699h-49.657v-2.129h49.657z" fill="#fff"/><path d="m388.62 242.609h-31.299v-2.128h31.299z" fill="#fff"/><path d="m419.918 264.329h-62.596v-2.13h62.596z" fill="#fff"/><path d="m412.18 270.585h-49.656v-2.13h49.656z" fill="#5c81ca"/><path d="m464.265 270.585h-49.659v-2.13h49.659z" fill="#fff"/><path d="m488.542 270.584h-21.85v-2.13h21.85z" fill="#636567"/><path d="m383.335 277.494h-20.813v-2.127h20.813z" fill="#fff"/><path d="m407.643 277.494h-20.815v-2.127h20.815z" fill="#d3289d"/><path d="m431.948 277.494h-20.813v-2.127h20.813z" fill="#fff"/><path d="m425.12 284.388h-62.597v-2.129h62.597z" fill="#636567"/><path d="m412.18 290.644h-49.656v-2.13h49.656z" fill="#fbd234"/><path d="m464.265 290.644h-49.659v-2.13h49.659z" fill="#fff"/><path d="m488.542 290.644h-21.85v-2.13h21.85z" fill="#d3289d"/><path d="m378.134 297.554h-20.814v-2.127h20.814z" fill="#fff"/><path d="m287.587 252.011h-287.587v-82.061h287.587z" fill="url(#d)"/><path d="m314.782 252.012h-8.179v-82.061h8.179z" fill="url(#e)"/><path d="m301.813 252.013h-8.179v-82.062h8.179z" fill="url(#f)"/><path d="m666.752 252.012h-8.178v-82.061h8.178z" fill="url(#h)"/><path d="m653.783 252.012h-8.178v-82.062h8.178z" fill="url(#i)"/><path d="m693.017 252.012h-8.18v-82.062h8.18z" fill="url(#j)"/><path d="m680.046 252.012h-8.177v-82.062h8.177z" fill="url(#k)"/><path d="m719.278 252.012h-8.176v-82.061h8.176z" fill="url(#l)"/><path d="m706.31 252.012h-8.177v-82.062h8.177z" fill="url(#m)"/><path d="m745.542 183.756-8.178-6.312v-7.493h8.178z" fill="url(#n)"/><path d="m745.542 252.012h-8.178v-74.568l8.178 6.312z" fill="url(#o)"/><path d="m732.573 173.748-4.921-3.798h4.921z" fill="url(#p)"/><path d="m732.573 252.012h-8.18v-82.062h3.259l4.921 3.798z" fill="url(#q)"/><path d="m145.591 422h-2.5v-362.6329l42.673-40.364 1.714 1.8296-41.887 39.6198z" fill="#f29311"/><path d="m187.871 421.962h-2.5v-421.9244189h2.5z" fill="#fff"/><path d="m185.815 325.672-86.3422-73.075v-81.227l86.3092-78.4509 1.677 1.8635-85.486 77.7014v78.944l85.453 72.323z" fill="#f29311"/><path d="m113.611 252.012c0 7.152-5.77 12.949-12.888 12.949s-12.8883-5.797-12.8883-12.949c0-7.151 5.7703-12.948 12.8883-12.948s12.888 5.797 12.888 12.948z" fill="#f19214"/><path d="m100.723 240.32c-6.4173 0-11.6382 5.246-11.6382 11.692 0 6.447 5.2209 11.693 11.6382 11.693 6.417 0 11.638-5.246 11.638-11.693 0-6.446-5.221-11.692-11.638-11.692zm0 25.897c-7.7958 0-14.1382-6.372-14.1382-14.205 0-7.832 6.3424-14.204 14.1382-14.204 7.796 0 14.138 6.372 14.138 14.204 0 7.833-6.342 14.205-14.138 14.205" fill="#fff"/><path d="m199.508 93.8522c0 7.1508-5.77 12.9468-12.887 12.9468-7.119 0-12.889-5.796-12.889-12.9468 0-7.1525 5.77-12.9491 12.889-12.9491 7.117 0 12.887 5.7966 12.887 12.9491" fill="#7ec729"/><path d="m186.621 82.1582c-6.417 0-11.638 5.2445-11.638 11.6925 0 6.4463 5.221 11.6923 11.638 11.6923s11.638-5.246 11.638-11.6923c0-6.448-5.221-11.6925-11.638-11.6925zm0 25.8968c-7.796 0-14.139-6.372-14.139-14.2043 0-7.8321 6.343-14.2045 14.139-14.2045 7.795 0 14.138 6.3724 14.138 14.2045 0 7.8323-6.343 14.2043-14.138 14.2043z" fill="#fff"/><path d="m113.611 171.928c0 7.15-5.77 12.948-12.888 12.948s-12.8883-5.798-12.8883-12.948c0-7.152 5.7703-12.949 12.8883-12.949s12.888 5.797 12.888 12.949z" fill="#f19214"/><path d="m100.723 160.233c-6.4172 0-11.638 5.247-11.638 11.693 0 6.448 5.2208 11.692 11.638 11.692 6.417 0 11.638-5.244 11.638-11.692 0-6.446-5.221-11.693-11.638-11.693zm0 25.898c-7.7955 0-14.1379-6.374-14.1379-14.205 0-7.833 6.3424-14.204 14.1379-14.204 7.796 0 14.138 6.371 14.138 14.204 0 7.831-6.342 14.205-14.138 14.205z" fill="#fff"/><path d="m199.508 19.9182c0 7.1523-5.77 12.9499-12.887 12.9499-7.119 0-12.889-5.7976-12.889-12.9499 0-7.1497 5.77-12.94737 12.889-12.94737 7.117 0 12.887 5.79767 12.887 12.94737z" fill="#f19214"/><path d="m186.622 8.22446c-6.418 0-11.639 5.24574-11.639 11.69434 0 6.446 5.221 11.6917 11.639 11.6917 6.416 0 11.637-5.2457 11.637-11.6917 0-6.4486-5.221-11.69434-11.637-11.69434zm0 25.89654c-7.797 0-14.139-6.372-14.139-14.2022 0-7.8328 6.342-14.20482 14.139-14.20482 7.794 0 14.137 6.37202 14.137 14.20482 0 7.8302-6.343 14.2022-14.137 14.2022z" fill="#fff"/><path d="m199.509 324.711c0 7.151-5.77 12.948-12.888 12.948-7.119 0-12.889-5.797-12.889-12.948 0-7.152 5.77-12.949 12.889-12.949 7.118 0 12.888 5.797 12.888 12.949z" fill="#f19214"/><path d="m186.621 313.018c-6.417 0-11.639 5.246-11.639 11.693 0 6.448 5.222 11.692 11.639 11.692 6.416 0 11.638-5.244 11.638-11.692 0-6.447-5.222-11.693-11.638-11.693zm0 25.897c-7.796 0-14.139-6.372-14.139-14.204s6.343-14.204 14.139-14.204c7.795 0 14.138 6.372 14.138 14.204s-6.343 14.204-14.138 14.204z" fill="#fff"/><path d="m199.509 398.551c0 7.152-5.77 12.949-12.888 12.949-7.119 0-12.889-5.797-12.889-12.949 0-7.151 5.77-12.948 12.889-12.948 7.118 0 12.888 5.797 12.888 12.948" fill="#7ec729"/><path d="m186.621 386.859c-6.417 0-11.639 5.246-11.639 11.692 0 6.447 5.222 11.693 11.639 11.693 6.416 0 11.638-5.246 11.638-11.693 0-6.446-5.222-11.692-11.638-11.692zm0 25.897c-7.796 0-14.139-6.372-14.139-14.205 0-7.831 6.343-14.204 14.139-14.204 7.795 0 14.138 6.373 14.138 14.204 0 7.833-6.343 14.205-14.138 14.205z" fill="#fff"/><path d="m216.864 210.981c0 16.88-13.621 30.562-30.422 30.562s-30.422-13.682-30.422-30.562 13.621-30.564 30.422-30.564 30.422 13.684 30.422 30.564z" fill="#50c4e7"/><path d="m186.442 181.674c-16.086 0-29.173 13.147-29.173 29.307s13.087 29.308 29.173 29.308c16.085 0 29.171-13.148 29.171-29.308s-13.086-29.307-29.171-29.307zm0 61.127c-8.461 0-16.414-3.309-22.396-9.321-5.982-6.008-9.275-13.999-9.275-22.499 0-8.499 3.293-16.49 9.275-22.499 5.982-6.011 13.935-9.32 22.396-9.32 8.46 0 16.412 3.309 22.394 9.32 5.982 6.009 9.277 14 9.277 22.499 0 8.5-3.295 16.491-9.277 22.499-5.982 6.012-13.934 9.321-22.394 9.321z" fill="#fff"/><path d="m464.265 235.233h-235.405v-48.503h235.405z" fill="#f29311"/><g fill="#fff"><path d="m267.836 218.62c-1.361.465-3.939 1.106-6.517 1.106-3.564 0-6.141-.903-7.937-2.65-1.796-1.687-2.78-4.247-2.752-7.128.03-6.519 4.75-10.243 11.152-10.243 2.519 0 4.461.495 5.418.959l-.929 3.551c-1.071-.466-2.404-.844-4.546-.844-3.679 0-6.46 2.095-6.46 6.344 0 4.045 2.521 6.432 6.141 6.432 1.014 0 1.824-.117 2.172-.292v-4.103h-3.012v-3.463h7.27z"/><path d="m275.715 199.908v19.613h-4.432v-19.613z"/><path d="m283.301 203.633h-5.243v-3.724h15.004v3.724h-5.329v15.889h-4.432z"/><path d="m315.596 218.97c-.812.407-2.635.843-5.01.843-6.749 0-10.225-4.219-10.225-9.805 0-6.695 4.751-10.419 10.659-10.419 2.288 0 4.026.465 4.809.872l-.899 3.522c-.898-.378-2.143-.728-3.707-.728-3.505 0-6.227 2.123-6.227 6.49 0 3.928 2.317 6.402 6.256 6.402 1.331 0 2.81-.292 3.678-.64z"/><path d="m321.388 209.773c0 3.842 1.796 6.548 4.75 6.548 2.984 0 4.693-2.851 4.693-6.664 0-3.522-1.68-6.547-4.722-6.547-2.982 0-4.721 2.852-4.721 6.663zm14.107-.261c0 6.431-3.882 10.33-9.588 10.33-5.794 0-9.181-4.394-9.181-9.98 0-5.879 3.735-10.273 9.501-10.273 5.993 0 9.268 4.51 9.268 9.923z"/><path d="m354.901 212.013c-.088-2.356-.174-5.208-.174-8.06h-.086c-.609 2.503-1.42 5.296-2.172 7.595l-2.376 7.654h-3.447l-2.086-7.596c-.638-2.299-1.304-5.092-1.765-7.653h-.059c-.115 2.649-.203 5.674-.349 8.119l-.346 7.45h-4.085l1.246-19.614h5.88l1.913 6.548c.606 2.269 1.215 4.713 1.649 7.013h.089c.549-2.27 1.215-4.86 1.852-7.043l2.084-6.518h5.766l1.072 19.614h-4.317z"/><path d="m379.404 212.014c-.087-2.356-.174-5.208-.174-8.06h-.088c-.607 2.503-1.418 5.296-2.172 7.595l-2.374 7.653h-3.447l-2.085-7.595c-.639-2.3-1.305-5.093-1.767-7.653h-.059c-.115 2.648-.202 5.674-.346 8.119l-.349 7.449h-4.083l1.244-19.613h5.881l1.91 6.548c.61 2.269 1.218 4.713 1.652 7.012h.087c.551-2.269 1.218-4.86 1.854-7.042l2.085-6.518h5.765l1.072 19.613h-4.316z"/><path d="m396.811 211.17-1.216-4.161c-.349-1.164-.696-2.619-.986-3.782h-.057c-.289 1.163-.579 2.647-.899 3.782l-1.159 4.161zm-4.953 3.318-1.39 5.035h-4.577l5.967-19.614h5.793l6.053 19.614h-4.75l-1.506-5.035z"/><path d="m406.311 219.522v-19.614h5.158l4.053 7.188c1.159 2.067 2.317 4.511 3.186 6.722h.088c-.291-2.59-.376-5.238-.376-8.177v-5.733h4.054v19.614h-4.635l-4.17-7.566c-1.159-2.095-2.434-4.627-3.39-6.926l-.086.029c.114 2.591.174 5.355.174 8.556v5.907z"/><path d="m430.729 216.175c.376.088.985.088 1.535.088 3.995.029 6.604-2.182 6.604-6.868.027-4.074-2.348-6.227-6.142-6.227-.985 0-1.621.087-1.997.174zm-4.433-16.004c1.622-.262 3.736-.408 5.968-.408 3.706 0 6.112.669 7.992 2.095 2.027 1.513 3.304 3.929 3.304 7.392 0 3.753-1.361 6.344-3.244 7.944-2.057 1.717-5.184 2.532-9.01 2.532-2.289 0-3.908-.146-5.01-.291z"/></g><path d="m211.585 66.4781h-2.918v-17.9303h5.139c2.23 0 3.9.4583 5.011 1.3747 1.112.9142 1.667 2.2636 1.667 4.0461 0 1.8719-.61 3.3084-1.832 4.305-1.219.9967-2.958 1.4961-5.212 1.4961h-1.855zm0-15.4765v6.3029h1.55c1.497 0 2.596-.2612 3.296-.7859.7-.5223 1.05-1.3403 1.05-2.4515 0-1.031-.313-1.7985-.94-2.3071-.627-.5063-1.604-.7584-2.93-.7584z" fill="url(#s)"/><path d="m230.897 66.7233c-2.214 0-3.936-.5888-5.164-1.7665-1.229-1.1776-1.844-2.7951-1.844-4.8572v-11.5518h2.93v11.3433c0 1.4801.342 2.573 1.026 3.2763.682.7034 1.731 1.054 3.148 1.054 2.752 0 4.127-1.4503 4.127-4.3532v-11.3204h2.917v11.6023c0 1.3242-.283 2.4835-.848 3.4756-.566.9943-1.385 1.7596-2.454 2.2934-1.07.5361-2.349.8042-3.838.8042z" fill="url(#t)"/><path d="m253.077 66.4781h-10.475v-17.9303h2.917v15.417h7.558z" fill="url(#u)"/><path d="m266.627 66.4781h-10.474v-17.9303h2.917v15.417h7.557z" fill="url(#v)"/><path d="m70.3421 315.726h-2.9175v-17.931h5.1391c2.2297 0 3.9002.458 5.011 1.374 1.1108.915 1.6662 2.264 1.6662 4.047 0 1.873-.6104 3.307-1.831 4.304-1.2208.998-2.9583 1.497-5.2124 1.497h-1.8554zm0-15.479v6.305h1.5503c1.4973 0 2.5958-.261 3.2958-.785.6998-.524 1.0498-1.341 1.0498-2.453 0-1.03-.3134-1.798-.9399-2.306-.6267-.507-1.6032-.761-2.9297-.761z" fill="url(#w)"/><path d="m89.6535 315.971c-2.2136 0-3.9347-.589-5.1636-1.766-1.2289-1.178-1.8432-2.797-1.8432-4.856v-11.554h2.9296v11.345c0 1.48.3419 2.571 1.0255 3.274s1.7333 1.055 3.1493 1.055c2.7507 0 4.1259-1.452 4.1259-4.354v-11.32h2.9175v11.603c0 1.323-.2827 2.482-.8484 3.476-.5656.993-1.3833 1.758-2.4536 2.293-1.0702.536-2.3497.804-3.839.804" fill="url(#x)"/><path d="m105.181 315.971c-2.019 0-3.67-.315-4.956-.945v-2.771c.813.384 1.678.687 2.594.908.915.219 1.768.33 2.557.33 1.156 0 2.008-.221 2.558-.662.549-.442.824-1.035.824-1.778 0-.671-.253-1.238-.757-1.704-.505-.466-1.547-1.019-3.125-1.657-1.628-.662-2.775-1.418-3.443-2.268-.667-.851-1.001-1.872-1.001-3.067 0-1.495.529-2.673 1.587-3.531 1.058-.859 2.478-1.288 4.26-1.288 1.71 0 3.41.376 5.103 1.129l-.928 2.391c-1.587-.671-3.003-1.006-4.248-1.006-.944 0-1.66.207-2.148.619-.488.413-.733.959-.733 1.637 0 .466.098.866.293 1.196.196.332.517.644.965.938.447.295 1.253.683 2.417 1.166 1.31.547 2.27 1.058 2.881 1.533.61.473 1.057 1.01 1.342 1.606.285.597.428 1.3.428 2.11 0 1.594-.574 2.844-1.722 3.752-1.147.908-2.73 1.362-4.748 1.362" fill="url(#y)"/><path d="m129.18 315.726h-2.93v-8.083h-8.227v8.083h-2.918v-17.931h2.918v7.334h8.227v-7.334h2.93z" fill="url(#z)"/><path d="m211.651 371.442c-2.612 0-4.617-.795-6.017-2.385-1.401-1.591-2.1-3.865-2.1-6.825 0-1.864.339-3.495 1.02-4.894.678-1.398 1.661-2.469 2.947-3.213 1.287-.744 2.794-1.116 4.528-1.116 1.823 0 3.508.384 5.054 1.153l-1.049 2.44c-.603-.285-1.24-.536-1.911-.754-.671-.216-1.377-.325-2.118-.325-1.677 0-2.994.596-3.955 1.791-.96 1.194-1.44 2.841-1.44 4.943 0 2.199.462 3.863 1.387 4.991.921 1.129 2.258 1.693 4.008 1.693.757 0 1.489-.076 2.198-.228.708-.151 1.445-.345 2.209-.582v2.514c-1.4.531-2.986.797-4.761.797" fill="url(#A)"/><path d="m227.751 371.442c-2.693 0-4.763-.803-6.207-2.41-1.444-1.606-2.167-3.889-2.167-6.849s.727-5.233 2.179-6.819c1.453-1.586 3.527-2.379 6.221-2.379 2.652 0 4.703.805 6.152 2.416 1.447 1.61 2.172 3.88 2.172 6.807 0 2.919-.725 5.187-2.178 6.805-1.453 1.621-3.51 2.429-6.172 2.429zm.026-15.943c-1.751 0-3.071.568-3.962 1.705-.892 1.136-1.338 2.804-1.338 5.004 0 2.207.445 3.881 1.331 5.022.887 1.141 2.202 1.711 3.943 1.711 1.734 0 3.042-.564 3.925-1.693.882-1.128 1.324-2.808 1.324-5.04 0-2.2-.437-3.868-1.311-5.004-.874-1.137-2.18-1.705-3.912-1.705z" fill="url(#B)"/><path d="m258.306 371.197h-2.808v-8.867c0-.89.022-2.052.067-3.483s.084-2.298.117-2.6h-.098l-5.36 14.95h-2.575l-5.176-14.974h-.098c.138 2.224.208 4.309.208 6.254v8.72h-2.65v-17.93h4.114l4.957 14.263h.073l5.102-14.263h4.127z" fill="url(#C)"/><path d="m281.377 371.198h-2.809v-8.868c0-.89.023-2.052.067-3.482.045-1.432.085-2.298.116-2.601h-.097l-5.358 14.951h-2.577l-5.175-14.975h-.099c.14 2.224.207 4.309.207 6.254v8.721h-2.648v-17.931h4.114l4.956 14.264h.074l5.103-14.264h4.126z" fill="url(#D)"/><path d="m288.993 371.198h-2.918v-17.931h2.918z" fill="url(#E)"/><path d="m299.871 371.197h-2.918v-15.416h-5.249v-2.514h13.416v2.514h-5.249z" fill="url(#F)"/><path d="m209.793 293.617c-2.613 0-4.619-.795-6.018-2.385-1.4-1.59-2.1-3.865-2.1-6.826 0-1.863.34-3.495 1.018-4.893.682-1.397 1.664-2.469 2.95-3.213 1.285-.744 2.795-1.115 4.529-1.115 1.822 0 3.507.384 5.053 1.152l-1.049 2.44c-.604-.285-1.239-.537-1.912-.755-.671-.215-1.376-.324-2.117-.324-1.677 0-2.996.597-3.956 1.79-.96 1.195-1.439 2.843-1.439 4.943 0 2.199.461 3.863 1.385 4.991.923 1.129 2.259 1.693 4.01 1.693.757 0 1.489-.075 2.197-.226.708-.152 1.445-.345 2.211-.583v2.515c-1.401.531-2.989.796-4.762.796" fill="url(#G)"/><path d="m228.872 293.372h-10.473v-17.93h2.918v15.416h7.555z" fill="url(#H)"/><path d="m239.444 293.617c-2.694 0-4.765-.803-6.207-2.41-1.446-1.606-2.168-3.89-2.168-6.85 0-2.958.728-5.232 2.18-6.818s3.525-2.38 6.219-2.38c2.653 0 4.703.805 6.152 2.417 1.449 1.611 2.173 3.879 2.173 6.807 0 2.918-.727 5.187-2.179 6.806-1.453 1.619-3.508 2.428-6.17 2.428zm.024-15.943c-1.75 0-3.071.569-3.962 1.704-.891 1.136-1.336 2.805-1.336 5.005 0 2.207.444 3.881 1.33 5.022.888 1.14 2.201 1.71 3.944 1.71 1.733 0 3.042-.564 3.923-1.693.885-1.128 1.326-2.808 1.326-5.039 0-2.2-.438-3.869-1.314-5.005-.874-1.135-2.178-1.704-3.911-1.704" fill="url(#I)"/><path d="m266.493 293.372h-3.576l-8.778-14.287h-.098l.062.797c.113 1.521.17 2.911.17 4.169v9.321h-2.648v-17.929h3.541l8.752 14.213h.072c-.017-.188-.048-.873-.097-2.054s-.073-2.104-.073-2.766v-9.393h2.673z" fill="url(#J)"/><path d="m281.301 293.372h-10.095v-17.93h10.095v2.476h-7.177v4.882h6.727v2.453h-6.727v5.63h7.177z" fill="url(#K)"/><path d="m38.0399 403.856h-6.4455v-17.931h5.2979c2.4577 0 4.2339.36 5.3285 1.08 1.0945.719 1.6417 1.856 1.6417 3.408 0 1.048-.2685 1.918-.8056 2.612-.537.696-1.3104 1.133-2.3194 1.313v.123c1.2533.237 2.1748.705 2.7649 1.404s.8851 1.645.8851 2.839c0 1.611-.5595 2.872-1.6786 3.784-1.119.912-2.6752 1.368-4.669 1.368zm-3.528-8.144v5.678h3.1006c1.2208 0 2.1423-.234 2.7649-.705.6226-.47.9339-1.212.9339-2.226 0-.932-.3173-1.623-.9521-2.073s-1.599-.674-2.893-.674zm0-7.335v4.956h2.8078c1.2206 0 2.1118-.195 2.6732-.583.5616-.388.8423-1.048.8423-1.98 0-.843-.3033-1.452-.9093-1.827-.6065-.377-1.5687-.566-2.8871-.566z" fill="url(#L)"/><path d="m61.4895 403.856h-3.3202l-4.2727-7.164h-2.8806v7.164h-2.9176v-17.931h5.0415c2.303 0 4.008.433 5.1148 1.3 1.1066.866 1.6601 2.175 1.6601 3.924 0 2.233-1.1556 3.823-3.4666 4.771zm-10.4735-15.453v5.862h2.0263c1.3588 0 2.3436-.254 2.9541-.761.6104-.506.9155-1.259.9155-2.256 0-1.014-.3296-1.742-.9887-2.184-.6593-.44-1.6522-.661-2.9787-.661z" fill="url(#M)"/><path d="m78.2497 403.856h-3.1006l-1.7822-4.98h-6.8237l-1.7458 4.98h-3.0761l6.6773-18.004h3.1738zm-8.2764-15.479c-.2197 1.006-.5414 2.106-.9644 3.299l-1.6112 4.673h5.2002l-1.6725-4.881c-.1221-.327-.2911-.841-.5066-1.545-.2157-.703-.3642-1.218-.4455-1.546" fill="url(#N)"/><path d="m95.4737 403.856h-3.5765l-8.777-14.289h-.0976l.0611.797c.1139 1.521.1708 2.911.1708 4.171v9.321h-2.6488v-17.931h3.5401l8.7524 14.215h.0732c-.0163-.189-.0488-.873-.0977-2.055-.0487-1.182-.0732-2.103-.0732-2.765v-9.395h2.6732z" fill="url(#M)"/><path d="m107.425 404.101c-2.613 0-4.619-.795-6.018-2.387-1.4-1.589-2.1001-3.864-2.1001-6.824 0-1.865.3397-3.495 1.0191-4.894.68-1.398 1.662-2.469 2.948-3.212 1.286-.745 2.796-1.117 4.529-1.117 1.823 0 3.507.385 5.054 1.153l-1.05 2.44c-.602-.285-1.239-.537-1.91-.753-.672-.218-1.378-.326-2.118-.326-1.677 0-2.995.597-3.955 1.791-.961 1.193-1.441 2.841-1.441 4.942 0 2.2.462 3.864 1.386 4.992.923 1.128 2.26 1.693 4.01 1.693.756 0 1.489-.075 2.197-.227.708-.151 1.444-.346 2.209-.583v2.514c-1.399.531-2.986.798-4.76.798" fill="url(#O)"/><path d="m130.105 403.856h-2.93v-8.083h-8.227v8.083h-2.917v-17.931h2.917v7.334h8.227v-7.334h2.93z" fill="url(#M)"/><path d="m42.117 106.235h-3.3204l-4.2725-7.1616h-2.8808v7.1616h-2.9174v-17.9299h5.0412c2.3032 0 4.0082.434 5.115 1.3 1.1067.866 1.6601 2.1741 1.6601 3.9245 0 2.2314-1.1555 3.8221-3.4669 4.77zm-10.4737-15.4528v5.8632h2.0262c1.3592 0 2.3438-.2538 2.9543-.7615.6105-.5057.9155-1.2591.9155-2.2561 0-1.0133-.3295-1.7421-.9887-2.1823-.6592-.4422-1.6521-.6633-2.9787-.6633z" fill="url(#P)"/><path d="m54.7999 106.235h-10.0954v-17.9299h10.0954v2.4771h-7.1778v4.8806h6.7262v2.4525h-6.7262v5.6297h7.1778z" fill="url(#Q)"/><path d="m77.0289 106.235h-2.8075v-8.8669c0-.8905.0224-2.0513.067-3.4823.0449-1.431.0834-2.297.116-2.6h-.0976l-5.3587 14.9492h-2.5757l-5.1757-14.9737h-.0976c.1379 2.2232.2072 4.3073.2072 6.2542v8.7195h-2.6488v-17.9299h4.1137l4.9561 14.2629h.0731l5.1026-14.2629h4.1259z" fill="url(#R)"/><path d="m89.2239 106.479c-2.6938 0-4.7628-.803-6.2071-2.409-1.4447-1.607-2.1671-3.889-2.1671-6.8498 0-2.9586.7267-5.233 2.1791-6.8188 1.4527-1.5859 3.5258-2.3788 6.2194-2.3788 2.6531 0 4.7039.8052 6.1525 2.4157 1.4484 1.6104 2.1728 3.8806 2.1728 6.8065 0 2.9202-.7262 5.1882-2.1789 6.8062-1.4527 1.619-3.5094 2.428-6.1707 2.428zm.0243-15.9424c-1.7496 0-3.0699.5676-3.9611 1.7047-.891 1.1372-1.3367 2.805-1.3367 5.0035 0 2.2088.4436 3.8832 1.3308 5.0222.8869 1.141 2.2011 1.711 3.9427 1.711 1.7333 0 3.0416-.564 3.9247-1.693.8826-1.127 1.3244-2.8068 1.3244-5.0402 0-2.1985-.4375-3.8663-1.3124-5.0035-.8749-1.1371-2.1789-1.7047-3.9124-1.7047" fill="url(#S)"/><path d="m107.571 106.235h-2.918v-15.4159h-5.2486v-2.514h13.4156v2.514h-5.249z" fill="url(#T)"/><path d="m125.65 106.235h-10.096v-17.9299h10.096v2.4771h-7.178v4.8806h6.725v2.4525h-6.725v5.6297h7.178z" fill="url(#U)"/><path d="m229.423 145.001h-2.808v-8.868c0-.89.023-2.052.069-3.481.043-1.432.082-2.298.115-2.6h-.097l-5.36 14.949h-2.576l-5.175-14.975h-.098c.139 2.224.207 4.31.207 6.255v8.72h-2.649v-17.929h4.115l4.957 14.263h.072l5.102-14.263h4.126z" fill="url(#V)"/><path d="m244.218 145.001h-10.095v-17.929h10.095v2.477h-7.177v4.881h6.726v2.452h-6.726v5.629h7.177z" fill="url(#W)"/><path d="m261.467 145.001h-3.321l-4.272-7.162h-2.881v7.162h-2.918v-17.929h5.041c2.306 0 4.009.432 5.117 1.299 1.106.866 1.658 2.175 1.658 3.924 0 2.233-1.154 3.822-3.465 4.772zm-10.474-15.452v5.862h2.026c1.36 0 2.345-.255 2.954-.76.612-.508.916-1.259.916-2.258 0-1.013-.329-1.741-.988-2.182-.66-.442-1.652-.662-2.979-.662z" fill="url(#X)"/><path d="m271.625 145.245c-2.703 0-4.786-.802-6.25-2.41-1.465-1.606-2.197-3.874-2.197-6.8 0-2.887.825-5.145 2.476-6.775 1.653-1.632 3.928-2.448 6.825-2.448 1.864 0 3.628.36 5.298 1.079l-1.026 2.441c-1.449-.672-2.897-1.007-4.346-1.007-1.903 0-3.409.601-4.515 1.804-1.109 1.202-1.662 2.847-1.662 4.931 0 2.191.499 3.856 1.496 4.997s2.431 1.709 4.302 1.709c.945 0 1.954-.118 3.029-.355v-4.621h-3.699v-2.516h6.567v9.003c-1.073.351-2.106.599-3.095.747-.988.147-2.055.221-3.203.221" fill="url(#Y)"/><path d="m292.302 145.001h-10.095v-17.929h10.095v2.477h-7.177v4.881h6.725v2.452h-6.725v5.629h7.177z" fill="url(#W)"/></svg>