<svg width="82" height="20" viewBox="0 0 82 20" fill="none" xmlns="http://www.w3.org/2000/svg">
<path d="M72.1755 16L70.7391 14.605V13.315L71.1919 12.865H71.8945L72.3629 13.315V13.96L72.8625 14.44H74.8766L75.3762 13.96V12.01L74.8766 11.53H72.1755L70.7391 10.15V5.395L72.1755 4H75.548L77 5.395V6.685L76.5472 7.135H75.829L75.3762 6.685V6.04L74.8766 5.56H72.8469L72.3629 6.04V9.50499L72.8625 9.96999H75.548L77 11.365V14.605L75.548 16H72.1755Z" fill="black"/>
<path d="M62.7842 16L61.3478 14.605V13.315L61.8006 12.865H62.5032L62.9716 13.315V13.96L63.4712 14.44H65.4853L65.9849 13.96V12.01L65.4853 11.53H62.7842L61.3478 10.15V5.395L62.7842 4H66.1567L67.6087 5.395V6.685L67.1559 7.135H66.4377L65.9849 6.685V6.04L65.4853 5.56H63.4556L62.9716 6.04V9.50499L63.4712 9.96999H66.1567L67.6087 11.365V14.605L66.1567 16H62.7842Z" fill="black"/>
<path d="M52.4082 16L51.9565 15.565V14.875L52.4082 14.44H54.2771V5.56H52.4082L51.9565 5.125V4.435L52.4082 4H57.7502L58.2174 4.435V5.125L57.7502 5.56H55.8968V14.44H57.7502L58.2174 14.875V15.565L57.7502 16H52.4082Z" fill="black"/>
<path d="M43.0169 16L42.5652 15.565V4.45L43.0169 4.015H43.7177L44.1849 4.45V9.47499L44.6833 9.93999H46.708L47.2064 9.47499V4.45L47.658 4H48.3589L48.8261 4.45V10.12L47.658 11.41L48.8261 12.835V15.565L48.3589 16H47.658L47.2064 15.565V13.48L45.6957 11.5L44.6833 11.515L44.1849 11.98V15.565L43.7177 16H43.0169Z" fill="black"/>
<path d="M36.0068 13L35.6317 12.6405V10.6446H33.549L33.1739 10.2851V9.71488L33.549 9.35538H35.6317V7.35951L36.0068 7.00001H36.5889L36.977 7.35951V9.35538H39.0467L39.4348 9.71488V10.2851L39.0467 10.6446H36.977V12.6405L36.5889 13H36.0068Z" fill="black"/>
<path d="M26.553 16L26.0991 15.5644V9.7382L23.7826 7.50001V4.43563L24.2365 4.00001H24.9409L25.4104 4.43563V6.85409L26.913 8.31117L28.4313 6.85409V4.43563L28.8852 4.00001H29.5896L30.0435 4.43563V7.50001L27.727 9.7382V15.5644L27.2574 16H26.553Z" fill="black"/>
<path d="M14.8441 16L14.3913 15.565V4.45001L14.8441 4.00001H19.2002L20.6522 5.39501V8.62001L19.4812 9.90439L20.6522 11.35V15.565L20.1994 16H19.4812L19.0284 15.565V11.995L17.5217 9.99999L16.5147 10.015L16.0151 10.495V15.565L15.5467 16H14.8441ZM16.5147 8.45501H18.5288L19.0284 7.97501V6.02501L18.5288 5.56001H16.5147L16.0151 6.02501V7.97501L16.5147 8.45501Z" fill="black"/>
<path d="M5.44942 16L5 15.565V4.43501L5.44942 4.00001H9.81963L11.2609 5.39501V14.605L9.81963 16H5.44942ZM7.10762 14.44H9.13775L9.63366 13.96V6.04001L9.13775 5.57501H7.10762L6.62721 6.04001V13.96L7.10762 14.44Z" fill="black"/>
</svg>
