<svg width="102" height="40" viewBox="0 0 102 40" fill="none" xmlns="http://www.w3.org/2000/svg">
<path d="M9 31H93M93 39H9" stroke="white" stroke-width="2" stroke-linecap="round" stroke-linejoin="round"/>
<path d="M93 39L101 31L93 31L93 39Z" stroke="white" stroke-width="2" stroke-linecap="round" stroke-linejoin="round"/>
<path d="M93 9V31M101 31V9" stroke="white" stroke-width="2" stroke-linecap="round" stroke-linejoin="round"/>
<path d="M101 1L93 9M101 1H93M101 1V9" stroke="white" stroke-width="2" stroke-linecap="round" stroke-linejoin="round"/>
<path d="M9 1H93M93 9H9" stroke="white" stroke-width="2" stroke-linecap="round" stroke-linejoin="round"/>
<path d="M1 39L9 31M1 39V31M1 39H9" stroke="white" stroke-width="2" stroke-linecap="round" stroke-linejoin="round"/>
<path d="M1 9V31M9 31V9" stroke="white" stroke-width="2" stroke-linecap="round" stroke-linejoin="round"/>
<path d="M9 1L1 9H9V1Z" stroke="white" stroke-width="2" stroke-linecap="round" stroke-linejoin="round"/>
<path d="M82.1755 26L80.7391 24.605V23.315L81.1919 22.865H81.8945L82.3629 23.315V23.96L82.8625 24.44H84.8766L85.3762 23.96V22.01L84.8766 21.53H82.1755L80.7391 20.15V15.395L82.1755 14H85.548L87 15.395V16.685L86.5472 17.135H85.829L85.3762 16.685V16.04L84.8766 15.56H82.8469L82.3629 16.04V19.505L82.8625 19.97H85.548L87 21.365V24.605L85.548 26H82.1755Z" fill="white"/>
<path d="M72.7842 26L71.3478 24.605V23.315L71.8006 22.865H72.5032L72.9716 23.315V23.96L73.4712 24.44H75.4853L75.9849 23.96V22.01L75.4853 21.53H72.7842L71.3478 20.15V15.395L72.7842 14H76.1567L77.6087 15.395V16.685L77.1559 17.135H76.4377L75.9849 16.685V16.04L75.4853 15.56H73.4556L72.9716 16.04V19.505L73.4712 19.97H76.1567L77.6087 21.365V24.605L76.1567 26H72.7842Z" fill="white"/>
<path d="M62.4082 26L61.9565 25.565V24.875L62.4082 24.44H64.2771V15.56H62.4082L61.9565 15.125V14.435L62.4082 14H67.7502L68.2174 14.435V15.125L67.7502 15.56H65.8968V24.44H67.7502L68.2174 24.875V25.565L67.7502 26H62.4082Z" fill="white"/>
<path d="M53.0169 26L52.5652 25.565V14.45L53.0169 14.015H53.7177L54.1849 14.45V19.475L54.6833 19.94H56.708L57.2064 19.475V14.45L57.658 14H58.3589L58.8261 14.45V20.12L57.658 21.41L58.8261 22.835V25.565L58.3589 26H57.658L57.2064 25.565V23.48L55.6957 21.5L54.6833 21.515L54.1849 21.98V25.565L53.7177 26H53.0169Z" fill="white"/>
<path d="M46.0068 23L45.6317 22.6405V20.6446H43.549L43.1739 20.2851V19.7149L43.549 19.3554H45.6317V17.3595L46.0068 17H46.5889L46.977 17.3595V19.3554H49.0467L49.4348 19.7149V20.2851L49.0467 20.6446H46.977V22.6405L46.5889 23H46.0068Z" fill="white"/>
<path d="M36.553 26L36.0991 25.5644V19.7382L33.7826 17.5V14.4356L34.2365 14H34.9409L35.4104 14.4356V16.8541L36.913 18.3112L38.4313 16.8541V14.4356L38.8852 14H39.5896L40.0435 14.4356V17.5L37.727 19.7382V25.5644L37.2574 26H36.553Z" fill="white"/>
<path d="M24.8441 26L24.3913 25.565V14.45L24.8441 14H29.2002L30.6522 15.395V18.62L29.4812 19.9044L30.6522 21.35V25.565L30.1994 26H29.4812L29.0284 25.565V21.995L27.5217 20L26.5147 20.015L26.0151 20.495V25.565L25.5467 26H24.8441ZM26.5147 18.455H28.5288L29.0284 17.975V16.025L28.5288 15.56H26.5147L26.0151 16.025V17.975L26.5147 18.455Z" fill="white"/>
<path d="M15.4494 26L15 25.565V14.435L15.4494 14H19.8196L21.2609 15.395V24.605L19.8196 26H15.4494ZM17.1076 24.44H19.1378L19.6337 23.96V16.04L19.1378 15.575H17.1076L16.6272 16.04V23.96L17.1076 24.44Z" fill="white"/>
</svg>
