<svg enable-background="new 0 0 299 31" height="31" viewBox="0 0 299 31" width="299" xmlns="http://www.w3.org/2000/svg"><path d="m43.349-2.188h331.202v61.655h-331.202z" fill="none"/><text fill="#979797" font-family="'Courier'" font-size="48" letter-spacing="7" transform="translate(43.3486 28.4834)">DRY</text><g fill="#ed293b"><text font-family="'Courier'" font-size="48" letter-spacing="7" transform="translate(158.5625 28.4834)">KISS</text><path d="m7.555 25.146h2.632v2.634h-2.632z" opacity=".55"/><path d="m10.188 25.148h2.631v2.632h-2.631z" opacity=".75"/><path d="m12.818 25.146h2.633v2.634h-2.633z" opacity=".69"/><path d="m15.451 25.146h2.634v2.634h-2.634z" opacity=".77"/><path d="m18.085 25.148h2.631v2.632h-2.631z" opacity=".67"/><path d="m20.716 25.146h2.634v2.634h-2.634z" opacity=".53"/><path d="m4.922 22.509h2.633v2.634h-2.633z" opacity=".51"/><path d="m7.555 22.509h2.632v2.634h-2.632z" opacity=".85"/><path d="m10.187 22.509h2.633v2.634h-2.633z" opacity=".99"/><path d="m12.818 22.509h2.633v2.634h-2.633z" opacity=".9"/><path d="m15.453 22.509h2.632v2.634h-2.632z" opacity=".9"/><path d="m18.085 22.509h2.631v2.634h-2.631z" opacity=".97"/><path d="m20.718 22.509h2.632v2.632h-2.632z" opacity=".87"/><path d="m23.35 22.509h2.633v2.634h-2.633z" opacity=".49"/><path d="m2.289 19.876h2.633v2.633h-2.633z" opacity=".45"/><path d="m4.924 19.877h2.631v2.632h-2.631z" opacity=".81"/><path d="m7.555 19.876h2.632v2.633h-2.632z" opacity=".81"/><path d="m10.187 19.876h2.633v2.633h-2.633z" opacity=".95"/><path d="m18.088 19.876h2.632v2.632h-2.632z" opacity=".93"/><path d="m20.718 19.874h2.633v2.634h-2.633z" opacity=".91"/><path d="m23.353 19.874h2.632v2.632h-2.632z" opacity=".83"/><path d="m25.982 19.874h2.635v2.634h-2.635z" opacity=".47"/><path d="m-.347 17.244h2.634v2.632h-2.634z" opacity=".43"/><path d="m2.287 17.244h2.632v2.632h-2.632z" opacity=".71"/><path d="m4.919 17.244h2.633v2.632h-2.633z" opacity=".77"/><path d="m7.552 17.244h2.632v2.632h-2.632z" opacity=".89"/><path d="m20.72 17.242h2.631v2.632h-2.631z" opacity=".91"/><path d="m23.351 17.242h2.634v2.632h-2.634z" opacity=".79"/><path d="m25.984 17.242h2.633v2.631h-2.633z" opacity=".79"/><path d="m28.616 17.242h2.633v2.632h-2.633z" opacity=".41"/><path d="m20.716 1.429h2.634v2.633h-2.634z" opacity=".54"/><path d="m18.083 1.429h2.632v2.633h-2.632z" opacity=".7"/><path d="m15.45 6.7h2.633v2.633h-2.633z" opacity=".74"/><path d="m12.818 6.7h2.633v2.633h-2.633z" opacity=".68"/><path d="m10.187 1.429h2.632v2.633h-2.632z" opacity=".72"/><path d="m7.554 1.429h2.633v2.633h-2.633z" opacity=".52"/><path d="m23.348 4.068h2.633v2.633h-2.633z" opacity=".56"/><path d="m20.716 4.068h2.632v2.632h-2.632z" opacity=".76"/><path d="m18.083 4.068h2.633v2.633h-2.633z" opacity=".84"/><path d="m15.45 4.068h2.635v2.633h-2.635z" opacity=".58"/><path d="m12.818 4.068h2.632v2.632h-2.632z" opacity=".5"/><path d="m10.187 4.068h2.632v2.633h-2.632z" opacity=".82"/><path d="m7.554 4.068h2.631v2.633h-2.631z" opacity=".66"/><path d="m4.92 4.068h2.634v2.633h-2.634z" opacity=".48"/><path d="m25.98 6.7h2.634v2.633h-2.634z" opacity=".44"/><path d="m23.348 6.7h2.632v2.633h-2.632z" opacity=".71"/><path d="m20.716 6.7h2.635v2.631h-2.635z" opacity=".88"/><path d="m18.083 6.7h2.633v2.633h-2.633z" opacity=".96"/><path d="m10.184 6.703h2.631v2.632h-2.631z" opacity=".94"/><path d="m7.552 6.703h2.632v2.632h-2.632z" opacity=".86"/><path d="m4.919 6.703h2.631v2.632h-2.631z" opacity=".86"/><path d="m2.287 6.703h2.632v2.632h-2.632z" opacity=".46"/><path d="m28.616 9.333h2.633v2.633h-2.633z" opacity=".42"/><path d="m25.982 9.333h2.634v2.632h-2.634z" opacity=".86"/><path d="m23.351 9.333h2.634v2.633h-2.634z" opacity=".92"/><path d="m20.718 9.333h2.633v2.633h-2.633z" opacity=".98"/><path d="m7.552 9.335h2.632v2.631h-2.632z"/><path d="m4.919 9.335h2.633v2.633h-2.633z" opacity=".9"/><path d="m2.287 9.336h2.632v2.631h-2.632z" opacity=".84"/><path d="m-.347 9.335h2.634v2.633h-2.634z" opacity=".4"/></g></svg>