<svg width="372" height="367" viewBox="0 0 372 367" fill="none" xmlns="http://www.w3.org/2000/svg">
<circle cx="198.5" cy="205.5" r="137" stroke="#D6D6D6" stroke-width="3" stroke-dasharray="10 10"/>
<g filter="url(#filter0_d)">
<ellipse cx="218.5" cy="72" rx="61.5" ry="62" fill="white"/>
</g>
<g filter="url(#filter1_d)">
<circle cx="298" cy="291" r="62" fill="white"/>
</g>
<g filter="url(#filter2_d)">
<circle cx="74" cy="248" r="62" fill="white"/>
</g>
<path d="M184.734 61.5781V68.9688C184.734 69.8125 184.544 70.5521 184.164 71.1875C183.789 71.8229 183.245 72.3099 182.531 72.6484C181.818 72.987 180.974 73.1562 180 73.1562C178.531 73.1562 177.391 72.7812 176.578 72.0312C175.766 71.276 175.359 70.2448 175.359 68.9375V61.5781H177.773V68.5703C177.773 69.4505 177.951 70.0964 178.305 70.5078C178.659 70.9193 179.245 71.125 180.062 71.125C180.854 71.125 181.427 70.9193 181.781 70.5078C182.141 70.0911 182.32 69.4401 182.32 68.5547V61.5781H184.734ZM195.406 73H193.023V67.8984C193.023 67.2682 192.911 66.7969 192.688 66.4844C192.464 66.1667 192.107 66.0078 191.617 66.0078C190.951 66.0078 190.469 66.2318 190.172 66.6797C189.875 67.1224 189.727 67.8594 189.727 68.8906V73H187.344V64.2656H189.164L189.484 65.3828H189.617C189.883 64.9609 190.247 64.6432 190.711 64.4297C191.18 64.2109 191.711 64.1016 192.305 64.1016C193.32 64.1016 194.091 64.3776 194.617 64.9297C195.143 65.4766 195.406 66.2682 195.406 67.3047V73ZM200.625 73.1562C199.599 73.1562 198.792 72.7578 198.203 71.9609C197.62 71.1641 197.328 70.0599 197.328 68.6484C197.328 67.2161 197.625 66.1016 198.219 65.3047C198.818 64.5026 199.641 64.1016 200.688 64.1016C201.786 64.1016 202.625 64.5286 203.203 65.3828H203.281C203.161 64.7318 203.102 64.151 203.102 63.6406V60.8438H205.492V73H203.664L203.203 71.8672H203.102C202.56 72.7266 201.734 73.1562 200.625 73.1562ZM201.461 71.2578C202.07 71.2578 202.516 71.0807 202.797 70.7266C203.083 70.3724 203.24 69.7708 203.266 68.9219V68.6641C203.266 67.7266 203.12 67.0547 202.828 66.6484C202.542 66.2422 202.073 66.0391 201.422 66.0391C200.891 66.0391 200.477 66.2656 200.18 66.7188C199.888 67.1667 199.742 67.8203 199.742 68.6797C199.742 69.5391 199.891 70.1849 200.188 70.6172C200.484 71.0443 200.909 71.2578 201.461 71.2578ZM211.602 65.7969C211.096 65.7969 210.701 65.9583 210.414 66.2812C210.128 66.599 209.964 67.0521 209.922 67.6406H213.266C213.255 67.0521 213.102 66.599 212.805 66.2812C212.508 65.9583 212.107 65.7969 211.602 65.7969ZM211.938 73.1562C210.531 73.1562 209.432 72.7682 208.641 71.9922C207.849 71.2161 207.453 70.1172 207.453 68.6953C207.453 67.2318 207.818 66.1016 208.547 65.3047C209.281 64.5026 210.294 64.1016 211.586 64.1016C212.82 64.1016 213.781 64.4531 214.469 65.1562C215.156 65.8594 215.5 66.8307 215.5 68.0703V69.2266H209.867C209.893 69.9036 210.094 70.4323 210.469 70.8125C210.844 71.1927 211.37 71.3828 212.047 71.3828C212.573 71.3828 213.07 71.3281 213.539 71.2188C214.008 71.1094 214.497 70.9349 215.008 70.6953V72.5391C214.591 72.7474 214.146 72.901 213.672 73C213.198 73.1042 212.62 73.1562 211.938 73.1562ZM222.312 64.1016C222.635 64.1016 222.904 64.125 223.117 64.1719L222.938 66.4062C222.745 66.3542 222.51 66.3281 222.234 66.3281C221.474 66.3281 220.88 66.5234 220.453 66.9141C220.031 67.3047 219.82 67.8516 219.82 68.5547V73H217.438V64.2656H219.242L219.594 65.7344H219.711C219.982 65.2448 220.346 64.8516 220.805 64.5547C221.268 64.2526 221.771 64.1016 222.312 64.1016ZM230.797 70.4062C230.797 71.3021 230.484 71.9844 229.859 72.4531C229.24 72.9219 228.31 73.1562 227.07 73.1562C226.435 73.1562 225.893 73.112 225.445 73.0234C224.997 72.9401 224.578 72.8151 224.188 72.6484V70.6797C224.63 70.888 225.128 71.0625 225.68 71.2031C226.237 71.3438 226.727 71.4141 227.148 71.4141C228.013 71.4141 228.445 71.1641 228.445 70.6641C228.445 70.4766 228.388 70.3255 228.273 70.2109C228.159 70.0911 227.961 69.9583 227.68 69.8125C227.398 69.6615 227.023 69.487 226.555 69.2891C225.883 69.0078 225.388 68.7474 225.07 68.5078C224.758 68.2682 224.529 67.9948 224.383 67.6875C224.242 67.375 224.172 66.9922 224.172 66.5391C224.172 65.763 224.471 65.1641 225.07 64.7422C225.674 64.3151 226.529 64.1016 227.633 64.1016C228.685 64.1016 229.708 64.3307 230.703 64.7891L229.984 66.5078C229.547 66.3203 229.138 66.1667 228.758 66.0469C228.378 65.9271 227.99 65.8672 227.594 65.8672C226.891 65.8672 226.539 66.0573 226.539 66.4375C226.539 66.651 226.651 66.8359 226.875 66.9922C227.104 67.1484 227.602 67.3802 228.367 67.6875C229.049 67.9635 229.549 68.2214 229.867 68.4609C230.185 68.7005 230.419 68.9766 230.57 69.2891C230.721 69.6016 230.797 69.974 230.797 70.4062ZM236.336 71.2578C236.753 71.2578 237.253 71.1667 237.836 70.9844V72.7578C237.242 73.0234 236.513 73.1562 235.648 73.1562C234.695 73.1562 234 72.9167 233.562 72.4375C233.13 71.9531 232.914 71.2292 232.914 70.2656V66.0547H231.773V65.0469L233.086 64.25L233.773 62.4062H235.297V64.2656H237.742V66.0547H235.297V70.2656C235.297 70.6042 235.391 70.8542 235.578 71.0156C235.771 71.1771 236.023 71.2578 236.336 71.2578ZM245.156 73L244.695 71.8125H244.633C244.232 72.3177 243.818 72.6693 243.391 72.8672C242.969 73.0599 242.417 73.1562 241.734 73.1562C240.896 73.1562 240.234 72.9167 239.75 72.4375C239.271 71.9583 239.031 71.276 239.031 70.3906C239.031 69.4635 239.354 68.7812 240 68.3438C240.651 67.901 241.63 67.6562 242.938 67.6094L244.453 67.5625V67.1797C244.453 66.2943 244 65.8516 243.094 65.8516C242.396 65.8516 241.576 66.0625 240.633 66.4844L239.844 64.875C240.849 64.349 241.964 64.0859 243.188 64.0859C244.359 64.0859 245.258 64.3411 245.883 64.8516C246.508 65.362 246.82 66.138 246.82 67.1797V73H245.156ZM244.453 68.9531L243.531 68.9844C242.839 69.0052 242.323 69.1302 241.984 69.3594C241.646 69.5885 241.477 69.9375 241.477 70.4062C241.477 71.0781 241.862 71.4141 242.633 71.4141C243.185 71.4141 243.625 71.2552 243.953 70.9375C244.286 70.6198 244.453 70.1979 244.453 69.6719V68.9531ZM257.344 73H254.961V67.8984C254.961 67.2682 254.849 66.7969 254.625 66.4844C254.401 66.1667 254.044 66.0078 253.555 66.0078C252.888 66.0078 252.406 66.2318 252.109 66.6797C251.812 67.1224 251.664 67.8594 251.664 68.8906V73H249.281V64.2656H251.102L251.422 65.3828H251.555C251.82 64.9609 252.185 64.6432 252.648 64.4297C253.117 64.2109 253.648 64.1016 254.242 64.1016C255.258 64.1016 256.029 64.3776 256.555 64.9297C257.081 65.4766 257.344 66.2682 257.344 67.3047V73ZM262.562 73.1562C261.536 73.1562 260.729 72.7578 260.141 71.9609C259.557 71.1641 259.266 70.0599 259.266 68.6484C259.266 67.2161 259.562 66.1016 260.156 65.3047C260.755 64.5026 261.578 64.1016 262.625 64.1016C263.724 64.1016 264.562 64.5286 265.141 65.3828H265.219C265.099 64.7318 265.039 64.151 265.039 63.6406V60.8438H267.43V73H265.602L265.141 71.8672H265.039C264.497 72.7266 263.672 73.1562 262.562 73.1562ZM263.398 71.2578C264.008 71.2578 264.453 71.0807 264.734 70.7266C265.021 70.3724 265.177 69.7708 265.203 68.9219V68.6641C265.203 67.7266 265.057 67.0547 264.766 66.6484C264.479 66.2422 264.01 66.0391 263.359 66.0391C262.828 66.0391 262.414 66.2656 262.117 66.7188C261.826 67.1667 261.68 67.8203 261.68 68.6797C261.68 69.5391 261.828 70.1849 262.125 70.6172C262.422 71.0443 262.846 71.2578 263.398 71.2578Z" fill="#FF6E91"/>
<path d="M57.2891 243.43C56.3776 243.43 55.6719 243.773 55.1719 244.461C54.6719 245.143 54.4219 246.096 54.4219 247.32C54.4219 249.867 55.3776 251.141 57.2891 251.141C58.0911 251.141 59.0625 250.94 60.2031 250.539V252.57C59.2656 252.961 58.2188 253.156 57.0625 253.156C55.401 253.156 54.1302 252.654 53.25 251.648C52.3698 250.638 51.9297 249.19 51.9297 247.305C51.9297 246.117 52.1458 245.078 52.5781 244.188C53.0104 243.292 53.6302 242.607 54.4375 242.133C55.25 241.654 56.2005 241.414 57.2891 241.414C58.3984 241.414 59.513 241.682 60.6328 242.219L59.8516 244.188C59.4245 243.984 58.9948 243.807 58.5625 243.656C58.1302 243.505 57.7057 243.43 57.2891 243.43ZM67.3281 244.102C67.651 244.102 67.9193 244.125 68.1328 244.172L67.9531 246.406C67.7604 246.354 67.526 246.328 67.25 246.328C66.4896 246.328 65.8958 246.523 65.4688 246.914C65.0469 247.305 64.8359 247.852 64.8359 248.555V253H62.4531V244.266H64.2578L64.6094 245.734H64.7266C64.9974 245.245 65.362 244.852 65.8203 244.555C66.2839 244.253 66.7865 244.102 67.3281 244.102ZM75.2656 253L74.8047 251.812H74.7422C74.3411 252.318 73.9271 252.669 73.5 252.867C73.0781 253.06 72.526 253.156 71.8438 253.156C71.0052 253.156 70.3438 252.917 69.8594 252.438C69.3802 251.958 69.1406 251.276 69.1406 250.391C69.1406 249.464 69.4635 248.781 70.1094 248.344C70.7604 247.901 71.7396 247.656 73.0469 247.609L74.5625 247.562V247.18C74.5625 246.294 74.1094 245.852 73.2031 245.852C72.5052 245.852 71.6849 246.062 70.7422 246.484L69.9531 244.875C70.9583 244.349 72.0729 244.086 73.2969 244.086C74.4688 244.086 75.3672 244.341 75.9922 244.852C76.6172 245.362 76.9297 246.138 76.9297 247.18V253H75.2656ZM74.5625 248.953L73.6406 248.984C72.9479 249.005 72.4323 249.13 72.0938 249.359C71.7552 249.589 71.5859 249.938 71.5859 250.406C71.5859 251.078 71.9714 251.414 72.7422 251.414C73.2943 251.414 73.7344 251.255 74.0625 250.938C74.3958 250.62 74.5625 250.198 74.5625 249.672V248.953ZM84.2188 246.055H82.1562V253H79.7734V246.055H78.4609V244.906L79.7734 244.266V243.625C79.7734 242.63 80.0182 241.904 80.5078 241.445C80.9974 240.987 81.7812 240.758 82.8594 240.758C83.6823 240.758 84.4141 240.88 85.0547 241.125L84.4453 242.875C83.9661 242.724 83.5234 242.648 83.1172 242.648C82.7786 242.648 82.5339 242.75 82.3828 242.953C82.2318 243.151 82.1562 243.406 82.1562 243.719V244.266H84.2188V246.055ZM89.2734 251.258C89.6901 251.258 90.1901 251.167 90.7734 250.984V252.758C90.1797 253.023 89.4505 253.156 88.5859 253.156C87.6328 253.156 86.9375 252.917 86.5 252.438C86.0677 251.953 85.8516 251.229 85.8516 250.266V246.055H84.7109V245.047L86.0234 244.25L86.7109 242.406H88.2344V244.266H90.6797V246.055H88.2344V250.266C88.2344 250.604 88.3281 250.854 88.5156 251.016C88.7083 251.177 88.9609 251.258 89.2734 251.258Z" fill="black"/>
<path d="M273.43 297L272.602 294.281H268.438L267.609 297H265L269.031 285.531H271.992L276.039 297H273.43ZM272.023 292.25C271.258 289.786 270.826 288.393 270.727 288.07C270.633 287.747 270.565 287.492 270.523 287.305C270.352 287.971 269.859 289.62 269.047 292.25H272.023ZM282.172 288.102C282.495 288.102 282.763 288.125 282.977 288.172L282.797 290.406C282.604 290.354 282.37 290.328 282.094 290.328C281.333 290.328 280.74 290.523 280.312 290.914C279.891 291.305 279.68 291.852 279.68 292.555V297H277.297V288.266H279.102L279.453 289.734H279.57C279.841 289.245 280.206 288.852 280.664 288.555C281.128 288.253 281.63 288.102 282.172 288.102ZM288.109 297.156C285.391 297.156 284.031 295.664 284.031 292.68C284.031 291.195 284.401 290.062 285.141 289.281C285.88 288.495 286.94 288.102 288.32 288.102C289.331 288.102 290.237 288.299 291.039 288.695L290.336 290.539C289.961 290.388 289.612 290.266 289.289 290.172C288.966 290.073 288.643 290.023 288.32 290.023C287.081 290.023 286.461 290.904 286.461 292.664C286.461 294.372 287.081 295.227 288.32 295.227C288.779 295.227 289.203 295.167 289.594 295.047C289.984 294.922 290.375 294.729 290.766 294.469V296.508C290.38 296.753 289.99 296.922 289.594 297.016C289.203 297.109 288.708 297.156 288.109 297.156ZM300.859 297H298.477V291.898C298.477 290.638 298.008 290.008 297.07 290.008C296.404 290.008 295.922 290.234 295.625 290.688C295.328 291.141 295.18 291.875 295.18 292.891V297H292.797V284.844H295.18V287.32C295.18 287.513 295.161 287.966 295.125 288.68L295.07 289.383H295.195C295.727 288.529 296.57 288.102 297.727 288.102C298.753 288.102 299.531 288.378 300.062 288.93C300.594 289.482 300.859 290.273 300.859 291.305V297ZM303.211 286.008C303.211 285.232 303.643 284.844 304.508 284.844C305.372 284.844 305.805 285.232 305.805 286.008C305.805 286.378 305.695 286.667 305.477 286.875C305.263 287.078 304.94 287.18 304.508 287.18C303.643 287.18 303.211 286.789 303.211 286.008ZM305.695 297H303.312V288.266H305.695V297ZM311.883 295.258C312.299 295.258 312.799 295.167 313.383 294.984V296.758C312.789 297.023 312.06 297.156 311.195 297.156C310.242 297.156 309.547 296.917 309.109 296.438C308.677 295.953 308.461 295.229 308.461 294.266V290.055H307.32V289.047L308.633 288.25L309.32 286.406H310.844V288.266H313.289V290.055H310.844V294.266C310.844 294.604 310.938 294.854 311.125 295.016C311.318 295.177 311.57 295.258 311.883 295.258ZM318.773 289.797C318.268 289.797 317.872 289.958 317.586 290.281C317.299 290.599 317.135 291.052 317.094 291.641H320.438C320.427 291.052 320.273 290.599 319.977 290.281C319.68 289.958 319.279 289.797 318.773 289.797ZM319.109 297.156C317.703 297.156 316.604 296.768 315.812 295.992C315.021 295.216 314.625 294.117 314.625 292.695C314.625 291.232 314.99 290.102 315.719 289.305C316.453 288.503 317.466 288.102 318.758 288.102C319.992 288.102 320.953 288.453 321.641 289.156C322.328 289.859 322.672 290.831 322.672 292.07V293.227H317.039C317.065 293.904 317.266 294.432 317.641 294.812C318.016 295.193 318.542 295.383 319.219 295.383C319.745 295.383 320.242 295.328 320.711 295.219C321.18 295.109 321.669 294.935 322.18 294.695V296.539C321.763 296.747 321.318 296.901 320.844 297C320.37 297.104 319.792 297.156 319.109 297.156ZM328.156 297.156C325.438 297.156 324.078 295.664 324.078 292.68C324.078 291.195 324.448 290.062 325.188 289.281C325.927 288.495 326.987 288.102 328.367 288.102C329.378 288.102 330.284 288.299 331.086 288.695L330.383 290.539C330.008 290.388 329.659 290.266 329.336 290.172C329.013 290.073 328.69 290.023 328.367 290.023C327.128 290.023 326.508 290.904 326.508 292.664C326.508 294.372 327.128 295.227 328.367 295.227C328.826 295.227 329.25 295.167 329.641 295.047C330.031 294.922 330.422 294.729 330.812 294.469V296.508C330.427 296.753 330.036 296.922 329.641 297.016C329.25 297.109 328.755 297.156 328.156 297.156ZM336.523 295.258C336.94 295.258 337.44 295.167 338.023 294.984V296.758C337.43 297.023 336.701 297.156 335.836 297.156C334.883 297.156 334.188 296.917 333.75 296.438C333.318 295.953 333.102 295.229 333.102 294.266V290.055H331.961V289.047L333.273 288.25L333.961 286.406H335.484V288.266H337.93V290.055H335.484V294.266C335.484 294.604 335.578 294.854 335.766 295.016C335.958 295.177 336.211 295.258 336.523 295.258Z" fill="#289BC3"/>
<defs>
<filter id="filter0_d" x="145" y="0" width="147" height="148" filterUnits="userSpaceOnUse" color-interpolation-filters="sRGB">
<feFlood flood-opacity="0" result="BackgroundImageFix"/>
<feColorMatrix in="SourceAlpha" type="matrix" values="0 0 0 0 0 0 0 0 0 0 0 0 0 0 0 0 0 0 127 0"/>
<feOffset dy="2"/>
<feGaussianBlur stdDeviation="6"/>
<feColorMatrix type="matrix" values="0 0 0 0 0 0 0 0 0 0 0 0 0 0 0 0 0 0 0.25 0"/>
<feBlend mode="normal" in2="BackgroundImageFix" result="effect1_dropShadow"/>
<feBlend mode="normal" in="SourceGraphic" in2="effect1_dropShadow" result="shape"/>
</filter>
<filter id="filter1_d" x="224" y="219" width="148" height="148" filterUnits="userSpaceOnUse" color-interpolation-filters="sRGB">
<feFlood flood-opacity="0" result="BackgroundImageFix"/>
<feColorMatrix in="SourceAlpha" type="matrix" values="0 0 0 0 0 0 0 0 0 0 0 0 0 0 0 0 0 0 127 0"/>
<feOffset dy="2"/>
<feGaussianBlur stdDeviation="6"/>
<feColorMatrix type="matrix" values="0 0 0 0 0 0 0 0 0 0 0 0 0 0 0 0 0 0 0.25 0"/>
<feBlend mode="normal" in2="BackgroundImageFix" result="effect1_dropShadow"/>
<feBlend mode="normal" in="SourceGraphic" in2="effect1_dropShadow" result="shape"/>
</filter>
<filter id="filter2_d" x="0" y="176" width="148" height="148" filterUnits="userSpaceOnUse" color-interpolation-filters="sRGB">
<feFlood flood-opacity="0" result="BackgroundImageFix"/>
<feColorMatrix in="SourceAlpha" type="matrix" values="0 0 0 0 0 0 0 0 0 0 0 0 0 0 0 0 0 0 127 0"/>
<feOffset dy="2"/>
<feGaussianBlur stdDeviation="6"/>
<feColorMatrix type="matrix" values="0 0 0 0 0 0 0 0 0 0 0 0 0 0 0 0 0 0 0.25 0"/>
<feBlend mode="normal" in2="BackgroundImageFix" result="effect1_dropShadow"/>
<feBlend mode="normal" in="SourceGraphic" in2="effect1_dropShadow" result="shape"/>
</filter>
</defs>
</svg>
