<svg width="382" height="283" viewBox="0 0 382 283" fill="none" xmlns="http://www.w3.org/2000/svg">
<g clip-path="url(#clip0)">
<path d="M6.24857 19.2229C5.00009 19.2229 3.99686 18.9331 3.23886 18.3535C2.49572 17.7738 2.0647 16.9861 1.9458 15.9903H3.95227C4.04145 16.4362 4.28668 16.7929 4.68798 17.0604C5.08927 17.3131 5.60947 17.4394 6.24857 17.4394H7.18492C7.95778 17.4394 8.53743 17.2759 8.92386 16.9489C9.32515 16.622 9.5258 16.1835 9.5258 15.6336C9.5258 14.6229 8.83468 14.0061 7.45245 13.7832L5.80268 13.5156C4.58394 13.3224 3.68474 12.9509 3.10509 12.4009C2.52545 11.8362 2.23562 11.041 2.23562 10.0155C2.23562 8.90076 2.59233 8.03873 3.30574 7.42935C4.01915 6.81998 5.05955 6.51529 6.42692 6.51529H7.27409C8.43339 6.51529 9.36974 6.79769 10.0832 7.36247C10.8114 7.91239 11.2499 8.66296 11.3985 9.61418H9.39204C9.30286 9.21288 9.07249 8.89333 8.70092 8.65553C8.32935 8.41773 7.85374 8.29882 7.27409 8.29882H6.42692C4.97037 8.29882 4.24209 8.87847 4.24209 10.0378C4.24209 10.5282 4.38329 10.8998 4.66568 11.1525C4.96294 11.3903 5.43855 11.5612 6.09251 11.6652L7.74227 11.9328C9.06506 12.1408 10.0237 12.5273 10.6182 13.0921C11.2276 13.6568 11.5323 14.4743 11.5323 15.5444C11.5323 16.7037 11.1607 17.6103 10.4176 18.2643C9.68929 18.9034 8.61174 19.2229 7.18492 19.2229H6.24857Z" fill="#00D2D2"/>
<path d="M39.7974 13.3596H32.3066V14.5412C32.3066 15.5221 32.537 16.2653 32.9977 16.7706C33.4733 17.2759 34.1644 17.5286 35.0711 17.5286C36.6317 17.5286 37.5234 16.9787 37.7464 15.8788H39.7528C39.6191 16.9044 39.1286 17.7218 38.2814 18.3312C37.4342 18.9257 36.3641 19.2229 35.0711 19.2229C33.6294 19.2229 32.4775 18.7994 31.6155 17.9522C30.7683 17.105 30.3447 15.968 30.3447 14.5412V11.1971C30.3447 9.77024 30.7683 8.63324 31.6155 7.78606C32.4775 6.93888 33.6294 6.51529 35.0711 6.51529C36.5128 6.51529 37.6572 6.93888 38.5044 7.78606C39.3664 8.63324 39.7974 9.77024 39.7974 11.1971V13.3596ZM32.3066 11.8436H37.8355V11.1971C37.8355 10.2161 37.5977 9.47298 37.1221 8.96765C36.6614 8.44745 35.9777 8.18735 35.0711 8.18735C34.1644 8.18735 33.4733 8.44745 32.9977 8.96765C32.537 9.47298 32.3066 10.2161 32.3066 11.1971V11.8436Z" fill="#00D2D2"/>
<path d="M64.3841 6.51529C65.6772 6.51529 66.7027 6.92402 67.4607 7.74147C68.2336 8.54406 68.62 9.63647 68.62 11.0187V11.7544H66.6135V11.1971C66.6135 10.2458 66.3757 9.51014 65.9001 8.98994C65.4394 8.46974 64.778 8.20965 63.916 8.20965C63.0688 8.20965 62.4 8.47718 61.9095 9.01224C61.4339 9.53243 61.1961 10.2607 61.1961 11.1971V19H59.1896V6.73824H61.1515V8.92306C61.5528 7.31788 62.6303 6.51529 64.3841 6.51529Z" fill="#00D2D2"/>
<path d="M90.3754 19L86.3847 6.73824H88.4358L91.0442 14.9871C91.3117 15.8342 91.557 16.6591 91.7799 17.4617C92.0028 16.6591 92.2481 15.8342 92.5156 14.9871L95.0571 6.73824H97.0859L93.0953 19H90.3754Z" fill="#00D2D2"/>
<path d="M120.067 4.62029C119.622 4.62029 119.265 4.50139 118.997 4.26359C118.745 4.02578 118.618 3.70623 118.618 3.30494C118.618 2.90365 118.752 2.57667 119.02 2.324C119.287 2.07133 119.636 1.945 120.067 1.945H120.513C120.944 1.945 121.294 2.07133 121.561 2.324C121.829 2.57667 121.962 2.90365 121.962 3.30494C121.962 3.70623 121.829 4.02578 121.561 4.26359C121.294 4.50139 120.944 4.62029 120.513 4.62029H120.067ZM125.641 19H115.163V17.1719H119.51V8.56635H115.72V6.73824H121.517V17.1719H125.641V19Z" fill="#00D2D2"/>
<path d="M148.489 19.2229C147.002 19.2229 145.828 18.8068 144.966 17.9745C144.104 17.1422 143.673 15.9977 143.673 14.5412V11.1971C143.673 9.74051 144.104 8.59608 144.966 7.76376C145.828 6.93145 147.002 6.51529 148.489 6.51529C149.901 6.51529 151.038 6.89429 151.9 7.65229C152.762 8.41029 153.215 9.44325 153.26 10.7512H151.253C151.209 9.97831 150.941 9.37637 150.451 8.94535C149.975 8.51433 149.321 8.29882 148.489 8.29882C147.612 8.29882 146.921 8.55149 146.415 9.05682C145.925 9.56216 145.68 10.2681 145.68 11.1748V14.5412C145.68 15.4627 145.925 16.1761 146.415 16.6814C146.906 17.1867 147.597 17.4394 148.489 17.4394C149.321 17.4394 149.975 17.2239 150.451 16.7929C150.941 16.3619 151.209 15.7599 151.253 14.9871H153.26C153.215 16.295 152.762 17.3279 151.9 18.0859C151.038 18.8439 149.901 19.2229 148.489 19.2229Z" fill="#00D2D2"/>
<path d="M181.458 13.3596H173.967V14.5412C173.967 15.5221 174.198 16.2653 174.658 16.7706C175.134 17.2759 175.825 17.5286 176.732 17.5286C178.292 17.5286 179.184 16.9787 179.407 15.8788H181.413C181.28 16.9044 180.789 17.7218 179.942 18.3312C179.095 18.9257 178.025 19.2229 176.732 19.2229C175.29 19.2229 174.138 18.7994 173.276 17.9522C172.429 17.105 172.005 15.968 172.005 14.5412V11.1971C172.005 9.77024 172.429 8.63324 173.276 7.78606C174.138 6.93888 175.29 6.51529 176.732 6.51529C178.173 6.51529 179.318 6.93888 180.165 7.78606C181.027 8.63324 181.458 9.77024 181.458 11.1971V13.3596ZM173.967 11.8436H179.496V11.1971C179.496 10.2161 179.258 9.47298 178.783 8.96765C178.322 8.44745 177.638 8.18735 176.732 8.18735C175.825 8.18735 175.134 8.44745 174.658 8.96765C174.198 9.47298 173.967 10.2161 173.967 11.1971V11.8436Z" fill="#00D2D2"/>
<path d="M204.573 19.2229C203.325 19.2229 202.322 18.9331 201.564 18.3535C200.82 17.7738 200.389 16.9861 200.271 15.9903H202.277C202.366 16.4362 202.611 16.7929 203.013 17.0604C203.414 17.3131 203.934 17.4394 204.573 17.4394H205.51C206.283 17.4394 206.862 17.2759 207.249 16.9489C207.65 16.622 207.851 16.1835 207.851 15.6336C207.851 14.6229 207.159 14.0061 205.777 13.7832L204.127 13.5156C202.909 13.3224 202.009 12.9509 201.43 12.4009C200.85 11.8362 200.56 11.041 200.56 10.0155C200.56 8.90076 200.917 8.03873 201.63 7.42935C202.344 6.81998 203.384 6.51529 204.752 6.51529H205.599C206.758 6.51529 207.694 6.79769 208.408 7.36247C209.136 7.91239 209.575 8.66296 209.723 9.61418H207.717C207.628 9.21288 207.397 8.89333 207.026 8.65553C206.654 8.41773 206.178 8.29882 205.599 8.29882H204.752C203.295 8.29882 202.567 8.87847 202.567 10.0378C202.567 10.5282 202.708 10.8998 202.99 11.1525C203.288 11.3903 203.763 11.5612 204.417 11.6652L206.067 11.9328C207.39 12.1408 208.348 12.5273 208.943 13.0921C209.552 13.6568 209.857 14.4743 209.857 15.5444C209.857 16.7037 209.485 17.6103 208.742 18.2643C208.014 18.9034 206.936 19.2229 205.51 19.2229H204.573Z" fill="#00D2D2"/>
<path d="M234.042 6.51529C235.276 6.51529 236.257 6.90173 236.985 7.67459C237.713 8.43259 238.078 9.45812 238.078 10.7512V19H236.071V10.9741C236.071 10.1121 235.833 9.43582 235.358 8.94535C234.897 8.45488 234.265 8.20965 233.463 8.20965C232.616 8.20965 231.954 8.47718 231.479 9.01224C231.003 9.53243 230.765 10.2607 230.765 11.1971V19H228.759V2.72529H230.765V9.07912H230.787C230.891 8.26167 231.226 7.63 231.791 7.18412C232.355 6.73824 233.106 6.51529 234.042 6.51529Z" fill="#333333"/>
<path d="M264.359 2.72529H266.365V19H264.359V16.6591H264.336C264.232 17.4617 263.883 18.0934 263.289 18.5541C262.694 19 261.936 19.2229 261.015 19.2229C259.781 19.2229 258.8 18.8142 258.072 17.9968C257.358 17.1793 257.002 16.072 257.002 14.6749V11.0856C257.002 9.67363 257.358 8.55892 258.072 7.74147C258.8 6.92402 259.781 6.51529 261.015 6.51529C261.921 6.51529 262.672 6.74567 263.266 7.20641C263.861 7.66716 264.217 8.29139 264.336 9.07912H264.403L264.359 6.29235V2.72529ZM264.359 11.1971C264.359 10.2756 264.121 9.55473 263.645 9.03453C263.17 8.51433 262.516 8.25424 261.683 8.25424C260.836 8.25424 260.175 8.51433 259.699 9.03453C259.238 9.53986 259.008 10.2607 259.008 11.1971V14.5412C259.008 15.4775 259.238 16.2058 259.699 16.726C260.175 17.2313 260.836 17.484 261.683 17.484C262.516 17.484 263.17 17.2239 263.645 16.7037C264.121 16.1835 264.359 15.4627 264.359 14.5412V11.1971Z" fill="#333333"/>
<path d="M288.7 19L284.709 6.73824H286.761L289.369 14.9871C289.636 15.8342 289.882 16.6591 290.105 17.4617C290.328 16.6591 290.573 15.8342 290.84 14.9871L293.382 6.73824H295.411L291.42 19H288.7Z" fill="#333333"/>
<path d="M318.437 6.53759C319.864 6.53759 320.993 6.90173 321.825 7.63C322.658 8.34341 323.074 9.32435 323.074 10.5728V19H321.112V16.6591H321.09C321.03 17.432 320.644 18.0562 319.93 18.5318C319.217 18.9926 318.325 19.2229 317.255 19.2229C316.007 19.2229 315.011 18.896 314.268 18.242C313.525 17.588 313.153 16.7037 313.153 15.589C313.153 14.4148 313.517 13.4934 314.245 12.8245C314.989 12.1557 315.999 11.8213 317.277 11.8213H321.067V10.6397C321.067 9.89657 320.83 9.32435 320.354 8.92306C319.893 8.5069 319.247 8.29882 318.414 8.29882C317.686 8.29882 317.084 8.44745 316.609 8.74471C316.133 9.04196 315.858 9.45069 315.784 9.97088H313.777C313.911 8.93049 314.402 8.09818 315.249 7.47394C316.096 6.84971 317.159 6.53759 318.437 6.53759ZM317.723 17.6401C318.704 17.6401 319.507 17.4097 320.131 16.9489C320.755 16.4733 321.067 15.8565 321.067 15.0985V13.3596H317.322C316.653 13.3596 316.126 13.5454 315.739 13.9169C315.353 14.2885 315.16 14.8013 315.16 15.4552C315.16 16.1389 315.39 16.674 315.851 17.0604C316.311 17.4468 316.936 17.6401 317.723 17.6401Z" fill="#333333"/>
<path d="M351.451 13.3596H343.96V14.5412C343.96 15.5221 344.19 16.2653 344.651 16.7706C345.127 17.2759 345.818 17.5286 346.724 17.5286C348.285 17.5286 349.177 16.9787 349.4 15.8788H351.406C351.272 16.9044 350.782 17.7218 349.935 18.3312C349.087 18.9257 348.017 19.2229 346.724 19.2229C345.283 19.2229 344.131 18.7994 343.269 17.9522C342.422 17.105 341.998 15.968 341.998 14.5412V11.1971C341.998 9.77024 342.422 8.63324 343.269 7.78606C344.131 6.93888 345.283 6.51529 346.724 6.51529C348.166 6.51529 349.31 6.93888 350.158 7.78606C351.02 8.63324 351.451 9.77024 351.451 11.1971V13.3596ZM343.96 11.8436H349.489V11.1971C349.489 10.2161 349.251 9.47298 348.775 8.96765C348.315 8.44745 347.631 8.18735 346.724 8.18735C345.818 8.18735 345.127 8.44745 344.651 8.96765C344.19 9.47298 343.96 10.2161 343.96 11.1971V11.8436Z" fill="#333333"/>
<path d="M369.594 19L373.83 12.6908L369.862 6.73824H372.225L374.544 10.5282C374.722 10.8106 374.9 11.145 375.079 11.5315C375.242 11.145 375.413 10.8106 375.591 10.5282L377.932 6.73824H380.273L376.305 12.7131L380.518 19H378.155L375.636 14.9871C375.473 14.7047 375.287 14.3405 375.079 13.8946C374.856 14.3257 374.655 14.6898 374.477 14.9871L371.935 19H369.594Z" fill="#333333"/>
<g clip-path="url(#clip1)">
<path d="M4.95551 56.1569V45.9684H1.38845V44.1403H4.95551V42.9587C4.95551 42.0075 5.24533 41.257 5.82498 40.707C6.40462 40.1571 7.19235 39.8822 8.18815 39.8822H11.9782V41.7103H8.18815C7.80172 41.7103 7.49704 41.8217 7.27409 42.0447C7.06602 42.2528 6.96198 42.55 6.96198 42.9364V44.1403H11.9782V45.9684H6.96198V56.1569H4.95551Z" fill="#333333"/>
<path d="M35.7176 43.6722C36.9512 43.6722 37.9321 44.0586 38.6604 44.8314C39.3887 45.5894 39.7528 46.615 39.7528 47.908V56.1569H37.7464V48.131C37.7464 47.2689 37.5086 46.5927 37.0329 46.1022C36.5722 45.6117 35.9405 45.3665 35.1379 45.3665C34.2908 45.3665 33.6294 45.634 33.1538 46.1691C32.6782 46.6893 32.4404 47.4176 32.4404 48.3539V56.1569H30.4339V43.8951H32.4404V46.236H32.4627C32.5667 45.4185 32.9011 44.7869 33.4659 44.341C34.0307 43.8951 34.7812 43.6722 35.7176 43.6722Z" fill="#333333"/>
<path d="M63.4478 43.6944C64.8746 43.6944 66.0042 44.0586 66.8365 44.7869C67.6688 45.5003 68.085 46.4812 68.085 47.7297V56.1569H66.1231V53.816H66.1008C66.0413 54.5888 65.6549 55.2131 64.9415 55.6887C64.2281 56.1494 63.3363 56.3798 62.2662 56.3798C61.0177 56.3798 60.0219 56.0528 59.2788 55.3989C58.5356 54.7449 58.1641 53.8606 58.1641 52.7459C58.1641 51.5717 58.5282 50.6502 59.2565 49.9814C59.9996 49.3126 61.0103 48.9782 62.2885 48.9782H66.0785V47.7966C66.0785 47.0534 65.8407 46.4812 65.3651 46.0799C64.9043 45.6638 64.2578 45.4557 63.4255 45.4557C62.6972 45.4557 62.0953 45.6043 61.6197 45.9016C61.1441 46.1988 60.8691 46.6075 60.7948 47.1277H58.7883C58.9221 46.0874 59.4125 45.255 60.2597 44.6308C61.1069 44.0066 62.1696 43.6944 63.4478 43.6944ZM62.7344 54.7969C63.7153 54.7969 64.5179 54.5665 65.1421 54.1058C65.7664 53.6302 66.0785 53.0134 66.0785 52.2554V50.5164H62.3331C61.6642 50.5164 61.1366 50.7022 60.7502 51.0738C60.3638 51.4454 60.1705 51.9581 60.1705 52.6121C60.1705 53.2958 60.4009 53.8308 60.8617 54.2173C61.3224 54.6037 61.9466 54.7969 62.7344 54.7969Z" fill="#333333"/>
<path d="M90.3754 56.1569L86.3847 43.8951H88.4358L91.0442 52.1439C91.3117 52.9911 91.557 53.816 91.7799 54.6186C92.0028 53.816 92.2481 52.9911 92.5156 52.1439L95.0571 43.8951H97.0859L93.0953 56.1569H90.3754Z" fill="#333333"/>
<path d="M120.157 56.3798C118.67 56.3798 117.496 55.9636 116.634 55.1313C115.772 54.299 115.341 53.1546 115.341 51.698V48.3539C115.341 46.8974 115.772 45.7529 116.634 44.9206C117.496 44.0883 118.67 43.6722 120.157 43.6722C121.569 43.6722 122.706 44.0512 123.568 44.8092C124.43 45.5672 124.883 46.6001 124.928 47.908H122.921C122.876 47.1352 122.609 46.5332 122.118 46.1022C121.643 45.6712 120.989 45.4557 120.157 45.4557C119.28 45.4557 118.589 45.7084 118.083 46.2137C117.593 46.719 117.348 47.425 117.348 48.3316V51.698C117.348 52.6195 117.593 53.3329 118.083 53.8383C118.574 54.3436 119.265 54.5963 120.157 54.5963C120.989 54.5963 121.643 54.3808 122.118 53.9497C122.609 53.5187 122.876 52.9168 122.921 52.1439H124.928C124.883 53.4518 124.43 54.4848 123.568 55.2428C122.706 56.0008 121.569 56.3798 120.157 56.3798Z" fill="#333333"/>
<path d="M149.046 43.6722C150.28 43.6722 151.261 44.0586 151.989 44.8314C152.717 45.5894 153.081 46.615 153.081 47.908V56.1569H151.075V48.131C151.075 47.2689 150.837 46.5927 150.361 46.1022C149.901 45.6117 149.269 45.3665 148.466 45.3665C147.619 45.3665 146.958 45.634 146.482 46.1691C146.007 46.6893 145.769 47.4176 145.769 48.3539V56.1569H143.762V39.8822H145.769V46.236H145.791C145.895 45.4185 146.23 44.7869 146.794 44.341C147.359 43.8951 148.11 43.6722 149.046 43.6722Z" fill="#333333"/>
<path d="M179.518 43.6722C180.276 43.6722 180.871 43.962 181.302 44.5416C181.733 45.1064 181.948 45.8718 181.948 46.8379V56.1569H180.098V46.8156C180.098 46.3103 179.987 45.9164 179.764 45.634C179.556 45.3516 179.243 45.2104 178.827 45.2104C178.426 45.2104 178.106 45.3516 177.869 45.634C177.646 45.9016 177.534 46.288 177.534 46.7933V56.1569H175.929V46.8156C175.929 46.3103 175.81 45.9164 175.572 45.634C175.349 45.3516 175.03 45.2104 174.614 45.2104C174.212 45.2104 173.9 45.3516 173.677 45.634C173.469 45.9016 173.365 46.288 173.365 46.7933V56.1569H171.515V43.8951H173.276V45.3665H173.41C173.499 44.8463 173.715 44.4376 174.056 44.1403C174.413 43.8282 174.859 43.6722 175.394 43.6722C175.899 43.6722 176.323 43.8208 176.665 44.118C177.007 44.4004 177.252 44.8166 177.4 45.3665H177.49C177.594 44.8463 177.824 44.4376 178.181 44.1403C178.537 43.8282 178.983 43.6722 179.518 43.6722Z" fill="#333333"/>
<path d="M205.108 43.6944C206.535 43.6944 207.665 44.0586 208.497 44.7869C209.329 45.5003 209.746 46.4812 209.746 47.7297V56.1569H207.784V53.816H207.761C207.702 54.5888 207.315 55.2131 206.602 55.6887C205.889 56.1494 204.997 56.3798 203.927 56.3798C202.678 56.3798 201.682 56.0528 200.939 55.3989C200.196 54.7449 199.825 53.8606 199.825 52.7459C199.825 51.5717 200.189 50.6502 200.917 49.9814C201.66 49.3126 202.671 48.9782 203.949 48.9782H207.739V47.7966C207.739 47.0534 207.501 46.4812 207.026 46.0799C206.565 45.6638 205.918 45.4557 205.086 45.4557C204.358 45.4557 203.756 45.6043 203.28 45.9016C202.805 46.1988 202.53 46.6075 202.455 47.1277H200.449C200.583 46.0874 201.073 45.255 201.92 44.6308C202.767 44.0066 203.83 43.6944 205.108 43.6944ZM204.395 54.7969C205.376 54.7969 206.178 54.5665 206.803 54.1058C207.427 53.6302 207.739 53.0134 207.739 52.2554V50.5164H203.994C203.325 50.5164 202.797 50.7022 202.411 51.0738C202.024 51.4454 201.831 51.9581 201.831 52.6121C201.831 53.2958 202.061 53.8308 202.522 54.2173C202.983 54.6037 203.607 54.7969 204.395 54.7969Z" fill="#333333"/>
<path d="M234.733 56.1569C233.678 56.1569 232.853 55.8745 232.259 55.3097C231.679 54.7449 231.389 53.9497 231.389 52.9242V45.7232H227.934V43.8951H231.389V40.551H233.396V43.8951H238.301V45.7232H233.396V52.9242C233.396 53.3998 233.5 53.7565 233.708 53.9943C233.931 54.2173 234.273 54.3287 234.733 54.3287H238.078V56.1569H234.733Z" fill="#333333"/>
<path d="M262.374 43.6722C263.608 43.6722 264.589 44.0586 265.317 44.8314C266.046 45.5894 266.41 46.615 266.41 47.908V56.1569H264.403V48.131C264.403 47.2689 264.165 46.5927 263.69 46.1022C263.229 45.6117 262.597 45.3665 261.795 45.3665C260.948 45.3665 260.286 45.634 259.811 46.1691C259.335 46.6893 259.097 47.4176 259.097 48.3539V56.1569H257.091V43.8951H259.097V46.236H259.12C259.224 45.4185 259.558 44.7869 260.123 44.341C260.688 43.8951 261.438 43.6722 262.374 43.6722Z" fill="#333333"/>
<path d="M284.598 56.1569L288.834 49.8476L284.866 43.8951H287.229L289.547 47.6851C289.726 47.9675 289.904 48.3019 290.082 48.6883C290.246 48.3019 290.417 47.9675 290.595 47.6851L292.936 43.8951H295.277L291.309 49.8699L295.522 56.1569H293.159L290.64 52.1439C290.476 51.8615 290.29 51.4974 290.082 51.0515C289.859 51.4825 289.659 51.8467 289.48 52.1439L286.939 56.1569H284.598Z" fill="#333333"/>
<path d="M318.37 56.3798C316.958 56.3798 315.828 55.9562 314.981 55.109C314.134 54.2619 313.71 53.1249 313.71 51.698V43.8951H315.717V51.698C315.717 52.6195 315.947 53.3404 316.408 53.8606C316.884 54.3659 317.538 54.6186 318.37 54.6186C319.217 54.6186 319.878 54.3659 320.354 53.8606C320.83 53.3404 321.067 52.6195 321.067 51.698V43.8951H323.074V51.698C323.074 53.1249 322.643 54.2619 321.781 55.109C320.934 55.9562 319.797 56.3798 318.37 56.3798Z" fill="#333333"/>
<path d="M346.769 43.6944C348.196 43.6944 349.325 44.0586 350.158 44.7869C350.99 45.5003 351.406 46.4812 351.406 47.7297V56.1569H349.444V53.816H349.422C349.362 54.5888 348.976 55.2131 348.263 55.6887C347.549 56.1494 346.657 56.3798 345.587 56.3798C344.339 56.3798 343.343 56.0528 342.6 55.3989C341.857 54.7449 341.485 53.8606 341.485 52.7459C341.485 51.5717 341.849 50.6502 342.578 49.9814C343.321 49.3126 344.331 48.9782 345.61 48.9782H349.4V47.7966C349.4 47.0534 349.162 46.4812 348.686 46.0799C348.225 45.6638 347.579 45.4557 346.747 45.4557C346.018 45.4557 345.416 45.6043 344.941 45.9016C344.465 46.1988 344.19 46.6075 344.116 47.1277H342.109C342.243 46.0874 342.734 45.255 343.581 44.6308C344.428 44.0066 345.491 43.6944 346.769 43.6944ZM346.055 54.7969C347.036 54.7969 347.839 54.5665 348.463 54.1058C349.087 53.6302 349.4 53.0134 349.4 52.2554V50.5164H345.654C344.985 50.5164 344.458 50.7022 344.071 51.0738C343.685 51.4454 343.492 51.9581 343.492 52.6121C343.492 53.2958 343.722 53.8308 344.183 54.2173C344.644 54.6037 345.268 54.7969 346.055 54.7969Z" fill="#333333"/>
<path d="M375.056 41.7772C374.611 41.7772 374.254 41.6583 373.986 41.4204C373.734 41.1826 373.607 40.8631 373.607 40.4618C373.607 40.0605 373.741 39.7335 374.009 39.4809C374.276 39.2282 374.625 39.1019 375.056 39.1019H375.502C375.933 39.1019 376.283 39.2282 376.55 39.4809C376.818 39.7335 376.951 40.0605 376.951 40.4618C376.951 40.8631 376.818 41.1826 376.55 41.4204C376.283 41.6583 375.933 41.7772 375.502 41.7772H375.056ZM380.63 56.1569H370.152V54.3287H374.499V45.7232H370.709V43.8951H376.506V54.3287H380.63V56.1569Z" fill="#333333"/>
</g>
<g clip-path="url(#clip2)">
<path d="M12.0896 95.5431H1.38845V93.8711H12.0896V95.5431Z" fill="#333333"/>
<path d="M40.4217 95.5431H29.7205V93.8711H40.4217V95.5431Z" fill="#333333"/>
<path d="M63.3809 93.5367C61.9689 93.5367 60.8394 93.1131 59.9922 92.2659C59.145 91.4187 58.7214 90.2817 58.7214 88.8549V81.052H60.7279V88.8549C60.7279 89.7764 60.9583 90.4972 61.419 91.0174C61.8946 91.5228 62.5486 91.7754 63.3809 91.7754C64.2281 91.7754 64.8895 91.5228 65.3651 91.0174C65.8407 90.4972 66.0785 89.7764 66.0785 88.8549V81.052H68.085V88.8549C68.085 90.2817 67.6539 91.4187 66.7919 92.2659C65.9447 93.1131 64.8077 93.5367 63.3809 93.5367Z" fill="white"/>
<path d="M91.2448 93.5367C89.9964 93.5367 88.9931 93.2468 88.2351 92.6672C87.492 92.0875 87.061 91.2998 86.9421 90.304H88.9485C89.0377 90.7499 89.283 91.1066 89.6843 91.3741C90.0855 91.6268 90.6057 91.7531 91.2448 91.7531H92.1812C92.9541 91.7531 93.5337 91.5896 93.9201 91.2627C94.3214 90.9357 94.5221 90.4972 94.5221 89.9473C94.5221 88.9366 93.831 88.3198 92.4487 88.0969L90.799 87.8294C89.5802 87.6362 88.681 87.2646 88.1014 86.7147C87.5217 86.1499 87.2319 85.3547 87.2319 84.3292C87.2319 83.2145 87.5886 82.3524 88.302 81.7431C89.0154 81.1337 90.0558 80.829 91.4232 80.829H92.2704C93.4297 80.829 94.366 81.1114 95.0794 81.6762C95.8077 82.2261 96.2462 82.9767 96.3948 83.9279H94.3883C94.2991 83.5266 94.0688 83.2071 93.6972 82.9693C93.3256 82.7314 92.85 82.6125 92.2704 82.6125H91.4232C89.9666 82.6125 89.2384 83.1922 89.2384 84.3515C89.2384 84.842 89.3796 85.2135 89.662 85.4662C89.9592 85.704 90.4348 85.8749 91.0888 85.979L92.7385 86.2465C94.0613 86.4546 95.02 86.841 95.6145 87.4058C96.2239 87.9706 96.5285 88.788 96.5285 89.8581C96.5285 91.0174 96.157 91.9241 95.4138 92.578C94.6856 93.2171 93.608 93.5367 92.1812 93.5367H91.2448Z" fill="white"/>
<path d="M124.794 87.6733H117.303V88.8549C117.303 89.8358 117.533 90.579 117.994 91.0843C118.47 91.5896 119.161 91.8423 120.067 91.8423C121.628 91.8423 122.52 91.2924 122.743 90.1925H124.749C124.615 91.2181 124.125 92.0355 123.278 92.6449C122.431 93.2394 121.36 93.5367 120.067 93.5367C118.626 93.5367 117.474 93.1131 116.612 92.2659C115.765 91.4187 115.341 90.2817 115.341 88.8549V85.5108C115.341 84.084 115.765 82.947 116.612 82.0998C117.474 81.2526 118.626 80.829 120.067 80.829C121.509 80.829 122.654 81.2526 123.501 82.0998C124.363 82.947 124.794 84.084 124.794 85.5108V87.6733ZM117.303 86.1573H122.832V85.5108C122.832 84.5298 122.594 83.7867 122.118 83.2814C121.658 82.7612 120.974 82.5011 120.067 82.5011C119.161 82.5011 118.47 82.7612 117.994 83.2814C117.533 83.7867 117.303 84.5298 117.303 85.5108V86.1573Z" fill="white"/>
<path d="M149.38 80.829C150.673 80.829 151.699 81.2377 152.457 82.0552C153.23 82.8578 153.616 83.9502 153.616 85.3324V86.0681H151.61V85.5108C151.61 84.5596 151.372 83.8239 150.896 83.3037C150.436 82.7835 149.774 82.5234 148.912 82.5234C148.065 82.5234 147.396 82.7909 146.906 83.326C146.43 83.8462 146.192 84.5744 146.192 85.5108V93.3137H144.186V81.052H146.148V83.2368C146.549 81.6316 147.627 80.829 149.38 80.829Z" fill="white"/>
<path d="M178.069 93.3137C177.014 93.3137 176.189 93.0313 175.595 92.4665C175.015 91.9018 174.725 91.1066 174.725 90.0811V82.8801H171.27V81.052H174.725V77.7078H176.732V81.052H181.636V82.8801H176.732V90.0811C176.732 90.5567 176.836 90.9134 177.044 91.1512C177.267 91.3741 177.609 91.4856 178.069 91.4856H181.413V93.3137H178.069Z" fill="#333333"/>
<path d="M206.513 93.3137C205.428 93.3137 204.558 93.0016 203.904 92.3774C203.265 91.7383 202.946 90.8985 202.946 89.8581V78.8671H199.267V77.039H204.952V89.8581C204.952 90.3635 205.093 90.7648 205.376 91.062C205.658 91.3444 206.037 91.4856 206.513 91.4856H210.637V93.3137H206.513Z" fill="#333333"/>
<path d="M235.068 78.934C234.622 78.934 234.265 78.8151 233.998 78.5773C233.745 78.3395 233.619 78.02 233.619 77.6187C233.619 77.2174 233.753 76.8904 234.02 76.6377C234.288 76.3851 234.637 76.2587 235.068 76.2587H235.514C235.945 76.2587 236.294 76.3851 236.562 76.6377C236.829 76.8904 236.963 77.2174 236.963 77.6187C236.963 78.02 236.829 78.3395 236.562 78.5773C236.294 78.8151 235.945 78.934 235.514 78.934H235.068ZM228.603 97.3267V95.4763H231.479C232.4 95.4763 233.113 95.2236 233.619 94.7183C234.139 94.2278 234.399 93.5292 234.399 92.6226V82.8801H229.271V81.052H236.406V92.6226C236.406 94.0643 235.96 95.2087 235.068 96.0559C234.176 96.9031 232.98 97.3267 231.479 97.3267H228.603Z" fill="#333333"/>
<path d="M262.374 80.829C263.608 80.829 264.589 81.2154 265.317 81.9883C266.046 82.7463 266.41 83.7718 266.41 85.0649V93.3137H264.403V85.2878C264.403 84.4258 264.165 83.7495 263.69 83.2591C263.229 82.7686 262.597 82.5234 261.795 82.5234C260.948 82.5234 260.286 82.7909 259.811 83.326C259.335 83.8462 259.097 84.5744 259.097 85.5108V93.3137H257.091V77.039H259.097V83.3928H259.12C259.224 82.5754 259.558 81.9437 260.123 81.4978C260.688 81.052 261.438 80.829 262.374 80.829Z" fill="#333333"/>
<path d="M288.277 93.3137V83.1253H284.709V81.2972H288.277V80.1156C288.277 79.1644 288.566 78.4138 289.146 77.8639C289.726 77.314 290.513 77.039 291.509 77.039H295.299V78.8671H291.509C291.123 78.8671 290.818 78.9786 290.595 79.2015C290.387 79.4096 290.283 79.7069 290.283 80.0933V81.2972H295.299V83.1253H290.283V93.3137H288.277Z" fill="#333333"/>
<path d="M323.119 87.6733H315.628V88.8549C315.628 89.8358 315.858 90.579 316.319 91.0843C316.794 91.5896 317.486 91.8423 318.392 91.8423C319.953 91.8423 320.845 91.2924 321.067 90.1925H323.074C322.94 91.2181 322.45 92.0355 321.603 92.6449C320.755 93.2394 319.685 93.5367 318.392 93.5367C316.95 93.5367 315.799 93.1131 314.937 92.2659C314.089 91.4187 313.666 90.2817 313.666 88.8549V85.5108C313.666 84.084 314.089 82.947 314.937 82.0998C315.799 81.2526 316.95 80.829 318.392 80.829C319.834 80.829 320.978 81.2526 321.825 82.0998C322.688 82.947 323.119 84.084 323.119 85.5108V87.6733ZM315.628 86.1573H321.157V85.5108C321.157 84.5298 320.919 83.7867 320.443 83.2814C319.982 82.7612 319.299 82.5011 318.392 82.5011C317.486 82.5011 316.794 82.7612 316.319 83.2814C315.858 83.7867 315.628 84.5298 315.628 85.5108V86.1573Z" fill="#333333"/>
<path d="M349.355 81.052H351.361V97.3267H349.355V93.7596L349.4 90.9728H349.333C349.214 91.7606 348.857 92.3848 348.263 92.8455C347.668 93.3063 346.918 93.5367 346.011 93.5367C344.777 93.5367 343.796 93.1279 343.068 92.3105C342.355 91.493 341.998 90.3783 341.998 88.9664V85.377C341.998 83.9799 342.355 82.8726 343.068 82.0552C343.796 81.2377 344.777 80.829 346.011 80.829C346.932 80.829 347.69 81.0594 348.285 81.5201C348.879 81.966 349.229 82.5903 349.333 83.3928H349.355V81.052ZM349.355 85.5108C349.355 84.5893 349.117 83.8684 348.642 83.3482C348.166 82.8281 347.512 82.568 346.68 82.568C345.833 82.568 345.171 82.8281 344.696 83.3482C344.235 83.8536 344.004 84.5744 344.004 85.5108V88.8549C344.004 89.7913 344.235 90.5195 344.696 91.0397C345.171 91.5451 345.833 91.7977 346.68 91.7977C347.512 91.7977 348.166 91.5376 348.642 91.0174C349.117 90.4972 349.355 89.7764 349.355 88.8549V85.5108Z" fill="#333333"/>
<path d="M372.403 97.3267L374.209 92.5557L369.706 81.052H371.935L374.677 88.632C374.826 89.063 374.997 89.6575 375.19 90.4155C375.369 89.6575 375.532 89.063 375.681 88.632L378.244 81.052H380.407L374.544 97.3267H372.403Z" fill="#333333"/>
</g>
<g clip-path="url(#clip3)">
<path d="M12.0896 132.7H1.38845V131.028H12.0896V132.7Z" fill="#333333"/>
<path d="M40.4217 132.7H29.7205V131.028H40.4217V132.7Z" fill="#333333"/>
<path d="M68.1295 124.83H60.6387V126.012C60.6387 126.993 60.8691 127.736 61.3298 128.241C61.8054 128.747 62.4966 128.999 63.4032 128.999C64.9638 128.999 65.8555 128.449 66.0785 127.349H68.085C67.9512 128.375 67.4607 129.192 66.6135 129.802C65.7664 130.396 64.6962 130.694 63.4032 130.694C61.9615 130.694 60.8096 130.27 59.9476 129.423C59.1004 128.576 58.6768 127.439 58.6768 126.012V122.668C58.6768 121.241 59.1004 120.104 59.9476 119.257C60.8096 118.409 61.9615 117.986 63.4032 117.986C64.8449 117.986 65.9893 118.409 66.8365 119.257C67.6985 120.104 68.1295 121.241 68.1295 122.668V124.83ZM60.6387 123.314H66.1677V122.668C66.1677 121.687 65.9299 120.944 65.4542 120.438C64.9935 119.918 64.3098 119.658 63.4032 119.658C62.4966 119.658 61.8054 119.918 61.3298 120.438C60.8691 120.944 60.6387 121.687 60.6387 122.668V123.314Z" fill="white"/>
<path d="M86.2733 130.471L90.5091 124.161L86.5408 118.209H88.904L91.2225 121.999C91.4009 122.281 91.5793 122.616 91.7576 123.002C91.9211 122.616 92.092 122.281 92.2704 121.999L94.6113 118.209H96.9521L92.9838 124.184L97.1974 130.471H94.8342L92.315 126.458C92.1515 126.175 91.9657 125.811 91.7576 125.365C91.5347 125.796 91.334 126.16 91.1557 126.458L88.6141 130.471H86.2733Z" fill="white"/>
<path d="M120.803 117.986C122.037 117.986 123.01 118.395 123.724 119.212C124.437 120.03 124.794 121.137 124.794 122.534V126.123C124.794 127.535 124.437 128.65 123.724 129.467C123.01 130.285 122.037 130.694 120.803 130.694C119.882 130.694 119.116 130.463 118.507 130.002C117.912 129.542 117.563 128.917 117.459 128.13H117.392L117.437 130.916V134.484H115.43V118.209H117.437V120.55H117.459C117.563 119.747 117.912 119.123 118.507 118.677C119.116 118.216 119.882 117.986 120.803 117.986ZM122.787 122.668C122.787 121.716 122.557 120.988 122.096 120.483C121.635 119.977 120.981 119.725 120.134 119.725C119.302 119.725 118.641 119.985 118.15 120.505C117.675 121.025 117.437 121.746 117.437 122.668V126.012C117.437 126.933 117.675 127.654 118.15 128.174C118.641 128.694 119.302 128.955 120.134 128.955C120.981 128.955 121.635 128.702 122.096 128.197C122.557 127.691 122.787 126.963 122.787 126.012V122.668Z" fill="white"/>
<path d="M153.126 124.83H145.635V126.012C145.635 126.993 145.865 127.736 146.326 128.241C146.802 128.747 147.493 128.999 148.399 128.999C149.96 128.999 150.852 128.449 151.075 127.349H153.081C152.947 128.375 152.457 129.192 151.61 129.802C150.763 130.396 149.693 130.694 148.399 130.694C146.958 130.694 145.806 130.27 144.944 129.423C144.097 128.576 143.673 127.439 143.673 126.012V122.668C143.673 121.241 144.097 120.104 144.944 119.257C145.806 118.409 146.958 117.986 148.399 117.986C149.841 117.986 150.986 118.409 151.833 119.257C152.695 120.104 153.126 121.241 153.126 122.668V124.83ZM145.635 123.314H151.164V122.668C151.164 121.687 150.926 120.944 150.451 120.438C149.99 119.918 149.306 119.658 148.399 119.658C147.493 119.658 146.802 119.918 146.326 120.438C145.865 120.944 145.635 121.687 145.635 122.668V123.314Z" fill="white"/>
<path d="M177.713 117.986C179.006 117.986 180.031 118.395 180.789 119.212C181.562 120.015 181.948 121.107 181.948 122.489V123.225H179.942V122.668C179.942 121.716 179.704 120.981 179.229 120.461C178.768 119.94 178.106 119.68 177.244 119.68C176.397 119.68 175.728 119.948 175.238 120.483C174.762 121.003 174.525 121.731 174.525 122.668V130.471H172.518V118.209H174.48V120.394C174.881 118.788 175.959 117.986 177.713 117.986Z" fill="white"/>
<path d="M205.064 116.091C204.618 116.091 204.261 115.972 203.994 115.734C203.741 115.496 203.615 115.177 203.615 114.776C203.615 114.374 203.748 114.047 204.016 113.795C204.283 113.542 204.633 113.416 205.064 113.416H205.51C205.941 113.416 206.29 113.542 206.557 113.795C206.825 114.047 206.959 114.374 206.959 114.776C206.959 115.177 206.825 115.496 206.557 115.734C206.29 115.972 205.941 116.091 205.51 116.091H205.064ZM210.637 130.471H200.159V128.642H204.506V120.037H200.716V118.209H206.513V128.642H210.637V130.471Z" fill="white"/>
<path d="M238.122 124.83H230.631V126.012C230.631 126.993 230.862 127.736 231.322 128.241C231.798 128.747 232.489 128.999 233.396 128.999C234.956 128.999 235.848 128.449 236.071 127.349H238.078C237.944 128.375 237.453 129.192 236.606 129.802C235.759 130.396 234.689 130.694 233.396 130.694C231.954 130.694 230.802 130.27 229.94 129.423C229.093 128.576 228.669 127.439 228.669 126.012V122.668C228.669 121.241 229.093 120.104 229.94 119.257C230.802 118.409 231.954 117.986 233.396 117.986C234.838 117.986 235.982 118.409 236.829 119.257C237.691 120.104 238.122 121.241 238.122 122.668V124.83ZM230.631 123.314H236.16V122.668C236.16 121.687 235.923 120.944 235.447 120.438C234.986 119.918 234.302 119.658 233.396 119.658C232.489 119.658 231.798 119.918 231.322 120.438C230.862 120.944 230.631 121.687 230.631 122.668V123.314Z" fill="white"/>
<path d="M262.374 117.986C263.608 117.986 264.589 118.372 265.317 119.145C266.046 119.903 266.41 120.929 266.41 122.222V130.471H264.403V122.445C264.403 121.583 264.165 120.906 263.69 120.416C263.229 119.925 262.597 119.68 261.795 119.68C260.948 119.68 260.286 119.948 259.811 120.483C259.335 121.003 259.097 121.731 259.097 122.668V130.471H257.091V118.209H259.097V120.55H259.12C259.224 119.732 259.558 119.101 260.123 118.655C260.688 118.209 261.438 117.986 262.374 117.986Z" fill="white"/>
<path d="M290.149 130.694C288.663 130.694 287.489 130.277 286.627 129.445C285.765 128.613 285.334 127.468 285.334 126.012V122.668C285.334 121.211 285.765 120.067 286.627 119.234C287.489 118.402 288.663 117.986 290.149 117.986C291.561 117.986 292.698 118.365 293.56 119.123C294.422 119.881 294.876 120.914 294.92 122.222H292.914C292.869 121.449 292.602 120.847 292.111 120.416C291.636 119.985 290.982 119.769 290.149 119.769C289.272 119.769 288.581 120.022 288.076 120.527C287.585 121.033 287.34 121.739 287.34 122.645V126.012C287.34 126.933 287.585 127.647 288.076 128.152C288.566 128.657 289.257 128.91 290.149 128.91C290.982 128.91 291.636 128.694 292.111 128.263C292.602 127.832 292.869 127.231 292.914 126.458H294.92C294.876 127.766 294.422 128.799 293.56 129.557C292.698 130.315 291.561 130.694 290.149 130.694Z" fill="white"/>
<path d="M323.119 124.83H315.628V126.012C315.628 126.993 315.858 127.736 316.319 128.241C316.794 128.747 317.486 128.999 318.392 128.999C319.953 128.999 320.845 128.449 321.067 127.349H323.074C322.94 128.375 322.45 129.192 321.603 129.802C320.755 130.396 319.685 130.694 318.392 130.694C316.95 130.694 315.799 130.27 314.937 129.423C314.089 128.576 313.666 127.439 313.666 126.012V122.668C313.666 121.241 314.089 120.104 314.937 119.257C315.799 118.409 316.95 117.986 318.392 117.986C319.834 117.986 320.978 118.409 321.825 119.257C322.688 120.104 323.119 121.241 323.119 122.668V124.83ZM315.628 123.314H321.157V122.668C321.157 121.687 320.919 120.944 320.443 120.438C319.982 119.918 319.299 119.658 318.392 119.658C317.486 119.658 316.794 119.918 316.319 120.438C315.858 120.944 315.628 121.687 315.628 122.668V123.314Z" fill="white"/>
<path d="M352.075 132.7H341.374V131.028H352.075V132.7Z" fill="#333333"/>
<path d="M380.407 132.7H369.706V131.028H380.407V132.7Z" fill="#333333"/>
</g>
<g clip-path="url(#clip4)">
<path d="M12.0896 169.857H1.38845V168.185H12.0896V169.857Z" fill="#333333"/>
<path d="M41.0013 167.627H38.7942L37.3897 165.688C36.8546 166.386 36.2527 166.921 35.5838 167.293C34.9299 167.665 34.2388 167.85 33.5105 167.85C32.2917 167.85 31.3331 167.523 30.6345 166.869C29.9509 166.215 29.609 165.316 29.609 164.172V161.385C29.609 160.597 29.8097 159.936 30.2109 159.401C30.6271 158.851 31.2142 158.465 31.9722 158.242L31.8161 158.019C31.3554 157.394 31.021 156.815 30.8129 156.28C30.6048 155.745 30.5008 155.21 30.5008 154.675C30.5008 153.604 30.8649 152.75 31.5932 152.111C32.3363 151.457 33.3098 151.13 34.5137 151.13C35.8068 151.13 36.8323 151.472 37.5903 152.155C38.3483 152.839 38.7273 153.768 38.7273 154.942H36.7208C36.7208 154.303 36.5202 153.798 36.1189 153.426C35.7325 153.055 35.1974 152.869 34.5137 152.869C33.9043 152.869 33.4139 153.04 33.0423 153.381C32.6856 153.708 32.5072 154.154 32.5072 154.719C32.5072 155.091 32.5816 155.499 32.7302 155.945C32.8937 156.376 33.1166 156.778 33.399 157.149L37.2336 162.433L38.8165 159.602H40.9121L38.3929 164.038L41.0013 167.627ZM32.9977 159.646C32.0762 159.81 31.6155 160.389 31.6155 161.385V164.172C31.6155 164.766 31.7864 165.235 32.1282 165.576C32.4849 165.903 32.9829 166.067 33.6219 166.067C34.1273 166.067 34.6103 165.903 35.0711 165.576C35.5467 165.235 35.948 164.766 36.2749 164.172L32.9977 159.646Z" fill="#333333"/>
<path d="M63.4032 153.248C62.9573 153.248 62.6006 153.129 62.3331 152.891C62.0804 152.653 61.9541 152.334 61.9541 151.932C61.9541 151.531 62.0878 151.204 62.3554 150.951C62.6229 150.699 62.9722 150.572 63.4032 150.572H63.8491C64.2801 150.572 64.6294 150.699 64.8969 150.951C65.1644 151.204 65.2982 151.531 65.2982 151.932C65.2982 152.334 65.1644 152.653 64.8969 152.891C64.6294 153.129 64.2801 153.248 63.8491 153.248H63.4032ZM68.9767 167.627H58.4985V165.799H62.8458V157.194H59.0558V155.366H64.8523V165.799H68.9767V167.627Z" fill="#333333"/>
<path d="M92.3818 155.143C93.6155 155.143 94.5964 155.529 95.3247 156.302C96.0529 157.06 96.4171 158.086 96.4171 159.379V167.627H94.4106V159.602C94.4106 158.74 94.1728 158.063 93.6972 157.573C93.2364 157.082 92.6048 156.837 91.8022 156.837C90.955 156.837 90.2936 157.105 89.818 157.64C89.3424 158.16 89.1046 158.888 89.1046 159.824V167.627H87.0981V155.366H89.1046V157.707H89.1269C89.2309 156.889 89.5654 156.257 90.1301 155.812C90.6949 155.366 91.4455 155.143 92.3818 155.143Z" fill="#333333"/>
<path d="M121.405 167.627C120.35 167.627 119.525 167.345 118.93 166.78C118.351 166.215 118.061 165.42 118.061 164.395V157.194H114.605V155.366H118.061V152.022H120.067V155.366H124.972V157.194H120.067V164.395C120.067 164.87 120.171 165.227 120.38 165.465C120.602 165.688 120.944 165.799 121.405 165.799H124.749V167.627H121.405Z" fill="#333333"/>
<path d="M153.126 161.987H145.635V163.169C145.635 164.15 145.865 164.893 146.326 165.398C146.802 165.903 147.493 166.156 148.399 166.156C149.96 166.156 150.852 165.606 151.075 164.506H153.081C152.947 165.532 152.457 166.349 151.61 166.959C150.763 167.553 149.693 167.85 148.399 167.85C146.958 167.85 145.806 167.427 144.944 166.58C144.097 165.732 143.673 164.595 143.673 163.169V159.824C143.673 158.398 144.097 157.261 144.944 156.414C145.806 155.566 146.958 155.143 148.399 155.143C149.841 155.143 150.986 155.566 151.833 156.414C152.695 157.261 153.126 158.398 153.126 159.824V161.987ZM145.635 160.471H151.164V159.824C151.164 158.844 150.926 158.1 150.451 157.595C149.99 157.075 149.306 156.815 148.399 156.815C147.493 156.815 146.802 157.075 146.326 157.595C145.865 158.1 145.635 158.844 145.635 159.824V160.471Z" fill="#333333"/>
<path d="M177.713 155.143C179.006 155.143 180.031 155.551 180.789 156.369C181.562 157.172 181.948 158.264 181.948 159.646V160.382H179.942V159.824C179.942 158.873 179.704 158.138 179.229 157.617C178.768 157.097 178.106 156.837 177.244 156.837C176.397 156.837 175.728 157.105 175.238 157.64C174.762 158.16 174.525 158.888 174.525 159.824V167.627H172.518V155.366H174.48V157.551C174.881 155.945 175.959 155.143 177.713 155.143Z" fill="#333333"/>
<path d="M203.28 167.627V157.439H199.713V155.611H203.28V154.429C203.28 153.478 203.57 152.728 204.15 152.178C204.729 151.628 205.517 151.353 206.513 151.353H210.303V153.181H206.513C206.126 153.181 205.822 153.292 205.599 153.515C205.391 153.723 205.287 154.021 205.287 154.407V155.611H210.303V157.439H205.287V167.627H203.28Z" fill="#333333"/>
<path d="M233.44 155.165C234.867 155.165 235.997 155.529 236.829 156.257C237.661 156.971 238.078 157.952 238.078 159.2V167.627H236.116V165.287H236.093C236.034 166.059 235.648 166.684 234.934 167.159C234.221 167.62 233.329 167.85 232.259 167.85C231.01 167.85 230.015 167.523 229.271 166.869C228.528 166.215 228.157 165.331 228.157 164.216C228.157 163.042 228.521 162.121 229.249 161.452C229.992 160.783 231.003 160.449 232.281 160.449H236.071V159.267C236.071 158.524 235.833 157.952 235.358 157.551C234.897 157.134 234.25 156.926 233.418 156.926C232.69 156.926 232.088 157.075 231.612 157.372C231.137 157.669 230.862 158.078 230.787 158.598H228.781C228.915 157.558 229.405 156.726 230.252 156.101C231.1 155.477 232.162 155.165 233.44 155.165ZM232.727 166.268C233.708 166.268 234.511 166.037 235.135 165.576C235.759 165.101 236.071 164.484 236.071 163.726V161.987H232.326C231.657 161.987 231.129 162.173 230.743 162.544C230.356 162.916 230.163 163.429 230.163 164.083C230.163 164.766 230.394 165.301 230.854 165.688C231.315 166.074 231.939 166.268 232.727 166.268Z" fill="#333333"/>
<path d="M261.817 167.85C260.331 167.85 259.157 167.434 258.295 166.602C257.433 165.77 257.002 164.625 257.002 163.169V159.824C257.002 158.368 257.433 157.224 258.295 156.391C259.157 155.559 260.331 155.143 261.817 155.143C263.229 155.143 264.366 155.522 265.228 156.28C266.09 157.038 266.543 158.071 266.588 159.379H264.582C264.537 158.606 264.269 158.004 263.779 157.573C263.303 157.142 262.649 156.926 261.817 156.926C260.94 156.926 260.249 157.179 259.744 157.684C259.253 158.19 259.008 158.896 259.008 159.802V163.169C259.008 164.09 259.253 164.804 259.744 165.309C260.234 165.814 260.925 166.067 261.817 166.067C262.649 166.067 263.303 165.851 263.779 165.42C264.269 164.989 264.537 164.387 264.582 163.615H266.588C266.543 164.922 266.09 165.955 265.228 166.713C264.366 167.471 263.229 167.85 261.817 167.85Z" fill="#333333"/>
<path d="M294.786 161.987H287.296V163.169C287.296 164.15 287.526 164.893 287.987 165.398C288.462 165.903 289.153 166.156 290.06 166.156C291.621 166.156 292.512 165.606 292.735 164.506H294.742C294.608 165.532 294.118 166.349 293.27 166.959C292.423 167.553 291.353 167.85 290.06 167.85C288.618 167.85 287.467 167.427 286.604 166.58C285.757 165.732 285.334 164.595 285.334 163.169V159.824C285.334 158.398 285.757 157.261 286.604 156.414C287.467 155.566 288.618 155.143 290.06 155.143C291.502 155.143 292.646 155.566 293.493 156.414C294.355 157.261 294.786 158.398 294.786 159.824V161.987ZM287.296 160.471H292.825V159.824C292.825 158.844 292.587 158.1 292.111 157.595C291.65 157.075 290.967 156.815 290.06 156.815C289.153 156.815 288.462 157.075 287.987 157.595C287.526 158.1 287.296 158.844 287.296 159.824V160.471Z" fill="#333333"/>
<path d="M323.743 169.857H313.042V168.185H323.743V169.857Z" fill="#333333"/>
<path d="M352.075 169.857H341.374V168.185H352.075V169.857Z" fill="#333333"/>
<path d="M380.407 169.857H369.706V168.185H380.407V169.857Z" fill="#333333"/>
</g>
<g clip-path="url(#clip5)">
<path d="M6.82821 205.007C5.34194 205.007 4.16778 204.591 3.30574 203.759C2.4437 202.926 2.01268 201.782 2.01268 200.325V196.981C2.01268 195.525 2.4437 194.38 3.30574 193.548C4.16778 192.716 5.34194 192.3 6.82821 192.3C8.24017 192.3 9.37717 192.679 10.2392 193.437C11.1013 194.195 11.5546 195.228 11.5992 196.535H9.59268C9.54809 195.763 9.28057 195.161 8.79009 194.73C8.31449 194.299 7.66053 194.083 6.82821 194.083C5.95131 194.083 5.26019 194.336 4.75486 194.841C4.26439 195.346 4.01915 196.052 4.01915 196.959V200.325C4.01915 201.247 4.26439 201.96 4.75486 202.466C5.24533 202.971 5.93645 203.224 6.82821 203.224C7.66053 203.224 8.31449 203.008 8.79009 202.577C9.28057 202.146 9.54809 201.544 9.59268 200.771H11.5992C11.5546 202.079 11.1013 203.112 10.2392 203.87C9.37717 204.628 8.24017 205.007 6.82821 205.007Z" fill="white"/>
<path d="M36.052 192.299C37.3451 192.299 38.3706 192.708 39.1286 193.526C39.9015 194.328 40.2879 195.421 40.2879 196.803V197.539H38.2814V196.981C38.2814 196.03 38.0436 195.294 37.568 194.774C37.1073 194.254 36.4459 193.994 35.5838 193.994C34.7367 193.994 34.0678 194.261 33.5774 194.796C33.1018 195.317 32.8639 196.045 32.8639 196.981V204.784H30.8575V192.522H32.8194V194.707C33.2207 193.102 34.2982 192.299 36.052 192.299Z" fill="white"/>
<path d="M68.1295 199.144H60.6387V200.325C60.6387 201.306 60.8691 202.049 61.3298 202.555C61.8054 203.06 62.4966 203.313 63.4032 203.313C64.9638 203.313 65.8555 202.763 66.0785 201.663H68.085C67.9512 202.689 67.4607 203.506 66.6135 204.115C65.7664 204.71 64.6962 205.007 63.4032 205.007C61.9615 205.007 60.8096 204.584 59.9476 203.736C59.1004 202.889 58.6768 201.752 58.6768 200.325V196.981C58.6768 195.554 59.1004 194.417 59.9476 193.57C60.8096 192.723 61.9615 192.299 63.4032 192.299C64.8449 192.299 65.9893 192.723 66.8365 193.57C67.6985 194.417 68.1295 195.554 68.1295 196.981V199.144ZM60.6387 197.628H66.1677V196.981C66.1677 196 65.9299 195.257 65.4542 194.752C64.9935 194.232 64.3098 193.972 63.4032 193.972C62.4966 193.972 61.8054 194.232 61.3298 194.752C60.8691 195.257 60.6387 196 60.6387 196.981V197.628Z" fill="white"/>
<path d="M91.7799 192.322C93.2067 192.322 94.3363 192.686 95.1686 193.414C96.0009 194.128 96.4171 195.109 96.4171 196.357V204.784H94.4552V202.443H94.4329C94.3735 203.216 93.987 203.84 93.2736 204.316C92.5602 204.777 91.6684 205.007 90.5983 205.007C89.3498 205.007 88.354 204.68 87.6109 204.026C86.8678 203.372 86.4962 202.488 86.4962 201.373C86.4962 200.199 86.8603 199.278 87.5886 198.609C88.3317 197.94 89.3424 197.605 90.6206 197.605H94.4106V196.424C94.4106 195.681 94.1728 195.109 93.6972 194.707C93.2364 194.291 92.5899 194.083 91.7576 194.083C91.0293 194.083 90.4274 194.232 89.9518 194.529C89.4762 194.826 89.2012 195.235 89.1269 195.755H87.1204C87.2542 194.715 87.7447 193.882 88.5918 193.258C89.439 192.634 90.5017 192.322 91.7799 192.322ZM91.0665 203.424C92.0474 203.424 92.85 203.194 93.4743 202.733C94.0985 202.258 94.4106 201.641 94.4106 200.883V199.144H90.6652C89.9964 199.144 89.4687 199.33 89.0823 199.701C88.6959 200.073 88.5027 200.585 88.5027 201.239C88.5027 201.923 88.733 202.458 89.1938 202.845C89.6545 203.231 90.2788 203.424 91.0665 203.424Z" fill="white"/>
<path d="M121.405 204.784C120.35 204.784 119.525 204.502 118.93 203.937C118.351 203.372 118.061 202.577 118.061 201.552V194.351H114.605V192.522H118.061V189.178H120.067V192.522H124.972V194.351H120.067V201.552C120.067 202.027 120.171 202.384 120.38 202.622C120.602 202.845 120.944 202.956 121.405 202.956H124.749V204.784H121.405Z" fill="white"/>
<path d="M148.399 190.404C147.954 190.404 147.597 190.286 147.329 190.048C147.077 189.81 146.95 189.49 146.95 189.089C146.95 188.688 147.084 188.361 147.352 188.108C147.619 187.856 147.968 187.729 148.399 187.729H148.845C149.276 187.729 149.626 187.856 149.893 188.108C150.161 188.361 150.294 188.688 150.294 189.089C150.294 189.49 150.161 189.81 149.893 190.048C149.626 190.286 149.276 190.404 148.845 190.404H148.399ZM153.973 204.784H143.495V202.956H147.842V194.351H144.052V192.522H149.849V202.956H153.973V204.784Z" fill="white"/>
<path d="M175.372 204.784L171.381 192.522H173.432L176.041 200.771C176.308 201.618 176.553 202.443 176.776 203.246C176.999 202.443 177.244 201.618 177.512 200.771L180.053 192.522H182.082L178.092 204.784H175.372Z" fill="white"/>
<path d="M205.064 190.404C204.618 190.404 204.261 190.286 203.994 190.048C203.741 189.81 203.615 189.49 203.615 189.089C203.615 188.688 203.748 188.361 204.016 188.108C204.283 187.856 204.633 187.729 205.064 187.729H205.51C205.941 187.729 206.29 187.856 206.557 188.108C206.825 188.361 206.959 188.688 206.959 189.089C206.959 189.49 206.825 189.81 206.557 190.048C206.29 190.286 205.941 190.404 205.51 190.404H205.064ZM210.637 204.784H200.159V202.956H204.506V194.351H200.716V192.522H206.513V202.956H210.637V204.784Z" fill="white"/>
<path d="M234.733 204.784C233.678 204.784 232.853 204.502 232.259 203.937C231.679 203.372 231.389 202.577 231.389 201.552V194.351H227.934V192.522H231.389V189.178H233.396V192.522H238.301V194.351H233.396V201.552C233.396 202.027 233.5 202.384 233.708 202.622C233.931 202.845 234.273 202.956 234.733 202.956H238.078V204.784H234.733Z" fill="white"/>
<path d="M259.075 208.797L260.881 204.026L256.377 192.522H258.607L261.349 200.102C261.498 200.533 261.668 201.128 261.862 201.886C262.04 201.128 262.204 200.533 262.352 200.102L264.916 192.522H267.079L261.215 208.797H259.075Z" fill="white"/>
<path d="M290.105 192.322C291.531 192.322 292.661 192.686 293.493 193.414C294.326 194.128 294.742 195.109 294.742 196.357V204.784H292.78V202.443H292.758C292.698 203.216 292.312 203.84 291.598 204.316C290.885 204.777 289.993 205.007 288.923 205.007C287.675 205.007 286.679 204.68 285.936 204.026C285.193 203.372 284.821 202.488 284.821 201.373C284.821 200.199 285.185 199.278 285.913 198.609C286.657 197.94 287.667 197.605 288.945 197.605H292.735V196.424C292.735 195.681 292.498 195.109 292.022 194.707C291.561 194.291 290.915 194.083 290.082 194.083C289.354 194.083 288.752 194.232 288.277 194.529C287.801 194.826 287.526 195.235 287.452 195.755H285.445C285.579 194.715 286.069 193.882 286.917 193.258C287.764 192.634 288.826 192.322 290.105 192.322ZM289.391 203.424C290.372 203.424 291.175 203.194 291.799 202.733C292.423 202.258 292.735 201.641 292.735 200.883V199.144H288.99C288.321 199.144 287.794 199.33 287.407 199.701C287.021 200.073 286.827 200.585 286.827 201.239C286.827 201.923 287.058 202.458 287.519 202.845C287.979 203.231 288.604 203.424 289.391 203.424Z" fill="#333333"/>
<path d="M321.067 192.522H323.007V205.23C323.007 206.345 322.665 207.214 321.982 207.838C321.313 208.478 320.376 208.797 319.172 208.797H315.293V206.969H319.195C319.819 206.969 320.272 206.828 320.555 206.545C320.852 206.263 321.001 205.825 321.001 205.23V203.669L321.067 202.109H320.778C320.584 202.718 320.22 203.186 319.685 203.513C319.15 203.84 318.481 204.004 317.679 204.004C316.445 204.004 315.464 203.595 314.736 202.778C314.023 201.96 313.666 200.846 313.666 199.434V196.847C313.666 195.45 314.023 194.343 314.736 193.526C315.464 192.708 316.445 192.299 317.679 192.299C318.481 192.299 319.15 192.463 319.685 192.79C320.22 193.117 320.584 193.585 320.778 194.194H321.067V192.522ZM321.023 196.981C321.023 196.06 320.785 195.339 320.309 194.819C319.834 194.299 319.18 194.038 318.348 194.038C317.5 194.038 316.839 194.299 316.363 194.819C315.903 195.324 315.672 196.045 315.672 196.981V199.322C315.672 200.258 315.903 200.987 316.363 201.507C316.839 202.012 317.5 202.265 318.348 202.265C319.18 202.265 319.834 202.005 320.309 201.485C320.785 200.964 321.023 200.244 321.023 199.322V196.981Z" fill="#333333"/>
<path d="M348.173 204.784C347.088 204.784 346.219 204.472 345.565 203.848C344.926 203.209 344.606 202.369 344.606 201.329V190.338H340.928V188.509H346.613V201.329C346.613 201.834 346.754 202.235 347.036 202.532C347.319 202.815 347.698 202.956 348.173 202.956H352.298V204.784H348.173Z" fill="#333333"/>
<path d="M376.037 192.299C377.33 192.299 378.356 192.708 379.114 193.526C379.887 194.328 380.273 195.421 380.273 196.803V197.539H378.267V196.981C378.267 196.03 378.029 195.294 377.553 194.774C377.093 194.254 376.431 193.994 375.569 193.994C374.722 193.994 374.053 194.261 373.563 194.796C373.087 195.317 372.849 196.045 372.849 196.981V204.784H370.843V192.522H372.805V194.707C373.206 193.102 374.284 192.299 376.037 192.299Z" fill="#333333"/>
</g>
<g clip-path="url(#clip6)">
<path d="M8.07668 241.941C7.02143 241.941 6.19655 241.659 5.60204 241.094C5.02239 240.529 4.73257 239.734 4.73257 238.709V231.508H1.27698V229.679H4.73257V226.335H6.73904V229.679H11.6437V231.508H6.73904V238.709C6.73904 239.184 6.84307 239.541 7.05115 239.779C7.27409 240.002 7.61594 240.113 8.07668 240.113H11.4208V241.941H8.07668Z" fill="#333333"/>
<path d="M35.1602 242.164C33.674 242.164 32.4998 241.748 31.6378 240.916C30.7757 240.083 30.3447 238.939 30.3447 237.482V234.138C30.3447 232.682 30.7757 231.537 31.6378 230.705C32.4998 229.873 33.674 229.456 35.1602 229.456C36.5722 229.456 37.7092 229.835 38.5712 230.593C39.4333 231.351 39.8866 232.384 39.9312 233.692H37.9247C37.8801 232.919 37.6126 232.318 37.1221 231.887C36.6465 231.455 35.9926 231.24 35.1602 231.24C34.2833 231.24 33.5922 231.493 33.0869 231.998C32.5964 232.503 32.3512 233.209 32.3512 234.116V237.482C32.3512 238.404 32.5964 239.117 33.0869 239.623C33.5774 240.128 34.2685 240.381 35.1602 240.381C35.9926 240.381 36.6465 240.165 37.1221 239.734C37.6126 239.303 37.8801 238.701 37.9247 237.928H39.9312C39.8866 239.236 39.4333 240.269 38.5712 241.027C37.7092 241.785 36.5722 242.164 35.1602 242.164Z" fill="#333333"/>
<path d="M64.8523 241.941C63.7673 241.941 62.8979 241.629 62.2439 241.005C61.6048 240.366 61.2852 239.526 61.2852 238.486V227.495H57.6067V225.666H63.2917V238.486C63.2917 238.991 63.4329 239.392 63.7153 239.689C63.9977 239.972 64.3767 240.113 64.8523 240.113H68.9767V241.941H64.8523Z" fill="#333333"/>
<path d="M91.7799 229.479C93.2067 229.479 94.3363 229.843 95.1686 230.571C96.0009 231.285 96.4171 232.266 96.4171 233.514V241.941H94.4552V239.6H94.4329C94.3735 240.373 93.987 240.997 93.2736 241.473C92.5602 241.934 91.6684 242.164 90.5983 242.164C89.3498 242.164 88.354 241.837 87.6109 241.183C86.8678 240.529 86.4962 239.645 86.4962 238.53C86.4962 237.356 86.8603 236.435 87.5886 235.766C88.3317 235.097 89.3424 234.762 90.6206 234.762H94.4106V233.581C94.4106 232.838 94.1728 232.266 93.6972 231.864C93.2364 231.448 92.5899 231.24 91.7576 231.24C91.0293 231.24 90.4274 231.389 89.9518 231.686C89.4762 231.983 89.2012 232.392 89.1269 232.912H87.1204C87.2542 231.872 87.7447 231.039 88.5918 230.415C89.439 229.791 90.5017 229.479 91.7799 229.479ZM91.0665 240.581C92.0474 240.581 92.85 240.351 93.4743 239.89C94.0985 239.414 94.4106 238.798 94.4106 238.04V236.301H90.6652C89.9964 236.301 89.4687 236.487 89.0823 236.858C88.6959 237.23 88.5027 237.742 88.5027 238.396C88.5027 239.08 88.733 239.615 89.1938 240.002C89.6545 240.388 90.2788 240.581 91.0665 240.581Z" fill="#333333"/>
<path d="M122.743 229.679H124.682V242.387C124.682 243.502 124.34 244.371 123.657 244.995C122.988 245.635 122.052 245.954 120.848 245.954H116.969V244.126H120.87C121.494 244.126 121.948 243.985 122.23 243.702C122.527 243.42 122.676 242.982 122.676 242.387V240.826L122.743 239.266H122.453C122.26 239.875 121.896 240.343 121.36 240.67C120.825 240.997 120.157 241.161 119.354 241.161C118.12 241.161 117.139 240.752 116.411 239.935C115.698 239.117 115.341 238.003 115.341 236.591V234.004C115.341 232.607 115.698 231.5 116.411 230.683C117.139 229.865 118.12 229.456 119.354 229.456C120.157 229.456 120.825 229.62 121.36 229.947C121.896 230.274 122.26 230.742 122.453 231.351H122.743V229.679ZM122.698 234.138C122.698 233.217 122.46 232.496 121.985 231.976C121.509 231.455 120.855 231.195 120.023 231.195C119.176 231.195 118.514 231.455 118.039 231.976C117.578 232.481 117.348 233.202 117.348 234.138V236.479C117.348 237.415 117.578 238.144 118.039 238.664C118.514 239.169 119.176 239.422 120.023 239.422C120.855 239.422 121.509 239.162 121.985 238.642C122.46 238.121 122.698 237.401 122.698 236.479V234.138Z" fill="#333333"/>
<path d="M151.03 225.666H153.037V241.941H151.03V239.6H151.008C150.904 240.403 150.555 241.035 149.96 241.495C149.366 241.941 148.608 242.164 147.686 242.164C146.452 242.164 145.472 241.755 144.743 240.938C144.03 240.12 143.673 239.013 143.673 237.616V234.027C143.673 232.615 144.03 231.5 144.743 230.683C145.472 229.865 146.452 229.456 147.686 229.456C148.593 229.456 149.343 229.687 149.938 230.148C150.532 230.608 150.889 231.233 151.008 232.02H151.075L151.03 229.234V225.666ZM151.03 234.138C151.03 233.217 150.792 232.496 150.317 231.976C149.841 231.455 149.187 231.195 148.355 231.195C147.508 231.195 146.846 231.455 146.371 231.976C145.91 232.481 145.68 233.202 145.68 234.138V237.482C145.68 238.419 145.91 239.147 146.371 239.667C146.846 240.172 147.508 240.425 148.355 240.425C149.187 240.425 149.841 240.165 150.317 239.645C150.792 239.125 151.03 238.404 151.03 237.482V234.138Z" fill="#333333"/>
<path d="M179.518 229.456C180.276 229.456 180.871 229.746 181.302 230.326C181.733 230.891 181.948 231.656 181.948 232.622V241.941H180.098V232.6C180.098 232.095 179.987 231.701 179.764 231.418C179.556 231.136 179.243 230.995 178.827 230.995C178.426 230.995 178.106 231.136 177.869 231.418C177.646 231.686 177.534 232.072 177.534 232.578V241.941H175.929V232.6C175.929 232.095 175.81 231.701 175.572 231.418C175.349 231.136 175.03 230.995 174.614 230.995C174.212 230.995 173.9 231.136 173.677 231.418C173.469 231.686 173.365 232.072 173.365 232.578V241.941H171.515V229.679H173.276V231.151H173.41C173.499 230.631 173.715 230.222 174.056 229.925C174.413 229.613 174.859 229.456 175.394 229.456C175.899 229.456 176.323 229.605 176.665 229.902C177.007 230.185 177.252 230.601 177.4 231.151H177.49C177.594 230.631 177.824 230.222 178.181 229.925C178.537 229.613 178.983 229.456 179.518 229.456Z" fill="#333333"/>
<path d="M205.064 242.164C203.607 242.164 202.455 241.748 201.608 240.916C200.761 240.083 200.337 238.939 200.337 237.482V234.138C200.337 232.682 200.761 231.537 201.608 230.705C202.455 229.873 203.607 229.456 205.064 229.456C206.52 229.456 207.672 229.873 208.519 230.705C209.367 231.537 209.79 232.674 209.79 234.116V237.482C209.79 238.939 209.367 240.083 208.519 240.916C207.672 241.748 206.52 242.164 205.064 242.164ZM205.064 240.381C205.941 240.381 206.609 240.135 207.07 239.645C207.546 239.14 207.784 238.419 207.784 237.482V234.138C207.784 233.202 207.546 232.488 207.07 231.998C206.609 231.493 205.941 231.24 205.064 231.24C204.187 231.24 203.511 231.493 203.035 231.998C202.574 232.488 202.344 233.202 202.344 234.138V237.482C202.344 238.419 202.574 239.14 203.035 239.645C203.511 240.135 204.187 240.381 205.064 240.381Z" fill="#333333"/>
<path d="M236.027 229.679H238.033V245.954H236.027V242.387L236.071 239.6H236.004C235.885 240.388 235.529 241.012 234.934 241.473C234.34 241.934 233.589 242.164 232.682 242.164C231.449 242.164 230.468 241.755 229.74 240.938C229.026 240.12 228.669 239.006 228.669 237.594V234.004C228.669 232.607 229.026 231.5 229.74 230.683C230.468 229.865 231.449 229.456 232.682 229.456C233.604 229.456 234.362 229.687 234.956 230.148C235.551 230.593 235.9 231.218 236.004 232.02H236.027V229.679ZM236.027 234.138C236.027 233.217 235.789 232.496 235.313 231.976C234.838 231.455 234.184 231.195 233.351 231.195C232.504 231.195 231.843 231.455 231.367 231.976C230.906 232.481 230.676 233.202 230.676 234.138V237.482C230.676 238.419 230.906 239.147 231.367 239.667C231.843 240.172 232.504 240.425 233.351 240.425C234.184 240.425 234.838 240.165 235.313 239.645C235.789 239.125 236.027 238.404 236.027 237.482V234.138Z" fill="#333333"/>
<path d="M262.464 229.456C263.697 229.456 264.671 229.865 265.384 230.683C266.098 231.5 266.454 232.607 266.454 234.004V237.594C266.454 239.006 266.098 240.12 265.384 240.938C264.671 241.755 263.697 242.164 262.464 242.164C261.542 242.164 260.777 241.934 260.167 241.473C259.573 241.012 259.224 240.388 259.12 239.6H259.053L259.097 242.387V245.954H257.091V229.679H259.097V232.02H259.12C259.224 231.218 259.573 230.593 260.167 230.148C260.777 229.687 261.542 229.456 262.464 229.456ZM264.448 234.138C264.448 233.187 264.217 232.459 263.757 231.953C263.296 231.448 262.642 231.195 261.795 231.195C260.963 231.195 260.301 231.455 259.811 231.976C259.335 232.496 259.097 233.217 259.097 234.138V237.482C259.097 238.404 259.335 239.125 259.811 239.645C260.301 240.165 260.963 240.425 261.795 240.425C262.642 240.425 263.296 240.172 263.757 239.667C264.217 239.162 264.448 238.434 264.448 237.482V234.138Z" fill="#333333"/>
<path d="M290.149 242.164C288.663 242.164 287.489 241.748 286.627 240.916C285.765 240.083 285.334 238.939 285.334 237.482V234.138C285.334 232.682 285.765 231.537 286.627 230.705C287.489 229.873 288.663 229.456 290.149 229.456C291.561 229.456 292.698 229.835 293.56 230.593C294.422 231.351 294.876 232.384 294.92 233.692H292.914C292.869 232.919 292.602 232.318 292.111 231.887C291.636 231.455 290.982 231.24 290.149 231.24C289.272 231.24 288.581 231.493 288.076 231.998C287.585 232.503 287.34 233.209 287.34 234.116V237.482C287.34 238.404 287.585 239.117 288.076 239.623C288.566 240.128 289.257 240.381 290.149 240.381C290.982 240.381 291.636 240.165 292.111 239.734C292.602 239.303 292.869 238.701 292.914 237.928H294.92C294.876 239.236 294.422 240.269 293.56 241.027C292.698 241.785 291.561 242.164 290.149 242.164Z" fill="#333333"/>
<path d="M321.067 229.679H323.007V242.387C323.007 243.502 322.665 244.371 321.982 244.995C321.313 245.635 320.376 245.954 319.172 245.954H315.293V244.126H319.195C319.819 244.126 320.272 243.985 320.555 243.702C320.852 243.42 321.001 242.982 321.001 242.387V240.826L321.067 239.266H320.778C320.584 239.875 320.22 240.343 319.685 240.67C319.15 240.997 318.481 241.161 317.679 241.161C316.445 241.161 315.464 240.752 314.736 239.935C314.023 239.117 313.666 238.003 313.666 236.591V234.004C313.666 232.607 314.023 231.5 314.736 230.683C315.464 229.865 316.445 229.456 317.679 229.456C318.481 229.456 319.15 229.62 319.685 229.947C320.22 230.274 320.584 230.742 320.778 231.351H321.067V229.679ZM321.023 234.138C321.023 233.217 320.785 232.496 320.309 231.976C319.834 231.455 319.18 231.195 318.348 231.195C317.5 231.195 316.839 231.455 316.363 231.976C315.903 232.481 315.672 233.202 315.672 234.138V236.479C315.672 237.415 315.903 238.144 316.363 238.664C316.839 239.169 317.5 239.422 318.348 239.422C319.18 239.422 319.834 239.162 320.309 238.642C320.785 238.121 321.023 237.401 321.023 236.479V234.138Z" fill="#333333"/>
<path d="M346.702 242.164C345.29 242.164 344.16 241.741 343.313 240.893C342.466 240.046 342.043 238.909 342.043 237.482V229.679H344.049V237.482C344.049 238.404 344.279 239.125 344.74 239.645C345.216 240.15 345.87 240.403 346.702 240.403C347.549 240.403 348.211 240.15 348.686 239.645C349.162 239.125 349.4 238.404 349.4 237.482V229.679H351.406V237.482C351.406 238.909 350.975 240.046 350.113 240.893C349.266 241.741 348.129 242.164 346.702 242.164Z" fill="#333333"/>
<path d="M375.101 229.479C376.528 229.479 377.657 229.843 378.49 230.571C379.322 231.285 379.738 232.266 379.738 233.514V241.941H377.776V239.6H377.754C377.695 240.373 377.308 240.997 376.595 241.473C375.881 241.934 374.99 242.164 373.919 242.164C372.671 242.164 371.675 241.837 370.932 241.183C370.189 240.529 369.817 239.645 369.817 238.53C369.817 237.356 370.181 236.435 370.91 235.766C371.653 235.097 372.663 234.762 373.942 234.762H377.732V233.581C377.732 232.838 377.494 232.266 377.018 231.864C376.558 231.448 375.911 231.24 375.079 231.24C374.35 231.24 373.748 231.389 373.273 231.686C372.797 231.983 372.522 232.392 372.448 232.912H370.442C370.575 231.872 371.066 231.039 371.913 230.415C372.76 229.791 373.823 229.479 375.101 229.479ZM374.388 240.581C375.369 240.581 376.171 240.351 376.795 239.89C377.42 239.414 377.732 238.798 377.732 238.04V236.301H373.986C373.317 236.301 372.79 236.487 372.403 236.858C372.017 237.23 371.824 237.742 371.824 238.396C371.824 239.08 372.054 239.615 372.515 240.002C372.976 240.388 373.6 240.581 374.388 240.581Z" fill="#333333"/>
</g>
<g clip-path="url(#clip7)">
<path d="M11.4208 279.098H2.05727V277.092L8.92386 268.664H2.23562V266.836H11.1756V268.843L4.17521 277.27H11.4208V279.098Z" fill="#333333"/>
<path d="M37.7018 266.836H39.7082V283.111H37.7018V279.544L37.7464 276.757H37.6795C37.5606 277.545 37.2039 278.169 36.6094 278.63C36.0149 279.091 35.2643 279.321 34.3577 279.321C33.124 279.321 32.1431 278.912 31.4148 278.095C30.7014 277.277 30.3447 276.163 30.3447 274.751V271.161C30.3447 269.764 30.7014 268.657 31.4148 267.839C32.1431 267.022 33.124 266.613 34.3577 266.613C35.2791 266.613 36.0371 266.844 36.6317 267.304C37.2262 267.75 37.5754 268.375 37.6795 269.177H37.7018V266.836ZM37.7018 271.295C37.7018 270.374 37.464 269.653 36.9884 269.133C36.5128 268.612 35.8588 268.352 35.0265 268.352C34.1793 268.352 33.5179 268.612 33.0423 269.133C32.5816 269.638 32.3512 270.359 32.3512 271.295V274.639C32.3512 275.576 32.5816 276.304 33.0423 276.824C33.5179 277.329 34.1793 277.582 35.0265 277.582C35.8588 277.582 36.5128 277.322 36.9884 276.802C37.464 276.282 37.7018 275.561 37.7018 274.639V271.295Z" fill="#333333"/>
<path d="M63.3809 279.321C61.9689 279.321 60.8394 278.897 59.9922 278.05C59.145 277.203 58.7214 276.066 58.7214 274.639V266.836H60.7279V274.639C60.7279 275.561 60.9583 276.282 61.419 276.802C61.8946 277.307 62.5486 277.56 63.3809 277.56C64.2281 277.56 64.8895 277.307 65.3651 276.802C65.8407 276.282 66.0785 275.561 66.0785 274.639V266.836H68.085V274.639C68.085 276.066 67.6539 277.203 66.7919 278.05C65.9447 278.897 64.8077 279.321 63.3809 279.321Z" fill="#333333"/>
<path d="M94.366 262.823H96.3725V279.098H94.366V276.757H94.3437C94.2397 277.56 93.8904 278.191 93.2959 278.652C92.7014 279.098 91.9434 279.321 91.0219 279.321C89.7883 279.321 88.8074 278.912 88.0791 278.095C87.3657 277.277 87.009 276.17 87.009 274.773V271.184C87.009 269.772 87.3657 268.657 88.0791 267.839C88.8074 267.022 89.7883 266.613 91.0219 266.613C91.9285 266.613 92.6791 266.844 93.2736 267.304C93.8681 267.765 94.2248 268.389 94.3437 269.177H94.4106L94.366 266.39V262.823ZM94.366 271.295C94.366 270.374 94.1282 269.653 93.6526 269.133C93.177 268.612 92.523 268.352 91.6907 268.352C90.8435 268.352 90.1822 268.612 89.7065 269.133C89.2458 269.638 89.0154 270.359 89.0154 271.295V274.639C89.0154 275.576 89.2458 276.304 89.7065 276.824C90.1822 277.329 90.8435 277.582 91.6907 277.582C92.523 277.582 93.177 277.322 93.6526 276.802C94.1282 276.282 94.366 275.561 94.366 274.639V271.295Z" fill="white"/>
<path d="M124.794 273.458H117.303V274.639C117.303 275.62 117.533 276.363 117.994 276.869C118.47 277.374 119.161 277.627 120.067 277.627C121.628 277.627 122.52 277.077 122.743 275.977H124.749C124.615 277.002 124.125 277.82 123.278 278.429C122.431 279.024 121.36 279.321 120.067 279.321C118.626 279.321 117.474 278.897 116.612 278.05C115.765 277.203 115.341 276.066 115.341 274.639V271.295C115.341 269.868 115.765 268.731 116.612 267.884C117.474 267.037 118.626 266.613 120.067 266.613C121.509 266.613 122.654 267.037 123.501 267.884C124.363 268.731 124.794 269.868 124.794 271.295V273.458ZM117.303 271.942H122.832V271.295C122.832 270.314 122.594 269.571 122.118 269.066C121.658 268.545 120.974 268.285 120.067 268.285C119.161 268.285 118.47 268.545 117.994 269.066C117.533 269.571 117.303 270.314 117.303 271.295V271.942Z" fill="white"/>
<path d="M147.04 279.098L143.049 266.836H145.1L147.708 275.085C147.976 275.932 148.221 276.757 148.444 277.56C148.667 276.757 148.912 275.932 149.18 275.085L151.721 266.836H153.75L149.759 279.098H147.04Z" fill="white"/>
<path d="M181.458 273.458H173.967V274.639C173.967 275.62 174.198 276.363 174.658 276.869C175.134 277.374 175.825 277.627 176.732 277.627C178.292 277.627 179.184 277.077 179.407 275.977H181.413C181.28 277.002 180.789 277.82 179.942 278.429C179.095 279.024 178.025 279.321 176.732 279.321C175.29 279.321 174.138 278.897 173.276 278.05C172.429 277.203 172.005 276.066 172.005 274.639V271.295C172.005 269.868 172.429 268.731 173.276 267.884C174.138 267.037 175.29 266.613 176.732 266.613C178.173 266.613 179.318 267.037 180.165 267.884C181.027 268.731 181.458 269.868 181.458 271.295V273.458ZM173.967 271.942H179.496V271.295C179.496 270.314 179.258 269.571 178.783 269.066C178.322 268.545 177.638 268.285 176.732 268.285C175.825 268.285 175.134 268.545 174.658 269.066C174.198 269.571 173.967 270.314 173.967 271.295V271.942Z" fill="white"/>
<path d="M206.513 279.098C205.428 279.098 204.558 278.786 203.904 278.162C203.265 277.523 202.946 276.683 202.946 275.642V264.651H199.267V262.823H204.952V275.642C204.952 276.148 205.093 276.549 205.376 276.846C205.658 277.129 206.037 277.27 206.513 277.27H210.637V279.098H206.513Z" fill="white"/>
<path d="M233.396 279.321C231.939 279.321 230.787 278.905 229.94 278.072C229.093 277.24 228.669 276.096 228.669 274.639V271.295C228.669 269.839 229.093 268.694 229.94 267.862C230.787 267.029 231.939 266.613 233.396 266.613C234.852 266.613 236.004 267.029 236.851 267.862C237.699 268.694 238.122 269.831 238.122 271.273V274.639C238.122 276.096 237.699 277.24 236.851 278.072C236.004 278.905 234.852 279.321 233.396 279.321ZM233.396 277.537C234.273 277.537 234.942 277.292 235.402 276.802C235.878 276.296 236.116 275.576 236.116 274.639V271.295C236.116 270.359 235.878 269.645 235.402 269.155C234.942 268.65 234.273 268.397 233.396 268.397C232.519 268.397 231.843 268.65 231.367 269.155C230.906 269.645 230.676 270.359 230.676 271.295V274.639C230.676 275.576 230.906 276.296 231.367 276.802C231.843 277.292 232.519 277.537 233.396 277.537Z" fill="white"/>
<path d="M262.464 266.613C263.697 266.613 264.671 267.022 265.384 267.839C266.098 268.657 266.454 269.764 266.454 271.161V274.751C266.454 276.163 266.098 277.277 265.384 278.095C264.671 278.912 263.697 279.321 262.464 279.321C261.542 279.321 260.777 279.091 260.167 278.63C259.573 278.169 259.224 277.545 259.12 276.757H259.053L259.097 279.544V283.111H257.091V266.836H259.097V269.177H259.12C259.224 268.375 259.573 267.75 260.167 267.304C260.777 266.844 261.542 266.613 262.464 266.613ZM264.448 271.295C264.448 270.344 264.217 269.616 263.757 269.11C263.296 268.605 262.642 268.352 261.795 268.352C260.963 268.352 260.301 268.612 259.811 269.133C259.335 269.653 259.097 270.374 259.097 271.295V274.639C259.097 275.561 259.335 276.282 259.811 276.802C260.301 277.322 260.963 277.582 261.795 277.582C262.642 277.582 263.296 277.329 263.757 276.824C264.217 276.319 264.448 275.59 264.448 274.639V271.295Z" fill="white"/>
<path d="M292.847 266.613C293.605 266.613 294.199 266.903 294.63 267.483C295.061 268.048 295.277 268.813 295.277 269.779V279.098H293.426V269.757C293.426 269.251 293.315 268.858 293.092 268.575C292.884 268.293 292.572 268.152 292.156 268.152C291.754 268.152 291.435 268.293 291.197 268.575C290.974 268.843 290.863 269.229 290.863 269.734V279.098H289.257V269.757C289.257 269.251 289.139 268.858 288.901 268.575C288.678 268.293 288.358 268.152 287.942 268.152C287.541 268.152 287.229 268.293 287.006 268.575C286.798 268.843 286.694 269.229 286.694 269.734V279.098H284.843V266.836H286.604V268.308H286.738C286.827 267.787 287.043 267.379 287.385 267.081C287.741 266.769 288.187 266.613 288.722 266.613C289.228 266.613 289.651 266.762 289.993 267.059C290.335 267.342 290.58 267.758 290.729 268.308H290.818C290.922 267.787 291.152 267.379 291.509 267.081C291.866 266.769 292.312 266.613 292.847 266.613Z" fill="white"/>
<path d="M323.119 273.458H315.628V274.639C315.628 275.62 315.858 276.363 316.319 276.869C316.794 277.374 317.486 277.627 318.392 277.627C319.953 277.627 320.845 277.077 321.067 275.977H323.074C322.94 277.002 322.45 277.82 321.603 278.429C320.755 279.024 319.685 279.321 318.392 279.321C316.95 279.321 315.799 278.897 314.937 278.05C314.089 277.203 313.666 276.066 313.666 274.639V271.295C313.666 269.868 314.089 268.731 314.937 267.884C315.799 267.037 316.95 266.613 318.392 266.613C319.834 266.613 320.978 267.037 321.825 267.884C322.688 268.731 323.119 269.868 323.119 271.295V273.458ZM315.628 271.942H321.157V271.295C321.157 270.314 320.919 269.571 320.443 269.066C319.982 268.545 319.299 268.285 318.392 268.285C317.486 268.285 316.794 268.545 316.319 269.066C315.858 269.571 315.628 270.314 315.628 271.295V271.942Z" fill="white"/>
<path d="M347.371 266.613C348.604 266.613 349.585 267 350.314 267.773C351.042 268.531 351.406 269.556 351.406 270.849V279.098H349.4V271.072C349.4 270.21 349.162 269.534 348.686 269.043C348.225 268.553 347.594 268.308 346.791 268.308C345.944 268.308 345.283 268.575 344.807 269.11C344.331 269.63 344.094 270.359 344.094 271.295V279.098H342.087V266.836H344.094V269.177H344.116C344.22 268.36 344.554 267.728 345.119 267.282C345.684 266.836 346.434 266.613 347.371 266.613Z" fill="white"/>
<path d="M376.394 279.098C375.339 279.098 374.514 278.816 373.919 278.251C373.34 277.686 373.05 276.891 373.05 275.865V268.664H369.594V266.836H373.05V263.492H375.056V266.836H379.961V268.664H375.056V275.865C375.056 276.341 375.16 276.698 375.369 276.935C375.591 277.158 375.933 277.27 376.394 277.27H379.738V279.098H376.394Z" fill="white"/>
</g>
</g>
<defs>
<clipPath id="clip0">
<rect width="381.787" height="282.392" fill="white"/>
</clipPath>
<clipPath id="clip1">
<rect width="381.787" height="22.2941" fill="white" transform="translate(0 37.1569)"/>
</clipPath>
<clipPath id="clip2">
<rect width="381.787" height="22.2941" fill="white" transform="translate(0 74.3137)"/>
</clipPath>
<clipPath id="clip3">
<rect width="381.787" height="22.2941" fill="white" transform="translate(0 111.471)"/>
</clipPath>
<clipPath id="clip4">
<rect width="381.787" height="22.2941" fill="white" transform="translate(0 148.627)"/>
</clipPath>
<clipPath id="clip5">
<rect width="381.787" height="22.2941" fill="white" transform="translate(0 185.784)"/>
</clipPath>
<clipPath id="clip6">
<rect width="381.787" height="22.2941" fill="white" transform="translate(0 222.941)"/>
</clipPath>
<clipPath id="clip7">
<rect width="381.787" height="22.2941" fill="white" transform="translate(0 260.098)"/>
</clipPath>
</defs>
</svg>
