<svg width="249" height="248" viewBox="0 0 249 248" fill="none" xmlns="http://www.w3.org/2000/svg">
<g filter="url(#filter0_d)">
<path d="M45.4 153.9C43.115 153.9 41.0495 155.262 40.1497 157.362L12.0895 222.835C11.7006 223.743 11.5 224.72 11.5 225.708C11.5 229.735 14.7648 233 18.7923 233H37.8667L45.4 153.9Z" fill="#D7E6F0"/>
<path d="M45.4 153.9C47.685 153.9 49.7505 155.262 50.6503 157.362L78.7101 222.835C79.099 223.743 79.2995 224.72 79.2995 225.708C79.2995 229.735 76.0348 233 72.0073 233H52.9333L45.4 153.9Z" fill="#D7E6F0"/>
<path d="M45.4 153.9L52.9333 233L45.4 225.467L37.8667 233L45.4 153.9Z" fill="#A5C3DC"/>
<path d="M132.033 44.6666H79.3C77.2199 44.6666 75.5334 42.9801 75.5334 40.9C75.5334 38.8198 77.2199 37.1333 79.3 37.1333H132.033C134.113 37.1333 135.8 38.8198 135.8 40.9C135.8 42.9801 134.113 44.6666 132.033 44.6666Z" fill="#FF6E91"/>
<path d="M105.667 55.9666C109.827 55.9666 113.2 52.5938 113.2 48.4333C113.2 44.2728 109.827 40.9 105.667 40.9C101.506 40.9 98.1334 44.2728 98.1334 48.4333C98.1334 52.5938 101.506 55.9666 105.667 55.9666Z" fill="#E64178"/>
<path d="M86.8334 59.7333V114.35C86.8334 120.462 88.8161 126.41 92.4834 131.3C96.1507 136.19 98.1334 142.138 98.1334 148.25V191.567C98.1334 195.727 101.506 199.1 105.667 199.1C109.827 199.1 113.2 195.727 113.2 191.567V148.25C113.2 142.138 115.183 136.19 118.85 131.3C122.517 126.41 124.5 120.462 124.5 114.35V59.7333C124.5 53.4925 119.441 48.4333 113.2 48.4333H98.1334C91.8925 48.4333 86.8334 53.4925 86.8334 59.7333Z" fill="#289BC3"/>
<path d="M105.667 199.1V48.4333H98.1334C91.8925 48.4333 86.8334 53.4925 86.8334 59.7333V114.35C86.8334 120.462 88.8161 126.41 92.4834 131.3C96.1507 136.19 98.1334 142.138 98.1334 148.25V191.567C98.1334 195.727 101.506 199.1 105.667 199.1Z" fill="#00D2D2"/>
<path d="M127.906 186.031L105.667 176.5V199.1H128.267C130.347 199.1 132.033 197.413 132.033 195.333V192.29C132.033 189.566 130.41 187.104 127.906 186.031Z" fill="#A5C3DC"/>
<path d="M83.4274 186.031L105.667 176.5V199.1H83.0667C80.9866 199.1 79.3 197.413 79.3 195.333V192.29C79.3 189.566 80.9235 187.104 83.4274 186.031Z" fill="#D7E6F0"/>
<path d="M132.033 195.333H105.667V199.1H128.267C130.347 199.1 132.033 197.413 132.033 195.333Z" fill="#E64178"/>
<path d="M79.3 195.333H105.667V199.1H83.0667C80.9866 199.1 79.3 197.413 79.3 195.333Z" fill="#FF6E91"/>
<path d="M105.667 108.7H60.4667C43.8246 108.7 30.3334 95.2087 30.3334 78.5666C30.3334 74.4058 33.706 71.0333 37.8667 71.0333H105.667V108.7Z" fill="#D7E6F0"/>
<path d="M105.667 108.7H150.867C167.509 108.7 181 95.2087 181 78.5666C181 74.4058 177.627 71.0333 173.467 71.0333H105.667V108.7Z" fill="#A5C3DC"/>
<path d="M109.433 63.5H101.9C97.7393 63.5 94.3667 66.8726 94.3667 71.0333H116.967C116.967 66.8726 113.594 63.5 109.433 63.5Z" fill="#463C4B"/>
<path d="M105.667 205.378V168.967H101.9V201.611C101.9 203.692 103.587 205.378 105.667 205.378Z" fill="#00D2D2"/>
<path d="M105.667 205.378C107.747 205.378 109.433 203.691 109.433 201.611V168.967H105.667V205.378Z" fill="#289BC3"/>
<path d="M60.4667 108.7H105.667V93.6333H34.3647C39.5754 102.638 49.315 108.7 60.4667 108.7Z" fill="#FF6E91"/>
<path d="M176.969 93.6333H105.667V108.7H150.867C162.018 108.7 171.758 102.638 176.969 93.6333Z" fill="#E64178"/>
<path d="M133.594 118.44L154.633 97.4V135.067L141.127 148.573C140.128 149.572 138.773 150.133 137.36 150.133C134.419 150.133 132.033 147.749 132.033 144.806V122.206C132.033 120.794 132.595 119.439 133.594 118.44Z" fill="#00D2D2"/>
<path d="M235.94 118.44L214.9 97.4V135.067L228.406 148.573C229.405 149.572 230.76 150.133 232.173 150.133C235.115 150.133 237.5 147.749 237.5 144.806V122.206C237.5 120.794 236.939 119.439 235.94 118.44Z" fill="#289BC3"/>
<path d="M203.6 150.133H165.933C159.692 150.133 154.633 145.074 154.633 138.833V55.5862C154.633 39.0925 161.841 23.4222 174.364 12.6881L178.14 9.45116C179.986 7.86963 182.336 7 184.767 7C187.197 7 189.548 7.86963 191.393 9.45116L195.17 12.6881C207.692 23.4222 214.9 39.0925 214.9 55.5862V138.833C214.9 145.074 209.841 150.133 203.6 150.133Z" fill="#A5C3DC"/>
<path d="M165.933 150.133H184.767V7C182.336 7 179.986 7.86963 178.14 9.45116L174.364 12.6881C161.841 23.4222 154.633 39.0925 154.633 55.5862V138.833C154.633 145.074 159.692 150.133 165.933 150.133Z" fill="#D7E6F0"/>
<path d="M184.767 7V37.1333H157.736C160.975 27.7543 166.663 19.2887 174.366 12.6877L178.142 9.45304C179.065 8.66204 180.115 8.04996 181.235 7.63092C182.356 7.21658 183.552 7 184.767 7Z" fill="#00D2D2"/>
<path d="M211.797 37.1333H184.767V7C185.981 7 187.177 7.21658 188.298 7.63092C189.418 8.04996 190.468 8.66204 191.391 9.45304L195.167 12.6877C202.87 19.2887 208.558 27.7543 211.797 37.1333Z" fill="#289BC3"/>
<path d="M184.767 82.3333C195.168 82.3333 203.6 73.9013 203.6 63.5C203.6 53.0986 195.168 44.6666 184.767 44.6666C174.365 44.6666 165.933 53.0986 165.933 63.5C165.933 73.9013 174.365 82.3333 184.767 82.3333Z" fill="#289BC3"/>
<path d="M184.767 44.6666C174.365 44.6666 165.933 53.0988 165.933 63.5C165.933 73.9011 174.365 82.3333 184.767 82.3333V44.6666Z" fill="#00D2D2"/>
<path d="M184.767 74.8C191.007 74.8 196.067 69.7408 196.067 63.5C196.067 57.2592 191.007 52.2 184.767 52.2C178.526 52.2 173.467 57.2592 173.467 63.5C173.467 69.7408 178.526 74.8 184.767 74.8Z" fill="#463C4B"/>
<path d="M192.757 55.5095C188.344 51.0964 181.19 51.0964 176.777 55.5095C172.364 59.9226 172.364 67.0774 176.777 71.49L192.757 55.5095Z" fill="#555A6E"/>
<path d="M165.933 150.133H203.6V157.667H165.933V150.133Z" fill="#463C4B"/>
<path d="M184.767 150.133C186.847 150.133 188.533 148.447 188.533 146.367V101.167C188.533 99.0865 186.847 97.4 184.767 97.4C182.687 97.4 181 99.0865 181 101.167V146.367C181 148.447 182.687 150.133 184.767 150.133Z" fill="#289BC3"/>
<path d="M165.933 157.667V170.222C165.933 172.302 167.62 173.989 169.7 173.989C171.78 173.989 173.467 172.302 173.467 170.222V168.967C173.467 166.886 175.153 165.2 177.233 165.2C179.313 165.2 181 166.886 181 168.967V191.567C181 193.647 182.687 195.333 184.767 195.333C186.847 195.333 188.533 193.647 188.533 191.567V168.967C188.533 166.886 190.22 165.2 192.3 165.2C194.38 165.2 196.067 166.886 196.067 168.967V180.267C196.067 182.347 197.753 184.033 199.833 184.033C201.913 184.033 203.6 182.347 203.6 180.267V157.667H165.933Z" fill="#E64178"/>
<path d="M79.3 168.967H64.2333C62.1532 168.967 60.4667 167.28 60.4667 165.2C60.4667 163.12 62.1532 161.433 64.2333 161.433H79.3C81.3801 161.433 83.0667 163.12 83.0667 165.2C83.0667 167.28 81.3801 168.967 79.3 168.967Z" fill="#463C4B"/>
<path d="M79.3 156.704V173.695C79.3 175.244 80.5557 176.5 82.1043 176.5C82.7282 176.5 83.3337 176.292 83.8261 175.909L92.3845 169.252C93.635 168.279 94.3667 166.783 94.3667 165.199C94.3667 163.615 93.635 162.119 92.3845 161.146L83.8261 154.49C83.3337 154.107 82.7282 153.899 82.1043 153.899C80.5557 153.9 79.3 155.156 79.3 156.704Z" fill="#463C4B"/>
<path d="M139.567 168.967H124.5C122.42 168.967 120.733 167.28 120.733 165.2C120.733 163.12 122.42 161.433 124.5 161.433H139.567C141.647 161.433 143.333 163.12 143.333 165.2C143.333 167.28 141.647 168.967 139.567 168.967Z" fill="#463C4B"/>
<path d="M139.567 156.704V173.695C139.567 175.244 140.822 176.5 142.371 176.5C142.995 176.5 143.6 176.292 144.093 175.909L152.651 169.252C153.902 168.279 154.633 166.783 154.633 165.199C154.633 163.615 153.902 162.119 152.651 161.146L144.093 154.49C143.6 154.107 142.995 153.899 142.371 153.899C140.822 153.9 139.567 155.156 139.567 156.704Z" fill="#463C4B"/>
</g>
<defs>
<filter id="filter0_d" x="0.5" y="0" width="248" height="248" filterUnits="userSpaceOnUse" color-interpolation-filters="sRGB">
<feFlood flood-opacity="0" result="BackgroundImageFix"/>
<feColorMatrix in="SourceAlpha" type="matrix" values="0 0 0 0 0 0 0 0 0 0 0 0 0 0 0 0 0 0 127 0"/>
<feOffset dy="4"/>
<feGaussianBlur stdDeviation="5.5"/>
<feColorMatrix type="matrix" values="0 0 0 0 0 0 0 0 0 0 0 0 0 0 0 0 0 0 0.25 0"/>
<feBlend mode="normal" in2="BackgroundImageFix" result="effect1_dropShadow"/>
<feBlend mode="normal" in="SourceGraphic" in2="effect1_dropShadow" result="shape"/>
</filter>
</defs>
</svg>
