<svg width="332" height="215" viewBox="0 0 332 215" fill="none" xmlns="http://www.w3.org/2000/svg">
<rect width="290.802" height="73.2768" transform="translate(0 140.77)" fill="black"/>
<path d="M15.2144 172.671V157.449H20.1561C21.1987 157.449 22.1162 157.651 22.9085 158.054C23.7008 158.457 24.3125 159.027 24.7434 159.764C25.1882 160.501 25.4106 161.355 25.4106 162.329V167.771C25.4106 168.744 25.1882 169.599 24.7434 170.335C24.3125 171.072 23.7008 171.649 22.9085 172.066C22.1162 172.469 21.1987 172.671 20.1561 172.671H15.2144ZM20.1561 169.752C20.7956 169.752 21.3099 169.571 21.6991 169.209C22.0884 168.848 22.283 168.368 22.283 167.771V162.329C22.283 161.745 22.0884 161.272 21.6991 160.911C21.3099 160.549 20.7956 160.369 20.1561 160.369H18.3421V169.752H20.1561ZM32.6587 172.879C31.644 172.879 30.7613 172.692 30.0106 172.316C29.26 171.927 28.6761 171.392 28.2591 170.711C27.856 170.016 27.6544 169.209 27.6544 168.292V161.828C27.6544 160.911 27.856 160.111 28.2591 159.43C28.6761 158.735 29.26 158.2 30.0106 157.825C30.7613 157.435 31.644 157.241 32.6587 157.241C33.6735 157.241 34.5562 157.435 35.3068 157.825C36.0575 158.2 36.6343 158.735 37.0375 159.43C37.4545 160.111 37.663 160.911 37.663 161.828V168.292C37.663 169.209 37.4545 170.016 37.0375 170.711C36.6343 171.392 36.0575 171.927 35.3068 172.316C34.5562 172.692 33.6735 172.879 32.6587 172.879ZM32.6587 170.169C33.2843 170.169 33.7499 170.009 34.0557 169.689C34.3755 169.369 34.5353 168.904 34.5353 168.292V161.828C34.5353 160.577 33.9098 159.952 32.6587 159.952C31.4076 159.952 30.7821 160.577 30.7821 161.828V168.292C30.7821 168.904 30.935 169.369 31.2408 169.689C31.5606 170.009 32.0332 170.169 32.6587 170.169ZM40.157 172.671V157.449H43.806L47.7468 169.23C47.5244 166.798 47.4132 164.956 47.4132 163.705V157.449H50.1656V172.671H46.5166L42.6174 160.89C42.8121 163.044 42.9094 164.747 42.9094 165.998V172.671H40.157ZM56.9341 162.975H54.2234L55.8915 156.49H59.6447L56.9341 162.975ZM71.7303 172.671H68.6026V160.369H64.7451V157.449H75.5877V160.369H71.7303V172.671ZM90.2715 172.671V157.449H95.1716C96.2419 157.449 97.1733 157.637 97.9656 158.012C98.7719 158.388 99.3905 158.93 99.8214 159.639C100.266 160.334 100.489 161.147 100.489 162.078C100.489 163.065 100.245 163.948 99.7588 164.726C99.2862 165.505 98.6398 166.068 97.8197 166.415L100.697 172.671H97.2984L94.8379 166.916H93.3784V172.671H90.2715ZM95.1716 164.205C95.8666 164.205 96.4018 164.031 96.7771 163.684C97.1663 163.336 97.3609 162.85 97.3609 162.224C97.3609 161.571 97.1663 161.064 96.7771 160.702C96.3879 160.341 95.8527 160.16 95.1716 160.16H93.3784V164.205H95.1716ZM112.47 172.671H103.087V157.449H112.47V160.118H106.152V163.538H111.74V166.207H106.152V170.002H112.47V172.671ZM115.298 172.671V157.449H120.489C121.546 157.449 122.477 157.651 123.284 158.054C124.09 158.457 124.708 159.027 125.139 159.764C125.584 160.487 125.807 161.328 125.807 162.287C125.807 163.246 125.584 164.094 125.139 164.831C124.694 165.554 124.069 166.117 123.263 166.52C122.47 166.923 121.546 167.124 120.489 167.124H118.425V172.671H115.298ZM120.489 164.309C121.157 164.309 121.685 164.129 122.074 163.767C122.477 163.392 122.679 162.898 122.679 162.287C122.679 161.675 122.477 161.189 122.074 160.827C121.685 160.452 121.157 160.264 120.489 160.264H118.425V164.309H120.489ZM137.475 172.671H128.092V157.449H137.475V160.118H131.157V163.538H136.745V166.207H131.157V170.002H137.475V172.671ZM142.638 172.671H139.448L143.18 157.449H147.142L150.916 172.671H147.726L146.996 169.23H143.368L142.638 172.671ZM143.889 166.728H146.454L145.724 163.058L145.182 160.264C145.015 161.196 144.841 162.12 144.661 163.037L143.889 166.728ZM159.248 172.671H156.121V160.369H152.263V157.449H163.106V160.369H159.248V172.671ZM181.126 172.671V167.249L176.747 157.449H180.021L181.939 162.037C182.273 162.829 182.544 163.733 182.752 164.747C182.947 163.733 183.204 162.829 183.524 162.037L185.379 157.449H188.632L184.253 167.249V172.671H181.126ZM195.192 172.879C194.177 172.879 193.295 172.692 192.544 172.316C191.793 171.927 191.21 171.392 190.793 170.711C190.389 170.016 190.188 169.209 190.188 168.292V161.828C190.188 160.911 190.389 160.111 190.793 159.43C191.21 158.735 191.793 158.2 192.544 157.825C193.295 157.435 194.177 157.241 195.192 157.241C196.207 157.241 197.09 157.435 197.84 157.825C198.591 158.2 199.168 158.735 199.571 159.43C199.988 160.111 200.196 160.911 200.196 161.828V168.292C200.196 169.209 199.988 170.016 199.571 170.711C199.168 171.392 198.591 171.927 197.84 172.316C197.09 172.692 196.207 172.879 195.192 172.879ZM195.192 170.169C195.818 170.169 196.283 170.009 196.589 169.689C196.909 169.369 197.069 168.904 197.069 168.292V161.828C197.069 160.577 196.443 159.952 195.192 159.952C193.941 159.952 193.316 160.577 193.316 161.828V168.292C193.316 168.904 193.468 169.369 193.774 169.689C194.094 170.009 194.567 170.169 195.192 170.169ZM207.695 172.879C206.152 172.879 204.928 172.462 204.025 171.628C203.135 170.794 202.69 169.654 202.69 168.209V157.449H205.818V168.188C205.818 168.827 205.978 169.321 206.298 169.668C206.631 170.002 207.097 170.169 207.695 170.169C208.279 170.169 208.737 169.995 209.071 169.647C209.405 169.3 209.571 168.813 209.571 168.188V157.449H212.699V168.209C212.699 169.654 212.247 170.794 211.344 171.628C210.454 172.462 209.238 172.879 207.695 172.879ZM215.297 172.671V157.449H220.197C221.268 157.449 222.199 157.637 222.991 158.012C223.798 158.388 224.416 158.93 224.847 159.639C225.292 160.334 225.514 161.147 225.514 162.078C225.514 163.065 225.271 163.948 224.785 164.726C224.312 165.505 223.666 166.068 222.845 166.415L225.723 172.671H222.324L219.864 166.916H218.404V172.671H215.297ZM220.197 164.205C220.892 164.205 221.427 164.031 221.803 163.684C222.192 163.336 222.387 162.85 222.387 162.224C222.387 161.571 222.192 161.064 221.803 160.702C221.414 160.341 220.878 160.16 220.197 160.16H218.404V164.205H220.197ZM232.7 172.879C231.643 172.879 230.712 172.699 229.906 172.337C229.113 171.976 228.502 171.468 228.071 170.815C227.64 170.148 227.424 169.376 227.424 168.501H230.552C230.552 169.015 230.747 169.425 231.136 169.731C231.539 170.023 232.081 170.169 232.762 170.169C233.416 170.169 233.923 170.023 234.285 169.731C234.66 169.439 234.848 169.036 234.848 168.521C234.848 168.077 234.708 167.694 234.43 167.375C234.152 167.055 233.763 166.839 233.263 166.728L231.72 166.374C230.427 166.068 229.419 165.505 228.696 164.685C227.987 163.851 227.633 162.836 227.633 161.64C227.633 160.751 227.835 159.979 228.238 159.326C228.655 158.659 229.239 158.144 229.989 157.783C230.754 157.422 231.643 157.241 232.658 157.241C234.215 157.241 235.445 157.63 236.349 158.409C237.266 159.173 237.725 160.209 237.725 161.515H234.597C234.597 161.029 234.424 160.647 234.076 160.369C233.728 160.091 233.242 159.952 232.616 159.952C232.019 159.952 231.56 160.091 231.24 160.369C230.921 160.633 230.761 161.015 230.761 161.515C230.761 161.96 230.886 162.342 231.136 162.662C231.4 162.982 231.768 163.19 232.241 163.288L233.867 163.663C235.216 163.983 236.238 164.546 236.933 165.352C237.628 166.144 237.975 167.152 237.975 168.375C237.975 169.265 237.753 170.05 237.308 170.732C236.877 171.413 236.265 171.941 235.473 172.316C234.681 172.692 233.756 172.879 232.7 172.879ZM249.998 172.671H240.615V157.449H249.998V160.118H243.68V163.538H249.268V166.207H243.68V170.002H249.998V172.671ZM262.709 172.671H253.43V157.449H256.558V169.752H262.709V172.671ZM268.539 172.671H265.412V157.449H275.212V160.369H268.498V163.746H274.67V166.666H268.539V172.671Z" fill="white"/>
<path d="M18.3838 197.146H15.2561V181.925H18.3838V187.825H19.8642L22.3664 181.925H25.7651L22.6374 189.202L25.8902 197.146H22.4498L19.8642 190.703H18.3838V197.146ZM37.4545 197.146H28.0715V181.925H37.4545V184.594H31.1366V188.013H36.7247V190.682H31.1366V194.477H37.4545V197.146ZM49.9571 197.146H40.574V181.925H49.9571V184.594H43.6391V188.013H49.2273V190.682H43.6391V194.477H49.9571V197.146ZM52.7847 197.146V181.925H57.9766C59.0331 181.925 59.9644 182.126 60.7707 182.529C61.5769 182.932 62.1955 183.502 62.6264 184.239C63.0713 184.962 63.2937 185.803 63.2937 186.762C63.2937 187.721 63.0713 188.569 62.6264 189.306C62.1816 190.029 61.5561 190.592 60.7498 190.995C59.9575 191.398 59.0331 191.6 57.9766 191.6H55.9124V197.146H52.7847ZM57.9766 188.785C58.6439 188.785 59.1721 188.604 59.5613 188.242C59.9644 187.867 60.166 187.374 60.166 186.762C60.166 186.15 59.9644 185.664 59.5613 185.302C59.1721 184.927 58.6439 184.739 57.9766 184.739H55.9124V188.785H57.9766ZM87.2563 197.146H78.0817V194.435H81.1052V184.635H78.0817V181.925H87.2563V184.635H84.2328V194.435H87.2563V197.146ZM96.7354 197.146H93.6077V184.844H89.7503V181.925H100.593V184.844H96.7354V197.146ZM120.177 197.354C119.12 197.354 118.189 197.174 117.383 196.812C116.59 196.451 115.979 195.944 115.548 195.29C115.117 194.623 114.901 193.851 114.901 192.976H118.029C118.029 193.49 118.224 193.9 118.613 194.206C119.016 194.498 119.558 194.644 120.239 194.644C120.893 194.644 121.4 194.498 121.761 194.206C122.137 193.914 122.324 193.511 122.324 192.997C122.324 192.552 122.185 192.169 121.907 191.85C121.629 191.53 121.24 191.315 120.74 191.203L119.197 190.849C117.904 190.543 116.896 189.98 116.173 189.16C115.464 188.326 115.11 187.311 115.11 186.116C115.11 185.226 115.311 184.455 115.715 183.801C116.132 183.134 116.715 182.62 117.466 182.258C118.231 181.897 119.12 181.716 120.135 181.716C121.692 181.716 122.922 182.105 123.826 182.884C124.743 183.648 125.202 184.684 125.202 185.991H122.074C122.074 185.504 121.9 185.122 121.553 184.844C121.205 184.566 120.719 184.427 120.093 184.427C119.496 184.427 119.037 184.566 118.717 184.844C118.397 185.108 118.238 185.49 118.238 185.991C118.238 186.435 118.363 186.818 118.613 187.137C118.877 187.457 119.245 187.666 119.718 187.763L121.344 188.138C122.693 188.458 123.714 189.021 124.409 189.827C125.105 190.62 125.452 191.627 125.452 192.851C125.452 193.74 125.23 194.526 124.785 195.207C124.354 195.888 123.742 196.416 122.95 196.791C122.158 197.167 121.233 197.354 120.177 197.354ZM137.267 197.146H128.092V194.435H131.115V184.635H128.092V181.925H137.267V184.635H134.243V194.435H137.267V197.146ZM139.802 197.146V181.925H143.326L144.723 186.72C144.973 187.596 145.133 188.298 145.203 188.826C145.258 188.298 145.411 187.596 145.661 186.72L147.038 181.925H150.561V197.146H147.705V192.976C147.705 191.613 147.76 190.112 147.872 188.472C147.983 186.818 148.115 185.261 148.268 183.801L146.516 190.682H143.868L142.033 183.801C142.214 185.205 142.36 186.727 142.471 188.368C142.596 190.008 142.659 191.544 142.659 192.976V197.146H139.802ZM152.805 197.146V181.925H157.997C159.054 181.925 159.985 182.126 160.791 182.529C161.597 182.932 162.216 183.502 162.647 184.239C163.092 184.962 163.314 185.803 163.314 186.762C163.314 187.721 163.092 188.569 162.647 189.306C162.202 190.029 161.577 190.592 160.77 190.995C159.978 191.398 159.054 191.6 157.997 191.6H155.933V197.146H152.805ZM157.997 188.785C158.664 188.785 159.193 188.604 159.582 188.242C159.985 187.867 160.187 187.374 160.187 186.762C160.187 186.15 159.985 185.664 159.582 185.302C159.193 184.927 158.664 184.739 157.997 184.739H155.933V188.785H157.997ZM175.191 197.146H165.912V181.925H169.04V194.227H175.191V197.146ZM187.485 197.146H178.102V181.925H187.485V184.594H181.167V188.013H186.756V190.682H181.167V194.477H187.485V197.146ZM207.695 197.354C206.638 197.354 205.707 197.174 204.901 196.812C204.108 196.451 203.497 195.944 203.066 195.29C202.635 194.623 202.419 193.851 202.419 192.976H205.547C205.547 193.49 205.742 193.9 206.131 194.206C206.534 194.498 207.076 194.644 207.757 194.644C208.411 194.644 208.918 194.498 209.279 194.206C209.655 193.914 209.842 193.511 209.842 192.997C209.842 192.552 209.703 192.169 209.425 191.85C209.147 191.53 208.758 191.315 208.258 191.203L206.715 190.849C205.422 190.543 204.414 189.98 203.691 189.16C202.982 188.326 202.628 187.311 202.628 186.116C202.628 185.226 202.829 184.455 203.233 183.801C203.65 183.134 204.233 182.62 204.984 182.258C205.749 181.897 206.638 181.716 207.653 181.716C209.21 181.716 210.44 182.105 211.344 182.884C212.261 183.648 212.72 184.684 212.72 185.991H209.592C209.592 185.504 209.418 185.122 209.071 184.844C208.723 184.566 208.237 184.427 207.611 184.427C207.014 184.427 206.555 184.566 206.235 184.844C205.915 185.108 205.756 185.49 205.756 185.991C205.756 186.435 205.881 186.818 206.131 187.137C206.395 187.457 206.763 187.666 207.236 187.763L208.862 188.138C210.211 188.458 211.232 189.021 211.927 189.827C212.623 190.62 212.97 191.627 212.97 192.851C212.97 193.74 212.748 194.526 212.303 195.207C211.872 195.888 211.26 196.416 210.468 196.791C209.676 197.167 208.751 197.354 207.695 197.354ZM221.761 197.146H218.633V184.844H214.776V181.925H225.619V184.844H221.761V197.146ZM232.7 197.354C231.157 197.354 229.934 196.937 229.03 196.103C228.14 195.269 227.696 194.129 227.696 192.684V181.925H230.823V192.663C230.823 193.302 230.983 193.796 231.303 194.143C231.636 194.477 232.102 194.644 232.7 194.644C233.284 194.644 233.742 194.47 234.076 194.123C234.41 193.775 234.576 193.288 234.576 192.663V181.925H237.704V192.684C237.704 194.129 237.252 195.269 236.349 196.103C235.459 196.937 234.243 197.354 232.7 197.354ZM240.323 197.146V181.925H245.515C246.572 181.925 247.503 182.126 248.309 182.529C249.115 182.932 249.734 183.502 250.165 184.239C250.61 184.962 250.832 185.803 250.832 186.762C250.832 187.721 250.61 188.569 250.165 189.306C249.72 190.029 249.095 190.592 248.288 190.995C247.496 191.398 246.572 191.6 245.515 191.6H243.451V197.146H240.323ZM245.515 188.785C246.182 188.785 246.711 188.604 247.1 188.242C247.503 187.867 247.705 187.374 247.705 186.762C247.705 186.15 247.503 185.664 247.1 185.302C246.711 184.927 246.182 184.739 245.515 184.739H243.451V188.785H245.515ZM262.292 197.146H253.118V194.435H256.141V184.635H253.118V181.925H262.292V184.635H259.269V194.435H262.292V197.146ZM265.266 197.146V181.925H270.208C271.25 181.925 272.168 182.126 272.96 182.529C273.752 182.932 274.364 183.502 274.795 184.239C275.24 184.976 275.462 185.831 275.462 186.804V192.246C275.462 193.219 275.24 194.074 274.795 194.811C274.364 195.547 273.752 196.124 272.96 196.541C272.168 196.944 271.25 197.146 270.208 197.146H265.266ZM270.208 194.227C270.847 194.227 271.361 194.046 271.751 193.685C272.14 193.323 272.334 192.844 272.334 192.246V186.804C272.334 186.22 272.14 185.747 271.751 185.386C271.361 185.024 270.847 184.844 270.208 184.844H268.393V194.227H270.208Z" fill="white"/>
<g clip-path="url(#clip0)">
<path d="M37.666 126.095L302.874 -1.82924e-06L331.566 67.426L66.3579 193.521L37.666 126.095Z" fill="#00D2D2"/>
<path d="M65.1873 148.302L59.2273 134.296L63.6902 132.174C64.6318 131.726 65.5393 131.518 66.4127 131.549C67.2861 131.579 68.0617 131.841 68.7393 132.334C69.4295 132.821 69.9651 133.512 70.3461 134.407L72.477 139.415C72.858 140.31 72.9919 141.193 72.8787 142.061C72.778 142.924 72.4515 143.718 71.8992 144.442C71.3414 145.153 70.5918 145.732 69.6502 146.18L65.1873 148.302ZM68.5072 143.494C69.0847 143.219 69.4784 142.832 69.6884 142.333C69.8984 141.833 69.8864 141.308 69.6524 140.758L67.5215 135.75C67.2929 135.213 66.932 134.862 66.439 134.696C65.946 134.531 65.4107 134.586 64.8332 134.86L63.1949 135.639L66.8689 144.273L68.5072 143.494ZM81.0232 141.003C80.1067 141.439 79.2361 141.645 78.4112 141.622C77.5809 141.587 76.844 141.345 76.2007 140.897C75.5645 140.431 75.0668 139.775 74.7075 138.931L72.1766 132.983C71.8173 132.139 71.6864 131.317 71.7838 130.517C71.8883 129.699 72.206 128.956 72.7369 128.288C73.2624 127.607 73.9834 127.049 74.8999 126.614C75.8163 126.178 76.6897 125.978 77.52 126.014C78.3449 126.037 79.0755 126.282 79.7117 126.748C80.355 127.196 80.8563 127.842 81.2155 128.686L83.7465 134.634C84.1057 135.478 84.2331 136.309 84.1286 137.128C84.0312 137.928 83.7198 138.668 83.1943 139.348C82.6633 140.016 81.9396 140.568 81.0232 141.003ZM79.9618 138.509C80.5267 138.241 80.8847 137.894 81.0357 137.468C81.1993 137.037 81.1613 136.539 80.9218 135.977L78.3908 130.029C77.901 128.878 77.0911 128.571 75.9612 129.108C74.8314 129.645 74.5114 130.489 75.0012 131.64L77.5322 137.588C77.7717 138.151 78.0921 138.514 78.4935 138.677C78.9074 138.834 79.3969 138.778 79.9618 138.509ZM87.7134 137.592L81.7534 123.586L85.0488 122.019L93.2207 131.167C92.0674 129.024 91.2458 127.377 90.7559 126.226L88.3066 120.47L90.7923 119.288L96.7523 133.294L93.4568 134.861L85.3225 125.695C86.342 127.594 87.0966 129.119 87.5865 130.27L90.1991 136.41L87.7134 137.592ZM99.0686 121.466L96.6205 122.63L95.5879 115.947L98.9775 114.335L99.0686 121.466ZM116.228 124.034L113.403 125.378L108.586 114.058L105.102 115.714L103.959 113.028L113.751 108.372L114.895 111.058L111.411 112.715L116.228 124.034ZM132.973 116.073L127.013 102.067L131.438 99.963C132.405 99.5034 133.319 99.2761 134.182 99.2813C135.057 99.2804 135.828 99.5136 136.495 99.9809C137.168 100.429 137.688 101.082 138.052 101.939C138.439 102.847 138.565 103.764 138.43 104.689C138.308 105.608 137.945 106.404 137.34 107.076L142.388 111.596L139.319 113.056L134.843 108.817L133.525 109.444L135.779 114.739L132.973 116.073ZM134.083 106.179C134.711 105.881 135.126 105.491 135.329 105.01C135.545 104.523 135.53 103.992 135.285 103.417C135.029 102.815 134.655 102.432 134.162 102.267C133.669 102.101 133.115 102.165 132.499 102.457L130.88 103.227L132.464 106.949L134.083 106.179ZM153.02 106.541L144.546 110.57L138.586 96.5642L147.06 92.5352L148.105 94.991L142.4 97.7039L143.739 100.85L148.785 98.451L149.83 100.907L144.784 103.306L146.27 106.798L151.975 104.085L153.02 106.541ZM155.574 105.327L149.614 91.321L154.303 89.0916C155.257 88.638 156.177 88.4236 157.063 88.4483C157.949 88.473 158.731 88.7319 159.409 89.2247C160.093 89.6989 160.624 90.3772 160.999 91.2598C161.375 92.1423 161.506 93.0181 161.393 93.887C161.274 94.7431 160.929 95.5298 160.359 96.2469C159.801 96.9581 159.045 97.5405 158.091 97.9941L156.227 98.8805L158.399 103.984L155.574 105.327ZM156.989 95.4039C157.592 95.1174 157.998 94.7243 158.208 94.2247C158.425 93.7062 158.414 93.1656 158.174 92.6028C157.935 92.04 157.562 91.6788 157.057 91.5194C156.558 91.3412 156.008 91.3953 155.405 91.6818L153.541 92.5682L155.125 96.2903L156.989 95.4039ZM175.603 95.8042L167.129 99.8332L161.169 85.8272L169.643 81.7982L170.688 84.254L164.982 86.9669L166.321 90.1134L171.368 87.7139L172.413 90.1698L167.366 92.5693L168.852 96.0612L174.558 93.3483L175.603 95.8042ZM180.266 93.5873L177.385 94.9571L174.795 79.3485L178.373 77.6473L187.742 90.0328L184.861 91.4026L182.854 88.5503L179.578 90.1081L180.266 93.5873ZM179.069 87.582L181.385 86.4807L179.289 83.4173L177.705 81.0791C177.919 82.0077 178.124 82.9329 178.32 83.8547L179.069 87.582ZM195.267 86.4549L192.442 87.7979L187.625 76.478L184.141 78.1344L182.998 75.4483L192.791 70.7926L193.934 73.4786L190.45 75.135L195.267 86.4549ZM215.025 77.0609L212.902 72.0725L205.11 64.9351L208.067 63.5294L211.595 66.9267C212.207 67.5125 212.805 68.2276 213.391 69.0718C213.17 68.0545 213.048 67.1126 213.026 66.2463L212.906 61.2284L215.844 59.8317L215.727 70.7295L217.849 75.7179L215.025 77.0609ZM227.81 71.2128C226.894 71.6485 226.023 71.8549 225.198 71.8318C224.368 71.796 223.631 71.5542 222.988 71.1066C222.351 70.6401 221.854 69.9848 221.494 69.1406L218.963 63.1928C218.604 62.3486 218.473 61.5266 218.571 60.7268C218.675 59.9081 218.993 59.165 219.524 58.4973C220.049 57.8169 220.77 57.2588 221.687 56.823C222.603 56.3873 223.477 56.1874 224.307 56.2232C225.132 56.2462 225.862 56.491 226.499 56.9574C227.142 57.4051 227.643 58.051 228.002 58.8952L230.533 64.843C230.893 65.6872 231.02 66.5186 230.915 67.3372C230.818 68.137 230.507 68.8772 229.981 69.5577C229.45 70.2253 228.726 70.777 227.81 71.2128ZM226.749 68.7186C227.314 68.45 227.672 68.1029 227.823 67.6774C227.986 67.2459 227.948 66.7488 227.709 66.186L225.178 60.2382C224.688 59.087 223.878 58.7801 222.748 59.3173C221.618 59.8545 221.298 60.6986 221.788 61.8498L224.319 67.7976C224.559 68.3604 224.879 68.7232 225.28 68.8861C225.694 69.043 226.184 68.9872 226.749 68.7186ZM239.101 65.8443C237.708 66.5068 236.44 66.6484 235.297 66.2689C234.167 65.8834 233.319 65.0256 232.753 63.6953L228.54 53.7952L231.365 52.4522L235.57 62.3331C235.82 62.9215 236.157 63.307 236.582 63.4894C237.014 63.6532 237.5 63.6067 238.04 63.35C238.567 63.0994 238.913 62.7425 239.079 62.2795C239.244 61.8164 239.204 61.2971 238.959 60.7215L234.754 50.8406L237.579 49.4976L241.792 59.3977C242.358 60.728 242.396 61.9708 241.907 63.1263C241.43 64.2757 240.495 65.1817 239.101 65.8443ZM245.886 62.3879L239.926 48.3819L244.351 46.2779C245.318 45.8183 246.232 45.591 247.095 45.5962C247.97 45.5953 248.741 45.8286 249.408 46.2959C250.081 46.7444 250.601 47.3972 250.965 48.2541C251.352 49.1623 251.478 50.079 251.343 51.0042C251.221 51.9234 250.858 52.719 250.253 53.3909L255.301 57.9113L252.232 59.3707L247.756 55.1317L246.438 55.7585L248.691 61.0539L245.886 62.3879ZM246.996 52.4942C247.624 52.1958 248.039 51.8061 248.242 51.3252C248.458 50.8383 248.443 50.307 248.198 49.7314C247.942 49.1303 247.568 48.747 247.075 48.5815C246.582 48.4161 246.027 48.4796 245.412 48.7721L243.793 49.5421L245.377 53.2642L246.996 52.4942ZM261.684 55.1073C260.73 55.5609 259.818 55.7945 258.948 55.8082C258.091 55.8158 257.34 55.6116 256.695 55.1955C256.045 54.7665 255.548 54.1491 255.205 53.3433L258.03 52.0003C258.231 52.4736 258.567 52.7674 259.039 52.8816C259.517 52.9771 260.064 52.8786 260.679 52.5862C261.269 52.3056 261.67 51.9535 261.882 51.5297C262.107 51.0999 262.119 50.6484 261.917 50.1751C261.743 49.7658 261.468 49.4738 261.091 49.2989C260.715 49.1241 260.279 49.093 259.784 49.2055L258.252 49.5419C256.964 49.8156 255.834 49.7304 254.86 49.2861C253.893 48.823 253.175 48.0415 252.707 46.9415C252.359 46.1229 252.239 45.3264 252.347 44.5522C252.463 43.7591 252.788 43.0352 253.325 42.3803C253.874 41.7194 254.606 41.1711 255.523 40.7354C256.929 40.0669 258.192 39.8968 259.313 40.2251C260.441 40.5347 261.261 41.2906 261.773 42.493L258.948 43.836C258.757 43.3883 258.451 43.1111 258.028 43.0045C257.605 42.8979 257.112 42.9789 256.547 43.2475C256.007 43.5042 255.647 43.8291 255.467 44.2222C255.282 44.6025 255.287 45.0229 255.483 45.4834C255.657 45.8927 255.92 46.1907 256.271 46.3775C256.635 46.5582 257.049 46.5919 257.514 46.4785L259.13 46.1255C260.473 45.8407 261.616 45.92 262.559 46.3635C263.497 46.7941 264.206 47.5722 264.685 48.6978C265.033 49.5164 265.14 50.3346 265.005 51.1524C264.882 51.9642 264.537 52.7128 263.968 53.3984C263.399 54.084 262.638 54.6536 261.684 55.1073ZM277.225 47.4876L268.751 51.5166L262.791 37.5106L271.265 33.4816L272.31 35.9374L266.604 38.6503L267.943 41.7969L272.99 39.3974L274.035 41.8532L268.988 44.2527L270.474 47.7446L276.18 45.0318L277.225 47.4876ZM288.704 42.0296L280.324 46.0138L274.364 32.0078L277.189 30.6648L282.006 41.9847L287.561 39.3435L288.704 42.0296ZM293.97 39.5261L291.145 40.8691L285.185 26.8631L294.036 22.655L295.179 25.3411L289.115 28.2241L290.438 31.3323L296.012 28.6821L297.155 31.3682L291.618 34.0005L293.97 39.5261Z" fill="#1A1A1A"/>
<path d="M77.633 169.462L74.8083 170.805L68.8483 156.799L71.673 155.456L73.9835 160.886L75.3205 160.25L75.2697 153.746L78.3392 152.287L78.3639 160.326L84.4121 166.239L81.305 167.716L76.4472 162.898L75.1102 163.533L77.633 169.462ZM94.856 161.273L86.3821 165.302L80.4221 151.296L88.896 147.267L89.9411 149.723L84.2353 152.436L85.5742 155.582L90.621 153.183L91.666 155.639L86.6193 158.038L88.1052 161.53L93.811 158.817L94.856 161.273ZM106.147 155.905L97.6734 159.934L91.7133 145.928L100.187 141.899L101.232 144.355L95.5266 147.067L96.8655 150.214L101.912 147.814L102.957 150.27L97.9106 152.67L99.3965 156.162L105.102 153.449L106.147 155.905ZM108.701 154.691L102.741 140.685L107.43 138.455C108.384 138.002 109.304 137.787 110.19 137.812C111.076 137.837 111.858 138.095 112.536 138.588C113.22 139.062 113.75 139.741 114.126 140.623C114.502 141.506 114.633 142.382 114.519 143.251C114.401 144.107 114.056 144.893 113.486 145.61C112.928 146.322 112.172 146.904 111.218 147.358L109.354 148.244L111.526 153.348L108.701 154.691ZM110.116 144.767C110.719 144.481 111.125 144.088 111.335 143.588C111.552 143.07 111.541 142.529 111.301 141.966C111.062 141.403 110.689 141.042 110.184 140.883C109.685 140.705 109.135 140.759 108.532 141.045L106.668 141.932L108.252 145.654L110.116 144.767ZM139.833 139.889L131.547 143.828L130.486 141.334L133.216 140.036L129.379 131.018L126.649 132.316L125.587 129.822L133.873 125.883L134.934 128.377L132.204 129.675L136.041 138.693L138.772 137.394L139.833 139.889ZM148.394 135.818L145.569 137.161L140.752 125.842L137.268 127.498L136.125 124.812L145.917 120.156L147.06 122.842L143.577 124.499L148.394 135.818ZM169.646 125.945C168.691 126.398 167.78 126.632 166.91 126.646C166.053 126.653 165.302 126.449 164.657 126.033C164.006 125.604 163.51 124.987 163.167 124.181L165.991 122.838C166.193 123.311 166.529 123.605 167 123.719C167.479 123.815 168.026 123.716 168.641 123.424C169.231 123.143 169.632 122.791 169.844 122.367C170.069 121.937 170.08 121.486 169.879 121.013C169.705 120.603 169.429 120.311 169.053 120.136C168.677 119.962 168.241 119.931 167.746 120.043L166.213 120.379C164.926 120.653 163.795 120.568 162.821 120.124C161.855 119.661 161.137 118.879 160.669 117.779C160.321 116.96 160.201 116.164 160.309 115.39C160.424 114.597 160.75 113.873 161.287 113.218C161.836 112.557 162.568 112.009 163.485 111.573C164.891 110.904 166.154 110.734 167.275 111.063C168.403 111.372 169.223 112.128 169.734 113.33L166.91 114.673C166.719 114.226 166.413 113.949 165.99 113.842C165.567 113.735 165.073 113.816 164.508 114.085C163.969 114.342 163.609 114.667 163.429 115.06C163.243 115.44 163.249 115.86 163.445 116.321C163.619 116.73 163.882 117.028 164.233 117.215C164.596 117.396 165.011 117.429 165.476 117.316L167.091 116.963C168.434 116.678 169.578 116.758 170.521 117.201C171.459 117.632 172.167 118.41 172.646 119.535C172.995 120.354 173.101 121.172 172.966 121.99C172.844 122.802 172.498 123.55 171.93 124.236C171.361 124.922 170.6 125.491 169.646 125.945ZM184.998 118.415L176.712 122.354L175.651 119.86L178.382 118.562L174.544 109.544L171.814 110.842L170.752 108.348L179.038 104.409L180.099 106.903L177.369 108.201L181.206 117.219L183.937 115.92L184.998 118.415ZM187.288 117.326L181.328 103.32L184.511 101.807L187.65 105.62C188.219 106.318 188.638 106.895 188.908 107.352C188.751 106.842 188.614 106.13 188.497 105.217L187.863 100.213L191.045 98.6999L197.005 112.706L194.425 113.933L192.792 110.095C192.259 108.842 191.721 107.436 191.179 105.879C190.632 104.31 190.142 102.82 189.708 101.412L190.821 108.495L188.429 109.632L184.078 104.089C184.791 105.303 185.519 106.641 186.261 108.102C187.017 109.558 187.674 110.945 188.235 112.262L189.868 116.099L187.288 117.326ZM199.031 111.742L193.071 97.7365L197.76 95.5071C198.714 95.0535 199.634 94.839 200.52 94.8637C201.406 94.8885 202.188 95.1473 202.866 95.6402C203.551 96.1143 204.081 96.7926 204.456 97.6752C204.832 98.5578 204.963 99.4335 204.85 100.302C204.731 101.159 204.387 101.945 203.816 102.662C203.259 103.374 202.503 103.956 201.549 104.41L199.684 105.296L201.856 110.399L199.031 111.742ZM200.446 101.819C201.049 101.533 201.455 101.14 201.665 100.64C201.882 100.122 201.871 99.581 201.632 99.0182C201.392 98.4554 201.02 98.0943 200.514 97.9348C200.016 97.7566 199.465 97.8107 198.863 98.0972L196.998 98.9836L198.582 102.706L200.446 101.819ZM219.249 102.13L210.869 106.114L204.909 92.1083L207.733 90.7653L212.55 102.085L218.106 99.444L219.249 102.13ZM230.352 96.8511L221.878 100.88L215.918 86.8741L224.392 82.8451L225.437 85.301L219.731 88.0138L221.07 91.1604L226.117 88.7609L227.162 91.2167L222.115 93.6162L223.601 97.1081L229.307 94.3953L230.352 96.8511ZM248.685 88.3652C247.731 88.8189 246.819 89.0525 245.949 89.0661C245.092 89.0738 244.341 88.8696 243.696 88.4534C243.045 88.0245 242.549 87.4071 242.206 86.6013L245.031 85.2583C245.232 85.7316 245.568 86.0253 246.04 86.1396C246.518 86.2351 247.065 86.1366 247.68 85.8441C248.27 85.5636 248.671 85.2114 248.883 84.7876C249.108 84.3579 249.119 83.9064 248.918 83.4331C248.744 83.0238 248.469 82.7317 248.092 82.5569C247.716 82.3821 247.28 82.351 246.785 82.4635L245.252 82.7999C243.965 83.0736 242.834 82.9883 241.861 82.544C240.894 82.081 240.176 81.2995 239.708 80.1995C239.36 79.3808 239.24 78.5844 239.348 77.8101C239.463 77.0171 239.789 76.2932 240.326 75.6383C240.875 74.9774 241.607 74.4291 242.524 73.9934C243.93 73.3249 245.193 73.1548 246.314 73.4831C247.442 73.7926 248.262 74.5486 248.773 75.7509L245.949 77.0939C245.758 76.6462 245.452 76.3691 245.029 76.2625C244.606 76.1559 244.112 76.2369 243.547 76.5055C243.008 76.7622 242.648 77.0871 242.468 77.4802C242.283 77.8605 242.288 78.2809 242.484 78.7413C242.658 79.1507 242.921 79.4487 243.272 79.6354C243.636 79.8162 244.05 79.8499 244.515 79.7365L246.131 79.3835C247.473 79.0987 248.617 79.178 249.56 79.6214C250.498 80.0521 251.206 80.8302 251.685 81.9558C252.034 82.7744 252.14 83.5926 252.005 84.4104C251.883 85.2221 251.537 85.9708 250.969 86.6564C250.4 87.342 249.639 87.9116 248.685 88.3652ZM261.307 82.1334L258.482 83.4764L253.665 72.1564L250.181 73.8128L249.038 71.1267L258.83 66.471L259.973 69.1571L256.49 70.8134L261.307 82.1334ZM271.267 77.6282C269.874 78.2908 268.606 78.4323 267.463 78.0528C266.333 77.6674 265.485 76.8095 264.919 75.4793L260.706 65.5791L263.531 64.2361L267.735 74.1171C267.986 74.7055 268.323 75.0909 268.748 75.2734C269.18 75.4371 269.666 75.3907 270.206 75.134C270.733 74.8833 271.079 74.5264 271.245 74.0634C271.41 73.6004 271.37 73.0811 271.125 72.5055L266.92 62.6245L269.745 61.2815L273.958 71.1817C274.524 72.5119 274.562 73.7548 274.073 74.9102C273.596 76.0597 272.661 76.9657 271.267 77.6282ZM278.07 74.1629L272.11 60.1569L276.799 57.9275C277.753 57.4739 278.674 57.2594 279.56 57.2842C280.445 57.3089 281.227 57.5677 281.905 58.0606C282.59 58.5347 283.12 59.2131 283.495 60.0957C283.871 60.9782 284.002 61.854 283.889 62.7229C283.77 63.579 283.426 64.3657 282.855 65.0828C282.298 65.7939 281.542 66.3763 280.588 66.83L278.723 67.7164L280.895 72.8199L278.07 74.1629ZM279.485 64.2398C280.088 63.9533 280.494 63.5602 280.704 63.0605C280.921 62.5421 280.91 62.0015 280.671 61.4387C280.431 60.8759 280.059 60.5147 279.553 60.3553C279.055 60.177 278.504 60.2312 277.902 60.5177L276.037 61.4041L277.621 65.1262L279.485 64.2398ZM297.911 64.7296L289.625 68.6691L288.564 66.1749L291.295 64.8766L287.457 55.859L284.727 57.1573L283.665 54.6631L291.951 50.7236L293.012 53.2178L290.282 54.516L294.119 63.5336L296.85 62.2354L297.911 64.7296ZM300.597 63.4528L294.637 49.4468L299.1 47.3248C300.041 46.8771 300.949 46.6687 301.822 46.6994C302.695 46.7301 303.471 46.9919 304.149 47.4848C304.839 47.9717 305.374 48.6628 305.755 49.5582L307.886 54.5658C308.267 55.4612 308.401 56.3433 308.288 57.2122C308.187 58.0752 307.861 58.8686 307.308 59.5926C306.751 60.3037 306.001 60.8832 305.06 61.3308L300.597 63.4528ZM303.917 58.6447C304.494 58.3702 304.888 57.983 305.098 57.4833C305.308 56.9837 305.296 56.4588 305.062 55.9088L302.931 50.9012C302.702 50.364 302.341 50.0126 301.848 49.8472C301.355 49.6818 300.82 49.7363 300.243 50.0109L298.604 50.7898L302.278 59.4237L303.917 58.6447Z" fill="#1A1A1A"/>
</g>
<path d="M37.666 126.095L34.5336 118.733L27.3087 122.168L30.4411 129.53L37.666 126.095ZM302.874 -1.82924e-06L310.099 -3.43514L306.966 -10.7964L299.742 -7.36124L302.874 -1.82924e-06ZM331.566 67.426L334.698 74.7872L341.923 71.3521L338.791 63.9908L331.566 67.426ZM66.3579 193.521L59.133 196.956L62.2654 204.317L69.4904 200.882L66.3579 193.521ZM40.7985 133.456L306.006 7.36124L299.742 -7.36124L34.5336 118.733L40.7985 133.456ZM295.649 3.43514L324.341 70.8611L338.791 63.9908L310.099 -3.43514L295.649 3.43514ZM328.433 60.0647L63.2255 186.159L69.4904 200.882L334.698 74.7872L328.433 60.0647ZM73.5829 190.085L44.891 122.659L30.4411 129.53L59.133 196.956L73.5829 190.085Z" fill="#1A1A1A"/>
<defs>
<clipPath id="clip0">
<path d="M37.666 126.095L302.874 -1.82924e-06L331.566 67.426L66.3579 193.521L37.666 126.095Z" fill="white"/>
</clipPath>
</defs>
</svg>
