<?xml version="1.0" encoding="UTF-8"?>
<svg viewBox="0 0 190 52" xmlns="http://www.w3.org/2000/svg">
<path d="m69.791 38.579h4.2981l-0.7126-3.329v-19.843h-4.1104v9.0504c-1.2374-1.4303-2.9376-2.2695-4.9459-2.2695-4.1116 0-7.2965 3.3898-7.2965 8.3669 0 4.977 3.1849 8.3668 7.2965 8.3668 0.9638 0.0093 1.9172-0.1983 2.7895-0.6074 0.8722-0.4092 1.641-1.0093 2.249-1.7558l0.4323 2.0215v-0.0013zm81.268-11.944c0.834 0 1.606 0.2177 2.318 0.7152l1.947-4.386c-0.896-0.5595-1.947-0.8088-2.967-0.8088-1.855 0-3.401 0.8405-4.39 2.3961l-0.431-2.0227h-4.236l0.679 3.1417v12.908h4.112v-10.234c0.555-1.057 1.608-1.7101 2.967-1.7101h1e-3zm12.055 7.9631c-2.38 0-4.142-1.5861-4.142-4.0442 0-2.4886 1.762-4.0429 4.142-4.0429 2.411 0 4.143 1.5543 4.143 4.0429 0 2.4581-1.732 4.0442-4.143 4.0442zm-102.1-4.0442c0-2.4886 1.7623-4.0429 4.1421-4.0429 2.4114 0 4.1421 1.5543 4.1421 4.0429 0 2.4581-1.7307 4.0442-4.1421 4.0442-2.3798 0-4.1421-1.5861-4.1421-4.0442zm120.31 4.0442c-2.381 0-4.142-1.5861-4.142-4.0442 0-2.4886 1.763-4.0429 4.142-4.0429 2.411 0 4.142 1.5543 4.142 4.0429 0 2.4581-1.731 4.0442-4.142 4.0442zm-97.249-8.3365c2.1338 0 3.5246 0.9949 3.9557 2.8303h-7.9115c0.4628-1.8354 1.8537-2.8303 3.9558-2.8303zm49.18 0c2.134 0 3.525 0.9949 3.958 2.8303h-7.914c0.464-1.8354 1.855-2.8303 3.956-2.8303zm-20.06 12.317h6.614l4.298-16.05h-4.484l-3.152 13.002-3.153-13.002h-4.421l4.298 16.05zm-10.604 0h4.111v-16.05h-4.111v16.05zm-17.885 0.2975c2.2873 0 4.544-0.6228 6.4293-1.8354l-1.5759-3.5443c-1.4834 0.7772-3.1227 1.2431-4.7925 1.2431-2.163 0-3.6768-0.8393-4.3272-2.3949h11.562c0.1286-0.6246 0.1907-1.2611 0.1851-1.8987 0-4.9758-3.4308-8.3036-8.0382-8.3036-4.6353 0-8.0357 3.3594-8.0357 8.3669 0 5.1011 3.37 8.3669 8.5935 8.3669zm104.75-8.3226c0-4.9771-3.461-8.3669-8.13-8.3669-4.668 0-8.13 3.3898-8.13 8.3669s3.462 8.3669 8.13 8.3669c4.667 0 8.13-3.3898 8.13-8.3669zm-55.641 8.3669c2.287 0 4.544-0.6215 6.429-1.8354l-1.576-3.5443c-1.483 0.7772-3.123 1.2431-4.792 1.2431-2.163 0-3.677-0.8393-4.328-2.3949h11.562c0.129-0.6246 0.191-1.2611 0.185-1.8987 0-4.9746-3.432-8.3036-8.038-8.3036-4.635 0-8.037 3.3594-8.037 8.3669 0 5.1011 3.37 8.3669 8.595 8.3669zm29.304 0c4.668 0 8.129-3.3898 8.129-8.3669s-3.461-8.3669-8.129-8.3669c-4.667 0-8.13 3.3898-8.13 8.3669s3.462 8.3669 8.13 8.3669zm-68.316-0.3418h4.1117v-23.173h-4.1104v23.173h-0.0013zm9.8611-18.259c1.453 0 2.566-1.119 2.566-2.6126s-1.113-2.6126-2.566-2.6126c-1.483 0-2.596 1.1202-2.596 2.6126 0 1.4936 1.113 2.6126 2.596 2.6126z" clip-rule="evenodd" fill="#00CCBC" fill-rule="evenodd"/>
<path d="m34.031 0.7981 12.802 1.3367-3.4752 32.827-7.299 16.276-31.912-6.734-3.2064-14.978 18.148-3.8303-4.014-18.749 12.59-2.6582 4.014 18.75 2.3532-22.24zm-10.083 32.265c0.6593-0.6 0.8647-1.3671 0.6517-2.2797-0.1496-0.6342-0.8824-1.0506-1.316-1.2456-0.211-0.0954-0.4405-0.143-0.672-0.1392-0.6136 0.0127-1.8384 0.1595-2.0983 1.1531-0.3487 1.338 0.0608 2.4456 0.9838 2.7493 0.9218 0.3038 1.7915 0.3595 2.4508-0.2379zm9.2389 1.0316c0.4792-0.8266 0.7062-1.6531 0.2523-2.4025-0.4539-0.7506-1.2552-1.1658-2.1871-1.1417-0.573 0.0152-1.07 0.5025-1.368 0.8759-0.2155 0.2722-0.3537 0.5949-0.4032 0.9367-0.09 0.6291-0.0951 1.6594 0.7379 2.0658 1.2349 0.5999 2.4888 0.4898 2.9681-0.3342z" clip-rule="evenodd" fill="#00CCBC" fill-rule="evenodd"/>
</svg>
