<?xml version="1.0" encoding="UTF-8"?>
<svg fill="none" viewBox="0 0 200 36" xmlns="http://www.w3.org/2000/svg">
<g clip-path="url(#a)" clip-rule="evenodd" fill-rule="evenodd">
<path d="m74.81 0.084233c5.6726 6.958 11.19 13.726 16.809 20.618 5.5765-6.8805 11.088-13.679 16.778-20.702v35.986h-3.05v-27.2l-0.292-0.12754c-4.479 5.5734-8.9566 11.147-13.54 16.851-4.5112-5.6802-8.9365-11.252-13.362-16.824-0.0911 0.03307-0.1822 0.06591-0.2731 0.09875v27.216h-3.071v-35.916z" fill="#283339"/>
<path d="m64.882 17.802c-0.021-8.4532-6.2617-14.719-14.653-14.711-8.3532 0.00796-14.61 6.3435-14.6 14.784 0.0097 8.4196 6.2992 14.728 14.675 14.719 8.359-0.0089 14.599-6.3407 14.578-14.792zm-14.654-17.665c10.241-0.021462 18.128 7.6928 18.119 17.721-0.0093 9.9818-7.8471 17.662-18.038 17.674-10.278 0.0124-18.096-7.6397-18.094-17.711 0.0015-9.9951 7.8118-17.663 18.013-17.684z" fill="#283339"/>
<path d="M178.626 1.5H199.279V4.32331H181.856V21.7578H197.428V24.5736H181.865V33.2161H200V36H178.626V1.5Z" fill="#283339"/>
<path d="m151.98 33.217h20.472v2.7826h-25.892c6.829-10.546 13.586-20.984 20.493-31.65h-17.849v-2.8496h23.311c-6.845 10.572-13.609 21.019-20.535 31.717z" fill="#283339"/>
<path d="M21.8176 24.586H3.13335V35.7738H0V14.4513H3.10945V21.6008H21.7121V1.66699H24.8708V35.759H21.8176V24.586Z" fill="#283339"/>
<path d="m130.04 36h-3.335c-0.034-0.3162-0.091-0.6113-0.093-0.9065-8e-3 -1.8263-0.159-3.6673 0.031-5.4755 0.325-3.0839-0.667-5.6988-2.274-8.3386-3.762-6.181-7.294-12.489-10.915-18.748-0.151-0.2616-0.266-0.54232-0.473-0.97087 1.143 0 2.163-0.10328 3.141 0.0478 0.429 0.06622 0.89 0.58779 1.134 1.0089 3.529 6.0849 7.024 12.188 10.528 18.286 0.154 0.2675 0.323 0.5267 0.596 0.9693 0.283-0.4547 0.508-0.79 0.707-1.1385 3.377-5.8987 6.784-11.782 10.094-17.715 0.618-1.1073 1.275-1.6934 2.617-1.4736 0.509 0.08324 1.046 0.01352 1.717 0.01352-0.173 0.37795-0.274 0.65448-0.42 0.90862-4.15 7.2661-8.319 14.523-12.438 21.806-0.366 0.647-0.575 1.4523-0.59 2.1889-0.064 3.1378-0.027 6.2777-0.027 9.5375z" fill="#283339"/>
<path d="m0.0085095 11.981c0-3.3296 0.0099278-7.3546-0.0085095-10.481 0.65996 0.01998 2.195 0.00522 3.0325 0.00522v1.7516c-2.4e-4 2.5627-0.02742 5.1261 0.01631 7.6882 0.01323 0.7757-0.00662-0.4291 4.7e-4 1.055 0 0-2.2883-0.0193-3.0407-0.0193z" fill="#E43713"/>
</g>
<defs>
<clipPath id="a">
<rect width="200" height="36" fill="#fff"/>
</clipPath>
</defs>
</svg>
