<?xml version="1.0" encoding="UTF-8"?>
<svg fill="none" viewBox="0 0 146 56" xmlns="http://www.w3.org/2000/svg">
<path d="m0 0v3.8313h28.419v-3.8313h-28.419zm32.445 0v3.8313h40.498s-4.1363-3.8313-9.6152-3.8313h-30.882zm48.443 0v3.8313h24.501l-1.455-3.8313h-23.046zm42.066 0-1.455 3.8313h24.279v-3.8313h-22.824zm-122.95 7.4511v3.8309h28.419v-3.8309h-28.419zm32.445 0.00491v3.826h45.198s-0.5277-2.9489-1.4488-3.826h-43.749zm48.443 0v3.826h27.186l-1.345-3.826h-25.841zm39.158 0-1.346 3.826h27.079v-3.826h-25.733zm-111.88 7.4458v3.837h12.307v-3.837h-12.307zm32.445 0v3.837h12.307v-3.837h-12.307zm24.278 0v3.837h12.307s0.7816-2.0267 0.7816-3.837h-13.089zm24.164 0v3.837h21.82l-1.454-3.837h-20.366zm28.31 0-1.46 3.837h21.928v-3.837h-20.468zm-109.2 7.4568v3.8317h12.307v-3.8317h-12.307zm32.445 0v3.8317h31.436s2.6289-1.9666 3.4677-3.8317h-34.904zm48.443 0v3.8317h12.308v-2.1335l0.781 2.1335h22.544l0.839-2.1335v2.1335h12.307v-3.8317h-23.103l-1.226 3.2459-1.232-3.2459h-23.218zm-80.888 7.4507v3.8325h12.307v-3.8325h-12.307zm32.445 0v3.8325h34.904c-0.8392-1.8598-3.4677-3.8325-3.4677-3.8325h-31.436zm48.443 0v3.8325h12.308v-3.8325h-12.308zm14.543 0 1.488 3.8325h16.903l1.415-3.8325h-19.806zm21.928 0v3.8325h12.308v-3.8325h-12.308zm-117.36 7.4519v3.8317h12.307v-3.8317h-12.307zm32.445 0v3.8317h12.307v-3.8317h-12.307zm24.278 0v3.8317h13.088c0-1.8083-0.7811-3.8317-0.7811-3.8317h-12.307zm24.164 0v3.8317h12.308v-3.8317h-12.308zm17.337 0 1.443 3.8317h11.333l1.454-3.8317h-14.23zm19.134 0v3.8317h12.308v-3.8317h-12.308zm-125.3 7.4511v3.8362h28.419v-3.8362h-28.419zm32.223 0v3.8362h43.749c0.9207-0.878 1.4489-3.8362 1.4489-3.8362h-45.198zm48.665 0v3.8362h20.252v-3.8362h-20.252zm28.082 0 1.483 3.8362h5.766l1.392-3.8362h-8.641zm16.333 0v3.8362h20.474v-3.8362h-20.474zm-125.3 7.456v3.8317h28.419v-3.8317h-28.419zm32.223 0v3.8256h30.882c5.4789 0 9.6152-3.8256 9.6152-3.8256h-40.498zm48.665 0v3.8317h20.252v-3.8317h-20.252zm30.893 0 1.427 3.8198 0.244 0.0058 1.449-3.8256h-3.12zm13.522 0v3.8317h20.474v-3.8317h-20.474z" fill="#1F70C1"/>
</svg>
