<?xml version="1.0" encoding="UTF-8"?>
<svg fill="none" viewBox="0 0 146 48" xmlns="http://www.w3.org/2000/svg">
<g clip-path="url(#a)">
<path d="m63.267 47.308h-11.827l7.3975-46.465h11.826l-7.3968 46.465z" fill="#00579F"/>
<path d="m106.14 1.9782c-2.332-0.94016-6.032-1.9782-10.607-1.9782-11.68 0-19.904 6.3268-19.955 15.372-0.097 6.6737 5.8886 10.38 10.365 12.606 4.5758 2.2739 6.1312 3.758 6.1312 5.7848-0.0466 3.1129-3.6974 4.5477-7.1026 4.5477-4.7219 0-7.2519-0.7397-11.097-2.4716l-1.5574-0.7424-1.655 10.43c2.7739 1.2837 7.8845 2.423 13.19 2.4729 12.41 0 20.489-6.229 20.585-15.868 0.047-5.2894-3.114-9.3424-9.928-12.654-4.1365-2.1261-6.6698-3.5596-6.6698-5.735 0.0485-1.9775 2.1426-4.003 6.8121-4.003 3.8449-0.0992 6.6697 0.83962 8.8097 1.7791l1.07 0.4934 1.608-10.034z" fill="#00579F"/>
<path d="m121.86 30.847c0.974-2.6694 4.722-13.001 4.722-13.001-0.049 0.0992 0.972-2.7186 1.556-4.4485l0.826 4.0038s2.24 11.122 2.726 13.445h-9.83zm14.599-30.004h-9.148c-2.821 0-4.965 0.83964-6.182 3.8552l-17.567 42.609h12.409s2.043-5.7349 2.482-6.9701h15.185c0.34 1.6314 1.412 6.9701 1.412 6.9701h10.95l-9.541-46.465z" fill="#00579F"/>
<path d="m41.562 0.84265-11.582 31.685-1.2657-6.426c-2.1414-7.4149-8.8572-15.471-16.352-19.477l10.609 40.634h12.507l18.59-46.416h-12.506z" fill="#00579F"/>
<path d="m19.223 0.84265h-19.029l-0.19467 0.93885c14.843 3.8559 24.674 13.15 28.713 24.322l-4.1366-21.355c-0.681-2.9676-2.7739-3.8079-5.3531-3.9058z" fill="#FAA61A"/>
</g>
<defs>
<clipPath id="a">
<rect width="146" height="48" fill="#fff"/>
</clipPath>
</defs>
</svg>
