<svg fill="none" height="16" viewBox="0 0 32 16" width="32" xmlns="http://www.w3.org/2000/svg"><rect fill="#e3336f" height="16" opacity=".2" rx="8" width="32"/><g stroke="#e3336f" stroke-linecap="round" stroke-linejoin="round" stroke-width="2"><path d="m26.7166 5.06402c-.5469-.50635-1.2357-.86175-2-1-.2325-.04206-.472-.06402-.7166-.06402s-.4841.02196-.7166.06402c-.7643.13825-1.4531.49365-2 1 0 0-1.2834 2.93598 2.7166 2.93598s2.7166 2.936 2.7166 2.936c-.5469.5063-1.2357.8617-2 1-.2325.042-.472.064-.7166.064s-.4841-.022-.7166-.064c-.7643-.1383-1.4531-.4937-2-1"/><path d="m10.5 4.87731c-.6848-.54895-1.55405-.87731-2.5-.87731-2.20914 0-4 1.79086-4 4 0 2.2091 1.79086 4 4 4 .94595 0 1.8152-.3284 2.5-.8773"/><path d="m14 8h4"/><path d="m16 6v4"/></g></svg>