<?xml version="1.0" encoding="UTF-8"?>
<svg width="32px" height="32px" viewBox="0 0 32 32" version="1.1" xmlns="http://www.w3.org/2000/svg" xmlns:xlink="http://www.w3.org/1999/xlink">
    <!-- Generator: Sketch 52.4 (67378) - http://www.bohemiancoding.com/sketch -->
    <title>icon</title>
    <desc>Created with Sketch.</desc>
    <g id="New-Symbols" stroke="none" stroke-width="1" fill="none" fill-rule="evenodd">
        <g id="layout-/-footer-/-02.-desktop" transform="translate(-28.000000, -48.000000)">
            <g id="footer" transform="translate(0.000000, 48.000000)">
                <g id="left" transform="translate(28.000000, 0.000000)">
                    <g id="z_brand-/-icon">
                        <path d="M4.6862915,27.3137085 C-1.56209717,21.0653198 -1.56209717,10.9346802 4.6862915,4.6862915 C10.9346802,-1.56209717 21.0653198,-1.56209717 27.3137085,4.6862915 C33.5620972,10.9346802 33.5620972,21.0653198 27.3137085,27.3137085 C21.0653198,33.5620972 10.9346802,33.5620972 4.6862915,27.3137085 Z" id="circle" fill="#04D4CD"></path>
                        <path d="M24.3631678,18.9344436 C23.7227611,18.2940372 22.2396538,18.0891448 20.9398638,18.1521403 L13.8478588,11.0601379 C13.9108543,9.76034882 13.7059619,8.27724215 13.0655551,7.63683571 L12.8454718,7.41675244 C12.449982,7.0212628 11.9247897,6.77014779 11.3782494,6.68314154 C10.7496913,6.60757962 10.0975843,6.79002865 9.61758245,7.27003026 C9.15093236,7.73668016 8.97134433,8.41350957 9.1040546,9.10405752 C8.41357973,8.97127394 7.73675002,9.15086189 7.27002657,9.61758515 C6.79009811,10.0975134 6.60757564,10.7496935 6.6831376,11.3782513 C6.77021725,11.9247181 7.02125901,12.4499835 7.41674881,12.8454731 L7.63683218,13.0655564 C8.27723889,13.7059628 9.76034618,13.9108552 11.0601362,13.8478597 L18.1521412,20.9398621 C18.0891457,22.2396512 18.2940381,23.7227578 18.9344449,24.3631643 L19.1545282,24.5832476 C19.550018,24.9787372 20.0752103,25.2298522 20.6217506,25.3168585 C21.2503087,25.3924204 21.9024157,25.2099714 22.3824176,24.7299697 C22.8490676,24.2633198 23.0286557,23.5864904 22.8959454,22.8959425 C23.5864203,23.0287261 24.26325,22.8491381 24.7299734,22.3824149 C25.2099019,21.9024866 25.3924244,21.2503065 25.3168624,20.6217487 C25.2297827,20.0752819 24.978741,19.5500165 24.5832512,19.1545269 L24.3631678,18.9344436 Z M11.3946933,25.3161721 C11.9431411,25.2288622 12.4701663,24.9768707 12.8670365,24.5800006 L13.0878879,24.3591491 C14.2348433,23.2121937 13.9896981,19.3715865 13.3087394,18.6906278 C12.6277807,18.0096691 8.78717349,17.764524 7.64021815,18.9114793 L7.41936668,19.1323308 C7.02249657,19.5292009 6.77057865,20.0562997 6.68319508,20.604674 C6.60736941,21.2354258 6.7905289,21.8898823 7.27213236,22.3714858 C7.74048472,22.8398381 8.41967663,23.020053 9.11256134,22.8868059 C8.9793879,23.5797642 9.1596027,24.2589561 9.62788145,24.7272349 C10.1095585,25.2089119 10.7639415,25.3919978 11.3946933,25.3161721 Z M24.7272349,9.62788145 C24.2589561,9.1596027 23.5797642,8.9793879 22.8868059,9.11256134 C23.020053,8.41967663 22.8398381,7.74048472 22.3714858,7.27213236 C21.8898823,6.7905289 21.2354258,6.60736941 20.604674,6.68319508 C20.0562997,6.77057865 19.5292009,7.02249657 19.1323308,7.41936668 L18.9114793,7.64021815 C17.764524,8.78717349 18.0096691,12.6277807 18.6906278,13.3087394 C19.3715865,13.9896981 23.2121937,14.2348433 24.3591491,13.0878879 L24.5800006,12.8670365 C24.9768707,12.4701663 25.2288622,11.9431411 25.3161721,11.3946933 C25.3919978,10.7639415 25.2089119,10.1095585 24.7272349,9.62788145 Z" id="symbols" fill="#FFFFFF"></path>
                    </g>
                </g>
            </g>
        </g>
    </g>
</svg>