<svg fill="none" height="40" viewBox="0 0 40 40" width="40" xmlns="http://www.w3.org/2000/svg" xmlns:xlink="http://www.w3.org/1999/xlink"><clipPath id="a"><path d="m0 0h40v40h-40z"/></clipPath><g stroke-width="2"><g clip-path="url(#a)" stroke="#000"><path d="m5 35h29m0 4h-29"/><path d="m35 39 4-4h-4z"/><path d="m35 5v29m4 0v-29"/><path d="m39 1-4 4m4-4h-4m4 0v4"/><path d="m5 1h30m0 4h-30"/><path d="m1 39 4-4m-4 4v-4m0 4h4"/><path d="m1 6v29m4 0v-29"/><path d="m5 1-4 4h4z"/></g><g stroke="#003df5" stroke-linecap="square"><path d="m12 12h5.7835m-5.7835 0v5.7835m0-5.7835 2.8918 2.8918 10.2164 10.2164 2.8918 2.8918m0 0v-5.7835m0 5.7835h-5.7835"/><path d="m28 12-16 16m16-16h-5.7835m5.7835 0v5.7835m-16 10.2165v-5.7835m0 5.7835h5.7835"/></g></g></svg>