<svg fill="none" height="422" viewBox="0 0 750 422" width="750" xmlns="http://www.w3.org/2000/svg" xmlns:xlink="http://www.w3.org/1999/xlink"><clipPath id="a"><path d="m0 0h750v422h-750z"/></clipPath><g clip-path="url(#a)"><path d="m0 0h750v422h-750z" fill="#00ccbc"/><path clip-rule="evenodd" d="m568.829 0-21.89 207.225-37.34-174.6729-117.117 24.7443 37.341 174.6956-168.823 35.69 29.839 139.526 296.861 62.792 67.888-151.65 32.316-305.8717-119.051-12.4783zm-93.799 300.635c-6.133 5.567-14.224 5.071-22.799 2.217-8.586-2.83-12.384-13.15-9.152-25.617 2.418-9.258 13.799-10.638 19.508-10.733 2.17-.035 4.293.39 6.251 1.298 4.045 1.792 10.85 5.685 12.266 11.593 1.969 8.492.059 15.64-6.074 21.23zm85.944 9.612c-4.458 7.666-16.122 8.704-27.598 3.114-7.761-3.798-7.713-13.398-6.876-19.248.472-3.185 1.769-6.204 3.774-8.728 2.76-3.491 7.383-8.02 12.714-8.173 8.669-.236 16.123 3.656 20.345 10.638 4.223 6.982 2.123 14.684-2.359 22.385z" fill="#b5ea44" fill-rule="evenodd"/></g></svg>