<svg width="670" height="169" viewBox="0 0 670 169" fill="none" xmlns="http://www.w3.org/2000/svg">
<rect x="0.64502" y="0.997223" width="669" height="168" fill="black"/>
<path d="M35.669 39.4372H47.045C48.869 39.4372 50.517 39.7092 51.989 40.2532C53.493 40.7652 54.773 41.5172 55.829 42.5092C56.885 43.5012 57.701 44.6852 58.277 46.0612C58.853 47.4372 59.141 48.9732 59.141 50.6692V62.7172C59.141 64.4132 58.853 65.9652 58.277 67.3732C57.701 68.7492 56.885 69.9332 55.829 70.9252C54.773 71.8852 53.493 72.6372 51.989 73.1812C50.517 73.7252 48.869 73.9972 47.045 73.9972H35.669V39.4372ZM42.869 67.2772H47.045C48.517 67.2772 49.701 66.8612 50.597 66.0292C51.493 65.1972 51.941 64.0932 51.941 62.7172V50.6692C51.941 49.3252 51.493 48.2372 50.597 47.4052C49.701 46.5732 48.517 46.1572 47.045 46.1572H42.869V67.2772ZM75.8263 74.4772C74.0023 74.4772 72.3383 74.2212 70.8343 73.7092C69.3623 73.1972 68.0983 72.4772 67.0423 71.5492C65.9863 70.5892 65.1703 69.4532 64.5943 68.1412C64.0183 66.7972 63.7303 65.3092 63.7303 63.6772V49.7092C63.7303 48.0772 64.0183 46.6052 64.5943 45.2932C65.1703 43.9812 65.9863 42.8612 67.0423 41.9332C68.0983 40.9732 69.3623 40.2372 70.8343 39.7252C72.3383 39.2132 74.0023 38.9572 75.8263 38.9572C77.6503 38.9572 79.2983 39.2132 80.7703 39.7252C82.2743 40.2372 83.5543 40.9732 84.6103 41.9332C85.6663 42.8612 86.4823 43.9812 87.0583 45.2932C87.6343 46.6052 87.9223 48.0772 87.9223 49.7092V63.6772C87.9223 65.2772 87.6183 66.7492 87.0103 68.0932C86.4343 69.4052 85.6183 70.5412 84.5623 71.5012C83.5063 72.4292 82.2263 73.1652 80.7223 73.7092C79.2503 74.2212 77.6183 74.4772 75.8263 74.4772ZM70.9303 63.6772C70.9303 65.0532 71.3623 66.1572 72.2263 66.9892C73.1223 67.7892 74.3223 68.1892 75.8263 68.1892C77.3303 68.1892 78.5143 67.7892 79.3783 66.9892C80.2743 66.1572 80.7223 65.0532 80.7223 63.6772V49.7092C80.7223 48.3332 80.2743 47.2452 79.3783 46.4452C78.5143 45.6132 77.3303 45.1972 75.8263 45.1972C74.3223 45.1972 73.1223 45.6132 72.2263 46.4452C71.3623 47.2452 70.9303 48.3332 70.9303 49.7092V63.6772ZM92.9915 39.4372H101.728L109.408 62.3332C109.568 62.7812 109.696 63.3252 109.792 63.9652C109.888 64.5732 109.968 65.1492 110.032 65.6932C110.096 66.3652 110.16 67.0532 110.224 67.7572H110.896C110.896 67.7572 110.848 67.4692 110.752 66.8932C110.688 66.3172 110.608 65.5972 110.512 64.7332C110.416 63.8692 110.32 62.9412 110.224 61.9492C110.128 60.9252 110.08 59.9972 110.08 59.1652V39.4372H116.224V73.9972H107.488L99.9515 51.1012C99.7915 50.5572 99.6475 49.9812 99.5195 49.3732C99.3915 48.7332 99.2955 48.1412 99.2315 47.5972C99.1675 46.9572 99.1195 46.3172 99.0875 45.6772H98.4155C98.5435 46.6372 98.6715 47.6132 98.7995 48.6052C98.8635 49.4372 98.9275 50.3492 98.9915 51.3412C99.0875 52.3332 99.1355 53.2932 99.1355 54.2212V73.9972H92.9915V39.4372ZM138.189 36.7492L131.949 51.6772H125.709L129.549 36.7492H138.189ZM149.45 46.1572V39.4372H174.89V46.1572H165.77V73.9972H158.57V46.1572H149.45ZM219.973 39.4372C221.861 39.4372 223.557 39.6932 225.061 40.2052C226.565 40.6852 227.845 41.3892 228.901 42.3172C229.957 43.2132 230.773 44.3172 231.349 45.6292C231.925 46.9092 232.213 48.3652 232.213 49.9972C232.213 52.2372 231.669 54.1572 230.581 55.7572C229.493 57.3572 227.989 58.5732 226.069 59.4052L232.693 73.9972H225.013L219.157 60.5572H215.605V73.9972H208.453V39.4372H219.973ZM215.605 55.0372H219.973C221.541 55.0372 222.773 54.6212 223.669 53.7892C224.565 52.9252 225.013 51.7732 225.013 50.3332C225.013 48.8292 224.549 47.6452 223.621 46.7812C222.725 45.8852 221.509 45.4372 219.973 45.4372H215.605V55.0372ZM237.954 73.9972V39.4372H259.794V45.6772H245.154V53.1652H258.114V59.4052H245.154V67.7572H259.794V73.9972H237.954ZM278.015 39.4372C279.903 39.4372 281.599 39.6932 283.103 40.2052C284.607 40.6852 285.887 41.4052 286.943 42.3652C287.999 43.2932 288.815 44.4292 289.391 45.7732C289.967 47.0852 290.255 48.5732 290.255 50.2372C290.255 51.8692 289.967 53.3572 289.391 54.7012C288.815 56.0452 287.999 57.1812 286.943 58.1092C285.887 59.0372 284.607 59.7572 283.103 60.2692C281.599 60.7812 279.903 61.0372 278.015 61.0372H273.119V73.9972H265.919V39.4372H278.015ZM273.119 55.0372H278.015C279.615 55.0372 280.847 54.6052 281.711 53.7412C282.607 52.8452 283.055 51.6772 283.055 50.2372C283.055 48.7972 282.607 47.6452 281.711 46.7812C280.847 45.8852 279.615 45.4372 278.015 45.4372H273.119V55.0372ZM295.516 73.9972V39.4372H317.356V45.6772H302.716V53.1652H315.676V59.4052H302.716V67.7572H317.356V73.9972H295.516ZM330.154 39.4372H339.754L348.778 73.9972H341.482L339.658 66.0772H330.01L328.186 73.9972H320.938L330.154 39.4372ZM338.314 60.4612L335.674 49.0852C335.578 48.6052 335.482 48.0932 335.386 47.5492C335.29 46.9732 335.21 46.4292 335.146 45.9172C335.082 45.3732 335.018 44.8132 334.954 44.2372H334.666C334.602 44.8132 334.522 45.3732 334.426 45.9172C334.362 46.4292 334.282 46.9732 334.186 47.5492C334.122 48.0932 334.026 48.6052 333.898 49.0852L331.306 60.4612H338.314ZM350.919 46.1572V39.4372H376.359V46.1572H367.239V73.9972H360.039V46.1572H350.919ZM415.057 39.4372L420.193 51.6772C420.449 52.2212 420.625 52.7492 420.721 53.2612C420.849 53.7732 420.945 54.2372 421.009 54.6532C421.073 55.1332 421.121 55.5812 421.153 55.9972H421.489C421.521 55.5812 421.569 55.1332 421.633 54.6532C421.697 54.2372 421.793 53.7732 421.921 53.2612C422.049 52.7492 422.225 52.2212 422.449 51.6772L427.393 39.4372H434.881L424.801 61.9972V73.9972H417.601V61.9972L407.521 39.4372H415.057ZM449.983 74.4772C448.159 74.4772 446.495 74.2212 444.991 73.7092C443.519 73.1972 442.255 72.4772 441.199 71.5492C440.143 70.5892 439.327 69.4532 438.751 68.1412C438.175 66.7972 437.887 65.3092 437.887 63.6772V49.7092C437.887 48.0772 438.175 46.6052 438.751 45.2932C439.327 43.9812 440.143 42.8612 441.199 41.9332C442.255 40.9732 443.519 40.2372 444.991 39.7252C446.495 39.2132 448.159 38.9572 449.983 38.9572C451.807 38.9572 453.455 39.2132 454.927 39.7252C456.431 40.2372 457.711 40.9732 458.767 41.9332C459.823 42.8612 460.639 43.9812 461.215 45.2932C461.791 46.6052 462.079 48.0772 462.079 49.7092V63.6772C462.079 65.2772 461.775 66.7492 461.167 68.0932C460.591 69.4052 459.775 70.5412 458.719 71.5012C457.663 72.4292 456.383 73.1652 454.879 73.7092C453.407 74.2212 451.775 74.4772 449.983 74.4772ZM445.087 63.6772C445.087 65.0532 445.519 66.1572 446.383 66.9892C447.279 67.7892 448.479 68.1892 449.983 68.1892C451.487 68.1892 452.671 67.7892 453.535 66.9892C454.431 66.1572 454.879 65.0532 454.879 63.6772V49.7092C454.879 48.3332 454.431 47.2452 453.535 46.4452C452.671 45.6132 451.487 45.1972 449.983 45.1972C448.479 45.1972 447.279 45.6132 446.383 46.4452C445.519 47.2452 445.087 48.3332 445.087 49.7092V63.6772ZM478.764 74.4772C477.004 74.4772 475.404 74.2372 473.964 73.7572C472.556 73.2452 471.34 72.5252 470.316 71.5972C469.324 70.6692 468.556 69.5492 468.012 68.2372C467.5 66.8932 467.244 65.3892 467.244 63.7252V39.4372H474.444V63.6772C474.444 65.1492 474.812 66.2852 475.548 67.0852C476.316 67.8532 477.388 68.2372 478.764 68.2372C480.108 68.2372 481.164 67.8532 481.932 67.0852C482.7 66.2852 483.084 65.1492 483.084 63.6772V39.4372H490.284V63.7252C490.284 65.3892 490.012 66.8932 489.468 68.2372C488.956 69.5492 488.188 70.6692 487.164 71.5972C486.172 72.5252 484.972 73.2452 483.564 73.7572C482.156 74.2372 480.556 74.4772 478.764 74.4772ZM507.785 39.4372C509.673 39.4372 511.369 39.6932 512.873 40.2052C514.377 40.6852 515.657 41.3892 516.713 42.3172C517.769 43.2132 518.585 44.3172 519.161 45.6292C519.737 46.9092 520.025 48.3652 520.025 49.9972C520.025 52.2372 519.481 54.1572 518.393 55.7572C517.305 57.3572 515.801 58.5732 513.881 59.4052L520.505 73.9972H512.825L506.969 60.5572H503.417V73.9972H496.265V39.4372H507.785ZM503.417 55.0372H507.785C509.353 55.0372 510.585 54.6212 511.481 53.7892C512.377 52.9252 512.825 51.7732 512.825 50.3332C512.825 48.8292 512.361 47.6452 511.433 46.7812C510.537 45.8852 509.321 45.4372 507.785 45.4372H503.417V55.0372ZM524.086 64.6372H531.286C531.542 67.0372 533.27 68.2372 536.47 68.2372C538.07 68.2372 539.286 67.9012 540.118 67.2292C540.95 66.5252 541.366 65.5972 541.366 64.4452C541.366 63.4212 541.03 62.5412 540.358 61.8052C539.718 61.0692 538.822 60.5732 537.67 60.3172L534.022 59.5012C530.886 58.7972 528.502 57.5492 526.87 55.7572C525.27 53.9332 524.47 51.6132 524.47 48.7972C524.47 47.3252 524.742 45.9812 525.286 44.7652C525.862 43.5492 526.662 42.5092 527.686 41.6452C528.71 40.7812 529.942 40.1092 531.382 39.6292C532.854 39.1492 534.502 38.9092 536.326 38.9092C539.75 38.9092 542.486 39.7572 544.534 41.4532C546.614 43.1492 547.766 45.5012 547.99 48.5092H540.79C540.662 47.4532 540.182 46.6372 539.35 46.0612C538.55 45.4532 537.478 45.1492 536.134 45.1492C534.726 45.1492 533.622 45.4852 532.822 46.1572C532.054 46.8292 531.67 47.6772 531.67 48.7012C531.67 49.5972 531.974 50.3812 532.582 51.0532C533.19 51.6932 534.07 52.1412 535.222 52.3972L539.062 53.2612C542.166 53.9652 544.518 55.2452 546.118 57.1012C547.75 58.9252 548.566 61.2612 548.566 64.1092C548.566 65.6452 548.278 67.0532 547.702 68.3332C547.126 69.5812 546.294 70.6692 545.206 71.5972C544.15 72.4932 542.87 73.1972 541.366 73.7092C539.862 74.2212 538.182 74.4772 536.326 74.4772C534.534 74.4772 532.902 74.2532 531.43 73.8052C529.958 73.3252 528.694 72.6692 527.638 71.8372C526.582 70.9732 525.75 69.9332 525.142 68.7172C524.534 67.5012 524.182 66.1412 524.086 64.6372ZM554.548 73.9972V39.4372H576.388V45.6772H561.748V53.1652H574.708V59.4052H561.748V67.7572H576.388V73.9972H554.548ZM591.249 39.4372V67.2772H605.409V73.9972H584.049V39.4372H591.249ZM611.63 39.4372H634.19V46.1572H618.734V53.4532H632.942V60.1732H618.83V73.9972H611.63V39.4372Z" fill="white"/>
<path d="M42.965 95.4372V108.973H46.613L52.373 95.4372H60.197L52.997 112.141L60.485 129.997H52.565L46.613 115.597H42.965V129.997H35.765V95.4372H42.965ZM65.2663 129.997V95.4372H87.1063V101.677H72.4663V109.165H85.4263V115.405H72.4663V123.757H87.1063V129.997H65.2663ZM94.0475 129.997V95.4372H115.888V101.677H101.248V109.165H114.208V115.405H101.248V123.757H115.888V129.997H94.0475ZM134.109 95.4372C135.997 95.4372 137.693 95.6932 139.197 96.2052C140.701 96.6852 141.981 97.4052 143.037 98.3652C144.093 99.2932 144.909 100.429 145.485 101.773C146.061 103.085 146.349 104.573 146.349 106.237C146.349 107.869 146.061 109.357 145.485 110.701C144.909 112.045 144.093 113.181 143.037 114.109C141.981 115.037 140.701 115.757 139.197 116.269C137.693 116.781 135.997 117.037 134.109 117.037H129.213V129.997H122.013V95.4372H134.109ZM129.213 111.037H134.109C135.709 111.037 136.941 110.605 137.805 109.741C138.701 108.845 139.149 107.677 139.149 106.237C139.149 104.797 138.701 103.645 137.805 102.781C136.941 101.885 135.709 101.437 134.109 101.437H129.213V111.037ZM180.151 101.677V95.4372H201.751V101.677H194.551V123.757H201.751V129.997H180.151V123.757H187.351V101.677H180.151ZM207.013 102.157V95.4372H232.453V102.157H223.333V129.997H216.133V102.157H207.013ZM265.055 120.637H272.255C272.511 123.037 274.239 124.237 277.439 124.237C279.039 124.237 280.255 123.901 281.087 123.229C281.919 122.525 282.335 121.597 282.335 120.445C282.335 119.421 281.999 118.541 281.327 117.805C280.687 117.069 279.791 116.573 278.639 116.317L274.991 115.501C271.855 114.797 269.471 113.549 267.839 111.757C266.239 109.933 265.439 107.613 265.439 104.797C265.439 103.325 265.711 101.981 266.255 100.765C266.831 99.5492 267.631 98.5092 268.655 97.6452C269.679 96.7812 270.911 96.1092 272.351 95.6292C273.823 95.1492 275.471 94.9092 277.295 94.9092C280.719 94.9092 283.455 95.7572 285.503 97.4532C287.583 99.1492 288.735 101.501 288.959 104.509H281.759C281.631 103.453 281.151 102.637 280.319 102.061C279.519 101.453 278.447 101.149 277.103 101.149C275.695 101.149 274.591 101.485 273.791 102.157C273.023 102.829 272.639 103.677 272.639 104.701C272.639 105.597 272.943 106.381 273.551 107.053C274.159 107.693 275.039 108.141 276.191 108.397L280.031 109.261C283.135 109.965 285.487 111.245 287.087 113.101C288.719 114.925 289.535 117.261 289.535 120.109C289.535 121.645 289.247 123.053 288.671 124.333C288.095 125.581 287.263 126.669 286.175 127.597C285.119 128.493 283.839 129.197 282.335 129.709C280.831 130.221 279.151 130.477 277.295 130.477C275.503 130.477 273.871 130.253 272.399 129.805C270.927 129.325 269.663 128.669 268.607 127.837C267.551 126.973 266.719 125.933 266.111 124.717C265.503 123.501 265.151 122.141 265.055 120.637ZM295.276 101.677V95.4372H316.876V101.677H309.676V123.757H316.876V129.997H295.276V123.757H302.476V101.677H295.276ZM330.73 95.4372L333.994 105.901C334.154 106.381 334.282 106.925 334.378 107.533C334.474 108.109 334.554 108.653 334.618 109.165C334.714 109.805 334.778 110.429 334.81 111.037H335.194C335.258 110.429 335.322 109.805 335.386 109.165C335.45 108.653 335.53 108.109 335.626 107.533C335.722 106.925 335.834 106.381 335.962 105.901L338.89 95.4372H347.338V129.997H341.05V108.877C341.05 107.981 341.082 107.021 341.146 105.997C341.242 104.973 341.354 104.013 341.482 103.117C341.578 102.061 341.706 101.021 341.866 99.9972H341.146C340.922 100.989 340.714 101.949 340.522 102.877C340.362 103.645 340.186 104.445 339.994 105.277C339.802 106.077 339.642 106.717 339.514 107.197L337.498 114.877H332.314L330.058 107.197C329.93 106.717 329.77 106.077 329.578 105.277C329.386 104.477 329.21 103.677 329.05 102.877C328.858 101.981 328.666 101.021 328.474 99.9972H327.802C327.962 101.021 328.106 102.061 328.234 103.117C328.362 104.013 328.458 104.973 328.522 105.997C328.618 107.021 328.666 107.981 328.666 108.877V129.997H322.378V95.4372H330.73ZM364.359 95.4372C366.247 95.4372 367.943 95.6932 369.447 96.2052C370.951 96.6852 372.231 97.4052 373.287 98.3652C374.343 99.2932 375.159 100.429 375.735 101.773C376.311 103.085 376.599 104.573 376.599 106.237C376.599 107.869 376.311 109.357 375.735 110.701C375.159 112.045 374.343 113.181 373.287 114.109C372.231 115.037 370.951 115.757 369.447 116.269C367.943 116.781 366.247 117.037 364.359 117.037H359.463V129.997H352.263V95.4372H364.359ZM359.463 111.037H364.359C365.959 111.037 367.191 110.605 368.055 109.741C368.951 108.845 369.399 107.677 369.399 106.237C369.399 104.797 368.951 103.645 368.055 102.781C367.191 101.885 365.959 101.437 364.359 101.437H359.463V111.037ZM389.78 95.4372V123.277H403.94V129.997H382.58V95.4372H389.78ZM410.641 129.997V95.4372H432.481V101.677H417.841V109.165H430.801V115.405H417.841V123.757H432.481V129.997H410.641ZM466.524 120.637H473.724C473.98 123.037 475.708 124.237 478.908 124.237C480.508 124.237 481.724 123.901 482.556 123.229C483.388 122.525 483.804 121.597 483.804 120.445C483.804 119.421 483.468 118.541 482.796 117.805C482.156 117.069 481.26 116.573 480.108 116.317L476.46 115.501C473.324 114.797 470.94 113.549 469.308 111.757C467.708 109.933 466.908 107.613 466.908 104.797C466.908 103.325 467.18 101.981 467.724 100.765C468.3 99.5492 469.1 98.5092 470.124 97.6452C471.148 96.7812 472.38 96.1092 473.82 95.6292C475.292 95.1492 476.94 94.9092 478.764 94.9092C482.188 94.9092 484.924 95.7572 486.972 97.4532C489.052 99.1492 490.204 101.501 490.428 104.509H483.228C483.1 103.453 482.62 102.637 481.788 102.061C480.988 101.453 479.916 101.149 478.572 101.149C477.164 101.149 476.06 101.485 475.26 102.157C474.492 102.829 474.108 103.677 474.108 104.701C474.108 105.597 474.412 106.381 475.02 107.053C475.628 107.693 476.508 108.141 477.66 108.397L481.5 109.261C484.604 109.965 486.956 111.245 488.556 113.101C490.188 114.925 491.004 117.261 491.004 120.109C491.004 121.645 490.716 123.053 490.14 124.333C489.564 125.581 488.732 126.669 487.644 127.597C486.588 128.493 485.308 129.197 483.804 129.709C482.3 130.221 480.62 130.477 478.764 130.477C476.972 130.477 475.34 130.253 473.868 129.805C472.396 129.325 471.132 128.669 470.076 127.837C469.02 126.973 468.188 125.933 467.58 124.717C466.972 123.501 466.62 122.141 466.524 120.637ZM494.825 102.157V95.4372H520.265V102.157H511.145V129.997H503.945V102.157H494.825ZM536.326 130.477C534.566 130.477 532.966 130.237 531.526 129.757C530.118 129.245 528.902 128.525 527.878 127.597C526.886 126.669 526.118 125.549 525.574 124.237C525.062 122.893 524.806 121.389 524.806 119.725V95.4372H532.006V119.677C532.006 121.149 532.374 122.285 533.11 123.085C533.878 123.853 534.95 124.237 536.326 124.237C537.67 124.237 538.726 123.853 539.494 123.085C540.262 122.285 540.646 121.149 540.646 119.677V95.4372H547.846V119.725C547.846 121.389 547.574 122.893 547.03 124.237C546.518 125.549 545.75 126.669 544.726 127.597C543.734 128.525 542.534 129.245 541.126 129.757C539.718 130.237 538.118 130.477 536.326 130.477ZM565.828 95.4372C567.716 95.4372 569.412 95.6932 570.916 96.2052C572.42 96.6852 573.7 97.4052 574.756 98.3652C575.812 99.2932 576.628 100.429 577.204 101.773C577.78 103.085 578.068 104.573 578.068 106.237C578.068 107.869 577.78 109.357 577.204 110.701C576.628 112.045 575.812 113.181 574.756 114.109C573.7 115.037 572.42 115.757 570.916 116.269C569.412 116.781 567.716 117.037 565.828 117.037H560.932V129.997H553.732V95.4372H565.828ZM560.932 111.037H565.828C567.428 111.037 568.66 110.605 569.524 109.741C570.42 108.845 570.868 107.677 570.868 106.237C570.868 104.797 570.42 103.645 569.524 102.781C568.66 101.885 567.428 101.437 565.828 101.437H560.932V111.037ZM583.089 101.677V95.4372H604.689V101.677H597.489V123.757H604.689V129.997H583.089V123.757H590.289V101.677H583.089ZM611.294 95.4372H622.67C624.494 95.4372 626.142 95.7092 627.614 96.2532C629.118 96.7652 630.398 97.5172 631.454 98.5092C632.51 99.5012 633.326 100.685 633.902 102.061C634.478 103.437 634.766 104.973 634.766 106.669V118.717C634.766 120.413 634.478 121.965 633.902 123.373C633.326 124.749 632.51 125.933 631.454 126.925C630.398 127.885 629.118 128.637 627.614 129.181C626.142 129.725 624.494 129.997 622.67 129.997H611.294V95.4372ZM618.494 123.277H622.67C624.142 123.277 625.326 122.861 626.222 122.029C627.118 121.197 627.566 120.093 627.566 118.717V106.669C627.566 105.325 627.118 104.237 626.222 103.405C625.326 102.573 624.142 102.157 622.67 102.157H618.494V123.277Z" fill="white"/>
</svg>
