<svg width="669" height="168" viewBox="0 0 669 168" fill="none" xmlns="http://www.w3.org/2000/svg">
<path d="M0 0L669 0V168H0L0 0Z" fill="#00FF00"/>
<path d="M35.024 38.44H46.4C48.224 38.44 49.872 38.712 51.344 39.256C52.848 39.768 54.128 40.52 55.184 41.512C56.24 42.504 57.056 43.688 57.632 45.064C58.208 46.44 58.496 47.976 58.496 49.672V61.72C58.496 63.416 58.208 64.968 57.632 66.376C57.056 67.752 56.24 68.936 55.184 69.928C54.128 70.888 52.848 71.64 51.344 72.184C49.872 72.728 48.224 73 46.4 73H35.024V38.44ZM42.224 66.28H46.4C47.872 66.28 49.056 65.864 49.952 65.032C50.848 64.2 51.296 63.096 51.296 61.72V49.672C51.296 48.328 50.848 47.24 49.952 46.408C49.056 45.576 47.872 45.16 46.4 45.16H42.224V66.28ZM75.1813 73.48C73.3573 73.48 71.6933 73.224 70.1893 72.712C68.7173 72.2 67.4533 71.48 66.3973 70.552C65.3413 69.592 64.5253 68.456 63.9492 67.144C63.3733 65.8 63.0853 64.312 63.0853 62.68V48.712C63.0853 47.08 63.3733 45.608 63.9492 44.296C64.5253 42.984 65.3413 41.864 66.3973 40.936C67.4533 39.976 68.7173 39.24 70.1893 38.728C71.6933 38.216 73.3573 37.96 75.1813 37.96C77.0053 37.96 78.6533 38.216 80.1253 38.728C81.6293 39.24 82.9093 39.976 83.9653 40.936C85.0213 41.864 85.8373 42.984 86.4133 44.296C86.9893 45.608 87.2773 47.08 87.2773 48.712V62.68C87.2773 64.28 86.9733 65.752 86.3653 67.096C85.7893 68.408 84.9733 69.544 83.9173 70.504C82.8613 71.432 81.5813 72.168 80.0773 72.712C78.6053 73.224 76.9733 73.48 75.1813 73.48ZM70.2853 62.68C70.2853 64.056 70.7173 65.16 71.5813 65.992C72.4773 66.792 73.6773 67.192 75.1813 67.192C76.6853 67.192 77.8693 66.792 78.7333 65.992C79.6293 65.16 80.0773 64.056 80.0773 62.68V48.712C80.0773 47.336 79.6293 46.248 78.7333 45.448C77.8693 44.616 76.6853 44.2 75.1813 44.2C73.6773 44.2 72.4773 44.616 71.5813 45.448C70.7173 46.248 70.2853 47.336 70.2853 48.712V62.68ZM92.3465 38.44H101.083L108.763 61.336C108.923 61.784 109.051 62.328 109.147 62.968C109.243 63.576 109.323 64.152 109.387 64.696C109.451 65.368 109.515 66.056 109.579 66.76H110.251C110.251 66.76 110.203 66.472 110.107 65.896C110.043 65.32 109.963 64.6 109.867 63.736C109.771 62.872 109.675 61.944 109.579 60.952C109.483 59.928 109.435 59 109.435 58.168V38.44H115.579V73H106.843L99.3065 50.104C99.1465 49.56 99.0025 48.984 98.8745 48.376C98.7465 47.736 98.6505 47.144 98.5865 46.6C98.5225 45.96 98.4745 45.32 98.4425 44.68H97.7705C97.8985 45.64 98.0265 46.616 98.1545 47.608C98.2185 48.44 98.2825 49.352 98.3465 50.344C98.4425 51.336 98.4905 52.296 98.4905 53.224V73H92.3465V38.44ZM137.544 35.752L131.304 50.68H125.064L128.904 35.752H137.544ZM148.805 45.16V38.44H174.245V45.16H165.125V73H157.925V45.16H148.805ZM219.328 38.44C221.216 38.44 222.912 38.696 224.416 39.208C225.92 39.688 227.2 40.392 228.256 41.32C229.312 42.216 230.128 43.32 230.704 44.632C231.28 45.912 231.568 47.368 231.568 49C231.568 51.24 231.024 53.16 229.936 54.76C228.848 56.36 227.344 57.576 225.424 58.408L232.048 73H224.368L218.512 59.56H214.96V73H207.808V38.44H219.328ZM214.96 54.04H219.328C220.896 54.04 222.128 53.624 223.024 52.792C223.92 51.928 224.368 50.776 224.368 49.336C224.368 47.832 223.904 46.648 222.976 45.784C222.08 44.888 220.864 44.44 219.328 44.44H214.96V54.04ZM237.309 73V38.44H259.149V44.68H244.509V52.168H257.469V58.408H244.509V66.76H259.149V73H237.309ZM277.37 38.44C279.258 38.44 280.954 38.696 282.458 39.208C283.962 39.688 285.242 40.408 286.298 41.368C287.354 42.296 288.17 43.432 288.746 44.776C289.322 46.088 289.61 47.576 289.61 49.24C289.61 50.872 289.322 52.36 288.746 53.704C288.17 55.048 287.354 56.184 286.298 57.112C285.242 58.04 283.962 58.76 282.458 59.272C280.954 59.784 279.258 60.04 277.37 60.04H272.474V73H265.274V38.44H277.37ZM272.474 54.04H277.37C278.97 54.04 280.202 53.608 281.066 52.744C281.962 51.848 282.41 50.68 282.41 49.24C282.41 47.8 281.962 46.648 281.066 45.784C280.202 44.888 278.97 44.44 277.37 44.44H272.474V54.04ZM294.871 73V38.44H316.711V44.68H302.071V52.168H315.031V58.408H302.071V66.76H316.711V73H294.871ZM329.509 38.44H339.109L348.133 73H340.837L339.013 65.08H329.365L327.541 73H320.293L329.509 38.44ZM337.669 59.464L335.029 48.088C334.933 47.608 334.837 47.096 334.741 46.552C334.645 45.976 334.565 45.432 334.501 44.92C334.437 44.376 334.373 43.816 334.309 43.24H334.021C333.957 43.816 333.877 44.376 333.781 44.92C333.717 45.432 333.637 45.976 333.541 46.552C333.477 47.096 333.381 47.608 333.253 48.088L330.661 59.464H337.669ZM350.274 45.16V38.44H375.714V45.16H366.594V73H359.394V45.16L350.274 45.16ZM414.412 38.44L419.548 50.68C419.804 51.224 419.98 51.752 420.076 52.264C420.204 52.776 420.3 53.24 420.364 53.656C420.428 54.136 420.476 54.584 420.508 55H420.844C420.876 54.584 420.924 54.136 420.988 53.656C421.052 53.24 421.148 52.776 421.276 52.264C421.404 51.752 421.58 51.224 421.804 50.68L426.748 38.44H434.236L424.156 61V73H416.956V61L406.876 38.44H414.412ZM449.338 73.48C447.514 73.48 445.85 73.224 444.346 72.712C442.874 72.2 441.61 71.48 440.554 70.552C439.498 69.592 438.682 68.456 438.105 67.144C437.53 65.8 437.242 64.312 437.242 62.68V48.712C437.242 47.08 437.53 45.608 438.105 44.296C438.682 42.984 439.498 41.864 440.554 40.936C441.61 39.976 442.874 39.24 444.346 38.728C445.85 38.216 447.514 37.96 449.338 37.96C451.162 37.96 452.81 38.216 454.282 38.728C455.786 39.24 457.066 39.976 458.122 40.936C459.178 41.864 459.994 42.984 460.57 44.296C461.146 45.608 461.434 47.08 461.434 48.712V62.68C461.434 64.28 461.13 65.752 460.522 67.096C459.946 68.408 459.13 69.544 458.074 70.504C457.018 71.432 455.738 72.168 454.234 72.712C452.762 73.224 451.13 73.48 449.338 73.48ZM444.442 62.68C444.442 64.056 444.874 65.16 445.738 65.992C446.634 66.792 447.834 67.192 449.338 67.192C450.842 67.192 452.026 66.792 452.89 65.992C453.786 65.16 454.234 64.056 454.234 62.68V48.712C454.234 47.336 453.786 46.248 452.89 45.448C452.026 44.616 450.842 44.2 449.338 44.2C447.834 44.2 446.634 44.616 445.738 45.448C444.874 46.248 444.442 47.336 444.442 48.712V62.68ZM478.119 73.48C476.359 73.48 474.759 73.24 473.319 72.76C471.911 72.248 470.695 71.528 469.671 70.6C468.679 69.672 467.911 68.552 467.367 67.24C466.855 65.896 466.599 64.392 466.599 62.728V38.44H473.799V62.68C473.799 64.152 474.167 65.288 474.903 66.088C475.671 66.856 476.743 67.24 478.119 67.24C479.463 67.24 480.519 66.856 481.287 66.088C482.055 65.288 482.439 64.152 482.439 62.68V38.44H489.639V62.728C489.639 64.392 489.367 65.896 488.823 67.24C488.311 68.552 487.543 69.672 486.519 70.6C485.527 71.528 484.327 72.248 482.919 72.76C481.511 73.24 479.911 73.48 478.119 73.48ZM507.14 38.44C509.028 38.44 510.724 38.696 512.228 39.208C513.732 39.688 515.012 40.392 516.068 41.32C517.124 42.216 517.94 43.32 518.516 44.632C519.092 45.912 519.38 47.368 519.38 49C519.38 51.24 518.836 53.16 517.748 54.76C516.66 56.36 515.156 57.576 513.236 58.408L519.86 73H512.18L506.324 59.56H502.772V73H495.62V38.44H507.14ZM502.772 54.04H507.14C508.708 54.04 509.94 53.624 510.836 52.792C511.732 51.928 512.18 50.776 512.18 49.336C512.18 47.832 511.716 46.648 510.788 45.784C509.892 44.888 508.676 44.44 507.14 44.44H502.772V54.04ZM523.441 63.64H530.641C530.897 66.04 532.625 67.24 535.825 67.24C537.425 67.24 538.641 66.904 539.473 66.232C540.305 65.528 540.721 64.6 540.721 63.448C540.721 62.424 540.385 61.544 539.713 60.808C539.073 60.072 538.177 59.576 537.025 59.32L533.377 58.504C530.241 57.8 527.857 56.552 526.225 54.76C524.625 52.936 523.825 50.616 523.825 47.8C523.825 46.328 524.097 44.984 524.641 43.768C525.217 42.552 526.017 41.512 527.041 40.648C528.065 39.784 529.297 39.112 530.737 38.632C532.209 38.152 533.857 37.912 535.681 37.912C539.105 37.912 541.841 38.76 543.889 40.456C545.969 42.152 547.121 44.504 547.345 47.512H540.145C540.017 46.456 539.537 45.64 538.705 45.064C537.905 44.456 536.833 44.152 535.489 44.152C534.081 44.152 532.977 44.488 532.177 45.16C531.409 45.832 531.025 46.68 531.025 47.704C531.025 48.6 531.329 49.384 531.937 50.056C532.545 50.696 533.425 51.144 534.577 51.4L538.417 52.264C541.521 52.968 543.873 54.248 545.473 56.104C547.105 57.928 547.921 60.264 547.921 63.112C547.921 64.648 547.633 66.056 547.057 67.336C546.481 68.584 545.649 69.672 544.561 70.6C543.505 71.496 542.225 72.2 540.721 72.712C539.217 73.224 537.537 73.48 535.681 73.48C533.889 73.48 532.257 73.256 530.785 72.808C529.313 72.328 528.049 71.672 526.993 70.84C525.937 69.976 525.105 68.936 524.497 67.72C523.889 66.504 523.537 65.144 523.441 63.64ZM553.903 73V38.44H575.743V44.68H561.103V52.168H574.062V58.408H561.103V66.76H575.743V73H553.903ZM590.604 38.44V66.28H604.764V73H583.404V38.44H590.604ZM610.985 38.44H633.545V45.16H618.089V52.456H632.297V59.176H618.185V73H610.985V38.44Z" fill="#1A1A1A"/>
<path d="M42.32 94.44V107.976H45.968L51.728 94.44H59.552L52.352 111.144L59.84 129H51.92L45.968 114.6H42.32V129H35.12V94.44H42.32ZM64.6213 129V94.44H86.4613V100.68H71.8213V108.168H84.7812V114.408H71.8213V122.76H86.4613V129H64.6213ZM93.4025 129V94.44H115.243V100.68H100.603V108.168H113.562V114.408H100.603V122.76H115.243V129H93.4025ZM133.464 94.44C135.352 94.44 137.048 94.696 138.552 95.208C140.056 95.688 141.336 96.408 142.392 97.368C143.448 98.296 144.264 99.432 144.84 100.776C145.416 102.088 145.704 103.576 145.704 105.24C145.704 106.872 145.416 108.36 144.84 109.704C144.264 111.048 143.448 112.184 142.392 113.112C141.336 114.04 140.056 114.76 138.552 115.272C137.048 115.784 135.352 116.04 133.464 116.04H128.568V129H121.368V94.44H133.464ZM128.568 110.04H133.464C135.064 110.04 136.296 109.608 137.16 108.744C138.056 107.848 138.504 106.68 138.504 105.24C138.504 103.8 138.056 102.648 137.16 101.784C136.296 100.888 135.064 100.44 133.464 100.44H128.568V110.04ZM179.506 100.68V94.44H201.106V100.68H193.906V122.76H201.106V129H179.506V122.76H186.706V100.68H179.506ZM206.368 101.16V94.44H231.807V101.16H222.688V129H215.488V101.16H206.368ZM264.41 119.64H271.61C271.866 122.04 273.594 123.24 276.794 123.24C278.394 123.24 279.61 122.904 280.442 122.232C281.274 121.528 281.69 120.6 281.69 119.448C281.69 118.424 281.354 117.544 280.682 116.808C280.042 116.072 279.146 115.576 277.994 115.32L274.346 114.504C271.21 113.8 268.826 112.552 267.194 110.76C265.594 108.936 264.794 106.616 264.794 103.8C264.794 102.328 265.066 100.984 265.61 99.768C266.186 98.552 266.986 97.512 268.01 96.648C269.034 95.784 270.266 95.112 271.706 94.632C273.178 94.152 274.826 93.912 276.65 93.912C280.074 93.912 282.81 94.76 284.858 96.456C286.938 98.152 288.09 100.504 288.314 103.512H281.114C280.986 102.456 280.506 101.64 279.674 101.064C278.874 100.456 277.802 100.152 276.458 100.152C275.05 100.152 273.946 100.488 273.146 101.16C272.378 101.832 271.994 102.68 271.994 103.704C271.994 104.6 272.298 105.384 272.906 106.056C273.514 106.696 274.394 107.144 275.546 107.4L279.386 108.264C282.49 108.968 284.842 110.248 286.442 112.104C288.074 113.928 288.89 116.264 288.89 119.112C288.89 120.648 288.602 122.056 288.026 123.336C287.45 124.584 286.618 125.672 285.53 126.6C284.474 127.496 283.194 128.2 281.69 128.712C280.186 129.224 278.506 129.48 276.65 129.48C274.858 129.48 273.226 129.256 271.754 128.808C270.282 128.328 269.018 127.672 267.962 126.84C266.906 125.976 266.074 124.936 265.466 123.72C264.858 122.504 264.506 121.144 264.41 119.64ZM294.631 100.68V94.44H316.231V100.68H309.031V122.76H316.231V129H294.631V122.76H301.831V100.68H294.631ZM330.085 94.44L333.349 104.904C333.509 105.384 333.637 105.928 333.733 106.536C333.829 107.112 333.909 107.656 333.973 108.168C334.069 108.808 334.133 109.432 334.165 110.04H334.549C334.613 109.432 334.677 108.808 334.741 108.168C334.805 107.656 334.885 107.112 334.981 106.536C335.077 105.928 335.189 105.384 335.317 104.904L338.245 94.44H346.693V129H340.405V107.88C340.405 106.984 340.437 106.024 340.501 105C340.597 103.976 340.709 103.016 340.837 102.12C340.933 101.064 341.061 100.024 341.221 99H340.501C340.277 99.992 340.069 100.952 339.877 101.88C339.717 102.648 339.541 103.448 339.349 104.28C339.157 105.08 338.997 105.72 338.869 106.2L336.853 113.88H331.669L329.413 106.2C329.285 105.72 329.125 105.08 328.933 104.28C328.741 103.48 328.565 102.68 328.405 101.88C328.213 100.984 328.021 100.024 327.829 99H327.157C327.317 100.024 327.461 101.064 327.589 102.12C327.717 103.016 327.813 103.976 327.877 105C327.973 106.024 328.021 106.984 328.021 107.88V129H321.733V94.44H330.085ZM363.714 94.44C365.602 94.44 367.298 94.696 368.802 95.208C370.306 95.688 371.586 96.408 372.642 97.368C373.698 98.296 374.514 99.432 375.09 100.776C375.666 102.088 375.954 103.576 375.954 105.24C375.954 106.872 375.666 108.36 375.09 109.704C374.514 111.048 373.698 112.184 372.642 113.112C371.586 114.04 370.306 114.76 368.802 115.272C367.298 115.784 365.602 116.04 363.714 116.04H358.818V129H351.618V94.44H363.714ZM358.818 110.04H363.714C365.314 110.04 366.546 109.608 367.41 108.744C368.306 107.848 368.754 106.68 368.754 105.24C368.754 103.8 368.306 102.648 367.41 101.784C366.546 100.888 365.314 100.44 363.714 100.44H358.818V110.04ZM389.135 94.44V122.28H403.295V129H381.935V94.44H389.135ZM409.996 129V94.44H431.836V100.68H417.196V108.168H430.156V114.408H417.196V122.76H431.836V129H409.996ZM465.879 119.64H473.079C473.335 122.04 475.063 123.24 478.263 123.24C479.863 123.24 481.079 122.904 481.911 122.232C482.743 121.528 483.159 120.6 483.159 119.448C483.159 118.424 482.823 117.544 482.151 116.808C481.511 116.072 480.615 115.576 479.463 115.32L475.815 114.504C472.679 113.8 470.295 112.552 468.663 110.76C467.063 108.936 466.263 106.616 466.263 103.8C466.263 102.328 466.535 100.984 467.079 99.768C467.655 98.552 468.455 97.512 469.479 96.648C470.503 95.784 471.735 95.112 473.175 94.632C474.647 94.152 476.295 93.912 478.119 93.912C481.543 93.912 484.279 94.76 486.327 96.456C488.407 98.152 489.559 100.504 489.783 103.512H482.583C482.455 102.456 481.975 101.64 481.143 101.064C480.343 100.456 479.271 100.152 477.927 100.152C476.519 100.152 475.415 100.488 474.615 101.16C473.847 101.832 473.463 102.68 473.463 103.704C473.463 104.6 473.767 105.384 474.375 106.056C474.983 106.696 475.863 107.144 477.015 107.4L480.855 108.264C483.959 108.968 486.311 110.248 487.911 112.104C489.543 113.928 490.359 116.264 490.359 119.112C490.359 120.648 490.071 122.056 489.495 123.336C488.919 124.584 488.087 125.672 486.999 126.6C485.943 127.496 484.663 128.2 483.159 128.712C481.655 129.224 479.975 129.48 478.119 129.48C476.327 129.48 474.695 129.256 473.223 128.808C471.751 128.328 470.487 127.672 469.431 126.84C468.375 125.976 467.543 124.936 466.935 123.72C466.327 122.504 465.975 121.144 465.879 119.64ZM494.18 101.16V94.44H519.62V101.16H510.5V129H503.3V101.16H494.18ZM535.681 129.48C533.921 129.48 532.321 129.24 530.881 128.76C529.473 128.248 528.257 127.528 527.233 126.6C526.241 125.672 525.473 124.552 524.929 123.24C524.417 121.896 524.161 120.392 524.161 118.728V94.44H531.361V118.68C531.361 120.152 531.729 121.288 532.465 122.088C533.233 122.856 534.305 123.24 535.681 123.24C537.025 123.24 538.081 122.856 538.849 122.088C539.617 121.288 540.001 120.152 540.001 118.68V94.44H547.201V118.728C547.201 120.392 546.929 121.896 546.385 123.24C545.873 124.552 545.105 125.672 544.081 126.6C543.089 127.528 541.889 128.248 540.481 128.76C539.073 129.24 537.473 129.48 535.681 129.48ZM565.183 94.44C567.071 94.44 568.767 94.696 570.271 95.208C571.775 95.688 573.055 96.408 574.111 97.368C575.167 98.296 575.983 99.432 576.559 100.776C577.135 102.088 577.423 103.576 577.423 105.24C577.423 106.872 577.135 108.36 576.559 109.704C575.983 111.048 575.167 112.184 574.111 113.112C573.055 114.04 571.775 114.76 570.271 115.272C568.767 115.784 567.071 116.04 565.183 116.04H560.287V129H553.087V94.44H565.183ZM560.287 110.04H565.183C566.783 110.04 568.015 109.608 568.879 108.744C569.775 107.848 570.223 106.68 570.223 105.24C570.223 103.8 569.775 102.648 568.879 101.784C568.015 100.888 566.783 100.44 565.183 100.44H560.287V110.04ZM582.444 100.68V94.44H604.044V100.68H596.844V122.76H604.044V129H582.444V122.76H589.644V100.68H582.444ZM610.649 94.44H622.025C623.849 94.44 625.497 94.712 626.969 95.256C628.473 95.768 629.753 96.52 630.809 97.512C631.865 98.504 632.681 99.688 633.257 101.064C633.833 102.44 634.121 103.976 634.121 105.672V117.72C634.121 119.416 633.833 120.968 633.257 122.376C632.681 123.752 631.865 124.936 630.809 125.928C629.753 126.888 628.473 127.64 626.969 128.184C625.497 128.728 623.849 129 622.025 129H610.649V94.44ZM617.849 122.28H622.025C623.497 122.28 624.681 121.864 625.577 121.032C626.473 120.2 626.921 119.096 626.921 117.72V105.672C626.921 104.328 626.473 103.24 625.577 102.408C624.681 101.576 623.497 101.16 622.025 101.16H617.849V122.28Z" fill="#1A1A1A"/>
<path d="M0 0L0 -8H-8V0L0 0ZM669 0L677 0V-8H669V0ZM669 168V176H677V168H669ZM0 168H-8V176H0L0 168ZM0 8L669 8V-8L0 -8L0 8ZM661 0V168H677V0L661 0ZM669 160H0L0 176H669V160ZM8 168L8 0L-8 0L-8 168H8Z" fill="#1A1A1A"/>
</svg>
