<svg fill="none" height="422" viewBox="0 0 750 422" width="750" xmlns="http://www.w3.org/2000/svg" xmlns:xlink="http://www.w3.org/1999/xlink"><clipPath id="a"><path d="m0 0h750v422h-750z"/></clipPath><g clip-path="url(#a)"><path d="m0 0h750v422h-750z" fill="#000"/><path d="m554.042 220.858-12.906 7.787-7.477 27.902-10.888-2.917 22.125-82.574 10.889 2.917-10.941 40.834 47.634-31.002 13.158 3.526-42.268 27.759 22.694 55.499-13.044-3.495zm53.231 55.414-10.889-2.918 22.126-82.574 10.888 2.918zm54.155-24.938c-8.62-5.187-14.544-10.3-17.773-15.339-3.181-5.067-4.001-10.474-2.461-16.221 1.742-6.503 5.771-11.177 12.085-14.024 6.362-2.874 13.703-3.197 22.02-.968 5.672 1.519 10.425 3.968 14.261 7.346 3.874 3.389 6.504 7.335 7.891 11.84 1.424 4.515 1.523 9.06.297 13.635l-10.945-2.933c1.337-4.991.798-9.33-1.618-13.016-2.406-3.725-6.502-6.362-12.287-7.912-5.368-1.438-9.884-1.372-13.547.2-3.615 1.543-5.985 4.414-7.109 8.61-.902 3.365-.249 6.6 1.958 9.704 2.256 3.076 6.547 6.495 12.874 10.257 6.364 3.772 11.161 7.347 14.389 10.724 3.276 3.35 5.425 6.823 6.447 10.42 1.06 3.607 1.028 7.509-.097 11.705-1.793 6.693-5.84 11.362-12.142 14.01-6.291 2.609-13.804 2.744-22.538.404-5.671-1.52-10.676-4.015-15.013-7.488-4.328-3.509-7.327-7.514-8.999-12.015-1.633-4.49-1.807-9.135-.52-13.937l10.946 2.933c-1.338 4.99-.563 9.433 2.325 13.327 2.935 3.866 7.484 6.625 13.647 8.276 5.747 1.54 10.466 1.548 14.156.025 3.691-1.524 6.078-4.308 7.162-8.354s.502-7.545-1.746-10.497c-2.238-2.991-6.792-6.562-13.663-10.712zm68.963 18.478c-8.62-5.187-14.544-10.299-17.773-15.339-3.181-5.066-4.001-10.473-2.461-16.22 1.742-6.503 5.771-11.178 12.085-14.025 6.362-2.874 13.702-3.197 22.02-.968 5.672 1.52 10.425 3.969 14.261 7.347 3.874 3.388 6.504 7.335 7.891 11.84 1.424 4.515 1.523 9.059.297 13.634l-10.945-2.933c1.337-4.99.798-9.329-1.619-13.016-2.406-3.724-6.501-6.361-12.286-7.911-5.368-1.439-9.884-1.372-13.547.199-3.615 1.544-5.985 4.414-7.11 8.611-.901 3.365-.248 6.599 1.959 9.703 2.256 3.077 6.547 6.496 12.874 10.258 6.364 3.772 11.16 7.346 14.389 10.724 3.276 3.35 5.425 6.823 6.447 10.42 1.06 3.606 1.027 7.508-.097 11.705-1.793 6.692-5.841 11.362-12.142 14.009-6.292 2.61-13.804 2.745-22.538.405-5.671-1.52-10.676-4.016-15.013-7.488-4.328-3.51-7.327-7.515-8.999-12.015-1.633-4.49-1.807-9.136-.52-13.938l10.946 2.933c-1.338 4.991-.563 9.433 2.325 13.327 2.935 3.867 7.484 6.625 13.647 8.277 5.747 1.539 10.465 1.548 14.156.024 3.691-1.523 6.078-4.308 7.162-8.353 1.084-4.046.502-7.545-1.746-10.498-2.238-2.99-6.792-6.561-13.663-10.712z" fill="#ed293b"/><path d="m293.881 192.299 22.126-82.574 23.309 6.246c7.184 1.925 13.11 5.214 17.779 9.87 4.669 4.655 7.712 10.312 9.128 16.973 1.455 6.671 1.183 13.811-.816 21.421l-1.413 5.274c-2.087 7.789-5.428 14.208-10.023 19.258-4.557 5.06-10.054 8.409-16.49 10.048-6.399 1.649-13.314 1.518-20.744-.392zm30.614-70.696-17.339 64.71 11.456 3.069c8.393 2.249 15.614 1.388 21.663-2.583 6.086-3.962 10.421-10.763 13.004-20.404l1.292-4.821c2.513-9.376 2.251-17.247-.785-23.612-2.988-6.393-8.517-10.711-16.588-12.955zm84.844 65.831-19.396-5.198-8.951 33.404-10.945-2.933 22.125-82.573 27.336 7.324c9.301 2.492 15.879 6.524 19.735 12.096 3.894 5.582 4.757 12.419 2.589 20.51-1.378 5.142-3.977 9.247-7.798 12.316-3.783 3.079-8.405 4.9-13.864 5.464l10.005 40.245-.183.681-11.683-3.131zm-17.01-14.101 16.73 4.482c5.407 1.449 10.073 1.2 13.998-.747 3.964-1.937 6.573-5.249 7.83-9.937 1.367-5.104.885-9.428-1.448-12.971-2.296-3.532-6.312-6.088-12.049-7.665l-16.673-4.468zm82.822 23.468 32.659-35.682 12.363 3.312-42.344 44.151-8.251 30.795-10.889-2.918 8.251-30.795-14.595-59.407 12.476 3.343z" fill="#979797"/><g fill="#ed293b"><path d="m374.997 344.283 38.358 10.277-10.279 38.36-38.358-10.278z" opacity=".55"/><path d="m413.362 354.576 38.342 10.274-10.274 38.341-38.342-10.273z" opacity=".75"/><path d="m451.698 364.835 38.361 10.278-10.278 38.36-38.362-10.279z" opacity=".69"/><path d="m490.052 375.112 38.36 10.278-10.279 38.36-38.359-10.279z" opacity=".77"/><path d="m528.416 385.405 38.343 10.274-10.274 38.341-38.343-10.274z" opacity=".67"/><path d="m566.757 395.665 38.362 10.278-10.279 38.36-38.361-10.279z" opacity=".53"/><path d="m346.947 295.557 38.359 10.279-10.281 38.369-38.359-10.279z" opacity=".51"/><path d="m385.31 305.856 38.344 10.275-10.276 38.348-38.343-10.274z" opacity=".85"/><path d="m423.65 316.11 38.359 10.278-10.281 38.369-38.359-10.278z" opacity=".99"/><path d="m462 326.386 38.362 10.279-10.281 38.369-38.362-10.279z" opacity=".9"/><path d="m500.368 336.684 38.344 10.274-10.276 38.351-38.344-10.274z" opacity=".9"/><path d="m538.708 346.942 38.358 10.278-10.28 38.365-38.358-10.278z" opacity=".97"/><path d="m577.075 357.222 38.345 10.275-10.275 38.348-38.345-10.274z" opacity=".87"/><path d="m615.411 367.494 38.362 10.279-10.28 38.365-38.362-10.279z" opacity=".49"/><path d="m318.87 246.932 38.359 10.279-10.277 38.356-38.36-10.279z" opacity=".45"/><path d="m357.234 257.229 38.343 10.274-10.272 38.338-38.344-10.274z" opacity=".81"/><path d="m395.575 267.485 38.357 10.278-10.277 38.356-38.358-10.278z" opacity=".81"/><path d="m433.926 277.758 38.36 10.278-10.279 38.36-38.359-10.279z" opacity=".95"/><path d="m549.036 308.586 38.342 10.273-10.275 38.345-38.341-10.273z" opacity=".93"/><path d="m587.374 318.845 38.363 10.279-10.278 38.36-38.363-10.28z" opacity=".91"/><path d="m625.743 329.125 38.343 10.275-10.275 38.345-38.343-10.274z" opacity=".83"/><path d="m664.077 339.397 38.363 10.279-10.278 38.36-38.363-10.279z" opacity=".47"/><path d="m290.751 198.288 38.36 10.278-10.28 38.364-38.359-10.279z" opacity=".43"/><path d="m329.113 208.586 38.344 10.275-10.275 38.345-38.343-10.274z" opacity=".71"/><path d="m367.454 218.84 38.362 10.279-10.28 38.364-38.361-10.279z" opacity=".77"/><path d="m405.805 229.116 38.361 10.279-10.279 38.364-38.362-10.279z" opacity=".89"/><path d="m597.658 280.514 38.349 10.275-10.275 38.345-38.348-10.275z" opacity=".91"/><path d="m636 290.772 38.362 10.279-10.279 38.359-38.361-10.279z" opacity=".79"/><path d="m674.371 301.053 38.345 10.275-10.274 38.341-38.345-10.274z" opacity=".79"/><path d="m712.707 311.325 38.361 10.279-10.278 38.36-38.362-10.279z" opacity=".41"/><path d="m665.167 28.3354 38.363 10.2794-10.278 38.3597-38.363-10.2794z" opacity=".54"/><path d="m626.816 18.0594 38.342 10.2736-10.274 38.3433-38.342-10.2736z" opacity=".7"/><path d="m567.887 84.5689 38.358 10.278-10.279 38.3611-38.358-10.278z" opacity=".74"/><path d="m529.535 74.2924 38.359 10.2785-10.279 38.3611-38.359-10.278z" opacity=".68"/><path d="m511.759-12.7701 38.344 10.27406-10.275 38.34334-38.343-10.2741z" opacity=".72"/><path d="m473.407-23.0466 38.359 10.2784-10.278 38.3579-38.359-10.2784z" opacity=".52"/><path d="m693.221 77.0537 38.36 10.2785-10.279 38.3598-38.36-10.279z" opacity=".56"/><path d="m654.867 66.7768 38.345 10.2745-10.274 38.3437-38.345-10.275z" opacity=".76"/><path d="m616.516 56.5007 38.36 10.2785-10.279 38.3598-38.359-10.2786z" opacity=".84"/><path d="m578.164 46.2242 38.359 10.2785-10.279 38.3615-38.359-10.2784z" opacity=".58"/><path d="m539.809 35.9473 38.344 10.274-10.274 38.3434-38.344-10.2741z" opacity=".5"/><path d="m501.459 25.6712 38.358 10.278-10.278 38.3579-38.358-10.278z" opacity=".82"/><path d="m463.102 15.4093 38.344 10.274-10.274 38.3434-38.344-10.2741z" opacity=".66"/><path d="m424.754 5.11823 38.363 10.27947-10.278 38.3578-38.363-10.2794z" opacity=".48"/><path d="m721.294 125.684 38.362 10.279-10.278 38.36-38.362-10.279z" opacity=".44"/><path d="m682.944 115.408 38.34 10.273-10.274 38.342-38.34-10.273z" opacity=".71"/><path d="m644.618 105.113 38.365 10.28-10.279 38.36-38.365-10.28z" opacity=".88"/><path d="m606.239 94.855 38.36 10.278-10.28 38.364-38.359-10.279z" opacity=".96"/><path d="m491.143 64.0481 38.341 10.2736-10.273 38.3413-38.342-10.273z" opacity=".94"/><path d="m452.788 53.7711 38.362 10.2789-10.278 38.356-38.361-10.2789z" opacity=".86"/><path d="m414.434 43.5096 38.343 10.2741-10.273 38.3415-38.344-10.2741z" opacity=".86"/><path d="m376.087 33.219 38.358 10.278-10.277 38.3561-38.358-10.278z" opacity=".46"/><path d="m749.415 174.327 38.362 10.279-10.278 38.358-38.362-10.279z" opacity=".42"/><path d="m711.061 164.05 38.347 10.275-10.273 38.342-38.347-10.276z" opacity=".86"/><path d="m672.709 153.773 38.361 10.279-10.278 38.358-38.361-10.279z" opacity=".92"/><path d="m634.358 143.497 38.363 10.28-10.278 38.358-38.363-10.28z" opacity=".98"/><path d="m442.512 92.1217 38.346 10.2743-10.275 38.344-38.345-10.275z"/><path d="m404.162 81.8457 38.361 10.2789-10.278 38.3574-38.361-10.278z" opacity=".9"/><path d="m365.808 71.5824 38.339 10.2731-10.274 38.3455-38.34-10.273z" opacity=".84"/><path d="m327.459 61.2932 38.359 10.2784-10.278 38.3574-38.359-10.278z" opacity=".4"/></g></g></svg>